%TF.GenerationSoftware,KiCad,Pcbnew,7.0.6*%
%TF.CreationDate,2023-09-15T11:23:22-07:00*%
%TF.ProjectId,dmxRx,646d7852-782e-46b6-9963-61645f706362,rev?*%
%TF.SameCoordinates,Original*%
%TF.FileFunction,Copper,L2,Inr*%
%TF.FilePolarity,Positive*%
%FSLAX46Y46*%
G04 Gerber Fmt 4.6, Leading zero omitted, Abs format (unit mm)*
G04 Created by KiCad (PCBNEW 7.0.6) date 2023-09-15 11:23:22*
%MOMM*%
%LPD*%
G01*
G04 APERTURE LIST*
%TA.AperFunction,ComponentPad*%
%ADD10R,1.700000X1.700000*%
%TD*%
%TA.AperFunction,ComponentPad*%
%ADD11O,1.700000X1.700000*%
%TD*%
%TA.AperFunction,ComponentPad*%
%ADD12C,2.000000*%
%TD*%
%TA.AperFunction,ComponentPad*%
%ADD13C,1.600000*%
%TD*%
%TA.AperFunction,ComponentPad*%
%ADD14R,1.600000X1.600000*%
%TD*%
%TA.AperFunction,ComponentPad*%
%ADD15O,1.600000X1.600000*%
%TD*%
%TA.AperFunction,ViaPad*%
%ADD16C,0.800000*%
%TD*%
%TA.AperFunction,ViaPad*%
%ADD17C,0.600000*%
%TD*%
G04 APERTURE END LIST*
D10*
%TO.N,MCLR*%
%TO.C,J1*%
X152633200Y-89700000D03*
D11*
%TO.N,+5V*%
X152226800Y-92240000D03*
%TO.N,GND*%
X152633200Y-94780000D03*
%TO.N,ICSPDAT*%
X152226800Y-97320000D03*
%TO.N,ICSPCLK*%
X152633200Y-99860000D03*
%TD*%
D12*
%TO.N,DOUT*%
%TO.C,TP5*%
X190700000Y-94900000D03*
%TD*%
D13*
%TO.N,+48V*%
%TO.C,CON2*%
X195600000Y-117040000D03*
X197380000Y-116020000D03*
X195600000Y-115000000D03*
%TO.N,GND*%
X197380000Y-113980000D03*
X195600000Y-112960000D03*
X197380000Y-111940000D03*
%TO.N,D-*%
X195600000Y-110920000D03*
%TO.N,D+*%
X197380000Y-109900000D03*
%TD*%
D12*
%TO.N,VDD*%
%TO.C,TP12*%
X192200000Y-101500000D03*
%TD*%
D14*
%TO.N,GND*%
%TO.C,SW1*%
X196475000Y-98900000D03*
D15*
X199015000Y-98900000D03*
X201555000Y-98900000D03*
%TO.N,Net-(U1A-RD3)*%
X201555000Y-91280000D03*
%TO.N,Net-(U1A-RD2)*%
X199015000Y-91280000D03*
%TO.N,Net-(U1A-RD1)*%
X196475000Y-91280000D03*
%TD*%
D12*
%TO.N,Net-(U1A-RB1)*%
%TO.C,TP2*%
X162900000Y-95600000D03*
%TD*%
D10*
%TO.N,+5V*%
%TO.C,J2*%
X175705000Y-82300000D03*
D11*
%TO.N,DOUT*%
X178245000Y-82300000D03*
%TO.N,GND*%
X180785000Y-82300000D03*
%TD*%
D12*
%TO.N,Net-(U1A-RB4)*%
%TO.C,TP4*%
X158800000Y-95600000D03*
%TD*%
%TO.N,GND*%
%TO.C,TP7*%
X167600000Y-105900000D03*
%TD*%
%TO.N,SW*%
%TO.C,TP11*%
X152900000Y-123700000D03*
%TD*%
%TO.N,Net-(U1A-RB3)*%
%TO.C,TP3*%
X167100000Y-95600000D03*
%TD*%
D13*
%TO.N,+48V*%
%TO.C,CON1*%
X159600000Y-109200000D03*
X157820000Y-110220000D03*
X159600000Y-111240000D03*
%TO.N,GND*%
X157820000Y-112260000D03*
X159600000Y-113280000D03*
X157820000Y-114300000D03*
%TO.N,D-*%
X159600000Y-115320000D03*
%TO.N,D+*%
X157820000Y-116340000D03*
%TD*%
D12*
%TO.N,DMX DATA IN*%
%TO.C,TP6*%
X190600000Y-90300000D03*
%TD*%
%TO.N,+5V*%
%TO.C,TP8*%
X171700000Y-106000000D03*
%TD*%
%TO.N,Net-(U1A-RC0)*%
%TO.C,TP10*%
X163000000Y-90300000D03*
%TD*%
%TO.N,VIN*%
%TO.C,TP9*%
X157500000Y-123800000D03*
%TD*%
%TO.N,Net-(U1A-RB0)*%
%TO.C,TP1*%
X167200000Y-90400000D03*
%TD*%
D16*
%TO.N,+5V*%
X194900000Y-128400000D03*
X198900000Y-125400000D03*
X190900000Y-127400000D03*
X186900000Y-130400000D03*
X196900000Y-131400000D03*
X198900000Y-126400000D03*
X185900000Y-129400000D03*
X193900000Y-133400000D03*
X185900000Y-131400000D03*
X189900000Y-130400000D03*
X191900000Y-127400000D03*
X196900000Y-129400000D03*
X203000000Y-125400000D03*
X195900000Y-127400000D03*
X190900000Y-131400000D03*
X189900000Y-132400000D03*
X196900000Y-133400000D03*
X186900000Y-129400000D03*
X185900000Y-130400000D03*
X187900000Y-133400000D03*
X195900000Y-131400000D03*
X202000000Y-125400000D03*
X193900000Y-132400000D03*
X190900000Y-128400000D03*
X187900000Y-132400000D03*
X196900000Y-127400000D03*
X185900000Y-127400000D03*
X192900000Y-132400000D03*
X194900000Y-130400000D03*
X199900000Y-126400000D03*
X196900000Y-126400000D03*
X194900000Y-131400000D03*
X193900000Y-127400000D03*
X195900000Y-126400000D03*
X202000000Y-126400000D03*
X185900000Y-132400000D03*
X169800000Y-104080500D03*
X188900000Y-131400000D03*
X186900000Y-132400000D03*
X191900000Y-132400000D03*
X186900000Y-133400000D03*
X189900000Y-127400000D03*
X191900000Y-130400000D03*
X186900000Y-127400000D03*
X190900000Y-130400000D03*
X190900000Y-133400000D03*
X191900000Y-129400000D03*
X192900000Y-133400000D03*
X187900000Y-128400000D03*
X188900000Y-133400000D03*
X169900000Y-91800000D03*
X192900000Y-128400000D03*
X195900000Y-128400000D03*
X185900000Y-133400000D03*
X190900000Y-132400000D03*
X188900000Y-127400000D03*
X194900000Y-126400000D03*
X195900000Y-130400000D03*
X192900000Y-129400000D03*
X188900000Y-129400000D03*
X187900000Y-131400000D03*
X187900000Y-130400000D03*
X194900000Y-133400000D03*
X189900000Y-128400000D03*
X181100000Y-101600000D03*
X170400000Y-86100000D03*
X189900000Y-133400000D03*
X191900000Y-128400000D03*
X193900000Y-131400000D03*
X188900000Y-128400000D03*
X195900000Y-133400000D03*
X190900000Y-129400000D03*
X187900000Y-127400000D03*
X191900000Y-131400000D03*
X186400000Y-92200000D03*
X195900000Y-129400000D03*
X188900000Y-132400000D03*
X189900000Y-129400000D03*
X194900000Y-125400000D03*
X196900000Y-132400000D03*
X192900000Y-130400000D03*
X200900000Y-125400000D03*
X199900000Y-125400000D03*
X203000000Y-126400000D03*
X200900000Y-126400000D03*
X187900000Y-129400000D03*
X189900000Y-131400000D03*
X194900000Y-127400000D03*
X196900000Y-128400000D03*
X188900000Y-130400000D03*
X196900000Y-125400000D03*
X186900000Y-128400000D03*
X194900000Y-129400000D03*
X197900000Y-126400000D03*
X193900000Y-125400000D03*
X195900000Y-125400000D03*
X195900000Y-132400000D03*
X191900000Y-133400000D03*
X193900000Y-129400000D03*
X192900000Y-127400000D03*
X192900000Y-131400000D03*
X196900000Y-130400000D03*
X185900000Y-128400000D03*
X193900000Y-130400000D03*
X193900000Y-128400000D03*
X186900000Y-131400000D03*
X193900000Y-126400000D03*
X162300000Y-102600000D03*
X194900000Y-132400000D03*
X197900000Y-125400000D03*
%TO.N,D+*%
X187300000Y-105200000D03*
%TO.N,D-*%
X186700000Y-104000000D03*
%TO.N,MCLR*%
X171900000Y-86100000D03*
X178400000Y-98700000D03*
%TO.N,DOUT*%
X179900000Y-98100000D03*
%TO.N,DMX DATA IN*%
X173900000Y-102800000D03*
X184575354Y-89525354D03*
%TO.N,VIN*%
X167900000Y-121900000D03*
%TO.N,SW*%
X174000000Y-126800000D03*
X180700000Y-120793099D03*
X166758899Y-118541101D03*
X184600000Y-116300000D03*
%TO.N,GND*%
X169100000Y-133500000D03*
X166100000Y-129400000D03*
X167100000Y-133500000D03*
X162100000Y-129400000D03*
X191400000Y-120100000D03*
X168100000Y-130400000D03*
X159100000Y-129400000D03*
X166100000Y-133500000D03*
X159100000Y-131400000D03*
X166100000Y-131400000D03*
X161100000Y-132400000D03*
X168100000Y-129400000D03*
X176300000Y-89800000D03*
X159100000Y-130400000D03*
X160100000Y-129400000D03*
X188000000Y-120400000D03*
X178300000Y-92800000D03*
X176300000Y-93900000D03*
X164100000Y-132400000D03*
D17*
X175200000Y-119100000D03*
D16*
X177300000Y-92800000D03*
X179300000Y-93900000D03*
X158100000Y-132400000D03*
X161100000Y-133500000D03*
X167100000Y-132400000D03*
D17*
X178000000Y-119100000D03*
D16*
X165100000Y-129400000D03*
X181030127Y-118930127D03*
X171100000Y-133500000D03*
X161100000Y-130400000D03*
X166100000Y-130400000D03*
D17*
X178000000Y-119800000D03*
D16*
X189000000Y-122400000D03*
X170100000Y-129400000D03*
X190500000Y-119200000D03*
X189000000Y-119400000D03*
X167100000Y-129400000D03*
X188600000Y-112800000D03*
D17*
X175900000Y-119800000D03*
D16*
X158100000Y-131400000D03*
X172800000Y-111700000D03*
X177300000Y-89800000D03*
X160100000Y-133500000D03*
X186000000Y-121400000D03*
X161100000Y-127400000D03*
X160100000Y-127400000D03*
X162100000Y-133500000D03*
X160100000Y-130400000D03*
D17*
X174500000Y-118400000D03*
D16*
X164100000Y-131400000D03*
X189000000Y-118400000D03*
X190500000Y-121000000D03*
X176300000Y-92800000D03*
X187200000Y-109000000D03*
X167100000Y-130400000D03*
X179300000Y-91800000D03*
X180300000Y-90800000D03*
X180300000Y-89800000D03*
X160100000Y-131400000D03*
X188000000Y-121400000D03*
D17*
X178000000Y-118400000D03*
D16*
X171100000Y-130400000D03*
X191000000Y-122400000D03*
X177200000Y-113100000D03*
D17*
X175900000Y-118400000D03*
D16*
X165100000Y-132400000D03*
D17*
X178900000Y-122800000D03*
D16*
X164100000Y-133500000D03*
D17*
X176600000Y-119100000D03*
D16*
X180600000Y-108000000D03*
X159100000Y-133500000D03*
X159100000Y-127400000D03*
D17*
X177300000Y-119100000D03*
D16*
X190000000Y-122400000D03*
X162100000Y-131400000D03*
D17*
X174500000Y-119100000D03*
D16*
X180300000Y-92800000D03*
X179300000Y-90800000D03*
X170100000Y-130400000D03*
X165100000Y-130400000D03*
X189000000Y-121400000D03*
D17*
X178900000Y-121600000D03*
D16*
X192000000Y-122400000D03*
X163100000Y-129400000D03*
X167100000Y-131400000D03*
X163100000Y-133500000D03*
X163100000Y-131400000D03*
X191400000Y-121000000D03*
X187000000Y-121400000D03*
D17*
X174500000Y-119800000D03*
D16*
X186000000Y-118400000D03*
X165340000Y-103910000D03*
X180300000Y-91800000D03*
X162100000Y-132400000D03*
X175000000Y-112100000D03*
X192300000Y-121000000D03*
X177300000Y-90800000D03*
X158100000Y-129400000D03*
D17*
X176600000Y-118400000D03*
D16*
X161100000Y-128400000D03*
X171100000Y-129400000D03*
X176300000Y-91800000D03*
D17*
X175900000Y-119100000D03*
D16*
X172100000Y-130400000D03*
X165100000Y-133500000D03*
X158100000Y-127400000D03*
X165100000Y-131400000D03*
X172000000Y-118700000D03*
D17*
X177300000Y-119800000D03*
D16*
X178300000Y-91800000D03*
X160100000Y-132400000D03*
X168100000Y-133500000D03*
X179300000Y-89800000D03*
X188000000Y-118400000D03*
X178300000Y-89800000D03*
X158100000Y-130400000D03*
D17*
X177300000Y-118400000D03*
D16*
X166100000Y-132400000D03*
X169100000Y-129400000D03*
X164100000Y-130400000D03*
X176266759Y-116148648D03*
X172100000Y-133500000D03*
D17*
X178900000Y-122200000D03*
D16*
X160100000Y-128400000D03*
X169100000Y-130400000D03*
X176300000Y-90800000D03*
X190500000Y-120100000D03*
X178300000Y-90800000D03*
X187000000Y-120400000D03*
X162100000Y-130400000D03*
X161100000Y-131400000D03*
X159100000Y-132400000D03*
X159100000Y-128400000D03*
X188000000Y-119400000D03*
X189000000Y-120400000D03*
X163100000Y-130400000D03*
X186000000Y-120400000D03*
X186000000Y-119400000D03*
X164100000Y-129400000D03*
X177300000Y-93900000D03*
X163100000Y-132400000D03*
X178300000Y-93900000D03*
X187000000Y-118400000D03*
X187000000Y-119400000D03*
X180300000Y-93900000D03*
D17*
X176600000Y-119800000D03*
X175200000Y-118400000D03*
D16*
X179300000Y-92800000D03*
X177300000Y-91800000D03*
X170100000Y-133500000D03*
X158100000Y-128400000D03*
X172100000Y-129400000D03*
D17*
X175200000Y-119800000D03*
D16*
X158100000Y-133500000D03*
X161100000Y-129400000D03*
%TO.N,VDD*%
X176100000Y-114900000D03*
X179000000Y-116000000D03*
X168119873Y-114019873D03*
%TO.N,Net-(U1A-RC0)*%
X186400000Y-88000000D03*
%TO.N,Net-(U2A-FREQ)*%
X186264500Y-111188502D03*
X180500000Y-116664500D03*
%TO.N,Net-(U2A-EN)*%
X180900000Y-117800000D03*
X186100000Y-115000000D03*
%TD*%
%TA.AperFunction,Conductor*%
%TO.N,GND*%
G36*
X198687359Y-98661955D02*
G01*
X198629835Y-98774852D01*
X198610014Y-98900000D01*
X198629835Y-99025148D01*
X198687359Y-99138045D01*
X198699314Y-99150000D01*
X196790686Y-99150000D01*
X196802641Y-99138045D01*
X196860165Y-99025148D01*
X196879986Y-98900000D01*
X196860165Y-98774852D01*
X196802641Y-98661955D01*
X196790686Y-98650000D01*
X198699314Y-98650000D01*
X198687359Y-98661955D01*
G37*
%TD.AperFunction*%
%TA.AperFunction,Conductor*%
G36*
X201227359Y-98661955D02*
G01*
X201169835Y-98774852D01*
X201150014Y-98900000D01*
X201169835Y-99025148D01*
X201227359Y-99138045D01*
X201239314Y-99150000D01*
X199330686Y-99150000D01*
X199342641Y-99138045D01*
X199400165Y-99025148D01*
X199419986Y-98900000D01*
X199400165Y-98774852D01*
X199342641Y-98661955D01*
X199330686Y-98650000D01*
X201239314Y-98650000D01*
X201227359Y-98661955D01*
G37*
%TD.AperFunction*%
%TA.AperFunction,Conductor*%
G36*
X201001423Y-80000566D02*
G01*
X201040986Y-80002394D01*
X201172950Y-80008495D01*
X201372549Y-80018302D01*
X201378048Y-80018819D01*
X201563357Y-80044668D01*
X201749828Y-80072329D01*
X201754871Y-80073294D01*
X201939341Y-80116681D01*
X202120221Y-80161989D01*
X202124797Y-80163327D01*
X202305568Y-80223916D01*
X202480339Y-80286450D01*
X202484471Y-80288100D01*
X202542986Y-80313936D01*
X202659474Y-80365370D01*
X202826973Y-80444592D01*
X202830601Y-80446457D01*
X202998128Y-80539770D01*
X202998142Y-80539778D01*
X203156964Y-80634972D01*
X203160119Y-80636996D01*
X203318603Y-80745559D01*
X203467377Y-80855897D01*
X203470001Y-80857957D01*
X203618027Y-80980876D01*
X203755321Y-81105314D01*
X203757514Y-81107402D01*
X203892596Y-81242484D01*
X203894687Y-81244680D01*
X204019129Y-81381980D01*
X204142034Y-81529989D01*
X204144109Y-81532632D01*
X204254443Y-81681400D01*
X204363002Y-81839879D01*
X204365032Y-81843044D01*
X204460221Y-82001857D01*
X204553527Y-82169371D01*
X204555410Y-82173034D01*
X204634638Y-82340547D01*
X204711899Y-82515527D01*
X204713558Y-82519685D01*
X204776093Y-82694459D01*
X204836662Y-82875173D01*
X204838018Y-82879812D01*
X204883317Y-83060654D01*
X204926696Y-83245090D01*
X204927672Y-83250189D01*
X204955337Y-83436689D01*
X204981177Y-83621933D01*
X204981697Y-83627459D01*
X204991512Y-83827238D01*
X204999434Y-83998575D01*
X204999500Y-84001439D01*
X204999500Y-130998560D01*
X204999434Y-131001424D01*
X204991512Y-131172761D01*
X204981697Y-131372539D01*
X204981177Y-131378065D01*
X204955337Y-131563310D01*
X204927672Y-131749809D01*
X204926696Y-131754908D01*
X204883317Y-131939345D01*
X204838018Y-132120186D01*
X204836662Y-132124825D01*
X204776093Y-132305540D01*
X204713557Y-132480314D01*
X204711899Y-132484470D01*
X204634638Y-132659452D01*
X204555410Y-132826964D01*
X204553527Y-132830627D01*
X204460221Y-132998142D01*
X204365032Y-133156954D01*
X204363002Y-133160118D01*
X204254437Y-133318608D01*
X204144121Y-133467350D01*
X204142021Y-133470025D01*
X204019132Y-133618016D01*
X203894695Y-133755310D01*
X203892596Y-133757514D01*
X203757514Y-133892596D01*
X203755310Y-133894695D01*
X203618016Y-134019132D01*
X203470025Y-134142021D01*
X203467350Y-134144121D01*
X203318608Y-134254437D01*
X203160118Y-134363002D01*
X203156954Y-134365032D01*
X202998142Y-134460221D01*
X202830627Y-134553527D01*
X202826964Y-134555410D01*
X202659452Y-134634638D01*
X202484470Y-134711899D01*
X202480314Y-134713557D01*
X202305540Y-134776093D01*
X202124825Y-134836662D01*
X202120186Y-134838018D01*
X201939345Y-134883317D01*
X201754908Y-134926696D01*
X201749809Y-134927672D01*
X201563310Y-134955337D01*
X201378065Y-134981177D01*
X201372539Y-134981697D01*
X201172761Y-134991512D01*
X201001424Y-134999434D01*
X200998560Y-134999500D01*
X154001440Y-134999500D01*
X153998576Y-134999434D01*
X153827238Y-134991512D01*
X153627459Y-134981697D01*
X153621933Y-134981177D01*
X153436689Y-134955337D01*
X153250189Y-134927672D01*
X153245090Y-134926696D01*
X153060654Y-134883317D01*
X152879812Y-134838018D01*
X152875173Y-134836662D01*
X152694459Y-134776093D01*
X152519685Y-134713558D01*
X152515527Y-134711899D01*
X152340547Y-134634638D01*
X152173034Y-134555410D01*
X152169371Y-134553527D01*
X152001857Y-134460221D01*
X151843044Y-134365032D01*
X151839879Y-134363002D01*
X151730371Y-134287989D01*
X151681392Y-134254437D01*
X151532632Y-134144109D01*
X151529989Y-134142034D01*
X151381980Y-134019129D01*
X151300372Y-133945164D01*
X151244680Y-133894687D01*
X151242484Y-133892596D01*
X151107402Y-133757514D01*
X151105314Y-133755321D01*
X150980867Y-133618016D01*
X150857957Y-133470001D01*
X150855897Y-133467377D01*
X150805927Y-133400000D01*
X185354836Y-133400000D01*
X185373411Y-133541097D01*
X185373413Y-133541102D01*
X185427871Y-133672577D01*
X185427871Y-133672578D01*
X185427873Y-133672581D01*
X185427874Y-133672582D01*
X185514511Y-133785489D01*
X185627418Y-133872126D01*
X185627421Y-133872127D01*
X185627422Y-133872128D01*
X185676837Y-133892596D01*
X185758901Y-133926588D01*
X185829450Y-133935876D01*
X185899999Y-133945164D01*
X185900000Y-133945164D01*
X185900001Y-133945164D01*
X185947032Y-133938972D01*
X186041099Y-133926588D01*
X186172577Y-133872128D01*
X186172578Y-133872128D01*
X186172578Y-133872127D01*
X186172582Y-133872126D01*
X186285489Y-133785489D01*
X186301624Y-133764460D01*
X186358052Y-133723258D01*
X186427798Y-133719103D01*
X186488718Y-133753315D01*
X186498372Y-133764456D01*
X186514511Y-133785489D01*
X186627418Y-133872126D01*
X186627421Y-133872127D01*
X186627422Y-133872128D01*
X186676837Y-133892596D01*
X186758901Y-133926588D01*
X186829450Y-133935876D01*
X186899999Y-133945164D01*
X186900000Y-133945164D01*
X186900001Y-133945164D01*
X186947032Y-133938972D01*
X187041099Y-133926588D01*
X187172577Y-133872128D01*
X187172578Y-133872128D01*
X187172578Y-133872127D01*
X187172582Y-133872126D01*
X187285489Y-133785489D01*
X187301624Y-133764460D01*
X187358052Y-133723258D01*
X187427798Y-133719103D01*
X187488718Y-133753315D01*
X187498372Y-133764456D01*
X187514511Y-133785489D01*
X187627418Y-133872126D01*
X187627421Y-133872127D01*
X187627422Y-133872128D01*
X187676837Y-133892596D01*
X187758901Y-133926588D01*
X187829450Y-133935876D01*
X187899999Y-133945164D01*
X187900000Y-133945164D01*
X187900001Y-133945164D01*
X187947032Y-133938972D01*
X188041099Y-133926588D01*
X188172577Y-133872128D01*
X188172578Y-133872128D01*
X188172578Y-133872127D01*
X188172582Y-133872126D01*
X188285489Y-133785489D01*
X188301624Y-133764460D01*
X188358052Y-133723258D01*
X188427798Y-133719103D01*
X188488718Y-133753315D01*
X188498372Y-133764456D01*
X188514511Y-133785489D01*
X188627418Y-133872126D01*
X188627421Y-133872127D01*
X188627422Y-133872128D01*
X188676837Y-133892596D01*
X188758901Y-133926588D01*
X188829450Y-133935876D01*
X188899999Y-133945164D01*
X188900000Y-133945164D01*
X188900001Y-133945164D01*
X188947032Y-133938972D01*
X189041099Y-133926588D01*
X189172577Y-133872128D01*
X189172578Y-133872128D01*
X189172578Y-133872127D01*
X189172582Y-133872126D01*
X189285489Y-133785489D01*
X189301624Y-133764460D01*
X189358052Y-133723258D01*
X189427798Y-133719103D01*
X189488718Y-133753315D01*
X189498372Y-133764456D01*
X189514511Y-133785489D01*
X189627418Y-133872126D01*
X189627421Y-133872127D01*
X189627422Y-133872128D01*
X189676837Y-133892596D01*
X189758901Y-133926588D01*
X189829450Y-133935876D01*
X189899999Y-133945164D01*
X189900000Y-133945164D01*
X189900001Y-133945164D01*
X189947032Y-133938972D01*
X190041099Y-133926588D01*
X190172577Y-133872128D01*
X190172578Y-133872128D01*
X190172578Y-133872127D01*
X190172582Y-133872126D01*
X190285489Y-133785489D01*
X190301624Y-133764460D01*
X190358052Y-133723258D01*
X190427798Y-133719103D01*
X190488718Y-133753315D01*
X190498372Y-133764456D01*
X190514511Y-133785489D01*
X190627418Y-133872126D01*
X190627421Y-133872127D01*
X190627422Y-133872128D01*
X190676837Y-133892596D01*
X190758901Y-133926588D01*
X190829450Y-133935876D01*
X190899999Y-133945164D01*
X190900000Y-133945164D01*
X190900001Y-133945164D01*
X190947032Y-133938972D01*
X191041099Y-133926588D01*
X191172577Y-133872128D01*
X191172578Y-133872128D01*
X191172578Y-133872127D01*
X191172582Y-133872126D01*
X191285489Y-133785489D01*
X191301624Y-133764460D01*
X191358052Y-133723258D01*
X191427798Y-133719103D01*
X191488718Y-133753315D01*
X191498372Y-133764456D01*
X191514511Y-133785489D01*
X191627418Y-133872126D01*
X191627421Y-133872127D01*
X191627422Y-133872128D01*
X191676837Y-133892596D01*
X191758901Y-133926588D01*
X191829450Y-133935876D01*
X191899999Y-133945164D01*
X191900000Y-133945164D01*
X191900001Y-133945164D01*
X191947032Y-133938972D01*
X192041099Y-133926588D01*
X192172577Y-133872128D01*
X192172578Y-133872128D01*
X192172578Y-133872127D01*
X192172582Y-133872126D01*
X192285489Y-133785489D01*
X192301624Y-133764460D01*
X192358052Y-133723258D01*
X192427798Y-133719103D01*
X192488718Y-133753315D01*
X192498372Y-133764456D01*
X192514511Y-133785489D01*
X192627418Y-133872126D01*
X192627421Y-133872127D01*
X192627422Y-133872128D01*
X192676837Y-133892596D01*
X192758901Y-133926588D01*
X192829450Y-133935876D01*
X192899999Y-133945164D01*
X192900000Y-133945164D01*
X192900001Y-133945164D01*
X192947032Y-133938972D01*
X193041099Y-133926588D01*
X193172577Y-133872128D01*
X193172578Y-133872128D01*
X193172578Y-133872127D01*
X193172582Y-133872126D01*
X193285489Y-133785489D01*
X193301624Y-133764460D01*
X193358052Y-133723258D01*
X193427798Y-133719103D01*
X193488718Y-133753315D01*
X193498372Y-133764456D01*
X193514511Y-133785489D01*
X193627418Y-133872126D01*
X193627421Y-133872127D01*
X193627422Y-133872128D01*
X193676837Y-133892596D01*
X193758901Y-133926588D01*
X193829450Y-133935876D01*
X193899999Y-133945164D01*
X193900000Y-133945164D01*
X193900001Y-133945164D01*
X193947032Y-133938972D01*
X194041099Y-133926588D01*
X194172577Y-133872128D01*
X194172578Y-133872128D01*
X194172578Y-133872127D01*
X194172582Y-133872126D01*
X194285489Y-133785489D01*
X194301624Y-133764460D01*
X194358052Y-133723258D01*
X194427798Y-133719103D01*
X194488718Y-133753315D01*
X194498372Y-133764456D01*
X194514511Y-133785489D01*
X194627418Y-133872126D01*
X194627421Y-133872127D01*
X194627422Y-133872128D01*
X194676837Y-133892596D01*
X194758901Y-133926588D01*
X194829450Y-133935876D01*
X194899999Y-133945164D01*
X194900000Y-133945164D01*
X194900001Y-133945164D01*
X194947032Y-133938972D01*
X195041099Y-133926588D01*
X195172577Y-133872128D01*
X195172578Y-133872128D01*
X195172578Y-133872127D01*
X195172582Y-133872126D01*
X195285489Y-133785489D01*
X195301624Y-133764460D01*
X195358052Y-133723258D01*
X195427798Y-133719103D01*
X195488718Y-133753315D01*
X195498372Y-133764456D01*
X195514511Y-133785489D01*
X195627418Y-133872126D01*
X195627421Y-133872127D01*
X195627422Y-133872128D01*
X195676837Y-133892596D01*
X195758901Y-133926588D01*
X195829450Y-133935876D01*
X195899999Y-133945164D01*
X195900000Y-133945164D01*
X195900001Y-133945164D01*
X195947032Y-133938972D01*
X196041099Y-133926588D01*
X196172577Y-133872128D01*
X196172578Y-133872128D01*
X196172578Y-133872127D01*
X196172582Y-133872126D01*
X196285489Y-133785489D01*
X196301624Y-133764460D01*
X196358052Y-133723258D01*
X196427798Y-133719103D01*
X196488718Y-133753315D01*
X196498372Y-133764456D01*
X196514511Y-133785489D01*
X196627418Y-133872126D01*
X196627421Y-133872127D01*
X196627422Y-133872128D01*
X196676837Y-133892596D01*
X196758901Y-133926588D01*
X196829450Y-133935876D01*
X196899999Y-133945164D01*
X196900000Y-133945164D01*
X196900001Y-133945164D01*
X196947032Y-133938972D01*
X197041099Y-133926588D01*
X197172577Y-133872128D01*
X197172578Y-133872128D01*
X197172578Y-133872127D01*
X197172582Y-133872126D01*
X197285489Y-133785489D01*
X197372126Y-133672582D01*
X197426588Y-133541099D01*
X197445164Y-133400000D01*
X197426588Y-133258901D01*
X197372128Y-133127422D01*
X197372128Y-133127421D01*
X197372126Y-133127418D01*
X197285489Y-133014511D01*
X197285487Y-133014510D01*
X197285487Y-133014509D01*
X197274541Y-133006110D01*
X197264460Y-132998375D01*
X197223258Y-132941948D01*
X197219103Y-132872202D01*
X197253315Y-132811282D01*
X197264460Y-132801625D01*
X197285489Y-132785489D01*
X197372126Y-132672582D01*
X197426588Y-132541099D01*
X197445164Y-132400000D01*
X197426588Y-132258901D01*
X197372128Y-132127422D01*
X197372128Y-132127421D01*
X197370136Y-132124825D01*
X197285489Y-132014511D01*
X197285487Y-132014510D01*
X197285487Y-132014509D01*
X197274541Y-132006110D01*
X197264460Y-131998375D01*
X197223258Y-131941948D01*
X197219103Y-131872202D01*
X197253315Y-131811282D01*
X197264460Y-131801625D01*
X197285489Y-131785489D01*
X197372126Y-131672582D01*
X197426588Y-131541099D01*
X197445164Y-131400000D01*
X197426588Y-131258901D01*
X197372128Y-131127422D01*
X197372128Y-131127421D01*
X197326351Y-131067763D01*
X199145787Y-131067763D01*
X199175413Y-131337013D01*
X199175415Y-131337024D01*
X199234564Y-131563270D01*
X199243928Y-131599088D01*
X199349870Y-131848390D01*
X199451252Y-132014510D01*
X199490979Y-132079605D01*
X199490986Y-132079615D01*
X199664253Y-132287819D01*
X199664259Y-132287824D01*
X199789456Y-132400000D01*
X199865998Y-132468582D01*
X200091910Y-132618044D01*
X200337176Y-132733020D01*
X200337183Y-132733022D01*
X200337185Y-132733023D01*
X200596557Y-132811057D01*
X200596564Y-132811058D01*
X200596569Y-132811060D01*
X200864561Y-132850500D01*
X200864566Y-132850500D01*
X201067636Y-132850500D01*
X201119133Y-132846730D01*
X201270156Y-132835677D01*
X201382758Y-132810593D01*
X201534546Y-132776782D01*
X201534548Y-132776781D01*
X201534553Y-132776780D01*
X201787558Y-132680014D01*
X202023777Y-132547441D01*
X202238177Y-132381888D01*
X202426186Y-132186881D01*
X202583799Y-131966579D01*
X202692626Y-131754909D01*
X202707649Y-131725690D01*
X202707651Y-131725684D01*
X202707656Y-131725675D01*
X202795118Y-131469305D01*
X202844319Y-131202933D01*
X202854212Y-130932235D01*
X202824586Y-130662982D01*
X202756072Y-130400912D01*
X202650130Y-130151610D01*
X202509018Y-129920390D01*
X202419747Y-129813119D01*
X202335746Y-129712180D01*
X202335740Y-129712175D01*
X202134002Y-129531418D01*
X201908092Y-129381957D01*
X201908090Y-129381956D01*
X201662824Y-129266980D01*
X201662819Y-129266978D01*
X201662814Y-129266976D01*
X201403442Y-129188942D01*
X201403428Y-129188939D01*
X201287791Y-129171921D01*
X201135439Y-129149500D01*
X200932369Y-129149500D01*
X200932364Y-129149500D01*
X200729844Y-129164323D01*
X200729831Y-129164325D01*
X200465453Y-129223217D01*
X200465446Y-129223220D01*
X200212439Y-129319987D01*
X199976226Y-129452557D01*
X199761822Y-129618112D01*
X199573822Y-129813109D01*
X199573816Y-129813116D01*
X199416202Y-130033419D01*
X199416199Y-130033424D01*
X199292350Y-130274309D01*
X199292343Y-130274327D01*
X199204884Y-130530685D01*
X199204881Y-130530699D01*
X199202960Y-130541099D01*
X199157820Y-130785490D01*
X199155681Y-130797068D01*
X199155680Y-130797075D01*
X199145787Y-131067763D01*
X197326351Y-131067763D01*
X197285487Y-131014509D01*
X197274541Y-131006110D01*
X197264460Y-130998375D01*
X197223258Y-130941948D01*
X197219103Y-130872202D01*
X197253315Y-130811282D01*
X197264460Y-130801625D01*
X197285489Y-130785489D01*
X197372126Y-130672582D01*
X197426588Y-130541099D01*
X197445164Y-130400000D01*
X197426588Y-130258901D01*
X197372128Y-130127422D01*
X197372128Y-130127421D01*
X197372126Y-130127418D01*
X197285489Y-130014511D01*
X197285487Y-130014510D01*
X197285487Y-130014509D01*
X197274541Y-130006110D01*
X197264460Y-129998375D01*
X197223258Y-129941948D01*
X197219103Y-129872202D01*
X197253315Y-129811282D01*
X197264460Y-129801625D01*
X197285489Y-129785489D01*
X197372126Y-129672582D01*
X197426588Y-129541099D01*
X197445164Y-129400000D01*
X197442788Y-129381956D01*
X197426588Y-129258902D01*
X197426586Y-129258897D01*
X197372128Y-129127422D01*
X197372128Y-129127421D01*
X197285487Y-129014509D01*
X197274541Y-129006110D01*
X197264460Y-128998375D01*
X197223258Y-128941948D01*
X197219103Y-128872202D01*
X197253315Y-128811282D01*
X197264460Y-128801625D01*
X197285489Y-128785489D01*
X197372126Y-128672582D01*
X197426588Y-128541099D01*
X197445164Y-128400000D01*
X197426588Y-128258901D01*
X197372128Y-128127422D01*
X197372128Y-128127421D01*
X197285487Y-128014509D01*
X197274541Y-128006110D01*
X197264460Y-127998375D01*
X197223258Y-127941948D01*
X197219103Y-127872202D01*
X197253315Y-127811282D01*
X197264460Y-127801625D01*
X197285489Y-127785489D01*
X197372126Y-127672582D01*
X197426588Y-127541099D01*
X197445164Y-127400000D01*
X197426588Y-127258901D01*
X197372128Y-127127422D01*
X197372128Y-127127421D01*
X197336428Y-127080896D01*
X197285489Y-127014511D01*
X197285487Y-127014510D01*
X197285487Y-127014509D01*
X197274541Y-127006110D01*
X197264460Y-126998375D01*
X197223258Y-126941948D01*
X197219103Y-126872202D01*
X197253315Y-126811282D01*
X197264460Y-126801625D01*
X197285489Y-126785489D01*
X197301624Y-126764460D01*
X197358052Y-126723258D01*
X197427798Y-126719103D01*
X197488718Y-126753315D01*
X197498372Y-126764456D01*
X197506110Y-126774541D01*
X197514507Y-126785485D01*
X197514511Y-126785489D01*
X197627418Y-126872126D01*
X197627421Y-126872127D01*
X197627422Y-126872128D01*
X197693159Y-126899356D01*
X197758901Y-126926588D01*
X197829450Y-126935876D01*
X197899999Y-126945164D01*
X197900000Y-126945164D01*
X197900001Y-126945164D01*
X197947032Y-126938972D01*
X198041099Y-126926588D01*
X198172577Y-126872128D01*
X198172578Y-126872128D01*
X198172578Y-126872127D01*
X198172582Y-126872126D01*
X198285489Y-126785489D01*
X198301624Y-126764460D01*
X198358052Y-126723258D01*
X198427798Y-126719103D01*
X198488718Y-126753315D01*
X198498372Y-126764456D01*
X198506110Y-126774541D01*
X198514507Y-126785485D01*
X198514511Y-126785489D01*
X198627418Y-126872126D01*
X198627421Y-126872127D01*
X198627422Y-126872128D01*
X198693159Y-126899356D01*
X198758901Y-126926588D01*
X198829450Y-126935876D01*
X198899999Y-126945164D01*
X198900000Y-126945164D01*
X198900001Y-126945164D01*
X198947032Y-126938972D01*
X199041099Y-126926588D01*
X199172577Y-126872128D01*
X199172578Y-126872128D01*
X199172578Y-126872127D01*
X199172582Y-126872126D01*
X199285489Y-126785489D01*
X199301624Y-126764460D01*
X199358052Y-126723258D01*
X199427798Y-126719103D01*
X199488718Y-126753315D01*
X199498372Y-126764456D01*
X199506110Y-126774541D01*
X199514507Y-126785485D01*
X199514511Y-126785489D01*
X199627418Y-126872126D01*
X199627421Y-126872127D01*
X199627422Y-126872128D01*
X199693159Y-126899356D01*
X199758901Y-126926588D01*
X199829450Y-126935876D01*
X199899999Y-126945164D01*
X199900000Y-126945164D01*
X199900001Y-126945164D01*
X199947032Y-126938972D01*
X200041099Y-126926588D01*
X200172577Y-126872128D01*
X200172578Y-126872128D01*
X200172578Y-126872127D01*
X200172582Y-126872126D01*
X200285489Y-126785489D01*
X200301624Y-126764460D01*
X200358052Y-126723258D01*
X200427798Y-126719103D01*
X200488718Y-126753315D01*
X200498372Y-126764456D01*
X200506110Y-126774541D01*
X200514507Y-126785485D01*
X200514511Y-126785489D01*
X200627418Y-126872126D01*
X200627421Y-126872127D01*
X200627422Y-126872128D01*
X200693159Y-126899356D01*
X200758901Y-126926588D01*
X200829450Y-126935876D01*
X200899999Y-126945164D01*
X200900000Y-126945164D01*
X200900001Y-126945164D01*
X200947032Y-126938972D01*
X201041099Y-126926588D01*
X201172577Y-126872128D01*
X201172578Y-126872128D01*
X201172578Y-126872127D01*
X201172582Y-126872126D01*
X201285489Y-126785489D01*
X201351626Y-126699296D01*
X201408052Y-126658097D01*
X201477798Y-126653942D01*
X201538718Y-126688154D01*
X201548365Y-126699286D01*
X201614511Y-126785489D01*
X201727418Y-126872126D01*
X201727421Y-126872127D01*
X201727422Y-126872128D01*
X201793159Y-126899356D01*
X201858901Y-126926588D01*
X201929450Y-126935876D01*
X201999999Y-126945164D01*
X202000000Y-126945164D01*
X202000001Y-126945164D01*
X202047032Y-126938972D01*
X202141099Y-126926588D01*
X202272577Y-126872128D01*
X202272578Y-126872128D01*
X202272578Y-126872127D01*
X202272582Y-126872126D01*
X202385489Y-126785489D01*
X202401625Y-126764459D01*
X202458048Y-126723259D01*
X202527794Y-126719102D01*
X202588715Y-126753313D01*
X202598373Y-126764459D01*
X202613496Y-126784167D01*
X202614511Y-126785489D01*
X202727418Y-126872126D01*
X202727421Y-126872127D01*
X202727422Y-126872128D01*
X202793159Y-126899356D01*
X202858901Y-126926588D01*
X202929450Y-126935876D01*
X202999999Y-126945164D01*
X203000000Y-126945164D01*
X203000001Y-126945164D01*
X203047032Y-126938972D01*
X203141099Y-126926588D01*
X203272577Y-126872128D01*
X203272578Y-126872128D01*
X203272578Y-126872127D01*
X203272582Y-126872126D01*
X203385489Y-126785489D01*
X203472126Y-126672582D01*
X203526588Y-126541099D01*
X203545164Y-126400000D01*
X203526588Y-126258901D01*
X203479847Y-126146057D01*
X203472128Y-126127422D01*
X203472128Y-126127421D01*
X203472126Y-126127418D01*
X203385489Y-126014511D01*
X203385487Y-126014510D01*
X203385487Y-126014509D01*
X203374541Y-126006110D01*
X203364460Y-125998375D01*
X203323258Y-125941948D01*
X203319103Y-125872202D01*
X203353315Y-125811282D01*
X203364460Y-125801625D01*
X203385489Y-125785489D01*
X203472126Y-125672582D01*
X203526588Y-125541099D01*
X203545164Y-125400000D01*
X203526588Y-125258901D01*
X203479847Y-125146057D01*
X203472128Y-125127422D01*
X203472128Y-125127421D01*
X203472126Y-125127418D01*
X203385489Y-125014511D01*
X203272582Y-124927874D01*
X203272579Y-124927873D01*
X203272577Y-124927871D01*
X203141102Y-124873413D01*
X203141097Y-124873411D01*
X203000001Y-124854836D01*
X202999999Y-124854836D01*
X202858902Y-124873411D01*
X202858897Y-124873413D01*
X202727422Y-124927871D01*
X202727421Y-124927871D01*
X202614508Y-125014513D01*
X202598372Y-125035542D01*
X202541942Y-125076743D01*
X202472196Y-125080895D01*
X202411277Y-125046680D01*
X202401628Y-125035544D01*
X202385489Y-125014511D01*
X202272582Y-124927874D01*
X202272579Y-124927873D01*
X202272577Y-124927871D01*
X202141102Y-124873413D01*
X202141097Y-124873411D01*
X202000001Y-124854836D01*
X201999999Y-124854836D01*
X201858902Y-124873411D01*
X201858897Y-124873413D01*
X201727422Y-124927871D01*
X201727421Y-124927871D01*
X201659673Y-124979856D01*
X201614511Y-125014511D01*
X201614510Y-125014512D01*
X201614509Y-125014513D01*
X201548375Y-125100700D01*
X201491947Y-125141902D01*
X201422201Y-125146057D01*
X201361281Y-125111844D01*
X201351625Y-125100700D01*
X201310173Y-125046680D01*
X201285489Y-125014511D01*
X201172582Y-124927874D01*
X201172579Y-124927873D01*
X201172577Y-124927871D01*
X201041102Y-124873413D01*
X201041097Y-124873411D01*
X200900001Y-124854836D01*
X200899999Y-124854836D01*
X200758902Y-124873411D01*
X200758897Y-124873413D01*
X200627422Y-124927871D01*
X200627421Y-124927871D01*
X200542737Y-124992851D01*
X200514511Y-125014511D01*
X200498377Y-125035538D01*
X200498375Y-125035540D01*
X200441946Y-125076742D01*
X200372200Y-125080896D01*
X200311280Y-125046682D01*
X200301625Y-125035540D01*
X200285489Y-125014511D01*
X200172582Y-124927874D01*
X200172579Y-124927873D01*
X200172577Y-124927871D01*
X200041102Y-124873413D01*
X200041097Y-124873411D01*
X199900001Y-124854836D01*
X199899999Y-124854836D01*
X199758902Y-124873411D01*
X199758897Y-124873413D01*
X199627422Y-124927871D01*
X199627421Y-124927871D01*
X199542737Y-124992851D01*
X199514511Y-125014511D01*
X199498377Y-125035538D01*
X199498375Y-125035540D01*
X199441946Y-125076742D01*
X199372200Y-125080896D01*
X199311280Y-125046682D01*
X199301625Y-125035540D01*
X199285489Y-125014511D01*
X199172582Y-124927874D01*
X199172579Y-124927873D01*
X199172577Y-124927871D01*
X199041102Y-124873413D01*
X199041097Y-124873411D01*
X198900001Y-124854836D01*
X198899999Y-124854836D01*
X198758902Y-124873411D01*
X198758897Y-124873413D01*
X198627422Y-124927871D01*
X198627421Y-124927871D01*
X198542737Y-124992851D01*
X198514511Y-125014511D01*
X198498377Y-125035538D01*
X198498375Y-125035540D01*
X198441946Y-125076742D01*
X198372200Y-125080896D01*
X198311280Y-125046682D01*
X198301625Y-125035540D01*
X198285489Y-125014511D01*
X198172582Y-124927874D01*
X198172579Y-124927873D01*
X198172577Y-124927871D01*
X198041102Y-124873413D01*
X198041097Y-124873411D01*
X197900001Y-124854836D01*
X197899999Y-124854836D01*
X197758902Y-124873411D01*
X197758897Y-124873413D01*
X197627422Y-124927871D01*
X197627421Y-124927871D01*
X197542737Y-124992851D01*
X197514511Y-125014511D01*
X197498377Y-125035538D01*
X197498375Y-125035540D01*
X197441946Y-125076742D01*
X197372200Y-125080896D01*
X197311280Y-125046682D01*
X197301625Y-125035540D01*
X197285489Y-125014511D01*
X197172582Y-124927874D01*
X197172579Y-124927873D01*
X197172577Y-124927871D01*
X197041102Y-124873413D01*
X197041097Y-124873411D01*
X196900001Y-124854836D01*
X196899999Y-124854836D01*
X196758902Y-124873411D01*
X196758897Y-124873413D01*
X196627422Y-124927871D01*
X196627421Y-124927871D01*
X196542737Y-124992851D01*
X196514511Y-125014511D01*
X196498377Y-125035538D01*
X196498375Y-125035540D01*
X196441946Y-125076742D01*
X196372200Y-125080896D01*
X196311280Y-125046682D01*
X196301625Y-125035540D01*
X196285489Y-125014511D01*
X196172582Y-124927874D01*
X196172579Y-124927873D01*
X196172577Y-124927871D01*
X196041102Y-124873413D01*
X196041097Y-124873411D01*
X195900001Y-124854836D01*
X195899999Y-124854836D01*
X195758902Y-124873411D01*
X195758897Y-124873413D01*
X195627422Y-124927871D01*
X195627421Y-124927871D01*
X195542737Y-124992851D01*
X195514511Y-125014511D01*
X195498377Y-125035538D01*
X195498375Y-125035540D01*
X195441946Y-125076742D01*
X195372200Y-125080896D01*
X195311280Y-125046682D01*
X195301625Y-125035540D01*
X195285489Y-125014511D01*
X195172582Y-124927874D01*
X195172579Y-124927873D01*
X195172577Y-124927871D01*
X195041102Y-124873413D01*
X195041097Y-124873411D01*
X194900001Y-124854836D01*
X194899999Y-124854836D01*
X194758902Y-124873411D01*
X194758897Y-124873413D01*
X194627422Y-124927871D01*
X194627421Y-124927871D01*
X194542737Y-124992851D01*
X194514511Y-125014511D01*
X194498377Y-125035538D01*
X194498375Y-125035540D01*
X194441946Y-125076742D01*
X194372200Y-125080896D01*
X194311280Y-125046682D01*
X194301625Y-125035540D01*
X194285489Y-125014511D01*
X194172582Y-124927874D01*
X194172579Y-124927873D01*
X194172577Y-124927871D01*
X194041102Y-124873413D01*
X194041097Y-124873411D01*
X193900001Y-124854836D01*
X193899999Y-124854836D01*
X193758902Y-124873411D01*
X193758897Y-124873413D01*
X193627422Y-124927871D01*
X193627421Y-124927871D01*
X193514511Y-125014511D01*
X193427871Y-125127421D01*
X193427871Y-125127422D01*
X193373413Y-125258897D01*
X193373411Y-125258902D01*
X193354836Y-125399999D01*
X193354836Y-125400000D01*
X193373411Y-125541097D01*
X193373413Y-125541102D01*
X193427871Y-125672577D01*
X193427871Y-125672578D01*
X193427873Y-125672581D01*
X193427874Y-125672582D01*
X193514511Y-125785489D01*
X193535540Y-125801625D01*
X193576742Y-125858054D01*
X193580896Y-125927800D01*
X193546682Y-125988720D01*
X193535541Y-125998373D01*
X193525927Y-126005750D01*
X193514512Y-126014510D01*
X193427871Y-126127421D01*
X193427871Y-126127422D01*
X193373413Y-126258897D01*
X193373411Y-126258902D01*
X193354836Y-126399999D01*
X193354836Y-126400000D01*
X193373411Y-126541097D01*
X193373413Y-126541102D01*
X193427871Y-126672577D01*
X193427871Y-126672578D01*
X193427873Y-126672581D01*
X193427874Y-126672582D01*
X193514511Y-126785489D01*
X193535540Y-126801625D01*
X193576742Y-126858054D01*
X193580896Y-126927800D01*
X193546682Y-126988720D01*
X193535541Y-126998373D01*
X193514514Y-127014509D01*
X193514511Y-127014511D01*
X193498375Y-127035540D01*
X193441946Y-127076742D01*
X193372200Y-127080896D01*
X193311280Y-127046682D01*
X193301625Y-127035540D01*
X193285489Y-127014511D01*
X193172582Y-126927874D01*
X193172579Y-126927873D01*
X193172577Y-126927871D01*
X193041102Y-126873413D01*
X193041097Y-126873411D01*
X192900001Y-126854836D01*
X192899999Y-126854836D01*
X192758902Y-126873411D01*
X192758897Y-126873413D01*
X192627422Y-126927871D01*
X192627421Y-126927871D01*
X192609076Y-126941948D01*
X192535539Y-126998376D01*
X192514510Y-127014512D01*
X192498375Y-127035540D01*
X192441946Y-127076742D01*
X192372200Y-127080896D01*
X192311280Y-127046682D01*
X192301625Y-127035540D01*
X192285489Y-127014511D01*
X192172582Y-126927874D01*
X192172579Y-126927873D01*
X192172577Y-126927871D01*
X192041102Y-126873413D01*
X192041097Y-126873411D01*
X191900001Y-126854836D01*
X191899999Y-126854836D01*
X191758902Y-126873411D01*
X191758897Y-126873413D01*
X191627422Y-126927871D01*
X191627421Y-126927871D01*
X191609076Y-126941948D01*
X191535539Y-126998376D01*
X191514510Y-127014512D01*
X191498375Y-127035540D01*
X191441946Y-127076742D01*
X191372200Y-127080896D01*
X191311280Y-127046682D01*
X191301625Y-127035540D01*
X191285489Y-127014511D01*
X191172582Y-126927874D01*
X191172579Y-126927873D01*
X191172577Y-126927871D01*
X191041102Y-126873413D01*
X191041097Y-126873411D01*
X190900001Y-126854836D01*
X190899999Y-126854836D01*
X190758902Y-126873411D01*
X190758897Y-126873413D01*
X190627422Y-126927871D01*
X190627421Y-126927871D01*
X190609076Y-126941948D01*
X190535539Y-126998376D01*
X190514510Y-127014512D01*
X190498375Y-127035540D01*
X190441946Y-127076742D01*
X190372200Y-127080896D01*
X190311280Y-127046682D01*
X190301625Y-127035540D01*
X190285489Y-127014511D01*
X190172582Y-126927874D01*
X190172579Y-126927873D01*
X190172577Y-126927871D01*
X190041102Y-126873413D01*
X190041097Y-126873411D01*
X189900001Y-126854836D01*
X189899999Y-126854836D01*
X189758902Y-126873411D01*
X189758897Y-126873413D01*
X189627422Y-126927871D01*
X189627421Y-126927871D01*
X189609076Y-126941948D01*
X189535539Y-126998376D01*
X189514510Y-127014512D01*
X189498375Y-127035540D01*
X189441946Y-127076742D01*
X189372200Y-127080896D01*
X189311280Y-127046682D01*
X189301625Y-127035540D01*
X189285489Y-127014511D01*
X189172582Y-126927874D01*
X189172579Y-126927873D01*
X189172577Y-126927871D01*
X189041102Y-126873413D01*
X189041097Y-126873411D01*
X188900001Y-126854836D01*
X188899999Y-126854836D01*
X188758902Y-126873411D01*
X188758897Y-126873413D01*
X188627422Y-126927871D01*
X188627421Y-126927871D01*
X188609076Y-126941948D01*
X188535539Y-126998376D01*
X188514510Y-127014512D01*
X188498375Y-127035540D01*
X188441946Y-127076742D01*
X188372200Y-127080896D01*
X188311280Y-127046682D01*
X188301625Y-127035540D01*
X188285489Y-127014511D01*
X188172582Y-126927874D01*
X188172579Y-126927873D01*
X188172577Y-126927871D01*
X188041102Y-126873413D01*
X188041097Y-126873411D01*
X187900001Y-126854836D01*
X187899999Y-126854836D01*
X187758902Y-126873411D01*
X187758897Y-126873413D01*
X187627422Y-126927871D01*
X187627421Y-126927871D01*
X187609076Y-126941948D01*
X187535539Y-126998376D01*
X187514510Y-127014512D01*
X187498375Y-127035540D01*
X187441946Y-127076742D01*
X187372200Y-127080896D01*
X187311280Y-127046682D01*
X187301625Y-127035540D01*
X187285489Y-127014511D01*
X187172582Y-126927874D01*
X187172579Y-126927873D01*
X187172577Y-126927871D01*
X187041102Y-126873413D01*
X187041097Y-126873411D01*
X186900001Y-126854836D01*
X186899999Y-126854836D01*
X186758902Y-126873411D01*
X186758897Y-126873413D01*
X186627422Y-126927871D01*
X186627421Y-126927871D01*
X186609076Y-126941948D01*
X186535539Y-126998376D01*
X186514510Y-127014512D01*
X186498375Y-127035540D01*
X186441946Y-127076742D01*
X186372200Y-127080896D01*
X186311280Y-127046682D01*
X186301625Y-127035540D01*
X186285489Y-127014511D01*
X186172582Y-126927874D01*
X186172579Y-126927873D01*
X186172577Y-126927871D01*
X186041102Y-126873413D01*
X186041097Y-126873411D01*
X185900001Y-126854836D01*
X185899999Y-126854836D01*
X185758902Y-126873411D01*
X185758897Y-126873413D01*
X185627422Y-126927871D01*
X185627421Y-126927871D01*
X185514511Y-127014511D01*
X185427871Y-127127421D01*
X185427871Y-127127422D01*
X185373413Y-127258897D01*
X185373411Y-127258902D01*
X185354836Y-127399999D01*
X185354836Y-127400000D01*
X185373411Y-127541097D01*
X185373413Y-127541102D01*
X185427871Y-127672577D01*
X185427871Y-127672578D01*
X185427873Y-127672581D01*
X185427874Y-127672582D01*
X185514511Y-127785489D01*
X185535540Y-127801625D01*
X185576742Y-127858054D01*
X185580896Y-127927800D01*
X185546682Y-127988720D01*
X185535541Y-127998373D01*
X185525927Y-128005750D01*
X185514512Y-128014510D01*
X185427871Y-128127421D01*
X185427871Y-128127422D01*
X185373413Y-128258897D01*
X185373411Y-128258902D01*
X185354836Y-128399999D01*
X185354836Y-128400000D01*
X185373411Y-128541097D01*
X185373413Y-128541102D01*
X185427871Y-128672577D01*
X185427871Y-128672578D01*
X185427873Y-128672581D01*
X185427874Y-128672582D01*
X185514511Y-128785489D01*
X185535540Y-128801625D01*
X185576742Y-128858054D01*
X185580896Y-128927800D01*
X185546682Y-128988720D01*
X185535541Y-128998373D01*
X185525927Y-129005750D01*
X185514512Y-129014510D01*
X185427871Y-129127421D01*
X185427871Y-129127422D01*
X185373413Y-129258897D01*
X185373411Y-129258902D01*
X185354836Y-129399999D01*
X185354836Y-129400000D01*
X185373411Y-129541097D01*
X185373413Y-129541102D01*
X185427871Y-129672577D01*
X185427871Y-129672578D01*
X185427873Y-129672581D01*
X185427874Y-129672582D01*
X185514511Y-129785489D01*
X185535540Y-129801625D01*
X185576742Y-129858054D01*
X185580896Y-129927800D01*
X185546682Y-129988720D01*
X185535541Y-129998373D01*
X185525927Y-130005750D01*
X185514514Y-130014509D01*
X185514511Y-130014511D01*
X185492851Y-130042737D01*
X185427871Y-130127421D01*
X185427871Y-130127422D01*
X185373413Y-130258897D01*
X185373411Y-130258902D01*
X185354836Y-130399999D01*
X185354836Y-130400000D01*
X185373411Y-130541097D01*
X185373413Y-130541102D01*
X185427871Y-130672577D01*
X185427871Y-130672578D01*
X185427873Y-130672581D01*
X185427874Y-130672582D01*
X185514511Y-130785489D01*
X185535540Y-130801625D01*
X185576742Y-130858054D01*
X185580896Y-130927800D01*
X185546682Y-130988720D01*
X185535541Y-130998373D01*
X185535299Y-130998560D01*
X185514512Y-131014510D01*
X185427871Y-131127421D01*
X185427871Y-131127422D01*
X185373413Y-131258897D01*
X185373411Y-131258902D01*
X185354836Y-131399999D01*
X185354836Y-131400000D01*
X185373411Y-131541097D01*
X185373413Y-131541102D01*
X185427871Y-131672577D01*
X185427871Y-131672578D01*
X185427873Y-131672581D01*
X185427874Y-131672582D01*
X185514511Y-131785489D01*
X185535540Y-131801625D01*
X185576742Y-131858054D01*
X185580896Y-131927800D01*
X185546682Y-131988720D01*
X185535541Y-131998373D01*
X185525927Y-132005750D01*
X185514512Y-132014510D01*
X185427871Y-132127421D01*
X185427871Y-132127422D01*
X185373413Y-132258897D01*
X185373411Y-132258902D01*
X185354836Y-132399999D01*
X185354836Y-132400000D01*
X185373411Y-132541097D01*
X185373413Y-132541102D01*
X185427871Y-132672577D01*
X185427871Y-132672578D01*
X185427873Y-132672581D01*
X185427874Y-132672582D01*
X185514511Y-132785489D01*
X185535540Y-132801625D01*
X185576742Y-132858054D01*
X185580896Y-132927800D01*
X185546682Y-132988720D01*
X185535541Y-132998373D01*
X185525927Y-133005750D01*
X185514512Y-133014510D01*
X185427871Y-133127421D01*
X185427871Y-133127422D01*
X185373413Y-133258897D01*
X185373411Y-133258902D01*
X185354836Y-133399999D01*
X185354836Y-133400000D01*
X150805927Y-133400000D01*
X150745559Y-133318603D01*
X150636995Y-133160118D01*
X150634966Y-133156954D01*
X150617265Y-133127422D01*
X150539778Y-132998142D01*
X150508478Y-132941948D01*
X150446457Y-132830601D01*
X150444588Y-132826964D01*
X150424972Y-132785490D01*
X150365370Y-132659474D01*
X150288100Y-132484471D01*
X150286450Y-132480339D01*
X150223906Y-132305540D01*
X150163327Y-132124797D01*
X150161989Y-132120221D01*
X150116675Y-131939315D01*
X150073294Y-131754871D01*
X150072329Y-131749828D01*
X150044662Y-131563310D01*
X150018819Y-131378048D01*
X150018302Y-131372549D01*
X150008487Y-131172761D01*
X150003633Y-131067763D01*
X152145787Y-131067763D01*
X152175413Y-131337013D01*
X152175415Y-131337024D01*
X152234564Y-131563270D01*
X152243928Y-131599088D01*
X152349870Y-131848390D01*
X152451252Y-132014510D01*
X152490979Y-132079605D01*
X152490986Y-132079615D01*
X152664253Y-132287819D01*
X152664259Y-132287824D01*
X152789456Y-132400000D01*
X152865998Y-132468582D01*
X153091910Y-132618044D01*
X153337176Y-132733020D01*
X153337183Y-132733022D01*
X153337185Y-132733023D01*
X153596557Y-132811057D01*
X153596564Y-132811058D01*
X153596569Y-132811060D01*
X153864561Y-132850500D01*
X153864566Y-132850500D01*
X154067636Y-132850500D01*
X154119133Y-132846730D01*
X154270156Y-132835677D01*
X154382758Y-132810593D01*
X154534546Y-132776782D01*
X154534548Y-132776781D01*
X154534553Y-132776780D01*
X154787558Y-132680014D01*
X155023777Y-132547441D01*
X155238177Y-132381888D01*
X155426186Y-132186881D01*
X155583799Y-131966579D01*
X155692626Y-131754909D01*
X155707649Y-131725690D01*
X155707651Y-131725684D01*
X155707656Y-131725675D01*
X155795118Y-131469305D01*
X155844319Y-131202933D01*
X155854212Y-130932235D01*
X155824586Y-130662982D01*
X155756072Y-130400912D01*
X155650130Y-130151610D01*
X155509018Y-129920390D01*
X155419747Y-129813119D01*
X155335746Y-129712180D01*
X155335740Y-129712175D01*
X155134002Y-129531418D01*
X154908092Y-129381957D01*
X154908090Y-129381956D01*
X154662824Y-129266980D01*
X154662819Y-129266978D01*
X154662814Y-129266976D01*
X154403442Y-129188942D01*
X154403428Y-129188939D01*
X154287791Y-129171921D01*
X154135439Y-129149500D01*
X153932369Y-129149500D01*
X153932364Y-129149500D01*
X153729844Y-129164323D01*
X153729831Y-129164325D01*
X153465453Y-129223217D01*
X153465446Y-129223220D01*
X153212439Y-129319987D01*
X152976226Y-129452557D01*
X152761822Y-129618112D01*
X152573822Y-129813109D01*
X152573816Y-129813116D01*
X152416202Y-130033419D01*
X152416199Y-130033424D01*
X152292350Y-130274309D01*
X152292343Y-130274327D01*
X152204884Y-130530685D01*
X152204881Y-130530699D01*
X152202960Y-130541099D01*
X152157820Y-130785490D01*
X152155681Y-130797068D01*
X152155680Y-130797075D01*
X152145787Y-131067763D01*
X150003633Y-131067763D01*
X150000566Y-131001423D01*
X150000500Y-130998560D01*
X150000500Y-126800000D01*
X173454836Y-126800000D01*
X173473411Y-126941097D01*
X173473413Y-126941102D01*
X173527871Y-127072577D01*
X173527871Y-127072578D01*
X173527873Y-127072581D01*
X173527874Y-127072582D01*
X173614511Y-127185489D01*
X173727418Y-127272126D01*
X173727421Y-127272127D01*
X173727422Y-127272128D01*
X173793159Y-127299356D01*
X173858901Y-127326588D01*
X173929450Y-127335876D01*
X173999999Y-127345164D01*
X174000000Y-127345164D01*
X174000001Y-127345164D01*
X174047032Y-127338972D01*
X174141099Y-127326588D01*
X174272577Y-127272128D01*
X174272578Y-127272128D01*
X174272578Y-127272127D01*
X174272582Y-127272126D01*
X174385489Y-127185489D01*
X174472126Y-127072582D01*
X174526588Y-126941099D01*
X174545164Y-126800000D01*
X174543253Y-126785488D01*
X174526588Y-126658902D01*
X174526586Y-126658897D01*
X174472128Y-126527422D01*
X174472128Y-126527421D01*
X174472126Y-126527418D01*
X174385489Y-126414511D01*
X174272582Y-126327874D01*
X174272579Y-126327873D01*
X174272577Y-126327871D01*
X174141102Y-126273413D01*
X174141097Y-126273411D01*
X174000001Y-126254836D01*
X173999999Y-126254836D01*
X173858902Y-126273411D01*
X173858897Y-126273413D01*
X173727422Y-126327871D01*
X173727421Y-126327871D01*
X173614511Y-126414511D01*
X173527871Y-126527421D01*
X173527871Y-126527422D01*
X173473413Y-126658897D01*
X173473411Y-126658902D01*
X173454836Y-126799999D01*
X173454836Y-126800000D01*
X150000500Y-126800000D01*
X150000500Y-123700000D01*
X151754614Y-123700000D01*
X151774115Y-123910463D01*
X151774116Y-123910466D01*
X151831956Y-124113756D01*
X151831959Y-124113762D01*
X151926173Y-124302968D01*
X152053551Y-124471644D01*
X152163245Y-124571642D01*
X152209751Y-124614038D01*
X152389458Y-124725308D01*
X152389459Y-124725308D01*
X152389460Y-124725309D01*
X152431213Y-124741484D01*
X152586550Y-124801662D01*
X152794317Y-124840500D01*
X152794319Y-124840500D01*
X153005681Y-124840500D01*
X153005683Y-124840500D01*
X153213450Y-124801662D01*
X153410542Y-124725308D01*
X153590249Y-124614038D01*
X153746450Y-124471642D01*
X153873827Y-124302968D01*
X153968041Y-124113761D01*
X153968041Y-124113758D01*
X153968043Y-124113756D01*
X154025883Y-123910466D01*
X154025884Y-123910463D01*
X154036120Y-123800000D01*
X156354614Y-123800000D01*
X156374115Y-124010463D01*
X156374116Y-124010466D01*
X156431956Y-124213756D01*
X156431959Y-124213762D01*
X156526173Y-124402968D01*
X156653551Y-124571644D01*
X156787925Y-124694141D01*
X156809751Y-124714038D01*
X156989458Y-124825308D01*
X156989459Y-124825308D01*
X156989460Y-124825309D01*
X157028673Y-124840500D01*
X157186550Y-124901662D01*
X157394317Y-124940500D01*
X157394319Y-124940500D01*
X157605681Y-124940500D01*
X157605683Y-124940500D01*
X157813450Y-124901662D01*
X158010542Y-124825308D01*
X158190249Y-124714038D01*
X158346450Y-124571642D01*
X158473827Y-124402968D01*
X158568041Y-124213761D01*
X158568041Y-124213758D01*
X158568043Y-124213756D01*
X158625883Y-124010466D01*
X158625884Y-124010463D01*
X158645386Y-123800000D01*
X158645386Y-123799999D01*
X158625884Y-123589536D01*
X158625883Y-123589533D01*
X158568043Y-123386243D01*
X158568040Y-123386237D01*
X158518246Y-123286237D01*
X158473827Y-123197032D01*
X158346450Y-123028358D01*
X158346448Y-123028355D01*
X158190250Y-122885963D01*
X158190249Y-122885962D01*
X158010542Y-122774692D01*
X158010540Y-122774691D01*
X158010539Y-122774690D01*
X157855205Y-122714514D01*
X157813450Y-122698338D01*
X157605683Y-122659500D01*
X157394317Y-122659500D01*
X157186550Y-122698338D01*
X157186547Y-122698338D01*
X157186547Y-122698339D01*
X156989460Y-122774690D01*
X156989459Y-122774691D01*
X156809749Y-122885963D01*
X156653551Y-123028355D01*
X156526173Y-123197031D01*
X156431959Y-123386237D01*
X156431956Y-123386243D01*
X156374116Y-123589533D01*
X156374115Y-123589536D01*
X156354614Y-123799999D01*
X156354614Y-123800000D01*
X154036120Y-123800000D01*
X154045386Y-123700000D01*
X154045386Y-123699999D01*
X154025884Y-123489536D01*
X154025883Y-123489533D01*
X153968043Y-123286243D01*
X153968040Y-123286237D01*
X153923621Y-123197032D01*
X153873827Y-123097032D01*
X153746450Y-122928358D01*
X153746448Y-122928355D01*
X153590250Y-122785963D01*
X153590249Y-122785962D01*
X153410542Y-122674692D01*
X153410540Y-122674691D01*
X153410539Y-122674690D01*
X153255205Y-122614514D01*
X153213450Y-122598338D01*
X153005683Y-122559500D01*
X152794317Y-122559500D01*
X152586550Y-122598338D01*
X152586547Y-122598338D01*
X152586547Y-122598339D01*
X152389460Y-122674690D01*
X152389459Y-122674691D01*
X152209749Y-122785963D01*
X152053551Y-122928355D01*
X151926173Y-123097031D01*
X151831959Y-123286237D01*
X151831956Y-123286243D01*
X151774116Y-123489533D01*
X151774115Y-123489536D01*
X151754614Y-123699999D01*
X151754614Y-123700000D01*
X150000500Y-123700000D01*
X150000500Y-121900000D01*
X167354836Y-121900000D01*
X167373411Y-122041097D01*
X167373413Y-122041102D01*
X167427871Y-122172577D01*
X167427871Y-122172578D01*
X167427873Y-122172581D01*
X167427874Y-122172582D01*
X167514511Y-122285489D01*
X167627418Y-122372126D01*
X167627421Y-122372127D01*
X167627422Y-122372128D01*
X167693159Y-122399356D01*
X167758901Y-122426588D01*
X167829450Y-122435876D01*
X167899999Y-122445164D01*
X167900000Y-122445164D01*
X167900001Y-122445164D01*
X167947032Y-122438972D01*
X168041099Y-122426588D01*
X168172577Y-122372128D01*
X168172578Y-122372128D01*
X168172578Y-122372127D01*
X168172582Y-122372126D01*
X168285489Y-122285489D01*
X168372126Y-122172582D01*
X168426588Y-122041099D01*
X168445164Y-121900000D01*
X168426588Y-121758901D01*
X168396184Y-121685499D01*
X168372128Y-121627422D01*
X168372128Y-121627421D01*
X168360126Y-121611780D01*
X168285489Y-121514511D01*
X168172582Y-121427874D01*
X168172579Y-121427873D01*
X168172577Y-121427871D01*
X168041102Y-121373413D01*
X168041097Y-121373411D01*
X167900001Y-121354836D01*
X167899999Y-121354836D01*
X167758902Y-121373411D01*
X167758897Y-121373413D01*
X167627422Y-121427871D01*
X167627421Y-121427871D01*
X167514511Y-121514511D01*
X167427871Y-121627421D01*
X167427871Y-121627422D01*
X167373413Y-121758897D01*
X167373411Y-121758902D01*
X167354836Y-121899999D01*
X167354836Y-121900000D01*
X150000500Y-121900000D01*
X150000500Y-119172763D01*
X153425787Y-119172763D01*
X153455413Y-119442013D01*
X153455415Y-119442024D01*
X153505101Y-119632075D01*
X153523928Y-119704088D01*
X153629870Y-119953390D01*
X153681461Y-120037924D01*
X153770979Y-120184605D01*
X153770986Y-120184615D01*
X153944253Y-120392819D01*
X153944259Y-120392824D01*
X153990306Y-120434082D01*
X154145998Y-120573582D01*
X154371910Y-120723044D01*
X154617176Y-120838020D01*
X154617183Y-120838022D01*
X154617185Y-120838023D01*
X154876557Y-120916057D01*
X154876564Y-120916058D01*
X154876569Y-120916060D01*
X155144561Y-120955500D01*
X155144566Y-120955500D01*
X155347636Y-120955500D01*
X155399133Y-120951730D01*
X155550156Y-120940677D01*
X155667152Y-120914615D01*
X155814546Y-120881782D01*
X155814548Y-120881781D01*
X155814553Y-120881780D01*
X156046419Y-120793099D01*
X180154836Y-120793099D01*
X180173411Y-120934196D01*
X180173413Y-120934201D01*
X180227871Y-121065676D01*
X180227871Y-121065677D01*
X180227873Y-121065680D01*
X180227874Y-121065681D01*
X180314511Y-121178588D01*
X180427418Y-121265225D01*
X180427421Y-121265226D01*
X180427422Y-121265227D01*
X180493159Y-121292456D01*
X180558901Y-121319687D01*
X180629450Y-121328974D01*
X180699999Y-121338263D01*
X180700000Y-121338263D01*
X180700001Y-121338263D01*
X180747032Y-121332070D01*
X180841099Y-121319687D01*
X180972577Y-121265227D01*
X180972578Y-121265227D01*
X180972578Y-121265226D01*
X180972582Y-121265225D01*
X181085489Y-121178588D01*
X181172126Y-121065681D01*
X181226588Y-120934198D01*
X181245164Y-120793099D01*
X181226588Y-120652000D01*
X181172128Y-120520521D01*
X181172128Y-120520520D01*
X181146321Y-120486888D01*
X181085489Y-120407610D01*
X180972582Y-120320973D01*
X180972579Y-120320972D01*
X180972577Y-120320970D01*
X180841102Y-120266512D01*
X180841097Y-120266510D01*
X180700001Y-120247935D01*
X180699999Y-120247935D01*
X180558902Y-120266510D01*
X180558897Y-120266512D01*
X180427422Y-120320970D01*
X180427421Y-120320970D01*
X180314511Y-120407610D01*
X180227871Y-120520520D01*
X180227871Y-120520521D01*
X180173413Y-120651996D01*
X180173411Y-120652001D01*
X180154836Y-120793098D01*
X180154836Y-120793099D01*
X156046419Y-120793099D01*
X156067558Y-120785014D01*
X156303777Y-120652441D01*
X156518177Y-120486888D01*
X156706186Y-120291881D01*
X156863799Y-120071579D01*
X156950593Y-119902763D01*
X198065787Y-119902763D01*
X198095413Y-120172013D01*
X198095415Y-120172024D01*
X198163926Y-120434082D01*
X198163928Y-120434088D01*
X198269870Y-120683390D01*
X198390946Y-120881780D01*
X198410979Y-120914605D01*
X198410986Y-120914615D01*
X198584253Y-121122819D01*
X198584259Y-121122824D01*
X198785998Y-121303582D01*
X199011910Y-121453044D01*
X199257176Y-121568020D01*
X199257183Y-121568022D01*
X199257185Y-121568023D01*
X199516557Y-121646057D01*
X199516564Y-121646058D01*
X199516569Y-121646060D01*
X199784561Y-121685500D01*
X199784566Y-121685500D01*
X199987636Y-121685500D01*
X200039133Y-121681730D01*
X200190156Y-121670677D01*
X200302758Y-121645593D01*
X200454546Y-121611782D01*
X200454548Y-121611781D01*
X200454553Y-121611780D01*
X200707558Y-121515014D01*
X200943777Y-121382441D01*
X201158177Y-121216888D01*
X201346186Y-121021881D01*
X201503799Y-120801579D01*
X201580705Y-120651996D01*
X201627649Y-120560690D01*
X201627651Y-120560684D01*
X201627656Y-120560675D01*
X201715118Y-120304305D01*
X201764319Y-120037933D01*
X201774212Y-119767235D01*
X201744586Y-119497982D01*
X201676072Y-119235912D01*
X201570130Y-118986610D01*
X201429018Y-118755390D01*
X201368109Y-118682200D01*
X201255746Y-118547180D01*
X201255740Y-118547175D01*
X201054002Y-118366418D01*
X200828092Y-118216957D01*
X200828090Y-118216956D01*
X200582824Y-118101980D01*
X200582819Y-118101978D01*
X200582814Y-118101976D01*
X200323442Y-118023942D01*
X200323428Y-118023939D01*
X200207791Y-118006921D01*
X200055439Y-117984500D01*
X199852369Y-117984500D01*
X199852364Y-117984500D01*
X199649844Y-117999323D01*
X199649831Y-117999325D01*
X199385453Y-118058217D01*
X199385446Y-118058220D01*
X199132439Y-118154987D01*
X198896226Y-118287557D01*
X198681822Y-118453112D01*
X198493822Y-118648109D01*
X198493816Y-118648116D01*
X198336202Y-118868419D01*
X198336199Y-118868424D01*
X198212350Y-119109309D01*
X198212343Y-119109327D01*
X198124884Y-119365685D01*
X198124881Y-119365699D01*
X198110783Y-119442024D01*
X198086349Y-119574314D01*
X198075681Y-119632068D01*
X198075680Y-119632075D01*
X198065787Y-119902763D01*
X156950593Y-119902763D01*
X156987649Y-119830690D01*
X156987651Y-119830684D01*
X156987656Y-119830675D01*
X157075118Y-119574305D01*
X157124319Y-119307933D01*
X157134212Y-119037235D01*
X157104586Y-118767982D01*
X157045272Y-118541101D01*
X166213735Y-118541101D01*
X166232310Y-118682198D01*
X166232312Y-118682203D01*
X166286770Y-118813678D01*
X166286770Y-118813679D01*
X166286772Y-118813682D01*
X166286773Y-118813683D01*
X166373410Y-118926590D01*
X166486317Y-119013227D01*
X166486320Y-119013228D01*
X166486321Y-119013229D01*
X166544277Y-119037235D01*
X166617800Y-119067689D01*
X166688349Y-119076977D01*
X166758898Y-119086265D01*
X166758899Y-119086265D01*
X166758900Y-119086265D01*
X166805931Y-119080073D01*
X166899998Y-119067689D01*
X167031476Y-119013229D01*
X167031477Y-119013229D01*
X167031477Y-119013228D01*
X167031481Y-119013227D01*
X167144388Y-118926590D01*
X167231025Y-118813683D01*
X167285487Y-118682200D01*
X167304063Y-118541101D01*
X167285487Y-118400002D01*
X167231027Y-118268523D01*
X167231027Y-118268522D01*
X167231025Y-118268519D01*
X167144388Y-118155612D01*
X167031481Y-118068975D01*
X167031478Y-118068974D01*
X167031476Y-118068972D01*
X166900001Y-118014514D01*
X166899996Y-118014512D01*
X166758900Y-117995937D01*
X166758898Y-117995937D01*
X166617801Y-118014512D01*
X166617796Y-118014514D01*
X166486321Y-118068972D01*
X166486320Y-118068972D01*
X166373410Y-118155612D01*
X166286770Y-118268522D01*
X166286770Y-118268523D01*
X166232312Y-118399998D01*
X166232310Y-118400003D01*
X166213735Y-118541100D01*
X166213735Y-118541101D01*
X157045272Y-118541101D01*
X157036072Y-118505912D01*
X156930130Y-118256610D01*
X156789018Y-118025390D01*
X156787810Y-118023939D01*
X156615746Y-117817180D01*
X156615740Y-117817175D01*
X156414002Y-117636418D01*
X156188092Y-117486957D01*
X156188090Y-117486956D01*
X155942824Y-117371980D01*
X155942819Y-117371978D01*
X155942814Y-117371976D01*
X155683442Y-117293942D01*
X155683428Y-117293939D01*
X155543951Y-117273413D01*
X155415439Y-117254500D01*
X155212369Y-117254500D01*
X155212364Y-117254500D01*
X155009844Y-117269323D01*
X155009831Y-117269325D01*
X154745453Y-117328217D01*
X154745446Y-117328220D01*
X154492439Y-117424987D01*
X154256226Y-117557557D01*
X154041822Y-117723112D01*
X153853822Y-117918109D01*
X153853816Y-117918116D01*
X153696202Y-118138419D01*
X153696199Y-118138424D01*
X153572350Y-118379309D01*
X153572343Y-118379327D01*
X153484884Y-118635685D01*
X153484881Y-118635699D01*
X153435681Y-118902068D01*
X153435680Y-118902075D01*
X153425787Y-119172763D01*
X150000500Y-119172763D01*
X150000500Y-116340000D01*
X156874319Y-116340000D01*
X156894984Y-116536618D01*
X156894985Y-116536621D01*
X156956074Y-116724637D01*
X156956077Y-116724643D01*
X157054928Y-116895857D01*
X157187216Y-117042778D01*
X157347159Y-117158984D01*
X157527768Y-117239396D01*
X157721149Y-117280500D01*
X157721150Y-117280500D01*
X157918849Y-117280500D01*
X157918851Y-117280500D01*
X158112232Y-117239396D01*
X158292841Y-117158984D01*
X158452784Y-117042778D01*
X158585072Y-116895857D01*
X158683923Y-116724643D01*
X158703465Y-116664500D01*
X179954836Y-116664500D01*
X179973411Y-116805597D01*
X179973413Y-116805602D01*
X180027871Y-116937077D01*
X180027871Y-116937078D01*
X180027873Y-116937081D01*
X180027874Y-116937082D01*
X180114511Y-117049989D01*
X180227418Y-117136626D01*
X180227421Y-117136627D01*
X180227422Y-117136628D01*
X180281390Y-117158982D01*
X180358901Y-117191088D01*
X180444544Y-117202363D01*
X180508439Y-117230628D01*
X180546911Y-117288952D01*
X180547743Y-117358817D01*
X180519086Y-117407778D01*
X180519459Y-117408064D01*
X180517186Y-117411025D01*
X180516045Y-117412976D01*
X180514517Y-117414503D01*
X180427871Y-117527421D01*
X180427871Y-117527422D01*
X180373413Y-117658897D01*
X180373411Y-117658902D01*
X180354836Y-117799999D01*
X180354836Y-117800000D01*
X180373411Y-117941097D01*
X180373413Y-117941102D01*
X180427871Y-118072577D01*
X180427871Y-118072578D01*
X180427873Y-118072581D01*
X180427874Y-118072582D01*
X180514511Y-118185489D01*
X180627418Y-118272126D01*
X180627421Y-118272127D01*
X180627422Y-118272128D01*
X180693159Y-118299356D01*
X180758901Y-118326588D01*
X180829450Y-118335876D01*
X180899999Y-118345164D01*
X180900000Y-118345164D01*
X180900001Y-118345164D01*
X180947032Y-118338972D01*
X181041099Y-118326588D01*
X181172577Y-118272128D01*
X181172578Y-118272128D01*
X181172578Y-118272127D01*
X181172582Y-118272126D01*
X181285489Y-118185489D01*
X181372126Y-118072582D01*
X181426588Y-117941099D01*
X181445164Y-117800000D01*
X181426588Y-117658901D01*
X181372128Y-117527422D01*
X181372128Y-117527421D01*
X181372126Y-117527418D01*
X181285489Y-117414511D01*
X181172582Y-117327874D01*
X181172579Y-117327873D01*
X181172577Y-117327871D01*
X181041102Y-117273413D01*
X181041097Y-117273411D01*
X180965068Y-117263402D01*
X180955455Y-117262136D01*
X180891559Y-117233871D01*
X180853088Y-117175546D01*
X180852257Y-117105681D01*
X180880915Y-117056723D01*
X180880541Y-117056436D01*
X180882826Y-117053456D01*
X180883966Y-117051511D01*
X180885480Y-117049995D01*
X180885489Y-117049989D01*
X180893154Y-117040000D01*
X194544417Y-117040000D01*
X194564699Y-117245932D01*
X194575185Y-117280500D01*
X194624768Y-117443954D01*
X194722315Y-117626450D01*
X194748943Y-117658897D01*
X194853589Y-117786410D01*
X194950209Y-117865702D01*
X195013550Y-117917685D01*
X195196046Y-118015232D01*
X195394066Y-118075300D01*
X195394065Y-118075300D01*
X195412529Y-118077118D01*
X195600000Y-118095583D01*
X195805934Y-118075300D01*
X196003954Y-118015232D01*
X196186450Y-117917685D01*
X196346410Y-117786410D01*
X196477685Y-117626450D01*
X196575232Y-117443954D01*
X196635300Y-117245934D01*
X196655583Y-117040000D01*
X196655583Y-117039999D01*
X196655583Y-117033908D01*
X196657548Y-117033908D01*
X196668876Y-116974162D01*
X196716939Y-116923450D01*
X196784789Y-116906773D01*
X196837714Y-116921291D01*
X196976046Y-116995232D01*
X197174066Y-117055300D01*
X197174065Y-117055300D01*
X197188514Y-117056723D01*
X197380000Y-117075583D01*
X197585934Y-117055300D01*
X197783954Y-116995232D01*
X197966450Y-116897685D01*
X198126410Y-116766410D01*
X198257685Y-116606450D01*
X198355232Y-116423954D01*
X198415300Y-116225934D01*
X198435583Y-116020000D01*
X198415300Y-115814066D01*
X198355232Y-115616046D01*
X198257685Y-115433550D01*
X198205702Y-115370209D01*
X198126410Y-115273589D01*
X197966452Y-115142317D01*
X197966453Y-115142317D01*
X197966450Y-115142315D01*
X197783954Y-115044768D01*
X197585934Y-114984700D01*
X197585932Y-114984699D01*
X197585934Y-114984699D01*
X197380000Y-114964417D01*
X197174067Y-114984699D01*
X196976041Y-115044769D01*
X196837715Y-115118707D01*
X196769313Y-115132949D01*
X196704069Y-115107949D01*
X196662698Y-115051644D01*
X196656978Y-115006092D01*
X196655583Y-115006092D01*
X196655583Y-115000000D01*
X196635300Y-114794067D01*
X196624633Y-114758902D01*
X196575232Y-114596046D01*
X196477685Y-114413550D01*
X196425702Y-114350209D01*
X196346410Y-114253589D01*
X196186452Y-114122317D01*
X196186453Y-114122317D01*
X196186450Y-114122315D01*
X196003954Y-114024768D01*
X195805934Y-113964700D01*
X195805932Y-113964699D01*
X195805934Y-113964699D01*
X195600000Y-113944417D01*
X195394067Y-113964699D01*
X195196043Y-114024769D01*
X195085897Y-114083643D01*
X195013550Y-114122315D01*
X195013548Y-114122316D01*
X195013547Y-114122317D01*
X194853589Y-114253589D01*
X194722317Y-114413547D01*
X194722315Y-114413550D01*
X194714659Y-114427874D01*
X194624769Y-114596043D01*
X194564699Y-114794067D01*
X194544417Y-114999999D01*
X194564699Y-115205932D01*
X194564700Y-115205934D01*
X194624768Y-115403954D01*
X194722315Y-115586450D01*
X194722317Y-115586452D01*
X194853589Y-115746410D01*
X194936031Y-115814067D01*
X195013550Y-115877685D01*
X195075208Y-115910642D01*
X195125052Y-115959605D01*
X195140512Y-116027743D01*
X195116680Y-116093422D01*
X195075208Y-116129357D01*
X195013550Y-116162315D01*
X195013548Y-116162316D01*
X195013547Y-116162317D01*
X194853589Y-116293589D01*
X194722317Y-116453547D01*
X194624769Y-116636043D01*
X194564699Y-116834067D01*
X194544417Y-117040000D01*
X180893154Y-117040000D01*
X180972126Y-116937082D01*
X181026588Y-116805599D01*
X181045164Y-116664500D01*
X181026588Y-116523401D01*
X180992499Y-116441102D01*
X180972128Y-116391922D01*
X180972128Y-116391921D01*
X180972126Y-116391918D01*
X180901595Y-116300000D01*
X184054836Y-116300000D01*
X184073411Y-116441097D01*
X184073413Y-116441102D01*
X184127871Y-116572577D01*
X184127871Y-116572578D01*
X184127873Y-116572581D01*
X184127874Y-116572582D01*
X184214511Y-116685489D01*
X184327418Y-116772126D01*
X184327421Y-116772127D01*
X184327422Y-116772128D01*
X184393159Y-116799356D01*
X184458901Y-116826588D01*
X184515702Y-116834066D01*
X184599999Y-116845164D01*
X184600000Y-116845164D01*
X184600001Y-116845164D01*
X184647032Y-116838972D01*
X184741099Y-116826588D01*
X184872577Y-116772128D01*
X184872578Y-116772128D01*
X184872578Y-116772127D01*
X184872582Y-116772126D01*
X184985489Y-116685489D01*
X185072126Y-116572582D01*
X185126588Y-116441099D01*
X185145164Y-116300000D01*
X185126588Y-116158901D01*
X185072128Y-116027422D01*
X185072128Y-116027421D01*
X185072126Y-116027418D01*
X184985489Y-115914511D01*
X184872582Y-115827874D01*
X184872579Y-115827873D01*
X184872577Y-115827871D01*
X184741102Y-115773413D01*
X184741097Y-115773411D01*
X184600001Y-115754836D01*
X184599999Y-115754836D01*
X184458902Y-115773411D01*
X184458897Y-115773413D01*
X184327422Y-115827871D01*
X184327421Y-115827871D01*
X184214511Y-115914511D01*
X184127871Y-116027421D01*
X184127871Y-116027422D01*
X184073413Y-116158897D01*
X184073411Y-116158902D01*
X184054836Y-116299999D01*
X184054836Y-116300000D01*
X180901595Y-116300000D01*
X180885489Y-116279011D01*
X180772582Y-116192374D01*
X180772579Y-116192373D01*
X180772577Y-116192371D01*
X180641102Y-116137913D01*
X180641097Y-116137911D01*
X180500001Y-116119336D01*
X180499999Y-116119336D01*
X180358902Y-116137911D01*
X180358897Y-116137913D01*
X180227422Y-116192371D01*
X180227421Y-116192371D01*
X180114511Y-116279011D01*
X180027871Y-116391921D01*
X180027871Y-116391922D01*
X179973413Y-116523397D01*
X179973411Y-116523402D01*
X179954836Y-116664499D01*
X179954836Y-116664500D01*
X158703465Y-116664500D01*
X158745016Y-116536618D01*
X158765681Y-116340000D01*
X158745016Y-116143382D01*
X158738521Y-116123395D01*
X158736527Y-116053556D01*
X158772607Y-115993723D01*
X158835308Y-115962894D01*
X158904722Y-115970858D01*
X158948602Y-116002105D01*
X158967216Y-116022778D01*
X159127159Y-116138984D01*
X159307768Y-116219396D01*
X159501149Y-116260500D01*
X159501150Y-116260500D01*
X159698849Y-116260500D01*
X159698851Y-116260500D01*
X159892232Y-116219396D01*
X160072841Y-116138984D01*
X160232784Y-116022778D01*
X160253293Y-116000000D01*
X178454836Y-116000000D01*
X178473411Y-116141097D01*
X178473413Y-116141102D01*
X178527871Y-116272577D01*
X178527871Y-116272578D01*
X178527873Y-116272581D01*
X178527874Y-116272582D01*
X178614511Y-116385489D01*
X178727418Y-116472126D01*
X178727421Y-116472127D01*
X178727422Y-116472128D01*
X178793159Y-116499356D01*
X178858901Y-116526588D01*
X178929450Y-116535876D01*
X178999999Y-116545164D01*
X179000000Y-116545164D01*
X179000001Y-116545164D01*
X179047032Y-116538972D01*
X179141099Y-116526588D01*
X179272577Y-116472128D01*
X179272578Y-116472128D01*
X179272578Y-116472127D01*
X179272582Y-116472126D01*
X179385489Y-116385489D01*
X179472126Y-116272582D01*
X179526588Y-116141099D01*
X179545164Y-116000000D01*
X179526588Y-115858901D01*
X179472128Y-115727422D01*
X179472128Y-115727421D01*
X179454645Y-115704637D01*
X179385489Y-115614511D01*
X179272582Y-115527874D01*
X179272579Y-115527873D01*
X179272577Y-115527871D01*
X179141102Y-115473413D01*
X179141097Y-115473411D01*
X179000001Y-115454836D01*
X178999999Y-115454836D01*
X178858902Y-115473411D01*
X178858897Y-115473413D01*
X178727422Y-115527871D01*
X178727421Y-115527871D01*
X178614511Y-115614511D01*
X178527871Y-115727421D01*
X178527871Y-115727422D01*
X178473413Y-115858897D01*
X178473411Y-115858902D01*
X178454836Y-115999999D01*
X178454836Y-116000000D01*
X160253293Y-116000000D01*
X160365072Y-115875857D01*
X160463923Y-115704643D01*
X160525016Y-115516618D01*
X160545681Y-115320000D01*
X160525016Y-115123382D01*
X160463923Y-114935357D01*
X160443510Y-114900000D01*
X175554836Y-114900000D01*
X175573411Y-115041097D01*
X175573413Y-115041102D01*
X175627871Y-115172577D01*
X175627871Y-115172578D01*
X175627873Y-115172581D01*
X175627874Y-115172582D01*
X175714511Y-115285489D01*
X175827418Y-115372126D01*
X175827421Y-115372127D01*
X175827422Y-115372128D01*
X175859679Y-115385489D01*
X175958901Y-115426588D01*
X176011760Y-115433547D01*
X176099999Y-115445164D01*
X176100000Y-115445164D01*
X176100001Y-115445164D01*
X176147032Y-115438972D01*
X176241099Y-115426588D01*
X176372577Y-115372128D01*
X176372578Y-115372128D01*
X176372578Y-115372127D01*
X176372582Y-115372126D01*
X176485489Y-115285489D01*
X176572126Y-115172582D01*
X176626588Y-115041099D01*
X176631999Y-115000000D01*
X185554836Y-115000000D01*
X185573411Y-115141097D01*
X185573413Y-115141102D01*
X185627871Y-115272577D01*
X185627871Y-115272578D01*
X185627873Y-115272581D01*
X185627874Y-115272582D01*
X185714511Y-115385489D01*
X185827418Y-115472126D01*
X185827421Y-115472127D01*
X185827422Y-115472128D01*
X185893159Y-115499357D01*
X185958901Y-115526588D01*
X186029450Y-115535876D01*
X186099999Y-115545164D01*
X186100000Y-115545164D01*
X186100001Y-115545164D01*
X186165012Y-115536605D01*
X186241099Y-115526588D01*
X186372577Y-115472128D01*
X186372578Y-115472128D01*
X186372578Y-115472127D01*
X186372582Y-115472126D01*
X186485489Y-115385489D01*
X186572126Y-115272582D01*
X186626588Y-115141099D01*
X186645164Y-115000000D01*
X186626588Y-114858901D01*
X186599356Y-114793159D01*
X186572128Y-114727422D01*
X186572128Y-114727421D01*
X186572126Y-114727418D01*
X186485489Y-114614511D01*
X186372582Y-114527874D01*
X186372579Y-114527873D01*
X186372577Y-114527871D01*
X186241102Y-114473413D01*
X186241097Y-114473411D01*
X186100001Y-114454836D01*
X186099999Y-114454836D01*
X185958902Y-114473411D01*
X185958897Y-114473413D01*
X185827422Y-114527871D01*
X185827421Y-114527871D01*
X185714511Y-114614511D01*
X185627871Y-114727421D01*
X185627871Y-114727422D01*
X185573413Y-114858897D01*
X185573411Y-114858902D01*
X185554836Y-114999999D01*
X185554836Y-115000000D01*
X176631999Y-115000000D01*
X176645164Y-114900000D01*
X176626588Y-114758901D01*
X176572128Y-114627422D01*
X176572128Y-114627421D01*
X176564302Y-114617222D01*
X176485489Y-114514511D01*
X176372582Y-114427874D01*
X176372579Y-114427873D01*
X176372577Y-114427871D01*
X176241102Y-114373413D01*
X176241097Y-114373411D01*
X176100001Y-114354836D01*
X176099999Y-114354836D01*
X175958902Y-114373411D01*
X175958897Y-114373413D01*
X175827422Y-114427871D01*
X175827421Y-114427871D01*
X175714511Y-114514511D01*
X175627871Y-114627421D01*
X175627871Y-114627422D01*
X175573413Y-114758897D01*
X175573411Y-114758902D01*
X175554836Y-114899999D01*
X175554836Y-114900000D01*
X160443510Y-114900000D01*
X160365072Y-114764143D01*
X160232784Y-114617222D01*
X160072841Y-114501016D01*
X159892232Y-114420604D01*
X159892230Y-114420603D01*
X159751048Y-114390594D01*
X159698851Y-114379500D01*
X159501149Y-114379500D01*
X159467251Y-114386705D01*
X159307768Y-114420603D01*
X159307762Y-114420605D01*
X159127160Y-114501016D01*
X159127155Y-114501018D01*
X158967217Y-114617220D01*
X158967210Y-114617226D01*
X158834927Y-114764144D01*
X158736077Y-114935356D01*
X158736074Y-114935362D01*
X158679998Y-115107949D01*
X158674984Y-115123382D01*
X158654319Y-115320000D01*
X158674984Y-115516618D01*
X158678640Y-115527871D01*
X158681478Y-115536605D01*
X158683472Y-115606446D01*
X158647390Y-115666278D01*
X158584689Y-115697105D01*
X158515274Y-115689139D01*
X158471398Y-115657895D01*
X158452784Y-115637222D01*
X158292841Y-115521016D01*
X158112232Y-115440604D01*
X158112230Y-115440603D01*
X157971048Y-115410594D01*
X157918851Y-115399500D01*
X157721149Y-115399500D01*
X157700185Y-115403956D01*
X157527768Y-115440603D01*
X157527762Y-115440605D01*
X157347160Y-115521016D01*
X157347155Y-115521018D01*
X157187217Y-115637220D01*
X157187210Y-115637226D01*
X157054927Y-115784144D01*
X156956077Y-115955356D01*
X156956074Y-115955362D01*
X156895725Y-116141102D01*
X156894984Y-116143382D01*
X156874319Y-116340000D01*
X150000500Y-116340000D01*
X150000500Y-114019873D01*
X167574709Y-114019873D01*
X167593284Y-114160970D01*
X167593286Y-114160975D01*
X167647744Y-114292450D01*
X167647744Y-114292451D01*
X167647746Y-114292454D01*
X167647747Y-114292455D01*
X167734384Y-114405362D01*
X167847291Y-114491999D01*
X167847294Y-114492000D01*
X167847295Y-114492001D01*
X167901640Y-114514511D01*
X167978774Y-114546461D01*
X168049323Y-114555749D01*
X168119872Y-114565037D01*
X168119873Y-114565037D01*
X168119874Y-114565037D01*
X168166906Y-114558845D01*
X168260972Y-114546461D01*
X168392450Y-114492001D01*
X168392451Y-114492001D01*
X168392451Y-114492000D01*
X168392455Y-114491999D01*
X168505362Y-114405362D01*
X168591999Y-114292455D01*
X168646461Y-114160972D01*
X168665037Y-114019873D01*
X168646461Y-113878774D01*
X168592001Y-113747295D01*
X168592001Y-113747294D01*
X168591999Y-113747291D01*
X168505362Y-113634384D01*
X168392455Y-113547747D01*
X168392452Y-113547746D01*
X168392450Y-113547744D01*
X168260975Y-113493286D01*
X168260970Y-113493284D01*
X168119874Y-113474709D01*
X168119872Y-113474709D01*
X167978775Y-113493284D01*
X167978770Y-113493286D01*
X167847295Y-113547744D01*
X167847294Y-113547744D01*
X167734384Y-113634384D01*
X167647744Y-113747294D01*
X167647744Y-113747295D01*
X167593286Y-113878770D01*
X167593284Y-113878775D01*
X167574709Y-114019872D01*
X167574709Y-114019873D01*
X150000500Y-114019873D01*
X150000500Y-110220000D01*
X156764417Y-110220000D01*
X156784699Y-110425932D01*
X156784700Y-110425934D01*
X156844768Y-110623954D01*
X156942315Y-110806450D01*
X156942317Y-110806452D01*
X157073589Y-110966410D01*
X157156031Y-111034067D01*
X157233550Y-111097685D01*
X157416046Y-111195232D01*
X157614066Y-111255300D01*
X157614065Y-111255300D01*
X157632529Y-111257118D01*
X157820000Y-111275583D01*
X158025934Y-111255300D01*
X158223954Y-111195232D01*
X158362285Y-111121291D01*
X158430685Y-111107050D01*
X158495930Y-111132049D01*
X158537300Y-111188354D01*
X158543028Y-111233908D01*
X158544417Y-111233908D01*
X158544417Y-111239999D01*
X158564699Y-111445932D01*
X158573776Y-111475855D01*
X158624768Y-111643954D01*
X158722315Y-111826450D01*
X158722317Y-111826452D01*
X158853589Y-111986410D01*
X158950209Y-112065702D01*
X159013550Y-112117685D01*
X159196046Y-112215232D01*
X159394066Y-112275300D01*
X159394065Y-112275300D01*
X159412529Y-112277118D01*
X159600000Y-112295583D01*
X159805934Y-112275300D01*
X160003954Y-112215232D01*
X160186450Y-112117685D01*
X160346410Y-111986410D01*
X160477685Y-111826450D01*
X160575232Y-111643954D01*
X160635300Y-111445934D01*
X160655583Y-111240000D01*
X160650511Y-111188502D01*
X185719336Y-111188502D01*
X185737911Y-111329599D01*
X185737913Y-111329604D01*
X185792371Y-111461079D01*
X185792371Y-111461080D01*
X185792373Y-111461083D01*
X185792374Y-111461084D01*
X185879011Y-111573991D01*
X185991918Y-111660628D01*
X185991921Y-111660629D01*
X185991922Y-111660630D01*
X186057659Y-111687858D01*
X186123401Y-111715090D01*
X186193950Y-111724378D01*
X186264499Y-111733666D01*
X186264500Y-111733666D01*
X186264501Y-111733666D01*
X186311533Y-111727474D01*
X186405599Y-111715090D01*
X186537077Y-111660630D01*
X186537078Y-111660630D01*
X186537078Y-111660629D01*
X186537082Y-111660628D01*
X186649989Y-111573991D01*
X186736626Y-111461084D01*
X186791088Y-111329601D01*
X186809664Y-111188502D01*
X186791088Y-111047403D01*
X186757540Y-110966410D01*
X186738316Y-110920000D01*
X194654319Y-110920000D01*
X194674984Y-111116618D01*
X194674985Y-111116621D01*
X194736074Y-111304637D01*
X194736077Y-111304643D01*
X194834928Y-111475857D01*
X194967216Y-111622778D01*
X195127159Y-111738984D01*
X195307768Y-111819396D01*
X195501149Y-111860500D01*
X195501150Y-111860500D01*
X195698849Y-111860500D01*
X195698851Y-111860500D01*
X195892232Y-111819396D01*
X196072841Y-111738984D01*
X196232784Y-111622778D01*
X196365072Y-111475857D01*
X196463923Y-111304643D01*
X196525016Y-111116618D01*
X196545681Y-110920000D01*
X196525016Y-110723382D01*
X196518521Y-110703395D01*
X196516527Y-110633556D01*
X196552607Y-110573723D01*
X196615308Y-110542894D01*
X196684722Y-110550858D01*
X196728602Y-110582105D01*
X196747216Y-110602778D01*
X196907159Y-110718984D01*
X197087768Y-110799396D01*
X197281149Y-110840500D01*
X197281150Y-110840500D01*
X197478849Y-110840500D01*
X197478851Y-110840500D01*
X197672232Y-110799396D01*
X197852841Y-110718984D01*
X198012784Y-110602778D01*
X198145072Y-110455857D01*
X198243923Y-110284643D01*
X198305016Y-110096618D01*
X198325681Y-109900000D01*
X198305016Y-109703382D01*
X198243923Y-109515357D01*
X198145072Y-109344143D01*
X198012784Y-109197222D01*
X197852841Y-109081016D01*
X197672232Y-109000604D01*
X197672230Y-109000603D01*
X197531048Y-108970594D01*
X197478851Y-108959500D01*
X197281149Y-108959500D01*
X197247251Y-108966705D01*
X197087768Y-109000603D01*
X197087762Y-109000605D01*
X196907160Y-109081016D01*
X196907155Y-109081018D01*
X196747217Y-109197220D01*
X196747210Y-109197226D01*
X196614927Y-109344144D01*
X196516077Y-109515356D01*
X196516074Y-109515362D01*
X196454985Y-109703378D01*
X196454984Y-109703382D01*
X196434319Y-109900000D01*
X196454984Y-110096618D01*
X196456414Y-110101018D01*
X196461478Y-110116605D01*
X196463472Y-110186446D01*
X196427390Y-110246278D01*
X196364689Y-110277105D01*
X196295274Y-110269139D01*
X196251398Y-110237895D01*
X196232784Y-110217222D01*
X196072841Y-110101016D01*
X195892232Y-110020604D01*
X195892230Y-110020603D01*
X195751048Y-109990594D01*
X195698851Y-109979500D01*
X195501149Y-109979500D01*
X195467251Y-109986705D01*
X195307768Y-110020603D01*
X195307762Y-110020605D01*
X195127160Y-110101016D01*
X195127155Y-110101018D01*
X194967217Y-110217220D01*
X194967210Y-110217226D01*
X194834927Y-110364144D01*
X194736077Y-110535356D01*
X194736074Y-110535362D01*
X194676413Y-110718984D01*
X194674984Y-110723382D01*
X194654319Y-110920000D01*
X186738316Y-110920000D01*
X186736628Y-110915924D01*
X186736628Y-110915923D01*
X186736626Y-110915920D01*
X186649989Y-110803013D01*
X186537082Y-110716376D01*
X186537079Y-110716375D01*
X186537077Y-110716373D01*
X186405602Y-110661915D01*
X186405597Y-110661913D01*
X186264501Y-110643338D01*
X186264499Y-110643338D01*
X186123402Y-110661913D01*
X186123397Y-110661915D01*
X185991922Y-110716373D01*
X185991921Y-110716373D01*
X185879011Y-110803013D01*
X185792371Y-110915923D01*
X185792371Y-110915924D01*
X185737913Y-111047399D01*
X185737911Y-111047404D01*
X185719336Y-111188501D01*
X185719336Y-111188502D01*
X160650511Y-111188502D01*
X160635300Y-111034066D01*
X160575232Y-110836046D01*
X160477685Y-110653550D01*
X160412173Y-110573723D01*
X160346410Y-110493589D01*
X160186451Y-110362315D01*
X160124792Y-110329358D01*
X160074947Y-110280396D01*
X160059487Y-110212258D01*
X160083319Y-110146578D01*
X160124792Y-110110642D01*
X160142801Y-110101016D01*
X160186450Y-110077685D01*
X160346410Y-109946410D01*
X160477685Y-109786450D01*
X160575232Y-109603954D01*
X160635300Y-109405934D01*
X160655583Y-109200000D01*
X160635300Y-108994066D01*
X160575232Y-108796046D01*
X160477685Y-108613550D01*
X160398356Y-108516887D01*
X160346410Y-108453589D01*
X160186452Y-108322317D01*
X160186453Y-108322317D01*
X160186450Y-108322315D01*
X160003954Y-108224768D01*
X159805934Y-108164700D01*
X159805932Y-108164699D01*
X159805934Y-108164699D01*
X159600000Y-108144417D01*
X159394067Y-108164699D01*
X159196043Y-108224769D01*
X159085897Y-108283643D01*
X159013550Y-108322315D01*
X159013548Y-108322316D01*
X159013547Y-108322317D01*
X158853589Y-108453589D01*
X158722317Y-108613547D01*
X158624769Y-108796043D01*
X158564699Y-108994067D01*
X158544417Y-109200000D01*
X158544417Y-109206092D01*
X158542459Y-109206092D01*
X158531108Y-109265867D01*
X158483031Y-109316566D01*
X158415176Y-109333224D01*
X158362283Y-109318707D01*
X158223956Y-109244769D01*
X158223955Y-109244768D01*
X158223954Y-109244768D01*
X158025934Y-109184700D01*
X158025932Y-109184699D01*
X158025934Y-109184699D01*
X157820000Y-109164417D01*
X157614067Y-109184699D01*
X157416043Y-109244769D01*
X157305897Y-109303643D01*
X157233550Y-109342315D01*
X157233548Y-109342316D01*
X157233547Y-109342317D01*
X157073589Y-109473589D01*
X156942317Y-109633547D01*
X156844769Y-109816043D01*
X156784699Y-110014067D01*
X156764417Y-110220000D01*
X150000500Y-110220000D01*
X150000500Y-106472763D01*
X153425787Y-106472763D01*
X153455413Y-106742013D01*
X153455415Y-106742024D01*
X153505101Y-106932075D01*
X153523928Y-107004088D01*
X153629870Y-107253390D01*
X153645115Y-107278369D01*
X153770979Y-107484605D01*
X153770986Y-107484615D01*
X153944253Y-107692819D01*
X153944259Y-107692824D01*
X154145998Y-107873582D01*
X154371910Y-108023044D01*
X154617176Y-108138020D01*
X154617183Y-108138022D01*
X154617185Y-108138023D01*
X154876557Y-108216057D01*
X154876564Y-108216058D01*
X154876569Y-108216060D01*
X155144561Y-108255500D01*
X155144566Y-108255500D01*
X155347636Y-108255500D01*
X155399133Y-108251730D01*
X155550156Y-108240677D01*
X155667152Y-108214615D01*
X155814546Y-108181782D01*
X155814548Y-108181781D01*
X155814553Y-108181780D01*
X156067558Y-108085014D01*
X156303777Y-107952441D01*
X156518177Y-107786888D01*
X156706186Y-107591881D01*
X156863799Y-107371579D01*
X156972550Y-107160057D01*
X156987649Y-107130690D01*
X156987651Y-107130684D01*
X156987656Y-107130675D01*
X157075118Y-106874305D01*
X157124319Y-106607933D01*
X157134212Y-106337235D01*
X157104586Y-106067982D01*
X157060671Y-105900005D01*
X166094859Y-105900005D01*
X166115385Y-106147729D01*
X166115387Y-106147738D01*
X166176412Y-106388717D01*
X166276266Y-106616364D01*
X166376564Y-106769882D01*
X167116923Y-106029523D01*
X167140507Y-106109844D01*
X167218239Y-106230798D01*
X167326900Y-106324952D01*
X167457685Y-106384680D01*
X167467466Y-106386086D01*
X166729942Y-107123609D01*
X166776768Y-107160055D01*
X166776770Y-107160056D01*
X166995385Y-107278364D01*
X166995396Y-107278369D01*
X167230506Y-107359083D01*
X167475707Y-107400000D01*
X167724293Y-107400000D01*
X167969493Y-107359083D01*
X168204603Y-107278369D01*
X168204614Y-107278364D01*
X168344314Y-107202763D01*
X198065787Y-107202763D01*
X198095413Y-107472013D01*
X198095415Y-107472024D01*
X198153139Y-107692820D01*
X198163928Y-107734088D01*
X198269870Y-107983390D01*
X198390946Y-108181780D01*
X198410979Y-108214605D01*
X198410986Y-108214615D01*
X198584253Y-108422819D01*
X198584259Y-108422824D01*
X198785998Y-108603582D01*
X199011910Y-108753044D01*
X199257176Y-108868020D01*
X199257183Y-108868022D01*
X199257185Y-108868023D01*
X199516557Y-108946057D01*
X199516564Y-108946058D01*
X199516569Y-108946060D01*
X199784561Y-108985500D01*
X199784566Y-108985500D01*
X199987636Y-108985500D01*
X200039133Y-108981730D01*
X200190156Y-108970677D01*
X200302758Y-108945593D01*
X200454546Y-108911782D01*
X200454548Y-108911781D01*
X200454553Y-108911780D01*
X200707558Y-108815014D01*
X200943777Y-108682441D01*
X201158177Y-108516888D01*
X201346186Y-108321881D01*
X201503799Y-108101579D01*
X201580476Y-107952441D01*
X201627649Y-107860690D01*
X201627651Y-107860684D01*
X201627656Y-107860675D01*
X201715118Y-107604305D01*
X201764319Y-107337933D01*
X201774212Y-107067235D01*
X201744586Y-106797982D01*
X201676072Y-106535912D01*
X201570130Y-106286610D01*
X201429018Y-106055390D01*
X201427845Y-106053981D01*
X201255746Y-105847180D01*
X201255740Y-105847175D01*
X201054002Y-105666418D01*
X200828092Y-105516957D01*
X200738692Y-105475048D01*
X200582824Y-105401980D01*
X200582819Y-105401978D01*
X200582814Y-105401976D01*
X200323442Y-105323942D01*
X200323428Y-105323939D01*
X200207791Y-105306921D01*
X200055439Y-105284500D01*
X199852369Y-105284500D01*
X199852364Y-105284500D01*
X199649844Y-105299323D01*
X199649831Y-105299325D01*
X199385453Y-105358217D01*
X199385446Y-105358220D01*
X199132439Y-105454987D01*
X198896226Y-105587557D01*
X198681822Y-105753112D01*
X198493822Y-105948109D01*
X198493816Y-105948116D01*
X198336202Y-106168419D01*
X198336199Y-106168424D01*
X198212350Y-106409309D01*
X198212343Y-106409327D01*
X198124884Y-106665685D01*
X198124881Y-106665699D01*
X198110783Y-106742024D01*
X198079012Y-106914036D01*
X198075681Y-106932068D01*
X198075680Y-106932075D01*
X198065787Y-107202763D01*
X168344314Y-107202763D01*
X168423228Y-107160057D01*
X168423231Y-107160055D01*
X168470056Y-107123609D01*
X167732533Y-106386086D01*
X167742315Y-106384680D01*
X167873100Y-106324952D01*
X167981761Y-106230798D01*
X168059493Y-106109844D01*
X168083076Y-106029524D01*
X168823434Y-106769882D01*
X168923731Y-106616369D01*
X169023587Y-106388717D01*
X169084612Y-106147738D01*
X169084614Y-106147729D01*
X169096855Y-106000000D01*
X170554614Y-106000000D01*
X170574115Y-106210463D01*
X170574116Y-106210466D01*
X170631956Y-106413756D01*
X170631959Y-106413762D01*
X170726173Y-106602968D01*
X170853551Y-106771644D01*
X170966160Y-106874300D01*
X171009751Y-106914038D01*
X171189458Y-107025308D01*
X171189459Y-107025308D01*
X171189460Y-107025309D01*
X171231213Y-107041484D01*
X171386550Y-107101662D01*
X171594317Y-107140500D01*
X171594319Y-107140500D01*
X171805681Y-107140500D01*
X171805683Y-107140500D01*
X172013450Y-107101662D01*
X172210542Y-107025308D01*
X172390249Y-106914038D01*
X172546450Y-106771642D01*
X172673827Y-106602968D01*
X172768041Y-106413761D01*
X172768041Y-106413758D01*
X172768043Y-106413756D01*
X172825883Y-106210466D01*
X172825884Y-106210463D01*
X172829780Y-106168424D01*
X172845386Y-106000000D01*
X172839426Y-105935685D01*
X172825884Y-105789536D01*
X172825883Y-105789533D01*
X172768043Y-105586243D01*
X172768040Y-105586237D01*
X172748227Y-105546447D01*
X172673827Y-105397032D01*
X172546450Y-105228358D01*
X172546448Y-105228355D01*
X172515344Y-105200000D01*
X186754836Y-105200000D01*
X186773411Y-105341097D01*
X186773413Y-105341102D01*
X186827871Y-105472577D01*
X186827871Y-105472578D01*
X186827873Y-105472581D01*
X186827874Y-105472582D01*
X186914511Y-105585489D01*
X187027418Y-105672126D01*
X187027421Y-105672127D01*
X187027422Y-105672128D01*
X187070946Y-105690156D01*
X187158901Y-105726588D01*
X187229450Y-105735876D01*
X187299999Y-105745164D01*
X187300000Y-105745164D01*
X187300001Y-105745164D01*
X187347032Y-105738972D01*
X187441099Y-105726588D01*
X187572577Y-105672128D01*
X187572578Y-105672128D01*
X187572578Y-105672127D01*
X187572582Y-105672126D01*
X187685489Y-105585489D01*
X187772126Y-105472582D01*
X187826588Y-105341099D01*
X187845164Y-105200000D01*
X187826588Y-105058901D01*
X187772128Y-104927422D01*
X187772128Y-104927421D01*
X187772126Y-104927418D01*
X187685489Y-104814511D01*
X187572582Y-104727874D01*
X187572579Y-104727873D01*
X187572577Y-104727871D01*
X187441102Y-104673413D01*
X187441097Y-104673411D01*
X187300001Y-104654836D01*
X187299999Y-104654836D01*
X187158902Y-104673411D01*
X187158897Y-104673413D01*
X187027422Y-104727871D01*
X187027421Y-104727871D01*
X186914511Y-104814511D01*
X186827871Y-104927421D01*
X186827871Y-104927422D01*
X186773413Y-105058897D01*
X186773411Y-105058902D01*
X186754836Y-105199999D01*
X186754836Y-105200000D01*
X172515344Y-105200000D01*
X172390250Y-105085963D01*
X172390249Y-105085962D01*
X172210542Y-104974692D01*
X172210540Y-104974691D01*
X172210539Y-104974690D01*
X172055205Y-104914514D01*
X172013450Y-104898338D01*
X171805683Y-104859500D01*
X171594317Y-104859500D01*
X171386550Y-104898338D01*
X171386547Y-104898338D01*
X171386547Y-104898339D01*
X171189460Y-104974690D01*
X171189459Y-104974691D01*
X171009749Y-105085963D01*
X170853551Y-105228355D01*
X170726173Y-105397031D01*
X170631959Y-105586237D01*
X170631956Y-105586243D01*
X170574116Y-105789533D01*
X170574115Y-105789536D01*
X170554614Y-105999999D01*
X170554614Y-106000000D01*
X169096855Y-106000000D01*
X169105141Y-105900005D01*
X169105141Y-105899994D01*
X169084614Y-105652270D01*
X169084612Y-105652261D01*
X169023587Y-105411282D01*
X168923731Y-105183630D01*
X168823434Y-105030116D01*
X168083076Y-105770475D01*
X168059493Y-105690156D01*
X167981761Y-105569202D01*
X167873100Y-105475048D01*
X167742315Y-105415320D01*
X167732534Y-105413913D01*
X168470057Y-104676390D01*
X168470056Y-104676389D01*
X168423229Y-104639943D01*
X168204614Y-104521635D01*
X168204603Y-104521630D01*
X167969493Y-104440916D01*
X167724293Y-104400000D01*
X167475707Y-104400000D01*
X167230506Y-104440916D01*
X166995396Y-104521630D01*
X166995390Y-104521632D01*
X166776761Y-104639949D01*
X166729942Y-104676388D01*
X166729942Y-104676390D01*
X167467466Y-105413913D01*
X167457685Y-105415320D01*
X167326900Y-105475048D01*
X167218239Y-105569202D01*
X167140507Y-105690156D01*
X167116923Y-105770475D01*
X166376564Y-105030116D01*
X166276267Y-105183632D01*
X166176412Y-105411282D01*
X166115387Y-105652261D01*
X166115385Y-105652270D01*
X166094859Y-105899994D01*
X166094859Y-105900005D01*
X157060671Y-105900005D01*
X157036072Y-105805912D01*
X156930130Y-105556610D01*
X156789018Y-105325390D01*
X156708268Y-105228358D01*
X156615746Y-105117180D01*
X156615740Y-105117175D01*
X156414002Y-104936418D01*
X156188092Y-104786957D01*
X156188090Y-104786956D01*
X155942824Y-104671980D01*
X155942819Y-104671978D01*
X155942814Y-104671976D01*
X155683442Y-104593942D01*
X155683428Y-104593939D01*
X155567791Y-104576921D01*
X155415439Y-104554500D01*
X155212369Y-104554500D01*
X155212364Y-104554500D01*
X155009844Y-104569323D01*
X155009831Y-104569325D01*
X154745453Y-104628217D01*
X154745446Y-104628220D01*
X154492439Y-104724987D01*
X154256226Y-104857557D01*
X154256224Y-104857558D01*
X154256223Y-104857559D01*
X154203412Y-104898338D01*
X154041822Y-105023112D01*
X153853822Y-105218109D01*
X153853816Y-105218116D01*
X153696202Y-105438419D01*
X153696199Y-105438424D01*
X153572350Y-105679309D01*
X153572343Y-105679327D01*
X153484884Y-105935685D01*
X153484881Y-105935699D01*
X153435681Y-106202068D01*
X153435680Y-106202075D01*
X153425787Y-106472763D01*
X150000500Y-106472763D01*
X150000500Y-104080500D01*
X169254836Y-104080500D01*
X169273411Y-104221597D01*
X169273413Y-104221602D01*
X169327871Y-104353077D01*
X169327871Y-104353078D01*
X169327873Y-104353081D01*
X169327874Y-104353082D01*
X169414511Y-104465989D01*
X169527418Y-104552626D01*
X169527421Y-104552627D01*
X169527422Y-104552628D01*
X169567728Y-104569323D01*
X169658901Y-104607088D01*
X169729450Y-104616376D01*
X169799999Y-104625664D01*
X169800000Y-104625664D01*
X169800001Y-104625664D01*
X169847032Y-104619472D01*
X169941099Y-104607088D01*
X170072577Y-104552628D01*
X170072578Y-104552628D01*
X170072578Y-104552627D01*
X170072582Y-104552626D01*
X170185489Y-104465989D01*
X170272126Y-104353082D01*
X170326588Y-104221599D01*
X170345164Y-104080500D01*
X170334566Y-104000000D01*
X186154836Y-104000000D01*
X186173411Y-104141097D01*
X186173413Y-104141102D01*
X186227871Y-104272577D01*
X186227871Y-104272578D01*
X186227873Y-104272581D01*
X186227874Y-104272582D01*
X186314511Y-104385489D01*
X186427418Y-104472126D01*
X186427421Y-104472127D01*
X186427422Y-104472128D01*
X186493159Y-104499357D01*
X186558901Y-104526588D01*
X186629450Y-104535876D01*
X186699999Y-104545164D01*
X186700000Y-104545164D01*
X186700001Y-104545164D01*
X186747032Y-104538972D01*
X186841099Y-104526588D01*
X186972577Y-104472128D01*
X186972578Y-104472128D01*
X186972578Y-104472127D01*
X186972582Y-104472126D01*
X187085489Y-104385489D01*
X187172126Y-104272582D01*
X187226588Y-104141099D01*
X187245164Y-104000000D01*
X187226588Y-103858901D01*
X187172128Y-103727422D01*
X187172128Y-103727421D01*
X187147259Y-103695011D01*
X187085489Y-103614511D01*
X186972582Y-103527874D01*
X186972579Y-103527873D01*
X186972577Y-103527871D01*
X186841102Y-103473413D01*
X186841097Y-103473411D01*
X186700001Y-103454836D01*
X186699999Y-103454836D01*
X186558902Y-103473411D01*
X186558897Y-103473413D01*
X186427422Y-103527871D01*
X186427421Y-103527871D01*
X186314511Y-103614511D01*
X186227871Y-103727421D01*
X186227871Y-103727422D01*
X186173413Y-103858897D01*
X186173411Y-103858902D01*
X186154836Y-103999999D01*
X186154836Y-104000000D01*
X170334566Y-104000000D01*
X170326588Y-103939401D01*
X170272128Y-103807922D01*
X170272128Y-103807921D01*
X170272126Y-103807918D01*
X170185489Y-103695011D01*
X170072582Y-103608374D01*
X170072579Y-103608373D01*
X170072577Y-103608371D01*
X169941102Y-103553913D01*
X169941097Y-103553911D01*
X169800001Y-103535336D01*
X169799999Y-103535336D01*
X169658902Y-103553911D01*
X169658897Y-103553913D01*
X169527422Y-103608371D01*
X169527421Y-103608371D01*
X169414511Y-103695011D01*
X169327871Y-103807921D01*
X169327871Y-103807922D01*
X169273413Y-103939397D01*
X169273411Y-103939402D01*
X169254836Y-104080499D01*
X169254836Y-104080500D01*
X150000500Y-104080500D01*
X150000500Y-102600000D01*
X161754836Y-102600000D01*
X161773411Y-102741097D01*
X161773413Y-102741102D01*
X161827871Y-102872577D01*
X161827871Y-102872578D01*
X161827873Y-102872581D01*
X161827874Y-102872582D01*
X161914511Y-102985489D01*
X162027418Y-103072126D01*
X162027421Y-103072127D01*
X162027422Y-103072128D01*
X162093159Y-103099357D01*
X162158901Y-103126588D01*
X162229450Y-103135876D01*
X162299999Y-103145164D01*
X162300000Y-103145164D01*
X162300001Y-103145164D01*
X162347032Y-103138972D01*
X162441099Y-103126588D01*
X162572577Y-103072128D01*
X162572578Y-103072128D01*
X162572578Y-103072127D01*
X162572582Y-103072126D01*
X162685489Y-102985489D01*
X162772126Y-102872582D01*
X162802190Y-102800000D01*
X173354836Y-102800000D01*
X173373411Y-102941097D01*
X173373413Y-102941102D01*
X173427871Y-103072577D01*
X173427871Y-103072578D01*
X173427873Y-103072581D01*
X173427874Y-103072582D01*
X173514511Y-103185489D01*
X173627418Y-103272126D01*
X173627421Y-103272127D01*
X173627422Y-103272128D01*
X173693159Y-103299357D01*
X173758901Y-103326588D01*
X173829450Y-103335876D01*
X173899999Y-103345164D01*
X173900000Y-103345164D01*
X173900001Y-103345164D01*
X173947032Y-103338972D01*
X174041099Y-103326588D01*
X174172577Y-103272128D01*
X174172578Y-103272128D01*
X174172578Y-103272127D01*
X174172582Y-103272126D01*
X174285489Y-103185489D01*
X174372126Y-103072582D01*
X174426588Y-102941099D01*
X174445164Y-102800000D01*
X174426588Y-102658901D01*
X174372128Y-102527422D01*
X174372128Y-102527421D01*
X174372126Y-102527418D01*
X174285489Y-102414511D01*
X174172582Y-102327874D01*
X174172579Y-102327873D01*
X174172577Y-102327871D01*
X174041102Y-102273413D01*
X174041097Y-102273411D01*
X173900001Y-102254836D01*
X173899999Y-102254836D01*
X173758902Y-102273411D01*
X173758897Y-102273413D01*
X173627422Y-102327871D01*
X173627421Y-102327871D01*
X173514511Y-102414511D01*
X173427871Y-102527421D01*
X173427871Y-102527422D01*
X173373413Y-102658897D01*
X173373411Y-102658902D01*
X173354836Y-102799999D01*
X173354836Y-102800000D01*
X162802190Y-102800000D01*
X162826588Y-102741099D01*
X162845164Y-102600000D01*
X162826588Y-102458901D01*
X162772128Y-102327422D01*
X162772128Y-102327421D01*
X162730686Y-102273413D01*
X162685489Y-102214511D01*
X162572582Y-102127874D01*
X162572579Y-102127873D01*
X162572577Y-102127871D01*
X162441102Y-102073413D01*
X162441097Y-102073411D01*
X162300001Y-102054836D01*
X162299999Y-102054836D01*
X162158902Y-102073411D01*
X162158897Y-102073413D01*
X162027422Y-102127871D01*
X162027421Y-102127871D01*
X161914511Y-102214511D01*
X161827871Y-102327421D01*
X161827871Y-102327422D01*
X161773413Y-102458897D01*
X161773411Y-102458902D01*
X161754836Y-102599999D01*
X161754836Y-102600000D01*
X150000500Y-102600000D01*
X150000500Y-101600000D01*
X180554836Y-101600000D01*
X180573411Y-101741097D01*
X180573413Y-101741102D01*
X180627871Y-101872577D01*
X180627871Y-101872578D01*
X180627873Y-101872581D01*
X180627874Y-101872582D01*
X180714511Y-101985489D01*
X180827418Y-102072126D01*
X180827421Y-102072127D01*
X180827422Y-102072128D01*
X180893159Y-102099357D01*
X180958901Y-102126588D01*
X181029450Y-102135876D01*
X181099999Y-102145164D01*
X181100000Y-102145164D01*
X181100001Y-102145164D01*
X181147032Y-102138972D01*
X181241099Y-102126588D01*
X181372577Y-102072128D01*
X181372578Y-102072128D01*
X181372578Y-102072127D01*
X181372582Y-102072126D01*
X181485489Y-101985489D01*
X181572126Y-101872582D01*
X181626588Y-101741099D01*
X181645164Y-101600000D01*
X181631999Y-101500000D01*
X191054614Y-101500000D01*
X191074115Y-101710463D01*
X191074116Y-101710466D01*
X191131956Y-101913756D01*
X191131959Y-101913762D01*
X191226173Y-102102968D01*
X191353551Y-102271644D01*
X191487925Y-102394141D01*
X191509751Y-102414038D01*
X191689458Y-102525308D01*
X191689459Y-102525308D01*
X191689460Y-102525309D01*
X191731213Y-102541484D01*
X191886550Y-102601662D01*
X192094317Y-102640500D01*
X192094319Y-102640500D01*
X192305681Y-102640500D01*
X192305683Y-102640500D01*
X192513450Y-102601662D01*
X192710542Y-102525308D01*
X192890249Y-102414038D01*
X193044507Y-102273413D01*
X193046448Y-102271644D01*
X193089593Y-102214511D01*
X193173827Y-102102968D01*
X193268041Y-101913761D01*
X193268041Y-101913758D01*
X193268043Y-101913756D01*
X193301162Y-101797350D01*
X193325884Y-101710464D01*
X193345386Y-101500000D01*
X193329394Y-101327421D01*
X193325884Y-101289536D01*
X193325883Y-101289533D01*
X193268043Y-101086243D01*
X193268040Y-101086237D01*
X193252404Y-101054836D01*
X193173827Y-100897032D01*
X193046450Y-100728358D01*
X193046448Y-100728355D01*
X192890250Y-100585963D01*
X192890249Y-100585962D01*
X192710542Y-100474692D01*
X192710540Y-100474691D01*
X192710539Y-100474690D01*
X192551165Y-100412949D01*
X192513450Y-100398338D01*
X192305683Y-100359500D01*
X192094317Y-100359500D01*
X191886550Y-100398338D01*
X191886547Y-100398338D01*
X191886547Y-100398339D01*
X191689460Y-100474690D01*
X191689459Y-100474691D01*
X191509749Y-100585963D01*
X191353551Y-100728355D01*
X191226173Y-100897031D01*
X191131959Y-101086237D01*
X191131956Y-101086243D01*
X191074116Y-101289533D01*
X191074115Y-101289536D01*
X191054614Y-101499999D01*
X191054614Y-101500000D01*
X181631999Y-101500000D01*
X181626588Y-101458901D01*
X181572128Y-101327422D01*
X181572128Y-101327421D01*
X181572126Y-101327418D01*
X181485489Y-101214511D01*
X181372582Y-101127874D01*
X181372579Y-101127873D01*
X181372577Y-101127871D01*
X181241102Y-101073413D01*
X181241097Y-101073411D01*
X181100001Y-101054836D01*
X181099999Y-101054836D01*
X180958902Y-101073411D01*
X180958897Y-101073413D01*
X180827422Y-101127871D01*
X180827421Y-101127871D01*
X180714511Y-101214511D01*
X180627871Y-101327421D01*
X180627871Y-101327422D01*
X180573413Y-101458897D01*
X180573411Y-101458902D01*
X180554836Y-101599999D01*
X180554836Y-101600000D01*
X150000500Y-101600000D01*
X150000500Y-99860000D01*
X151637907Y-99860000D01*
X151657030Y-100054169D01*
X151675910Y-100116408D01*
X151694858Y-100178872D01*
X151713671Y-100240888D01*
X151805640Y-100412949D01*
X151805644Y-100412956D01*
X151929421Y-100563778D01*
X152080243Y-100687555D01*
X152080250Y-100687559D01*
X152252311Y-100779528D01*
X152252314Y-100779528D01*
X152252318Y-100779531D01*
X152439028Y-100836169D01*
X152633200Y-100855293D01*
X152827372Y-100836169D01*
X153014082Y-100779531D01*
X153186155Y-100687556D01*
X153336978Y-100563778D01*
X153460756Y-100412955D01*
X153552731Y-100240882D01*
X153609369Y-100054172D01*
X153628493Y-99860000D01*
X153617447Y-99747844D01*
X195175000Y-99747844D01*
X195181401Y-99807372D01*
X195181403Y-99807379D01*
X195231645Y-99942086D01*
X195231649Y-99942093D01*
X195317809Y-100057187D01*
X195317812Y-100057190D01*
X195432906Y-100143350D01*
X195432913Y-100143354D01*
X195567620Y-100193596D01*
X195567627Y-100193598D01*
X195627155Y-100199999D01*
X195627172Y-100200000D01*
X196225000Y-100200000D01*
X196224999Y-99215685D01*
X196236955Y-99227641D01*
X196349852Y-99285165D01*
X196443519Y-99300000D01*
X196506481Y-99300000D01*
X196600148Y-99285165D01*
X196713045Y-99227641D01*
X196725000Y-99215686D01*
X196725000Y-100200000D01*
X197322828Y-100200000D01*
X197322844Y-100199999D01*
X197382372Y-100193598D01*
X197382379Y-100193596D01*
X197517086Y-100143354D01*
X197517093Y-100143350D01*
X197632187Y-100057190D01*
X197632190Y-100057187D01*
X197718350Y-99942093D01*
X197718354Y-99942086D01*
X197768596Y-99807379D01*
X197772505Y-99771024D01*
X197799243Y-99706473D01*
X197856635Y-99666624D01*
X197926460Y-99664129D01*
X197986549Y-99699781D01*
X197997369Y-99713153D01*
X198015340Y-99738818D01*
X198176179Y-99899657D01*
X198362517Y-100030134D01*
X198568673Y-100126265D01*
X198568682Y-100126269D01*
X198764999Y-100178872D01*
X198764999Y-100178871D01*
X198764999Y-99215685D01*
X198776955Y-99227641D01*
X198889852Y-99285165D01*
X198983519Y-99300000D01*
X199046481Y-99300000D01*
X199140148Y-99285165D01*
X199253045Y-99227641D01*
X199265000Y-99215686D01*
X199265000Y-100178872D01*
X199461317Y-100126269D01*
X199461326Y-100126265D01*
X199667482Y-100030134D01*
X199853820Y-99899657D01*
X200014657Y-99738820D01*
X200145134Y-99552481D01*
X200145135Y-99552479D01*
X200172618Y-99493543D01*
X200218790Y-99441103D01*
X200285983Y-99421951D01*
X200352864Y-99442166D01*
X200397382Y-99493543D01*
X200424864Y-99552479D01*
X200424865Y-99552481D01*
X200555342Y-99738820D01*
X200716179Y-99899657D01*
X200902517Y-100030134D01*
X201108673Y-100126265D01*
X201108682Y-100126269D01*
X201304999Y-100178872D01*
X201305000Y-100178871D01*
X201305000Y-99215686D01*
X201316955Y-99227641D01*
X201429852Y-99285165D01*
X201523519Y-99300000D01*
X201586481Y-99300000D01*
X201680148Y-99285165D01*
X201793045Y-99227641D01*
X201804999Y-99215686D01*
X201805000Y-100178872D01*
X202001317Y-100126269D01*
X202001326Y-100126265D01*
X202207482Y-100030134D01*
X202393820Y-99899657D01*
X202554657Y-99738820D01*
X202685134Y-99552482D01*
X202781265Y-99346326D01*
X202781269Y-99346317D01*
X202833872Y-99150000D01*
X201870686Y-99150000D01*
X201882641Y-99138045D01*
X201940165Y-99025148D01*
X201959986Y-98900000D01*
X201940165Y-98774852D01*
X201882641Y-98661955D01*
X201870686Y-98650000D01*
X202833872Y-98650000D01*
X202833872Y-98649999D01*
X202781269Y-98453682D01*
X202781265Y-98453673D01*
X202685134Y-98247517D01*
X202554657Y-98061179D01*
X202393820Y-97900342D01*
X202207482Y-97769865D01*
X202001328Y-97673734D01*
X201805000Y-97621127D01*
X201805000Y-98584314D01*
X201793045Y-98572359D01*
X201680148Y-98514835D01*
X201586481Y-98500000D01*
X201523519Y-98500000D01*
X201429852Y-98514835D01*
X201316955Y-98572359D01*
X201305000Y-98584313D01*
X201305000Y-97621127D01*
X201108671Y-97673734D01*
X200902517Y-97769865D01*
X200716179Y-97900342D01*
X200555342Y-98061179D01*
X200424865Y-98247517D01*
X200397382Y-98306457D01*
X200351210Y-98358896D01*
X200284016Y-98378048D01*
X200217135Y-98357832D01*
X200172618Y-98306457D01*
X200145134Y-98247517D01*
X200014657Y-98061179D01*
X199853820Y-97900342D01*
X199667482Y-97769865D01*
X199461328Y-97673734D01*
X199265000Y-97621127D01*
X199265000Y-98584314D01*
X199253045Y-98572359D01*
X199140148Y-98514835D01*
X199046481Y-98500000D01*
X198983519Y-98500000D01*
X198889852Y-98514835D01*
X198776955Y-98572359D01*
X198765000Y-98584314D01*
X198765000Y-97621127D01*
X198568671Y-97673734D01*
X198362517Y-97769865D01*
X198176179Y-97900342D01*
X198015339Y-98061182D01*
X197997368Y-98086847D01*
X197942790Y-98130471D01*
X197873291Y-98137662D01*
X197810937Y-98106138D01*
X197775525Y-98045907D01*
X197772505Y-98028975D01*
X197768596Y-97992620D01*
X197718354Y-97857913D01*
X197718350Y-97857906D01*
X197632190Y-97742812D01*
X197632187Y-97742809D01*
X197517093Y-97656649D01*
X197517086Y-97656645D01*
X197382379Y-97606403D01*
X197382372Y-97606401D01*
X197322844Y-97600000D01*
X196725000Y-97600000D01*
X196725000Y-98584314D01*
X196713045Y-98572359D01*
X196600148Y-98514835D01*
X196506481Y-98500000D01*
X196443519Y-98500000D01*
X196349852Y-98514835D01*
X196236955Y-98572359D01*
X196224999Y-98584314D01*
X196225000Y-97600000D01*
X195627155Y-97600000D01*
X195567627Y-97606401D01*
X195567620Y-97606403D01*
X195432913Y-97656645D01*
X195432906Y-97656649D01*
X195317812Y-97742809D01*
X195317809Y-97742812D01*
X195231649Y-97857906D01*
X195231645Y-97857913D01*
X195181403Y-97992620D01*
X195181401Y-97992627D01*
X195175000Y-98052155D01*
X195175000Y-98650000D01*
X196159314Y-98650000D01*
X196147359Y-98661955D01*
X196089835Y-98774852D01*
X196070014Y-98900000D01*
X196089835Y-99025148D01*
X196147359Y-99138045D01*
X196159314Y-99150000D01*
X195175000Y-99150000D01*
X195175000Y-99747844D01*
X153617447Y-99747844D01*
X153609369Y-99665828D01*
X153552731Y-99479118D01*
X153552728Y-99479114D01*
X153552728Y-99479111D01*
X153460759Y-99307050D01*
X153460755Y-99307043D01*
X153336978Y-99156221D01*
X153186156Y-99032444D01*
X153186149Y-99032440D01*
X153014088Y-98940471D01*
X153014082Y-98940469D01*
X152827372Y-98883831D01*
X152827369Y-98883830D01*
X152633200Y-98864707D01*
X152439030Y-98883830D01*
X152252311Y-98940471D01*
X152080250Y-99032440D01*
X152080243Y-99032444D01*
X151929421Y-99156221D01*
X151805644Y-99307043D01*
X151805640Y-99307050D01*
X151713671Y-99479111D01*
X151657030Y-99665830D01*
X151637907Y-99860000D01*
X150000500Y-99860000D01*
X150000500Y-98700000D01*
X177854836Y-98700000D01*
X177873411Y-98841097D01*
X177873413Y-98841102D01*
X177927871Y-98972577D01*
X177927871Y-98972578D01*
X177927873Y-98972581D01*
X177927874Y-98972582D01*
X178014511Y-99085489D01*
X178127418Y-99172126D01*
X178127421Y-99172127D01*
X178127422Y-99172128D01*
X178193159Y-99199357D01*
X178258901Y-99226588D01*
X178329450Y-99235876D01*
X178399999Y-99245164D01*
X178400000Y-99245164D01*
X178400001Y-99245164D01*
X178447032Y-99238972D01*
X178541099Y-99226588D01*
X178672577Y-99172128D01*
X178672578Y-99172128D01*
X178672578Y-99172127D01*
X178672582Y-99172126D01*
X178785489Y-99085489D01*
X178872126Y-98972582D01*
X178926588Y-98841099D01*
X178945164Y-98700000D01*
X178926588Y-98558901D01*
X178872128Y-98427422D01*
X178872128Y-98427421D01*
X178872126Y-98427418D01*
X178785489Y-98314511D01*
X178672582Y-98227874D01*
X178672579Y-98227873D01*
X178672577Y-98227871D01*
X178541102Y-98173413D01*
X178541097Y-98173411D01*
X178400001Y-98154836D01*
X178399999Y-98154836D01*
X178258902Y-98173411D01*
X178258897Y-98173413D01*
X178127422Y-98227871D01*
X178127421Y-98227871D01*
X178014511Y-98314511D01*
X177927871Y-98427421D01*
X177927871Y-98427422D01*
X177873413Y-98558897D01*
X177873411Y-98558902D01*
X177854836Y-98699999D01*
X177854836Y-98700000D01*
X150000500Y-98700000D01*
X150000500Y-97320000D01*
X151231507Y-97320000D01*
X151250630Y-97514169D01*
X151307271Y-97700888D01*
X151399240Y-97872949D01*
X151399244Y-97872956D01*
X151523021Y-98023778D01*
X151673843Y-98147555D01*
X151673850Y-98147559D01*
X151845911Y-98239528D01*
X151845914Y-98239528D01*
X151845918Y-98239531D01*
X152032628Y-98296169D01*
X152226800Y-98315293D01*
X152420972Y-98296169D01*
X152607682Y-98239531D01*
X152629497Y-98227871D01*
X152779749Y-98147559D01*
X152779755Y-98147556D01*
X152837702Y-98100000D01*
X179354836Y-98100000D01*
X179373411Y-98241097D01*
X179373413Y-98241102D01*
X179427871Y-98372577D01*
X179427871Y-98372578D01*
X179427873Y-98372581D01*
X179427874Y-98372582D01*
X179514511Y-98485489D01*
X179627418Y-98572126D01*
X179627421Y-98572127D01*
X179627422Y-98572128D01*
X179693159Y-98599357D01*
X179758901Y-98626588D01*
X179829450Y-98635876D01*
X179899999Y-98645164D01*
X179900000Y-98645164D01*
X179900001Y-98645164D01*
X179947032Y-98638972D01*
X180041099Y-98626588D01*
X180172577Y-98572128D01*
X180172578Y-98572128D01*
X180172578Y-98572127D01*
X180172582Y-98572126D01*
X180285489Y-98485489D01*
X180372126Y-98372582D01*
X180426588Y-98241099D01*
X180445164Y-98100000D01*
X180426588Y-97958901D01*
X180399356Y-97893159D01*
X180372128Y-97827422D01*
X180372128Y-97827421D01*
X180372126Y-97827418D01*
X180285489Y-97714511D01*
X180172582Y-97627874D01*
X180172579Y-97627873D01*
X180172577Y-97627871D01*
X180041102Y-97573413D01*
X180041097Y-97573411D01*
X179900001Y-97554836D01*
X179899999Y-97554836D01*
X179758902Y-97573411D01*
X179758897Y-97573413D01*
X179627422Y-97627871D01*
X179627421Y-97627871D01*
X179514511Y-97714511D01*
X179427871Y-97827421D01*
X179427871Y-97827422D01*
X179373413Y-97958897D01*
X179373411Y-97958902D01*
X179354836Y-98099999D01*
X179354836Y-98100000D01*
X152837702Y-98100000D01*
X152930578Y-98023778D01*
X153054356Y-97872955D01*
X153146331Y-97700882D01*
X153202969Y-97514172D01*
X153222093Y-97320000D01*
X153202969Y-97125828D01*
X153146331Y-96939118D01*
X153146328Y-96939114D01*
X153146328Y-96939111D01*
X153054359Y-96767050D01*
X153054355Y-96767043D01*
X152930578Y-96616221D01*
X152779756Y-96492444D01*
X152779749Y-96492440D01*
X152607688Y-96400471D01*
X152607682Y-96400469D01*
X152420972Y-96343831D01*
X152420971Y-96343830D01*
X152420965Y-96343829D01*
X152418038Y-96343247D01*
X152416648Y-96342519D01*
X152415142Y-96342063D01*
X152415228Y-96341777D01*
X152356129Y-96310857D01*
X152336820Y-96276944D01*
X152314034Y-96304543D01*
X152247482Y-96325818D01*
X152232378Y-96325256D01*
X152226803Y-96324707D01*
X152226800Y-96324707D01*
X152032630Y-96343830D01*
X151845911Y-96400471D01*
X151673850Y-96492440D01*
X151673843Y-96492444D01*
X151523021Y-96616221D01*
X151399244Y-96767043D01*
X151399240Y-96767050D01*
X151307271Y-96939111D01*
X151250630Y-97125830D01*
X151231507Y-97320000D01*
X150000500Y-97320000D01*
X150000500Y-95030000D01*
X151302564Y-95030000D01*
X151359767Y-95243486D01*
X151359770Y-95243492D01*
X151459599Y-95457578D01*
X151595094Y-95651082D01*
X151762117Y-95818105D01*
X151955621Y-95953600D01*
X152169707Y-96053429D01*
X152169716Y-96053433D01*
X152276623Y-96082078D01*
X152336283Y-96118442D01*
X152349839Y-96146349D01*
X152366175Y-96123700D01*
X152366753Y-96123254D01*
X152383200Y-96110634D01*
X152383200Y-95215501D01*
X152490885Y-95264680D01*
X152597437Y-95280000D01*
X152668963Y-95280000D01*
X152775515Y-95264680D01*
X152883200Y-95215501D01*
X152883200Y-96110633D01*
X153096683Y-96053433D01*
X153096692Y-96053429D01*
X153310778Y-95953600D01*
X153504282Y-95818105D01*
X153671305Y-95651082D01*
X153707074Y-95600000D01*
X157654614Y-95600000D01*
X157674115Y-95810463D01*
X157674116Y-95810466D01*
X157731956Y-96013756D01*
X157731959Y-96013762D01*
X157826173Y-96202968D01*
X157953551Y-96371644D01*
X158087925Y-96494141D01*
X158109751Y-96514038D01*
X158289458Y-96625308D01*
X158289459Y-96625308D01*
X158289460Y-96625309D01*
X158331213Y-96641484D01*
X158486550Y-96701662D01*
X158694317Y-96740500D01*
X158694319Y-96740500D01*
X158905681Y-96740500D01*
X158905683Y-96740500D01*
X159113450Y-96701662D01*
X159310542Y-96625308D01*
X159490249Y-96514038D01*
X159646450Y-96371642D01*
X159773827Y-96202968D01*
X159868041Y-96013761D01*
X159868041Y-96013758D01*
X159868043Y-96013756D01*
X159924867Y-95814038D01*
X159925884Y-95810464D01*
X159945386Y-95600000D01*
X161754614Y-95600000D01*
X161774115Y-95810463D01*
X161774116Y-95810466D01*
X161831956Y-96013756D01*
X161831959Y-96013762D01*
X161926173Y-96202968D01*
X162053551Y-96371644D01*
X162187925Y-96494141D01*
X162209751Y-96514038D01*
X162389458Y-96625308D01*
X162389459Y-96625308D01*
X162389460Y-96625309D01*
X162431213Y-96641484D01*
X162586550Y-96701662D01*
X162794317Y-96740500D01*
X162794319Y-96740500D01*
X163005681Y-96740500D01*
X163005683Y-96740500D01*
X163213450Y-96701662D01*
X163410542Y-96625308D01*
X163590249Y-96514038D01*
X163746450Y-96371642D01*
X163873827Y-96202968D01*
X163968041Y-96013761D01*
X163968041Y-96013758D01*
X163968043Y-96013756D01*
X164024867Y-95814038D01*
X164025884Y-95810464D01*
X164045386Y-95600000D01*
X165954614Y-95600000D01*
X165974115Y-95810463D01*
X165974116Y-95810466D01*
X166031956Y-96013756D01*
X166031959Y-96013762D01*
X166126173Y-96202968D01*
X166253551Y-96371644D01*
X166387925Y-96494141D01*
X166409751Y-96514038D01*
X166589458Y-96625308D01*
X166589459Y-96625308D01*
X166589460Y-96625309D01*
X166631213Y-96641484D01*
X166786550Y-96701662D01*
X166994317Y-96740500D01*
X166994319Y-96740500D01*
X167205681Y-96740500D01*
X167205683Y-96740500D01*
X167413450Y-96701662D01*
X167610542Y-96625308D01*
X167790249Y-96514038D01*
X167946450Y-96371642D01*
X168073827Y-96202968D01*
X168168041Y-96013761D01*
X168168041Y-96013758D01*
X168168043Y-96013756D01*
X168224867Y-95814038D01*
X168225884Y-95810464D01*
X168245386Y-95600000D01*
X168225884Y-95389536D01*
X168217483Y-95360011D01*
X168168043Y-95186243D01*
X168168040Y-95186237D01*
X168090243Y-95030000D01*
X168073827Y-94997032D01*
X168000552Y-94900000D01*
X189554614Y-94900000D01*
X189574115Y-95110463D01*
X189574116Y-95110466D01*
X189631956Y-95313756D01*
X189631959Y-95313762D01*
X189726173Y-95502968D01*
X189853551Y-95671644D01*
X189987925Y-95794141D01*
X190009751Y-95814038D01*
X190189458Y-95925308D01*
X190189459Y-95925308D01*
X190189460Y-95925309D01*
X190231213Y-95941484D01*
X190386550Y-96001662D01*
X190594317Y-96040500D01*
X190594319Y-96040500D01*
X190805681Y-96040500D01*
X190805683Y-96040500D01*
X191013450Y-96001662D01*
X191210542Y-95925308D01*
X191390249Y-95814038D01*
X191546450Y-95671642D01*
X191673827Y-95502968D01*
X191768041Y-95313761D01*
X191768041Y-95313758D01*
X191768043Y-95313756D01*
X191825883Y-95110466D01*
X191825884Y-95110463D01*
X191845386Y-94900000D01*
X191845386Y-94899999D01*
X191825884Y-94689536D01*
X191825883Y-94689533D01*
X191768043Y-94486243D01*
X191768040Y-94486237D01*
X191673827Y-94297032D01*
X191546450Y-94128358D01*
X191546448Y-94128355D01*
X191390250Y-93985963D01*
X191390249Y-93985962D01*
X191210542Y-93874692D01*
X191210540Y-93874691D01*
X191210539Y-93874690D01*
X191055205Y-93814514D01*
X191013450Y-93798338D01*
X190805683Y-93759500D01*
X190594317Y-93759500D01*
X190386550Y-93798338D01*
X190386547Y-93798338D01*
X190386547Y-93798339D01*
X190189460Y-93874690D01*
X190189459Y-93874691D01*
X190009749Y-93985963D01*
X189853551Y-94128355D01*
X189726173Y-94297031D01*
X189631959Y-94486237D01*
X189631956Y-94486243D01*
X189574116Y-94689533D01*
X189574115Y-94689536D01*
X189554614Y-94899999D01*
X189554614Y-94900000D01*
X168000552Y-94900000D01*
X167946450Y-94828358D01*
X167946448Y-94828355D01*
X167790250Y-94685963D01*
X167790249Y-94685962D01*
X167610542Y-94574692D01*
X167610540Y-94574691D01*
X167610539Y-94574690D01*
X167455205Y-94514514D01*
X167413450Y-94498338D01*
X167205683Y-94459500D01*
X166994317Y-94459500D01*
X166786550Y-94498338D01*
X166786547Y-94498338D01*
X166786547Y-94498339D01*
X166589460Y-94574690D01*
X166589459Y-94574691D01*
X166409749Y-94685963D01*
X166253551Y-94828355D01*
X166126173Y-94997031D01*
X166031959Y-95186237D01*
X166031956Y-95186243D01*
X165974116Y-95389533D01*
X165974115Y-95389536D01*
X165954614Y-95599999D01*
X165954614Y-95600000D01*
X164045386Y-95600000D01*
X164025884Y-95389536D01*
X164017483Y-95360011D01*
X163968043Y-95186243D01*
X163968040Y-95186237D01*
X163890243Y-95030000D01*
X163873827Y-94997032D01*
X163746450Y-94828358D01*
X163746448Y-94828355D01*
X163590250Y-94685963D01*
X163590249Y-94685962D01*
X163410542Y-94574692D01*
X163410540Y-94574691D01*
X163410539Y-94574690D01*
X163255205Y-94514514D01*
X163213450Y-94498338D01*
X163005683Y-94459500D01*
X162794317Y-94459500D01*
X162586550Y-94498338D01*
X162586547Y-94498338D01*
X162586547Y-94498339D01*
X162389460Y-94574690D01*
X162389459Y-94574691D01*
X162209749Y-94685963D01*
X162053551Y-94828355D01*
X161926173Y-94997031D01*
X161831959Y-95186237D01*
X161831956Y-95186243D01*
X161774116Y-95389533D01*
X161774115Y-95389536D01*
X161754614Y-95599999D01*
X161754614Y-95600000D01*
X159945386Y-95600000D01*
X159925884Y-95389536D01*
X159917483Y-95360011D01*
X159868043Y-95186243D01*
X159868040Y-95186237D01*
X159790243Y-95030000D01*
X159773827Y-94997032D01*
X159646450Y-94828358D01*
X159646448Y-94828355D01*
X159490250Y-94685963D01*
X159490249Y-94685962D01*
X159310542Y-94574692D01*
X159310540Y-94574691D01*
X159310539Y-94574690D01*
X159155205Y-94514514D01*
X159113450Y-94498338D01*
X158905683Y-94459500D01*
X158694317Y-94459500D01*
X158486550Y-94498338D01*
X158486547Y-94498338D01*
X158486547Y-94498339D01*
X158289460Y-94574690D01*
X158289459Y-94574691D01*
X158109749Y-94685963D01*
X157953551Y-94828355D01*
X157826173Y-94997031D01*
X157731959Y-95186237D01*
X157731956Y-95186243D01*
X157674116Y-95389533D01*
X157674115Y-95389536D01*
X157654614Y-95599999D01*
X157654614Y-95600000D01*
X153707074Y-95600000D01*
X153806800Y-95457578D01*
X153906629Y-95243492D01*
X153906632Y-95243486D01*
X153963836Y-95030000D01*
X153066886Y-95030000D01*
X153092693Y-94989844D01*
X153133200Y-94851889D01*
X153133200Y-94708111D01*
X153092693Y-94570156D01*
X153066886Y-94530000D01*
X153963836Y-94530000D01*
X153963835Y-94529999D01*
X153906632Y-94316513D01*
X153906629Y-94316507D01*
X153806800Y-94102422D01*
X153806799Y-94102420D01*
X153671313Y-93908926D01*
X153671308Y-93908920D01*
X153504282Y-93741894D01*
X153310778Y-93606399D01*
X153096692Y-93506570D01*
X153096686Y-93506567D01*
X152883200Y-93449364D01*
X152883200Y-94344498D01*
X152775515Y-94295320D01*
X152668963Y-94280000D01*
X152597437Y-94280000D01*
X152490885Y-94295320D01*
X152383200Y-94344498D01*
X152383200Y-93449363D01*
X152366752Y-93436742D01*
X152350831Y-93414937D01*
X152345747Y-93429771D01*
X152290956Y-93473126D01*
X152276619Y-93477922D01*
X152169714Y-93506567D01*
X152169707Y-93506570D01*
X151955622Y-93606399D01*
X151955620Y-93606400D01*
X151762126Y-93741886D01*
X151762120Y-93741891D01*
X151595091Y-93908920D01*
X151595086Y-93908926D01*
X151459600Y-94102420D01*
X151459599Y-94102422D01*
X151359770Y-94316507D01*
X151359767Y-94316513D01*
X151302564Y-94529999D01*
X151302564Y-94530000D01*
X152199514Y-94530000D01*
X152173707Y-94570156D01*
X152133200Y-94708111D01*
X152133200Y-94851889D01*
X152173707Y-94989844D01*
X152199514Y-95030000D01*
X151302564Y-95030000D01*
X150000500Y-95030000D01*
X150000500Y-92240000D01*
X151231507Y-92240000D01*
X151250630Y-92434169D01*
X151307271Y-92620888D01*
X151399240Y-92792949D01*
X151399244Y-92792956D01*
X151523021Y-92943778D01*
X151673843Y-93067555D01*
X151673850Y-93067559D01*
X151845911Y-93159528D01*
X151845914Y-93159528D01*
X151845918Y-93159531D01*
X152032628Y-93216169D01*
X152226800Y-93235293D01*
X152232370Y-93234744D01*
X152301015Y-93247762D01*
X152337334Y-93282185D01*
X152355608Y-93249648D01*
X152415172Y-93218038D01*
X152415142Y-93217937D01*
X152415658Y-93217780D01*
X152417325Y-93216896D01*
X152418063Y-93216747D01*
X152420966Y-93216169D01*
X152420972Y-93216169D01*
X152607682Y-93159531D01*
X152779755Y-93067556D01*
X152930578Y-92943778D01*
X153054356Y-92792955D01*
X153100343Y-92706918D01*
X153146328Y-92620888D01*
X153146328Y-92620887D01*
X153146331Y-92620882D01*
X153202969Y-92434172D01*
X153222093Y-92240000D01*
X153202969Y-92045828D01*
X153146331Y-91859118D01*
X153146328Y-91859114D01*
X153146328Y-91859111D01*
X153114732Y-91800000D01*
X169354836Y-91800000D01*
X169373411Y-91941097D01*
X169373413Y-91941102D01*
X169427871Y-92072577D01*
X169427871Y-92072578D01*
X169427873Y-92072581D01*
X169427874Y-92072582D01*
X169514511Y-92185489D01*
X169627418Y-92272126D01*
X169627421Y-92272127D01*
X169627422Y-92272128D01*
X169693159Y-92299357D01*
X169758901Y-92326588D01*
X169829450Y-92335876D01*
X169899999Y-92345164D01*
X169900000Y-92345164D01*
X169900001Y-92345164D01*
X169947032Y-92338972D01*
X170041099Y-92326588D01*
X170172577Y-92272128D01*
X170172578Y-92272128D01*
X170172578Y-92272127D01*
X170172582Y-92272126D01*
X170266578Y-92200000D01*
X185854836Y-92200000D01*
X185873411Y-92341097D01*
X185873413Y-92341102D01*
X185927871Y-92472577D01*
X185927871Y-92472578D01*
X185927873Y-92472581D01*
X185927874Y-92472582D01*
X186014511Y-92585489D01*
X186127418Y-92672126D01*
X186127421Y-92672127D01*
X186127422Y-92672128D01*
X186193159Y-92699357D01*
X186258901Y-92726588D01*
X186329450Y-92735876D01*
X186399999Y-92745164D01*
X186400000Y-92745164D01*
X186400001Y-92745164D01*
X186447032Y-92738972D01*
X186541099Y-92726588D01*
X186672577Y-92672128D01*
X186672578Y-92672128D01*
X186672578Y-92672127D01*
X186672582Y-92672126D01*
X186785489Y-92585489D01*
X186872126Y-92472582D01*
X186926588Y-92341099D01*
X186945164Y-92200000D01*
X186943253Y-92185488D01*
X186926588Y-92058902D01*
X186926586Y-92058897D01*
X186872128Y-91927422D01*
X186872128Y-91927421D01*
X186819717Y-91859118D01*
X186785489Y-91814511D01*
X186672582Y-91727874D01*
X186672579Y-91727873D01*
X186672577Y-91727871D01*
X186541102Y-91673413D01*
X186541097Y-91673411D01*
X186400001Y-91654836D01*
X186399999Y-91654836D01*
X186258902Y-91673411D01*
X186258897Y-91673413D01*
X186127422Y-91727871D01*
X186127421Y-91727871D01*
X186014511Y-91814511D01*
X185927871Y-91927421D01*
X185927871Y-91927422D01*
X185873413Y-92058897D01*
X185873411Y-92058902D01*
X185854836Y-92199999D01*
X185854836Y-92200000D01*
X170266578Y-92200000D01*
X170285489Y-92185489D01*
X170372126Y-92072582D01*
X170426588Y-91941099D01*
X170445164Y-91800000D01*
X170426588Y-91658901D01*
X170375773Y-91536222D01*
X170372128Y-91527422D01*
X170372128Y-91527421D01*
X170372126Y-91527418D01*
X170285489Y-91414511D01*
X170172582Y-91327874D01*
X170172579Y-91327873D01*
X170172577Y-91327871D01*
X170041102Y-91273413D01*
X170041097Y-91273411D01*
X169900001Y-91254836D01*
X169899999Y-91254836D01*
X169758902Y-91273411D01*
X169758897Y-91273413D01*
X169627422Y-91327871D01*
X169627421Y-91327871D01*
X169514511Y-91414511D01*
X169427871Y-91527421D01*
X169427871Y-91527422D01*
X169373413Y-91658897D01*
X169373411Y-91658902D01*
X169354836Y-91799999D01*
X169354836Y-91800000D01*
X153114732Y-91800000D01*
X153054359Y-91687050D01*
X153054355Y-91687043D01*
X152930578Y-91536221D01*
X152779756Y-91412444D01*
X152779749Y-91412440D01*
X152607688Y-91320471D01*
X152607682Y-91320469D01*
X152420972Y-91263831D01*
X152420969Y-91263830D01*
X152226800Y-91244707D01*
X152032630Y-91263830D01*
X151845911Y-91320471D01*
X151673850Y-91412440D01*
X151673843Y-91412444D01*
X151523021Y-91536221D01*
X151399244Y-91687043D01*
X151399240Y-91687050D01*
X151307271Y-91859111D01*
X151250630Y-92045830D01*
X151231507Y-92240000D01*
X150000500Y-92240000D01*
X150000500Y-90563836D01*
X151642700Y-90563836D01*
X151645363Y-90577226D01*
X151650851Y-90604821D01*
X151681905Y-90651295D01*
X151728379Y-90682349D01*
X151769359Y-90690500D01*
X153497040Y-90690499D01*
X153538021Y-90682349D01*
X153584495Y-90651295D01*
X153615549Y-90604821D01*
X153623700Y-90563841D01*
X153623700Y-90300000D01*
X161854614Y-90300000D01*
X161874115Y-90510463D01*
X161874116Y-90510466D01*
X161931956Y-90713756D01*
X161931959Y-90713762D01*
X162026173Y-90902968D01*
X162153551Y-91071644D01*
X162263245Y-91171642D01*
X162309751Y-91214038D01*
X162489458Y-91325308D01*
X162489459Y-91325308D01*
X162489460Y-91325309D01*
X162531213Y-91341484D01*
X162686550Y-91401662D01*
X162894317Y-91440500D01*
X162894319Y-91440500D01*
X163105681Y-91440500D01*
X163105683Y-91440500D01*
X163313450Y-91401662D01*
X163510542Y-91325308D01*
X163690249Y-91214038D01*
X163846450Y-91071642D01*
X163973827Y-90902968D01*
X164068041Y-90713761D01*
X164068041Y-90713758D01*
X164068043Y-90713756D01*
X164101162Y-90597350D01*
X164125884Y-90510464D01*
X164136120Y-90400000D01*
X166054614Y-90400000D01*
X166074115Y-90610463D01*
X166074116Y-90610466D01*
X166131956Y-90813756D01*
X166131959Y-90813762D01*
X166226173Y-91002968D01*
X166353551Y-91171644D01*
X166465185Y-91273411D01*
X166509751Y-91314038D01*
X166689458Y-91425308D01*
X166689459Y-91425308D01*
X166689460Y-91425309D01*
X166728673Y-91440500D01*
X166886550Y-91501662D01*
X167094317Y-91540500D01*
X167094319Y-91540500D01*
X167305681Y-91540500D01*
X167305683Y-91540500D01*
X167513450Y-91501662D01*
X167710542Y-91425308D01*
X167890249Y-91314038D01*
X168046450Y-91171642D01*
X168173827Y-91002968D01*
X168268041Y-90813761D01*
X168268041Y-90813758D01*
X168268043Y-90813756D01*
X168305431Y-90682348D01*
X168325884Y-90610464D01*
X168345386Y-90400000D01*
X168336120Y-90300000D01*
X189454614Y-90300000D01*
X189474115Y-90510463D01*
X189474116Y-90510466D01*
X189531956Y-90713756D01*
X189531959Y-90713762D01*
X189626173Y-90902968D01*
X189753551Y-91071644D01*
X189863245Y-91171642D01*
X189909751Y-91214038D01*
X190089458Y-91325308D01*
X190089459Y-91325308D01*
X190089460Y-91325309D01*
X190131213Y-91341484D01*
X190286550Y-91401662D01*
X190494317Y-91440500D01*
X190494319Y-91440500D01*
X190705681Y-91440500D01*
X190705683Y-91440500D01*
X190913450Y-91401662D01*
X191110542Y-91325308D01*
X191183717Y-91280000D01*
X195529319Y-91280000D01*
X195549984Y-91476618D01*
X195549985Y-91476621D01*
X195611074Y-91664637D01*
X195611077Y-91664643D01*
X195709928Y-91835857D01*
X195842216Y-91982778D01*
X196002159Y-92098984D01*
X196182768Y-92179396D01*
X196376149Y-92220500D01*
X196376150Y-92220500D01*
X196573849Y-92220500D01*
X196573851Y-92220500D01*
X196767232Y-92179396D01*
X196947841Y-92098984D01*
X197107784Y-91982778D01*
X197240072Y-91835857D01*
X197338923Y-91664643D01*
X197400016Y-91476618D01*
X197420681Y-91280000D01*
X198069319Y-91280000D01*
X198089984Y-91476618D01*
X198089985Y-91476621D01*
X198151074Y-91664637D01*
X198151077Y-91664643D01*
X198249928Y-91835857D01*
X198382216Y-91982778D01*
X198542159Y-92098984D01*
X198722768Y-92179396D01*
X198916149Y-92220500D01*
X198916150Y-92220500D01*
X199113849Y-92220500D01*
X199113851Y-92220500D01*
X199307232Y-92179396D01*
X199487841Y-92098984D01*
X199647784Y-91982778D01*
X199780072Y-91835857D01*
X199878923Y-91664643D01*
X199940016Y-91476618D01*
X199960681Y-91280000D01*
X200609319Y-91280000D01*
X200629984Y-91476618D01*
X200629985Y-91476621D01*
X200691074Y-91664637D01*
X200691077Y-91664643D01*
X200789928Y-91835857D01*
X200922216Y-91982778D01*
X201082159Y-92098984D01*
X201262768Y-92179396D01*
X201456149Y-92220500D01*
X201456150Y-92220500D01*
X201653849Y-92220500D01*
X201653851Y-92220500D01*
X201847232Y-92179396D01*
X202027841Y-92098984D01*
X202187784Y-91982778D01*
X202320072Y-91835857D01*
X202418923Y-91664643D01*
X202480016Y-91476618D01*
X202500681Y-91280000D01*
X202480016Y-91083382D01*
X202418923Y-90895357D01*
X202320072Y-90724143D01*
X202187784Y-90577222D01*
X202027841Y-90461016D01*
X201847232Y-90380604D01*
X201847230Y-90380603D01*
X201706048Y-90350594D01*
X201653851Y-90339500D01*
X201456149Y-90339500D01*
X201422251Y-90346705D01*
X201262768Y-90380603D01*
X201262762Y-90380605D01*
X201082160Y-90461016D01*
X201082155Y-90461018D01*
X200922217Y-90577220D01*
X200922210Y-90577226D01*
X200789927Y-90724144D01*
X200691077Y-90895356D01*
X200691074Y-90895362D01*
X200633798Y-91071644D01*
X200629984Y-91083382D01*
X200609319Y-91280000D01*
X199960681Y-91280000D01*
X199940016Y-91083382D01*
X199878923Y-90895357D01*
X199780072Y-90724143D01*
X199647784Y-90577222D01*
X199487841Y-90461016D01*
X199307232Y-90380604D01*
X199307230Y-90380603D01*
X199166048Y-90350594D01*
X199113851Y-90339500D01*
X198916149Y-90339500D01*
X198882251Y-90346705D01*
X198722768Y-90380603D01*
X198722762Y-90380605D01*
X198542160Y-90461016D01*
X198542155Y-90461018D01*
X198382217Y-90577220D01*
X198382210Y-90577226D01*
X198249927Y-90724144D01*
X198151077Y-90895356D01*
X198151074Y-90895362D01*
X198093798Y-91071644D01*
X198089984Y-91083382D01*
X198069319Y-91280000D01*
X197420681Y-91280000D01*
X197400016Y-91083382D01*
X197338923Y-90895357D01*
X197240072Y-90724143D01*
X197107784Y-90577222D01*
X196947841Y-90461016D01*
X196767232Y-90380604D01*
X196767230Y-90380603D01*
X196626048Y-90350594D01*
X196573851Y-90339500D01*
X196376149Y-90339500D01*
X196342251Y-90346705D01*
X196182768Y-90380603D01*
X196182762Y-90380605D01*
X196002160Y-90461016D01*
X196002155Y-90461018D01*
X195842217Y-90577220D01*
X195842210Y-90577226D01*
X195709927Y-90724144D01*
X195611077Y-90895356D01*
X195611074Y-90895362D01*
X195553798Y-91071644D01*
X195549984Y-91083382D01*
X195529319Y-91280000D01*
X191183717Y-91280000D01*
X191290249Y-91214038D01*
X191446450Y-91071642D01*
X191573827Y-90902968D01*
X191668041Y-90713761D01*
X191668041Y-90713758D01*
X191668043Y-90713756D01*
X191701162Y-90597350D01*
X191725884Y-90510464D01*
X191745386Y-90300000D01*
X191725884Y-90089536D01*
X191715187Y-90051940D01*
X191668043Y-89886243D01*
X191668040Y-89886237D01*
X191623621Y-89797032D01*
X191573827Y-89697032D01*
X191446450Y-89528358D01*
X191446448Y-89528355D01*
X191290250Y-89385963D01*
X191290249Y-89385962D01*
X191110542Y-89274692D01*
X191110540Y-89274691D01*
X191110539Y-89274690D01*
X190955205Y-89214514D01*
X190913450Y-89198338D01*
X190705683Y-89159500D01*
X190494317Y-89159500D01*
X190286550Y-89198338D01*
X190286547Y-89198338D01*
X190286547Y-89198339D01*
X190089460Y-89274690D01*
X190089459Y-89274691D01*
X189909749Y-89385963D01*
X189753551Y-89528355D01*
X189626173Y-89697031D01*
X189531959Y-89886237D01*
X189531956Y-89886243D01*
X189474116Y-90089533D01*
X189474115Y-90089536D01*
X189454614Y-90299999D01*
X189454614Y-90300000D01*
X168336120Y-90300000D01*
X168325884Y-90189536D01*
X168297431Y-90089533D01*
X168268043Y-89986243D01*
X168268040Y-89986237D01*
X168174275Y-89797932D01*
X168173827Y-89797032D01*
X168046450Y-89628358D01*
X168046448Y-89628355D01*
X167933460Y-89525354D01*
X184030190Y-89525354D01*
X184048765Y-89666451D01*
X184048767Y-89666456D01*
X184103225Y-89797931D01*
X184103225Y-89797932D01*
X184103227Y-89797935D01*
X184103228Y-89797936D01*
X184189865Y-89910843D01*
X184302772Y-89997480D01*
X184302775Y-89997481D01*
X184302776Y-89997482D01*
X184368513Y-90024710D01*
X184434255Y-90051942D01*
X184504804Y-90061230D01*
X184575353Y-90070518D01*
X184575354Y-90070518D01*
X184575355Y-90070518D01*
X184622386Y-90064325D01*
X184716453Y-90051942D01*
X184847931Y-89997482D01*
X184847932Y-89997482D01*
X184847932Y-89997481D01*
X184847936Y-89997480D01*
X184960843Y-89910843D01*
X185047480Y-89797936D01*
X185101942Y-89666453D01*
X185120518Y-89525354D01*
X185101942Y-89384255D01*
X185074710Y-89318513D01*
X185047482Y-89252776D01*
X185047482Y-89252775D01*
X185047480Y-89252772D01*
X184960843Y-89139865D01*
X184847936Y-89053228D01*
X184847933Y-89053227D01*
X184847931Y-89053225D01*
X184716456Y-88998767D01*
X184716451Y-88998765D01*
X184575355Y-88980190D01*
X184575353Y-88980190D01*
X184434256Y-88998765D01*
X184434251Y-88998767D01*
X184302776Y-89053225D01*
X184302775Y-89053225D01*
X184189865Y-89139865D01*
X184103225Y-89252775D01*
X184103225Y-89252776D01*
X184048767Y-89384251D01*
X184048765Y-89384256D01*
X184030190Y-89525353D01*
X184030190Y-89525354D01*
X167933460Y-89525354D01*
X167890250Y-89485963D01*
X167890249Y-89485962D01*
X167710542Y-89374692D01*
X167710540Y-89374691D01*
X167710539Y-89374690D01*
X167555205Y-89314514D01*
X167513450Y-89298338D01*
X167305683Y-89259500D01*
X167094317Y-89259500D01*
X166886550Y-89298338D01*
X166886547Y-89298338D01*
X166886547Y-89298339D01*
X166689460Y-89374690D01*
X166689459Y-89374691D01*
X166509749Y-89485963D01*
X166353551Y-89628355D01*
X166226173Y-89797031D01*
X166131959Y-89986237D01*
X166131956Y-89986243D01*
X166074116Y-90189533D01*
X166074115Y-90189536D01*
X166054614Y-90399999D01*
X166054614Y-90400000D01*
X164136120Y-90400000D01*
X164145386Y-90300000D01*
X164125884Y-90089536D01*
X164115187Y-90051940D01*
X164068043Y-89886243D01*
X164068040Y-89886237D01*
X164023621Y-89797032D01*
X163973827Y-89697032D01*
X163846450Y-89528358D01*
X163846448Y-89528355D01*
X163690250Y-89385963D01*
X163690249Y-89385962D01*
X163510542Y-89274692D01*
X163510540Y-89274691D01*
X163510539Y-89274690D01*
X163355205Y-89214514D01*
X163313450Y-89198338D01*
X163105683Y-89159500D01*
X162894317Y-89159500D01*
X162686550Y-89198338D01*
X162686547Y-89198338D01*
X162686547Y-89198339D01*
X162489460Y-89274690D01*
X162489459Y-89274691D01*
X162309749Y-89385963D01*
X162153551Y-89528355D01*
X162026173Y-89697031D01*
X161931959Y-89886237D01*
X161931956Y-89886243D01*
X161874116Y-90089533D01*
X161874115Y-90089536D01*
X161854614Y-90299999D01*
X161854614Y-90300000D01*
X153623700Y-90300000D01*
X153623699Y-88836160D01*
X153615549Y-88795179D01*
X153584495Y-88748705D01*
X153538021Y-88717651D01*
X153497041Y-88709500D01*
X153497039Y-88709500D01*
X151769363Y-88709500D01*
X151728378Y-88717650D01*
X151728379Y-88717651D01*
X151681905Y-88748705D01*
X151671602Y-88764123D01*
X151650851Y-88795178D01*
X151642700Y-88836160D01*
X151642700Y-90563836D01*
X150000500Y-90563836D01*
X150000500Y-88000000D01*
X185854836Y-88000000D01*
X185873411Y-88141097D01*
X185873413Y-88141102D01*
X185927871Y-88272577D01*
X185927871Y-88272578D01*
X185927873Y-88272581D01*
X185927874Y-88272582D01*
X186014511Y-88385489D01*
X186127418Y-88472126D01*
X186127421Y-88472127D01*
X186127422Y-88472128D01*
X186193159Y-88499357D01*
X186258901Y-88526588D01*
X186329450Y-88535876D01*
X186399999Y-88545164D01*
X186400000Y-88545164D01*
X186400001Y-88545164D01*
X186447032Y-88538972D01*
X186541099Y-88526588D01*
X186672577Y-88472128D01*
X186672578Y-88472128D01*
X186672578Y-88472127D01*
X186672582Y-88472126D01*
X186785489Y-88385489D01*
X186872126Y-88272582D01*
X186926588Y-88141099D01*
X186945164Y-88000000D01*
X186926588Y-87858901D01*
X186872128Y-87727422D01*
X186872128Y-87727421D01*
X186872126Y-87727418D01*
X186785489Y-87614511D01*
X186672582Y-87527874D01*
X186672579Y-87527873D01*
X186672577Y-87527871D01*
X186541102Y-87473413D01*
X186541097Y-87473411D01*
X186400001Y-87454836D01*
X186399999Y-87454836D01*
X186258902Y-87473411D01*
X186258897Y-87473413D01*
X186127422Y-87527871D01*
X186127421Y-87527871D01*
X186014511Y-87614511D01*
X185927871Y-87727421D01*
X185927871Y-87727422D01*
X185873413Y-87858897D01*
X185873411Y-87858902D01*
X185854836Y-87999999D01*
X185854836Y-88000000D01*
X150000500Y-88000000D01*
X150000500Y-86100000D01*
X169854836Y-86100000D01*
X169873411Y-86241097D01*
X169873413Y-86241102D01*
X169927871Y-86372577D01*
X169927871Y-86372578D01*
X169927873Y-86372581D01*
X169927874Y-86372582D01*
X170014511Y-86485489D01*
X170127418Y-86572126D01*
X170127421Y-86572127D01*
X170127422Y-86572128D01*
X170193159Y-86599357D01*
X170258901Y-86626588D01*
X170329450Y-86635876D01*
X170399999Y-86645164D01*
X170400000Y-86645164D01*
X170400001Y-86645164D01*
X170447032Y-86638972D01*
X170541099Y-86626588D01*
X170672577Y-86572128D01*
X170672578Y-86572128D01*
X170672578Y-86572127D01*
X170672582Y-86572126D01*
X170785489Y-86485489D01*
X170872126Y-86372582D01*
X170926588Y-86241099D01*
X170945164Y-86100000D01*
X171354836Y-86100000D01*
X171373411Y-86241097D01*
X171373413Y-86241102D01*
X171427871Y-86372577D01*
X171427871Y-86372578D01*
X171427873Y-86372581D01*
X171427874Y-86372582D01*
X171514511Y-86485489D01*
X171627418Y-86572126D01*
X171627421Y-86572127D01*
X171627422Y-86572128D01*
X171693159Y-86599357D01*
X171758901Y-86626588D01*
X171829450Y-86635876D01*
X171899999Y-86645164D01*
X171900000Y-86645164D01*
X171900001Y-86645164D01*
X171947032Y-86638972D01*
X172041099Y-86626588D01*
X172172577Y-86572128D01*
X172172578Y-86572128D01*
X172172578Y-86572127D01*
X172172582Y-86572126D01*
X172285489Y-86485489D01*
X172372126Y-86372582D01*
X172426588Y-86241099D01*
X172445164Y-86100000D01*
X172426588Y-85958901D01*
X172381687Y-85850500D01*
X172372128Y-85827422D01*
X172372128Y-85827421D01*
X172359574Y-85811060D01*
X172285489Y-85714511D01*
X172172582Y-85627874D01*
X172172579Y-85627873D01*
X172172577Y-85627871D01*
X172041102Y-85573413D01*
X172041097Y-85573411D01*
X171900001Y-85554836D01*
X171899999Y-85554836D01*
X171758902Y-85573411D01*
X171758897Y-85573413D01*
X171627422Y-85627871D01*
X171627421Y-85627871D01*
X171514511Y-85714511D01*
X171427871Y-85827421D01*
X171427871Y-85827422D01*
X171373413Y-85958897D01*
X171373411Y-85958902D01*
X171354836Y-86099999D01*
X171354836Y-86100000D01*
X170945164Y-86100000D01*
X170926588Y-85958901D01*
X170881687Y-85850500D01*
X170872128Y-85827422D01*
X170872128Y-85827421D01*
X170859574Y-85811060D01*
X170785489Y-85714511D01*
X170672582Y-85627874D01*
X170672579Y-85627873D01*
X170672577Y-85627871D01*
X170541102Y-85573413D01*
X170541097Y-85573411D01*
X170400001Y-85554836D01*
X170399999Y-85554836D01*
X170258902Y-85573411D01*
X170258897Y-85573413D01*
X170127422Y-85627871D01*
X170127421Y-85627871D01*
X170014511Y-85714511D01*
X169927871Y-85827421D01*
X169927871Y-85827422D01*
X169873413Y-85958897D01*
X169873411Y-85958902D01*
X169854836Y-86099999D01*
X169854836Y-86100000D01*
X150000500Y-86100000D01*
X150000500Y-84067763D01*
X152145787Y-84067763D01*
X152175413Y-84337013D01*
X152175415Y-84337024D01*
X152243926Y-84599082D01*
X152243928Y-84599088D01*
X152349870Y-84848390D01*
X152421998Y-84966575D01*
X152490979Y-85079605D01*
X152490986Y-85079615D01*
X152664253Y-85287819D01*
X152664259Y-85287824D01*
X152865998Y-85468582D01*
X153091910Y-85618044D01*
X153337176Y-85733020D01*
X153337183Y-85733022D01*
X153337185Y-85733023D01*
X153596557Y-85811057D01*
X153596564Y-85811058D01*
X153596569Y-85811060D01*
X153864561Y-85850500D01*
X153864566Y-85850500D01*
X154067636Y-85850500D01*
X154119133Y-85846730D01*
X154270156Y-85835677D01*
X154382758Y-85810593D01*
X154534546Y-85776782D01*
X154534548Y-85776781D01*
X154534553Y-85776780D01*
X154787558Y-85680014D01*
X155023777Y-85547441D01*
X155238177Y-85381888D01*
X155426186Y-85186881D01*
X155583799Y-84966579D01*
X155657787Y-84822669D01*
X155707649Y-84725690D01*
X155707651Y-84725684D01*
X155707656Y-84725675D01*
X155795118Y-84469305D01*
X155844319Y-84202933D01*
X155849259Y-84067763D01*
X199145787Y-84067763D01*
X199175413Y-84337013D01*
X199175415Y-84337024D01*
X199243926Y-84599082D01*
X199243928Y-84599088D01*
X199349870Y-84848390D01*
X199421998Y-84966575D01*
X199490979Y-85079605D01*
X199490986Y-85079615D01*
X199664253Y-85287819D01*
X199664259Y-85287824D01*
X199865998Y-85468582D01*
X200091910Y-85618044D01*
X200337176Y-85733020D01*
X200337183Y-85733022D01*
X200337185Y-85733023D01*
X200596557Y-85811057D01*
X200596564Y-85811058D01*
X200596569Y-85811060D01*
X200864561Y-85850500D01*
X200864566Y-85850500D01*
X201067636Y-85850500D01*
X201119133Y-85846730D01*
X201270156Y-85835677D01*
X201382758Y-85810593D01*
X201534546Y-85776782D01*
X201534548Y-85776781D01*
X201534553Y-85776780D01*
X201787558Y-85680014D01*
X202023777Y-85547441D01*
X202238177Y-85381888D01*
X202426186Y-85186881D01*
X202583799Y-84966579D01*
X202657787Y-84822669D01*
X202707649Y-84725690D01*
X202707651Y-84725684D01*
X202707656Y-84725675D01*
X202795118Y-84469305D01*
X202844319Y-84202933D01*
X202854212Y-83932235D01*
X202824586Y-83662982D01*
X202756072Y-83400912D01*
X202650130Y-83151610D01*
X202509018Y-82920390D01*
X202471388Y-82875173D01*
X202335746Y-82712180D01*
X202335740Y-82712175D01*
X202134002Y-82531418D01*
X201908092Y-82381957D01*
X201886615Y-82371889D01*
X201662824Y-82266980D01*
X201662819Y-82266978D01*
X201662814Y-82266976D01*
X201403442Y-82188942D01*
X201403428Y-82188939D01*
X201287791Y-82171921D01*
X201135439Y-82149500D01*
X200932369Y-82149500D01*
X200932364Y-82149500D01*
X200729844Y-82164323D01*
X200729831Y-82164325D01*
X200465453Y-82223217D01*
X200465446Y-82223220D01*
X200212439Y-82319987D01*
X199976226Y-82452557D01*
X199976224Y-82452558D01*
X199976223Y-82452559D01*
X199922336Y-82494169D01*
X199761822Y-82618112D01*
X199573822Y-82813109D01*
X199573816Y-82813116D01*
X199416202Y-83033419D01*
X199416199Y-83033424D01*
X199292350Y-83274309D01*
X199292343Y-83274327D01*
X199204884Y-83530685D01*
X199204881Y-83530699D01*
X199155681Y-83797068D01*
X199155680Y-83797075D01*
X199145787Y-84067763D01*
X155849259Y-84067763D01*
X155854212Y-83932235D01*
X155824586Y-83662982D01*
X155756072Y-83400912D01*
X155655325Y-83163836D01*
X174714500Y-83163836D01*
X174714501Y-83163839D01*
X174714501Y-83163840D01*
X174722651Y-83204821D01*
X174753705Y-83251295D01*
X174800179Y-83282349D01*
X174841159Y-83290500D01*
X176568840Y-83290499D01*
X176609821Y-83282349D01*
X176656295Y-83251295D01*
X176687349Y-83204821D01*
X176695500Y-83163841D01*
X176695499Y-82300000D01*
X177249707Y-82300000D01*
X177268830Y-82494169D01*
X177325471Y-82680888D01*
X177417440Y-82852949D01*
X177417444Y-82852956D01*
X177541221Y-83003778D01*
X177692043Y-83127555D01*
X177692050Y-83127559D01*
X177864111Y-83219528D01*
X177864114Y-83219528D01*
X177864118Y-83219531D01*
X178050828Y-83276169D01*
X178245000Y-83295293D01*
X178439172Y-83276169D01*
X178625882Y-83219531D01*
X178653403Y-83204821D01*
X178797949Y-83127559D01*
X178797955Y-83127556D01*
X178948778Y-83003778D01*
X179072556Y-82852955D01*
X179164531Y-82680882D01*
X179210999Y-82527697D01*
X179249296Y-82469260D01*
X179313108Y-82440804D01*
X179382175Y-82451364D01*
X179434569Y-82497588D01*
X179449434Y-82531600D01*
X179511567Y-82763486D01*
X179511570Y-82763492D01*
X179611399Y-82977578D01*
X179746894Y-83171082D01*
X179913917Y-83338105D01*
X180107421Y-83473600D01*
X180321507Y-83573429D01*
X180321516Y-83573433D01*
X180535000Y-83630634D01*
X180535000Y-82735501D01*
X180642685Y-82784680D01*
X180749237Y-82800000D01*
X180820763Y-82800000D01*
X180927315Y-82784680D01*
X181035000Y-82735501D01*
X181035000Y-83630633D01*
X181248483Y-83573433D01*
X181248492Y-83573429D01*
X181462578Y-83473600D01*
X181656082Y-83338105D01*
X181823105Y-83171082D01*
X181958600Y-82977578D01*
X182058429Y-82763492D01*
X182058432Y-82763486D01*
X182115636Y-82550000D01*
X181218686Y-82550000D01*
X181244493Y-82509844D01*
X181285000Y-82371889D01*
X181285000Y-82228111D01*
X181244493Y-82090156D01*
X181218686Y-82050000D01*
X182115636Y-82050000D01*
X182115635Y-82049999D01*
X182058432Y-81836513D01*
X182058429Y-81836507D01*
X181958600Y-81622422D01*
X181958599Y-81622420D01*
X181823113Y-81428926D01*
X181823108Y-81428920D01*
X181656082Y-81261894D01*
X181462578Y-81126399D01*
X181248492Y-81026570D01*
X181248486Y-81026567D01*
X181035000Y-80969364D01*
X181035000Y-81864498D01*
X180927315Y-81815320D01*
X180820763Y-81800000D01*
X180749237Y-81800000D01*
X180642685Y-81815320D01*
X180535000Y-81864498D01*
X180535000Y-80969364D01*
X180534999Y-80969364D01*
X180321513Y-81026567D01*
X180321507Y-81026570D01*
X180107422Y-81126399D01*
X180107420Y-81126400D01*
X179913926Y-81261886D01*
X179913920Y-81261891D01*
X179746891Y-81428920D01*
X179746886Y-81428926D01*
X179611400Y-81622420D01*
X179611399Y-81622422D01*
X179511570Y-81836507D01*
X179511567Y-81836513D01*
X179449434Y-82068399D01*
X179413069Y-82128059D01*
X179350222Y-82158588D01*
X179280846Y-82150293D01*
X179226968Y-82105808D01*
X179210998Y-82072300D01*
X179204616Y-82051260D01*
X179164531Y-81919118D01*
X179164529Y-81919115D01*
X179164529Y-81919113D01*
X179072559Y-81747050D01*
X179072555Y-81747043D01*
X178948778Y-81596221D01*
X178797956Y-81472444D01*
X178797949Y-81472440D01*
X178625888Y-81380471D01*
X178625882Y-81380469D01*
X178439172Y-81323831D01*
X178439169Y-81323830D01*
X178245000Y-81304707D01*
X178050830Y-81323830D01*
X177864111Y-81380471D01*
X177692050Y-81472440D01*
X177692043Y-81472444D01*
X177541221Y-81596221D01*
X177417444Y-81747043D01*
X177417440Y-81747050D01*
X177325471Y-81919111D01*
X177268830Y-82105830D01*
X177249707Y-82300000D01*
X176695499Y-82300000D01*
X176695499Y-81436160D01*
X176687349Y-81395179D01*
X176656295Y-81348705D01*
X176609821Y-81317651D01*
X176568841Y-81309500D01*
X176568839Y-81309500D01*
X174841163Y-81309500D01*
X174800178Y-81317650D01*
X174800179Y-81317651D01*
X174753705Y-81348705D01*
X174743401Y-81364124D01*
X174722651Y-81395178D01*
X174714500Y-81436160D01*
X174714500Y-83163836D01*
X155655325Y-83163836D01*
X155650130Y-83151610D01*
X155509018Y-82920390D01*
X155471388Y-82875173D01*
X155335746Y-82712180D01*
X155335740Y-82712175D01*
X155134002Y-82531418D01*
X154908092Y-82381957D01*
X154886615Y-82371889D01*
X154662824Y-82266980D01*
X154662819Y-82266978D01*
X154662814Y-82266976D01*
X154403442Y-82188942D01*
X154403428Y-82188939D01*
X154287791Y-82171921D01*
X154135439Y-82149500D01*
X153932369Y-82149500D01*
X153932364Y-82149500D01*
X153729844Y-82164323D01*
X153729831Y-82164325D01*
X153465453Y-82223217D01*
X153465446Y-82223220D01*
X153212439Y-82319987D01*
X152976226Y-82452557D01*
X152976224Y-82452558D01*
X152976223Y-82452559D01*
X152922336Y-82494169D01*
X152761822Y-82618112D01*
X152573822Y-82813109D01*
X152573816Y-82813116D01*
X152416202Y-83033419D01*
X152416199Y-83033424D01*
X152292350Y-83274309D01*
X152292343Y-83274327D01*
X152204884Y-83530685D01*
X152204881Y-83530699D01*
X152155681Y-83797068D01*
X152155680Y-83797075D01*
X152145787Y-84067763D01*
X150000500Y-84067763D01*
X150000500Y-84001439D01*
X150000566Y-83998576D01*
X150008487Y-83827238D01*
X150016556Y-83662986D01*
X150018302Y-83627446D01*
X150018818Y-83621955D01*
X150044670Y-83436633D01*
X150072331Y-83250162D01*
X150073292Y-83245137D01*
X150116689Y-83060626D01*
X150161993Y-82879764D01*
X150163323Y-82875216D01*
X150223915Y-82694431D01*
X150286457Y-82519641D01*
X150288100Y-82515527D01*
X150365368Y-82340530D01*
X150444615Y-82172977D01*
X150446444Y-82169423D01*
X150539781Y-82001852D01*
X150634990Y-81843005D01*
X150636979Y-81839904D01*
X150745570Y-81681381D01*
X150855924Y-81532586D01*
X150857928Y-81530033D01*
X150980875Y-81381973D01*
X151105351Y-81244636D01*
X151107361Y-81242526D01*
X151242526Y-81107361D01*
X151244636Y-81105351D01*
X151381973Y-80980875D01*
X151530033Y-80857928D01*
X151532586Y-80855924D01*
X151681381Y-80745570D01*
X151839904Y-80636979D01*
X151843005Y-80634990D01*
X152001858Y-80539778D01*
X152169423Y-80446444D01*
X152172977Y-80444615D01*
X152340530Y-80365368D01*
X152515538Y-80288095D01*
X152519641Y-80286457D01*
X152694431Y-80223915D01*
X152875216Y-80163323D01*
X152879764Y-80161993D01*
X153060626Y-80116689D01*
X153245137Y-80073292D01*
X153250162Y-80072331D01*
X153436651Y-80044667D01*
X153621955Y-80018818D01*
X153627446Y-80018302D01*
X153826958Y-80008500D01*
X153968945Y-80001935D01*
X153998577Y-80000566D01*
X154001440Y-80000500D01*
X200998560Y-80000500D01*
X201001423Y-80000566D01*
G37*
%TD.AperFunction*%
%TD*%
M02*
