M48
; DRILL file {KiCad 7.0.6} date Fri Sep 15 11:23:25 2023
; FORMAT={-:-/ absolute / inch / decimal}
; #@! TF.CreationDate,2023-09-15T11:23:25-07:00
; #@! TF.GenerationSoftware,Kicad,Pcbnew,7.0.6
; #@! TF.FileFunction,Plated,1,4,PTH
FMAT,2
INCH
; #@! TA.AperFunction,Plated,PTH,ViaDrill
T1C0.0118
; #@! TA.AperFunction,Plated,PTH,ViaDrill
T2C0.0157
; #@! TA.AperFunction,Plated,PTH,ComponentDrill
T3C0.0315
; #@! TA.AperFunction,Plated,PTH,ComponentDrill
T4C0.0354
; #@! TA.AperFunction,Plated,PTH,ComponentDrill
T5C0.0394
%
G90
G05
T1
X6.8701Y-4.6614
X6.8701Y-4.689
X6.8701Y-4.7165
X6.8976Y-4.6614
X6.8976Y-4.689
X6.8976Y-4.7165
X6.9252Y-4.6614
X6.9252Y-4.689
X6.9252Y-4.7165
X6.9528Y-4.6614
X6.9528Y-4.689
X6.9528Y-4.7165
X6.9803Y-4.6614
X6.9803Y-4.689
X6.9803Y-4.7165
X7.0079Y-4.6614
X7.0079Y-4.689
X7.0079Y-4.7165
X7.0433Y-4.7874
X7.0433Y-4.811
X7.0433Y-4.8346
T2
X6.2244Y-5.0157
X6.2244Y-5.0551
X6.2244Y-5.0945
X6.2244Y-5.1339
X6.2244Y-5.1732
X6.2244Y-5.2126
X6.2244Y-5.2559
X6.2638Y-5.0157
X6.2638Y-5.0551
X6.2638Y-5.0945
X6.2638Y-5.1339
X6.2638Y-5.1732
X6.2638Y-5.2126
X6.2638Y-5.2559
X6.3031Y-5.0157
X6.3031Y-5.0551
X6.3031Y-5.0945
X6.3031Y-5.1339
X6.3031Y-5.1732
X6.3031Y-5.2126
X6.3031Y-5.2559
X6.3425Y-5.0157
X6.3425Y-5.0551
X6.3425Y-5.0945
X6.3425Y-5.1339
X6.3425Y-5.1732
X6.3425Y-5.2126
X6.3425Y-5.2559
X6.3819Y-5.0945
X6.3819Y-5.1339
X6.3819Y-5.1732
X6.3819Y-5.2126
X6.3819Y-5.2559
X6.3898Y-4.0394
X6.4213Y-5.0945
X6.4213Y-5.1339
X6.4213Y-5.1732
X6.4213Y-5.2126
X6.4213Y-5.2559
X6.4606Y-5.0945
X6.4606Y-5.1339
X6.4606Y-5.1732
X6.4606Y-5.2126
X6.4606Y-5.2559
X6.5Y-5.0945
X6.5Y-5.1339
X6.5Y-5.1732
X6.5Y-5.2126
X6.5Y-5.2559
X6.5094Y-4.0909
X6.5394Y-5.0945
X6.5394Y-5.1339
X6.5394Y-5.1732
X6.5394Y-5.2126
X6.5394Y-5.2559
X6.5653Y-4.667
X6.5787Y-5.0945
X6.5787Y-5.1339
X6.5787Y-5.1732
X6.5787Y-5.2126
X6.5787Y-5.2559
X6.6102Y-4.7992
X6.6181Y-5.0945
X6.6181Y-5.1339
X6.6181Y-5.2559
X6.6189Y-4.489
X6.6575Y-5.0945
X6.6575Y-5.1339
X6.6575Y-5.2559
X6.685Y-4.0977
X6.689Y-3.6142
X6.6969Y-5.0945
X6.6969Y-5.1339
X6.6969Y-5.2559
X6.7087Y-3.3898
X6.7362Y-5.0945
X6.7362Y-5.1339
X6.7362Y-5.2559
X6.7677Y-3.3898
X6.7717Y-4.6732
X6.7756Y-5.0945
X6.7756Y-5.1339
X6.7756Y-5.2559
X6.8031Y-4.3976
X6.8465Y-4.0472
X6.8504Y-4.9921
X6.8898Y-4.4134
X6.9331Y-4.5236
X6.9396Y-4.5728
X6.9409Y-3.5354
X6.9409Y-3.5748
X6.9409Y-3.6142
X6.9409Y-3.6535
X6.9409Y-3.6969
X6.9764Y-4.4528
X6.9803Y-3.5354
X6.9803Y-3.5748
X6.9803Y-3.6142
X6.9803Y-3.6535
X6.9803Y-3.6969
X7.0197Y-3.5354
X7.0197Y-3.5748
X7.0197Y-3.6142
X7.0197Y-3.6535
X7.0197Y-3.6969
X7.0236Y-3.8858
X7.0472Y-4.5669
X7.0591Y-3.5354
X7.0591Y-3.5748
X7.0591Y-3.6142
X7.0591Y-3.6535
X7.0591Y-3.6969
X7.0827Y-3.8622
X7.0984Y-3.5354
X7.0984Y-3.5748
X7.0984Y-3.6142
X7.0984Y-3.6535
X7.0984Y-3.6969
X7.1063Y-4.5931
X7.1102Y-4.252
X7.1142Y-4.7556
X7.122Y-4.6378
X7.1272Y-4.6823
X7.1299Y-4.0
X7.2667Y-3.5246
X7.2677Y-4.5787
X7.3189Y-5.0157
X7.3189Y-5.0551
X7.3189Y-5.0945
X7.3189Y-5.1339
X7.3189Y-5.1732
X7.3189Y-5.2126
X7.3189Y-5.252
X7.3228Y-4.6614
X7.3228Y-4.7008
X7.3228Y-4.7402
X7.3228Y-4.7795
X7.3268Y-4.5276
X7.3332Y-4.3775
X7.3386Y-3.4646
X7.3386Y-3.6299
X7.3504Y-4.0945
X7.3583Y-5.0157
X7.3583Y-5.0551
X7.3583Y-5.0945
X7.3583Y-5.1339
X7.3583Y-5.1732
X7.3583Y-5.2126
X7.3583Y-5.252
X7.3622Y-4.6614
X7.3622Y-4.7008
X7.3622Y-4.7402
X7.3622Y-4.7795
X7.3701Y-4.2913
X7.374Y-4.1417
X7.3976Y-5.0157
X7.3976Y-5.0551
X7.3976Y-5.0945
X7.3976Y-5.1339
X7.3976Y-5.1732
X7.3976Y-5.2126
X7.3976Y-5.252
X7.4016Y-4.6614
X7.4016Y-4.7008
X7.4016Y-4.7402
X7.4016Y-4.7795
X7.4252Y-4.4409
X7.437Y-5.0157
X7.437Y-5.0551
X7.437Y-5.0945
X7.437Y-5.1339
X7.437Y-5.1732
X7.437Y-5.2126
X7.437Y-5.252
X7.4409Y-4.6614
X7.4409Y-4.7008
X7.4409Y-4.7402
X7.4409Y-4.7795
X7.4409Y-4.8189
X7.4764Y-5.0157
X7.4764Y-5.0551
X7.4764Y-5.0945
X7.4764Y-5.1339
X7.4764Y-5.1732
X7.4764Y-5.2126
X7.4764Y-5.252
X7.4803Y-4.8189
X7.5Y-4.6929
X7.5Y-4.7283
X7.5Y-4.7638
X7.5157Y-5.0157
X7.5157Y-5.0551
X7.5157Y-5.0945
X7.5157Y-5.1339
X7.5157Y-5.1732
X7.5157Y-5.2126
X7.5157Y-5.252
X7.5197Y-4.8189
X7.5354Y-4.7283
X7.5354Y-4.7638
X7.5551Y-5.0157
X7.5551Y-5.0551
X7.5551Y-5.0945
X7.5551Y-5.1339
X7.5551Y-5.1732
X7.5551Y-5.2126
X7.5551Y-5.252
X7.5591Y-4.8189
X7.5709Y-4.7638
X7.5945Y-5.0157
X7.5945Y-5.0551
X7.5945Y-5.0945
X7.5945Y-5.1339
X7.5945Y-5.1732
X7.5945Y-5.2126
X7.5945Y-5.252
X7.6339Y-4.937
X7.6339Y-4.9764
X7.6339Y-5.0157
X7.6339Y-5.0551
X7.6339Y-5.0945
X7.6339Y-5.1339
X7.6339Y-5.1732
X7.6339Y-5.2126
X7.6339Y-5.252
X7.6732Y-4.937
X7.6732Y-4.9764
X7.6732Y-5.0157
X7.6732Y-5.0551
X7.6732Y-5.0945
X7.6732Y-5.1339
X7.6732Y-5.1732
X7.6732Y-5.2126
X7.6732Y-5.252
X7.7126Y-4.937
X7.7126Y-4.9764
X7.7126Y-5.0157
X7.7126Y-5.0551
X7.7126Y-5.0945
X7.7126Y-5.1339
X7.7126Y-5.1732
X7.7126Y-5.2126
X7.7126Y-5.252
X7.752Y-4.937
X7.752Y-4.9764
X7.752Y-5.0157
X7.752Y-5.0551
X7.752Y-5.0945
X7.752Y-5.1339
X7.752Y-5.1732
X7.752Y-5.2126
X7.752Y-5.252
X7.7913Y-4.937
X7.7913Y-4.9764
X7.8307Y-4.937
X7.8307Y-4.9764
X7.8701Y-4.937
X7.8701Y-4.9764
X7.9094Y-4.937
X7.9094Y-4.9764
X7.9528Y-4.937
X7.9528Y-4.9764
X7.9921Y-4.937
X7.9921Y-4.9764
T3
X7.7352Y-3.5937
X7.7352Y-3.8937
X7.8352Y-3.5937
X7.8352Y-3.8937
X7.9352Y-3.5937
X7.9352Y-3.8937
T4
X6.2134Y-4.3394
X6.2134Y-4.4197
X6.2134Y-4.5
X6.2134Y-4.5803
X6.2835Y-4.2992
X6.2835Y-4.3795
X6.2835Y-4.4598
X6.2835Y-4.5402
X7.7008Y-4.3669
X7.7008Y-4.4472
X7.7008Y-4.5276
X7.7008Y-4.6079
X7.7709Y-4.3268
X7.7709Y-4.4071
X7.7709Y-4.4874
X7.7709Y-4.5677
T5
X5.9932Y-3.6315
X5.9932Y-3.8315
X6.0092Y-3.5315
X6.0092Y-3.7315
X6.0092Y-3.9315
X6.0197Y-4.8701
X6.2008Y-4.874
X6.252Y-3.7638
X6.4134Y-3.7638
X6.4173Y-3.5551
X6.5787Y-3.7638
X6.5827Y-3.5591
X6.5984Y-4.1693
X6.7598Y-4.1732
X6.9175Y-3.2402
X7.0175Y-3.2402
X7.1175Y-3.2402
X7.5039Y-3.5551
X7.5079Y-3.7362
X7.5669Y-3.9961
T0
M30
