%TF.GenerationSoftware,KiCad,Pcbnew,7.0.6*%
%TF.CreationDate,2023-09-15T11:23:23-07:00*%
%TF.ProjectId,dmxRx,646d7852-782e-46b6-9963-61645f706362,rev?*%
%TF.SameCoordinates,Original*%
%TF.FileFunction,Legend,Top*%
%TF.FilePolarity,Positive*%
%FSLAX46Y46*%
G04 Gerber Fmt 4.6, Leading zero omitted, Abs format (unit mm)*
G04 Created by KiCad (PCBNEW 7.0.6) date 2023-09-15 11:23:23*
%MOMM*%
%LPD*%
G01*
G04 APERTURE LIST*
%ADD10C,0.150000*%
%ADD11C,0.250000*%
%ADD12C,0.400000*%
%ADD13C,0.300000*%
%ADD14C,0.100000*%
%ADD15C,0.120000*%
%ADD16C,0.152400*%
G04 APERTURE END LIST*
D10*
X165500000Y-108250000D02*
X189860000Y-108250000D01*
X189850000Y-121900000D02*
X204900000Y-121900000D01*
X189860000Y-108250000D02*
X189850000Y-121900000D01*
X165500000Y-108250000D02*
X165490000Y-121140000D01*
D11*
X172420000Y-86360000D02*
X184020000Y-86360000D01*
X184020000Y-97460000D01*
X172420000Y-97460000D01*
X172420000Y-86360000D01*
D10*
X165490000Y-121140000D02*
X150120000Y-121130000D01*
D11*
G36*
X168333762Y-109668899D02*
G01*
X168388407Y-109723544D01*
X168449473Y-109845675D01*
X168449473Y-110119992D01*
X168388407Y-110242123D01*
X168333762Y-110296769D01*
X168211632Y-110357834D01*
X167937315Y-110357834D01*
X167815183Y-110296768D01*
X167760538Y-110242123D01*
X167699473Y-110119993D01*
X167699473Y-109845674D01*
X167760538Y-109723544D01*
X167815183Y-109668899D01*
X167937315Y-109607834D01*
X168211632Y-109607834D01*
X168333762Y-109668899D01*
G37*
G36*
X168333762Y-108918899D02*
G01*
X168388407Y-108973544D01*
X168449473Y-109095675D01*
X168449473Y-109119992D01*
X168388407Y-109242123D01*
X168333762Y-109296768D01*
X168211632Y-109357834D01*
X167937315Y-109357834D01*
X167815183Y-109296768D01*
X167760538Y-109242122D01*
X167699472Y-109119992D01*
X167699472Y-109095675D01*
X167760538Y-108973545D01*
X167815183Y-108918899D01*
X167937315Y-108857834D01*
X168211632Y-108857834D01*
X168333762Y-108918899D01*
G37*
G36*
X173750428Y-109502232D02*
G01*
X173805074Y-109556879D01*
X173866140Y-109679009D01*
X173866140Y-110119991D01*
X173805074Y-110242121D01*
X173750426Y-110296769D01*
X173628297Y-110357834D01*
X173437315Y-110357834D01*
X173315183Y-110296768D01*
X173260538Y-110242122D01*
X173199473Y-110119993D01*
X173199473Y-109679009D01*
X173260537Y-109556880D01*
X173315185Y-109502232D01*
X173437315Y-109441167D01*
X173628298Y-109441167D01*
X173750428Y-109502232D01*
G37*
G36*
X179028937Y-110857834D02*
G01*
X165534078Y-110857834D01*
X165534078Y-109917290D01*
X165784078Y-109917290D01*
X165786922Y-109923518D01*
X165786675Y-109930359D01*
X165801364Y-109955143D01*
X165813337Y-109981359D01*
X165819096Y-109985060D01*
X165822587Y-109990949D01*
X165848344Y-110003857D01*
X165872589Y-110019438D01*
X165882190Y-110020818D01*
X165885556Y-110022505D01*
X165890351Y-110021991D01*
X165907806Y-110024501D01*
X166616139Y-110024501D01*
X166616139Y-110482834D01*
X166635982Y-110550414D01*
X166689212Y-110596538D01*
X166758928Y-110606562D01*
X166822997Y-110577303D01*
X166861076Y-110518051D01*
X166866139Y-110482834D01*
X166866139Y-110149501D01*
X167449473Y-110149501D01*
X167452665Y-110160373D01*
X167451449Y-110171639D01*
X167462670Y-110205403D01*
X167546002Y-110372068D01*
X167547598Y-110373783D01*
X167548096Y-110376073D01*
X167569418Y-110404555D01*
X167652752Y-110487889D01*
X167654807Y-110489011D01*
X167656004Y-110491026D01*
X167685238Y-110511304D01*
X167851904Y-110594637D01*
X167863054Y-110596643D01*
X167872589Y-110602771D01*
X167907806Y-110607834D01*
X168241140Y-110607834D01*
X168252012Y-110604641D01*
X168263278Y-110605858D01*
X168297042Y-110594637D01*
X168463707Y-110511305D01*
X168465422Y-110509708D01*
X168467712Y-110509211D01*
X168496194Y-110487889D01*
X168579528Y-110404555D01*
X168580650Y-110402499D01*
X168582665Y-110401303D01*
X168602943Y-110372069D01*
X168686276Y-110205403D01*
X168688282Y-110194252D01*
X168694410Y-110184718D01*
X168699473Y-110149501D01*
X168699473Y-109816167D01*
X168696280Y-109805294D01*
X168697497Y-109794028D01*
X168686276Y-109760265D01*
X168602943Y-109593599D01*
X168601348Y-109591884D01*
X168600850Y-109589595D01*
X168579528Y-109561113D01*
X168501249Y-109482834D01*
X168579528Y-109404555D01*
X168580650Y-109402499D01*
X168582665Y-109401303D01*
X168602943Y-109372069D01*
X168686276Y-109205403D01*
X168688282Y-109194252D01*
X168694410Y-109184718D01*
X168699473Y-109149501D01*
X168699473Y-109066167D01*
X168696280Y-109055294D01*
X168697497Y-109044028D01*
X168686276Y-109010265D01*
X168602943Y-108843599D01*
X168601348Y-108841884D01*
X168600850Y-108839595D01*
X168579528Y-108811113D01*
X168505767Y-108737352D01*
X168949554Y-108737352D01*
X168955888Y-108772363D01*
X169539222Y-110522362D01*
X169556841Y-110547715D01*
X169572588Y-110574282D01*
X169576756Y-110576371D01*
X169579417Y-110580199D01*
X169607948Y-110592002D01*
X169635557Y-110605838D01*
X169640192Y-110605341D01*
X169644501Y-110607124D01*
X169674883Y-110601628D01*
X169705591Y-110598341D01*
X169709223Y-110595416D01*
X169713809Y-110594587D01*
X169736391Y-110573543D01*
X169760453Y-110554171D01*
X169763319Y-110548449D01*
X169765338Y-110546569D01*
X169766450Y-110542201D01*
X169776392Y-110522362D01*
X170172527Y-109333956D01*
X171784078Y-109333956D01*
X171813337Y-109398025D01*
X171872589Y-109436104D01*
X171907806Y-109441167D01*
X172032806Y-109441167D01*
X172032806Y-110232834D01*
X172035998Y-110243706D01*
X172034782Y-110254973D01*
X172046003Y-110288736D01*
X172129337Y-110455403D01*
X172144576Y-110471786D01*
X172156004Y-110491026D01*
X172174236Y-110503672D01*
X172177308Y-110506975D01*
X172179983Y-110507659D01*
X172185238Y-110511304D01*
X172351904Y-110594637D01*
X172363054Y-110596643D01*
X172372589Y-110602771D01*
X172407806Y-110607834D01*
X172574473Y-110607834D01*
X172642053Y-110587991D01*
X172688177Y-110534761D01*
X172698201Y-110465045D01*
X172668942Y-110400976D01*
X172609690Y-110362897D01*
X172574473Y-110357834D01*
X172437315Y-110357834D01*
X172334309Y-110306331D01*
X172282806Y-110203325D01*
X172282806Y-110149501D01*
X172949473Y-110149501D01*
X172952665Y-110160373D01*
X172951449Y-110171639D01*
X172962670Y-110205403D01*
X173046002Y-110372068D01*
X173047598Y-110373783D01*
X173048096Y-110376073D01*
X173069418Y-110404555D01*
X173152752Y-110487889D01*
X173154807Y-110489011D01*
X173156004Y-110491026D01*
X173185238Y-110511304D01*
X173351904Y-110594637D01*
X173363054Y-110596643D01*
X173372589Y-110602771D01*
X173407806Y-110607834D01*
X173657806Y-110607834D01*
X173668678Y-110604641D01*
X173679944Y-110605858D01*
X173713707Y-110594638D01*
X173880374Y-110511305D01*
X173882089Y-110509709D01*
X173884380Y-110509211D01*
X173912862Y-110487889D01*
X173996195Y-110404555D01*
X173997316Y-110402500D01*
X173999331Y-110401304D01*
X174019609Y-110372069D01*
X174052019Y-110307249D01*
X175866457Y-110307249D01*
X175881428Y-110376072D01*
X175902750Y-110404555D01*
X175986083Y-110487889D01*
X175988139Y-110489011D01*
X175989336Y-110491027D01*
X176018571Y-110511305D01*
X176185237Y-110594637D01*
X176196387Y-110596643D01*
X176205922Y-110602771D01*
X176241139Y-110607834D01*
X176657806Y-110607834D01*
X176668678Y-110604641D01*
X176679944Y-110605858D01*
X176713708Y-110594637D01*
X176880373Y-110511305D01*
X176882088Y-110509708D01*
X176884378Y-110509211D01*
X176912860Y-110487889D01*
X176996194Y-110404555D01*
X176997316Y-110402499D01*
X176999331Y-110401303D01*
X177019609Y-110372069D01*
X177102942Y-110205403D01*
X177104948Y-110194252D01*
X177111076Y-110184718D01*
X177116139Y-110149501D01*
X177116139Y-109732834D01*
X177112946Y-109721961D01*
X177114163Y-109710696D01*
X177102942Y-109676932D01*
X177019610Y-109510266D01*
X177018014Y-109508550D01*
X177017516Y-109506260D01*
X176996194Y-109477778D01*
X176912860Y-109394445D01*
X176910804Y-109393322D01*
X176909608Y-109391308D01*
X176880373Y-109371030D01*
X176713708Y-109287698D01*
X176702557Y-109285691D01*
X176693023Y-109279564D01*
X176657806Y-109274501D01*
X176241139Y-109274501D01*
X176230266Y-109277693D01*
X176219001Y-109276477D01*
X176185237Y-109287698D01*
X176142471Y-109309080D01*
X176187596Y-108857834D01*
X176907806Y-108857834D01*
X176975386Y-108837991D01*
X177021510Y-108784761D01*
X177028327Y-108737352D01*
X177366220Y-108737352D01*
X177372554Y-108772363D01*
X177955888Y-110522362D01*
X177973507Y-110547715D01*
X177989254Y-110574282D01*
X177993422Y-110576371D01*
X177996083Y-110580199D01*
X178024614Y-110592002D01*
X178052223Y-110605838D01*
X178056858Y-110605341D01*
X178061167Y-110607124D01*
X178091549Y-110601628D01*
X178122257Y-110598341D01*
X178125889Y-110595416D01*
X178130475Y-110594587D01*
X178153057Y-110573543D01*
X178177119Y-110554171D01*
X178179985Y-110548449D01*
X178182004Y-110546569D01*
X178183116Y-110542201D01*
X178193058Y-110522362D01*
X178776391Y-108772362D01*
X178778937Y-108701975D01*
X178743025Y-108641386D01*
X178680056Y-108609830D01*
X178610022Y-108617327D01*
X178555160Y-108661497D01*
X178539221Y-108693305D01*
X178074473Y-110087550D01*
X177609724Y-108693305D01*
X177569529Y-108635468D01*
X177504445Y-108608544D01*
X177435137Y-108621081D01*
X177383608Y-108669099D01*
X177366220Y-108737352D01*
X177028327Y-108737352D01*
X177031534Y-108715045D01*
X177002275Y-108650976D01*
X176943023Y-108612897D01*
X176907806Y-108607834D01*
X176074472Y-108607834D01*
X176071793Y-108608620D01*
X176069083Y-108607950D01*
X176038200Y-108618484D01*
X176006892Y-108627677D01*
X176005063Y-108629787D01*
X176002420Y-108630689D01*
X175982128Y-108656255D01*
X175960768Y-108680907D01*
X175960370Y-108683669D01*
X175958634Y-108685858D01*
X175950092Y-108720396D01*
X175866759Y-109553729D01*
X175871998Y-109581581D01*
X175874020Y-109609850D01*
X175878421Y-109615729D01*
X175879779Y-109622948D01*
X175899244Y-109643546D01*
X175916229Y-109666235D01*
X175923111Y-109668802D01*
X175928156Y-109674140D01*
X175955666Y-109680944D01*
X175982222Y-109690849D01*
X175989398Y-109689287D01*
X175996528Y-109691051D01*
X176023350Y-109681901D01*
X176051045Y-109675877D01*
X176059442Y-109669590D01*
X176063191Y-109668312D01*
X176066178Y-109664547D01*
X176079527Y-109654555D01*
X176148516Y-109585566D01*
X176270648Y-109524501D01*
X176628298Y-109524501D01*
X176750426Y-109585565D01*
X176805074Y-109640212D01*
X176866139Y-109762342D01*
X176866139Y-110119992D01*
X176805073Y-110242123D01*
X176750427Y-110296769D01*
X176628298Y-110357834D01*
X176270648Y-110357834D01*
X176148517Y-110296769D01*
X176079528Y-110227779D01*
X176017711Y-110194024D01*
X175947457Y-110199048D01*
X175891072Y-110241256D01*
X175866457Y-110307249D01*
X174052019Y-110307249D01*
X174102943Y-110205403D01*
X174104949Y-110194252D01*
X174111077Y-110184718D01*
X174116140Y-110149501D01*
X174116140Y-109649501D01*
X174112948Y-109638631D01*
X174114165Y-109627363D01*
X174102943Y-109593599D01*
X174019609Y-109426932D01*
X174018015Y-109425218D01*
X174017517Y-109422928D01*
X173996195Y-109394446D01*
X173912861Y-109311113D01*
X173910807Y-109309991D01*
X173909610Y-109307976D01*
X173880375Y-109287698D01*
X173713708Y-109204364D01*
X173702557Y-109202357D01*
X173693023Y-109196230D01*
X173657806Y-109191167D01*
X173407806Y-109191167D01*
X173396933Y-109194359D01*
X173385667Y-109193143D01*
X173351904Y-109204364D01*
X173185238Y-109287698D01*
X173183524Y-109289291D01*
X173181234Y-109289790D01*
X173152752Y-109311112D01*
X173069418Y-109394445D01*
X173068295Y-109396501D01*
X173066280Y-109397698D01*
X173046002Y-109426933D01*
X172962669Y-109593600D01*
X172960662Y-109604751D01*
X172954536Y-109614284D01*
X172949473Y-109649501D01*
X172949473Y-110149501D01*
X172282806Y-110149501D01*
X172282806Y-109441167D01*
X172574473Y-109441167D01*
X172642053Y-109421324D01*
X172688177Y-109368094D01*
X172698201Y-109298378D01*
X172668942Y-109234309D01*
X172609690Y-109196230D01*
X172574473Y-109191167D01*
X172282806Y-109191167D01*
X172282806Y-108732834D01*
X172262963Y-108665254D01*
X172209733Y-108619130D01*
X172140017Y-108609106D01*
X172075948Y-108638365D01*
X172037869Y-108697617D01*
X172032806Y-108732834D01*
X172032806Y-109191167D01*
X171907806Y-109191167D01*
X171840226Y-109211010D01*
X171794102Y-109264240D01*
X171784078Y-109333956D01*
X170172527Y-109333956D01*
X170359725Y-108772362D01*
X170362271Y-108701975D01*
X170326359Y-108641386D01*
X170263390Y-108609830D01*
X170193356Y-108617327D01*
X170138494Y-108661497D01*
X170122555Y-108693305D01*
X169657807Y-110087550D01*
X169193058Y-108693305D01*
X169152863Y-108635468D01*
X169087779Y-108608544D01*
X169018471Y-108621081D01*
X168966942Y-108669099D01*
X168949554Y-108737352D01*
X168505767Y-108737352D01*
X168496194Y-108727779D01*
X168494139Y-108726657D01*
X168492942Y-108724641D01*
X168463707Y-108704363D01*
X168297042Y-108621031D01*
X168285891Y-108619024D01*
X168276357Y-108612897D01*
X168241140Y-108607834D01*
X167907806Y-108607834D01*
X167896933Y-108611026D01*
X167885667Y-108609810D01*
X167851904Y-108621031D01*
X167685238Y-108704364D01*
X167683523Y-108705958D01*
X167681234Y-108706457D01*
X167652752Y-108727779D01*
X167569418Y-108811113D01*
X167568296Y-108813167D01*
X167566280Y-108814365D01*
X167546002Y-108843600D01*
X167462670Y-109010265D01*
X167460663Y-109021415D01*
X167454536Y-109030950D01*
X167449473Y-109066167D01*
X167449473Y-109149501D01*
X167452665Y-109160373D01*
X167451449Y-109171639D01*
X167462670Y-109205403D01*
X167546002Y-109372068D01*
X167547598Y-109373783D01*
X167548096Y-109376073D01*
X167569418Y-109404555D01*
X167647697Y-109482834D01*
X167569418Y-109561113D01*
X167568296Y-109563167D01*
X167566280Y-109564365D01*
X167546002Y-109593600D01*
X167462670Y-109760265D01*
X167460663Y-109771415D01*
X167454536Y-109780950D01*
X167449473Y-109816167D01*
X167449473Y-110149501D01*
X166866139Y-110149501D01*
X166866139Y-110024501D01*
X166991139Y-110024501D01*
X167058719Y-110004658D01*
X167104843Y-109951428D01*
X167114867Y-109881712D01*
X167085608Y-109817643D01*
X167026356Y-109779564D01*
X166991139Y-109774501D01*
X166866139Y-109774501D01*
X166866139Y-109316167D01*
X166846296Y-109248587D01*
X166793066Y-109202463D01*
X166723350Y-109192439D01*
X166659281Y-109221698D01*
X166621202Y-109280950D01*
X166616139Y-109316167D01*
X166616139Y-109774501D01*
X166081234Y-109774501D01*
X166443058Y-108689029D01*
X166445604Y-108618642D01*
X166409692Y-108558053D01*
X166346723Y-108526497D01*
X166276689Y-108533994D01*
X166221827Y-108578164D01*
X166205888Y-108609972D01*
X165789221Y-109859973D01*
X165788179Y-109888763D01*
X165784078Y-109917290D01*
X165534078Y-109917290D01*
X165534078Y-108276497D01*
X179028937Y-108276497D01*
X179028937Y-110857834D01*
G37*
D10*
X154340180Y-92036779D02*
X155340180Y-92036779D01*
X155340180Y-92036779D02*
X155340180Y-92417731D01*
X155340180Y-92417731D02*
X155292561Y-92512969D01*
X155292561Y-92512969D02*
X155244942Y-92560588D01*
X155244942Y-92560588D02*
X155149704Y-92608207D01*
X155149704Y-92608207D02*
X155006847Y-92608207D01*
X155006847Y-92608207D02*
X154911609Y-92560588D01*
X154911609Y-92560588D02*
X154863990Y-92512969D01*
X154863990Y-92512969D02*
X154816371Y-92417731D01*
X154816371Y-92417731D02*
X154816371Y-92036779D01*
X154340180Y-93036779D02*
X155006847Y-93036779D01*
X154816371Y-93036779D02*
X154911609Y-93084398D01*
X154911609Y-93084398D02*
X154959228Y-93132017D01*
X154959228Y-93132017D02*
X155006847Y-93227255D01*
X155006847Y-93227255D02*
X155006847Y-93322493D01*
X154340180Y-93798684D02*
X154387800Y-93703446D01*
X154387800Y-93703446D02*
X154435419Y-93655827D01*
X154435419Y-93655827D02*
X154530657Y-93608208D01*
X154530657Y-93608208D02*
X154816371Y-93608208D01*
X154816371Y-93608208D02*
X154911609Y-93655827D01*
X154911609Y-93655827D02*
X154959228Y-93703446D01*
X154959228Y-93703446D02*
X155006847Y-93798684D01*
X155006847Y-93798684D02*
X155006847Y-93941541D01*
X155006847Y-93941541D02*
X154959228Y-94036779D01*
X154959228Y-94036779D02*
X154911609Y-94084398D01*
X154911609Y-94084398D02*
X154816371Y-94132017D01*
X154816371Y-94132017D02*
X154530657Y-94132017D01*
X154530657Y-94132017D02*
X154435419Y-94084398D01*
X154435419Y-94084398D02*
X154387800Y-94036779D01*
X154387800Y-94036779D02*
X154340180Y-93941541D01*
X154340180Y-93941541D02*
X154340180Y-93798684D01*
X155006847Y-94989160D02*
X154197323Y-94989160D01*
X154197323Y-94989160D02*
X154102085Y-94941541D01*
X154102085Y-94941541D02*
X154054466Y-94893922D01*
X154054466Y-94893922D02*
X154006847Y-94798684D01*
X154006847Y-94798684D02*
X154006847Y-94655827D01*
X154006847Y-94655827D02*
X154054466Y-94560589D01*
X154387800Y-94989160D02*
X154340180Y-94893922D01*
X154340180Y-94893922D02*
X154340180Y-94703446D01*
X154340180Y-94703446D02*
X154387800Y-94608208D01*
X154387800Y-94608208D02*
X154435419Y-94560589D01*
X154435419Y-94560589D02*
X154530657Y-94512970D01*
X154530657Y-94512970D02*
X154816371Y-94512970D01*
X154816371Y-94512970D02*
X154911609Y-94560589D01*
X154911609Y-94560589D02*
X154959228Y-94608208D01*
X154959228Y-94608208D02*
X155006847Y-94703446D01*
X155006847Y-94703446D02*
X155006847Y-94893922D01*
X155006847Y-94893922D02*
X154959228Y-94989160D01*
X154340180Y-95465351D02*
X155006847Y-95465351D01*
X154816371Y-95465351D02*
X154911609Y-95512970D01*
X154911609Y-95512970D02*
X154959228Y-95560589D01*
X154959228Y-95560589D02*
X155006847Y-95655827D01*
X155006847Y-95655827D02*
X155006847Y-95751065D01*
X154340180Y-96512970D02*
X154863990Y-96512970D01*
X154863990Y-96512970D02*
X154959228Y-96465351D01*
X154959228Y-96465351D02*
X155006847Y-96370113D01*
X155006847Y-96370113D02*
X155006847Y-96179637D01*
X155006847Y-96179637D02*
X154959228Y-96084399D01*
X154387800Y-96512970D02*
X154340180Y-96417732D01*
X154340180Y-96417732D02*
X154340180Y-96179637D01*
X154340180Y-96179637D02*
X154387800Y-96084399D01*
X154387800Y-96084399D02*
X154483038Y-96036780D01*
X154483038Y-96036780D02*
X154578276Y-96036780D01*
X154578276Y-96036780D02*
X154673514Y-96084399D01*
X154673514Y-96084399D02*
X154721133Y-96179637D01*
X154721133Y-96179637D02*
X154721133Y-96417732D01*
X154721133Y-96417732D02*
X154768752Y-96512970D01*
X154340180Y-96989161D02*
X155006847Y-96989161D01*
X154911609Y-96989161D02*
X154959228Y-97036780D01*
X154959228Y-97036780D02*
X155006847Y-97132018D01*
X155006847Y-97132018D02*
X155006847Y-97274875D01*
X155006847Y-97274875D02*
X154959228Y-97370113D01*
X154959228Y-97370113D02*
X154863990Y-97417732D01*
X154863990Y-97417732D02*
X154340180Y-97417732D01*
X154863990Y-97417732D02*
X154959228Y-97465351D01*
X154959228Y-97465351D02*
X155006847Y-97560589D01*
X155006847Y-97560589D02*
X155006847Y-97703446D01*
X155006847Y-97703446D02*
X154959228Y-97798685D01*
X154959228Y-97798685D02*
X154863990Y-97846304D01*
X154863990Y-97846304D02*
X154340180Y-97846304D01*
X154340180Y-98322494D02*
X155006847Y-98322494D01*
X154911609Y-98322494D02*
X154959228Y-98370113D01*
X154959228Y-98370113D02*
X155006847Y-98465351D01*
X155006847Y-98465351D02*
X155006847Y-98608208D01*
X155006847Y-98608208D02*
X154959228Y-98703446D01*
X154959228Y-98703446D02*
X154863990Y-98751065D01*
X154863990Y-98751065D02*
X154340180Y-98751065D01*
X154863990Y-98751065D02*
X154959228Y-98798684D01*
X154959228Y-98798684D02*
X155006847Y-98893922D01*
X155006847Y-98893922D02*
X155006847Y-99036779D01*
X155006847Y-99036779D02*
X154959228Y-99132018D01*
X154959228Y-99132018D02*
X154863990Y-99179637D01*
X154863990Y-99179637D02*
X154340180Y-99179637D01*
X154387800Y-100036779D02*
X154340180Y-99941541D01*
X154340180Y-99941541D02*
X154340180Y-99751065D01*
X154340180Y-99751065D02*
X154387800Y-99655827D01*
X154387800Y-99655827D02*
X154483038Y-99608208D01*
X154483038Y-99608208D02*
X154863990Y-99608208D01*
X154863990Y-99608208D02*
X154959228Y-99655827D01*
X154959228Y-99655827D02*
X155006847Y-99751065D01*
X155006847Y-99751065D02*
X155006847Y-99941541D01*
X155006847Y-99941541D02*
X154959228Y-100036779D01*
X154959228Y-100036779D02*
X154863990Y-100084398D01*
X154863990Y-100084398D02*
X154768752Y-100084398D01*
X154768752Y-100084398D02*
X154673514Y-99608208D01*
X154340180Y-100512970D02*
X155006847Y-100512970D01*
X154816371Y-100512970D02*
X154911609Y-100560589D01*
X154911609Y-100560589D02*
X154959228Y-100608208D01*
X154959228Y-100608208D02*
X155006847Y-100703446D01*
X155006847Y-100703446D02*
X155006847Y-100798684D01*
D12*
G36*
X183700575Y-98256665D02*
G01*
X183876549Y-98432639D01*
X183976190Y-98831200D01*
X183976190Y-99615293D01*
X183876549Y-100013853D01*
X183819046Y-100071356D01*
X183603325Y-99855636D01*
X183576146Y-99838558D01*
X183551347Y-99818172D01*
X183313252Y-99699124D01*
X183311775Y-99698763D01*
X183310586Y-99697815D01*
X183268592Y-99688230D01*
X183226779Y-99678031D01*
X183225291Y-99678347D01*
X183223809Y-99678009D01*
X182985713Y-99678009D01*
X182898936Y-99697815D01*
X182829347Y-99753311D01*
X182790727Y-99833505D01*
X182790727Y-99922513D01*
X182829347Y-100002707D01*
X182898936Y-100058203D01*
X182985713Y-100078009D01*
X183176596Y-100078009D01*
X183343432Y-100161427D01*
X183455252Y-100273247D01*
X183151975Y-100273247D01*
X182985138Y-100189828D01*
X182809164Y-100013854D01*
X182709523Y-99615294D01*
X182709523Y-98831199D01*
X182809164Y-98432638D01*
X182985137Y-98256665D01*
X183151974Y-98173247D01*
X183533739Y-98173247D01*
X183700575Y-98256665D01*
G37*
G36*
X178105338Y-99328094D02*
G01*
X178178485Y-99401242D01*
X178261904Y-99568079D01*
X178261904Y-99949843D01*
X178178485Y-100116680D01*
X178105338Y-100189828D01*
X177938500Y-100273247D01*
X177556737Y-100273247D01*
X177389898Y-100189828D01*
X177316751Y-100116679D01*
X177233333Y-99949843D01*
X177233333Y-99568079D01*
X177316751Y-99401243D01*
X177389898Y-99328094D01*
X177556737Y-99244676D01*
X177938500Y-99244676D01*
X178105338Y-99328094D01*
G37*
G36*
X178105336Y-98256665D02*
G01*
X178178485Y-98329812D01*
X178261904Y-98496651D01*
X178261904Y-98521271D01*
X178178485Y-98688108D01*
X178105337Y-98761257D01*
X177938501Y-98844676D01*
X177556736Y-98844676D01*
X177389899Y-98761257D01*
X177316751Y-98688107D01*
X177233333Y-98521271D01*
X177233333Y-98496651D01*
X177316751Y-98329813D01*
X177389899Y-98256665D01*
X177556736Y-98173247D01*
X177938501Y-98173247D01*
X178105336Y-98256665D01*
G37*
G36*
X169652957Y-98256665D02*
G01*
X169726104Y-98329812D01*
X169809524Y-98496651D01*
X169809524Y-98759366D01*
X169726104Y-98926205D01*
X169652957Y-98999352D01*
X169486121Y-99082771D01*
X168780953Y-99082771D01*
X168780953Y-98173247D01*
X169486121Y-98173247D01*
X169652957Y-98256665D01*
G37*
G36*
X189490223Y-101268463D02*
G01*
X168023810Y-101268463D01*
X168023810Y-100473247D01*
X168380953Y-100473247D01*
X168400759Y-100560024D01*
X168456255Y-100629613D01*
X168536449Y-100668233D01*
X168625457Y-100668233D01*
X168705651Y-100629613D01*
X168761147Y-100560024D01*
X168780953Y-100473247D01*
X170880953Y-100473247D01*
X170900759Y-100560024D01*
X170956255Y-100629613D01*
X171036449Y-100668233D01*
X171125457Y-100668233D01*
X171205651Y-100629613D01*
X171261147Y-100560024D01*
X171280953Y-100473247D01*
X171280953Y-99401819D01*
X171952381Y-99401819D01*
X171957847Y-99425769D01*
X171958353Y-99450326D01*
X172077401Y-99926517D01*
X172087337Y-99946107D01*
X172092543Y-99967451D01*
X172211590Y-100205546D01*
X172231975Y-100230344D01*
X172249054Y-100257525D01*
X172487149Y-100495621D01*
X172488436Y-100496430D01*
X172489265Y-100497706D01*
X172526056Y-100520068D01*
X172562515Y-100542977D01*
X172564026Y-100543147D01*
X172565326Y-100543937D01*
X172922469Y-100662984D01*
X172954417Y-100666103D01*
X172985714Y-100673247D01*
X173223810Y-100673247D01*
X173255106Y-100666103D01*
X173287055Y-100662984D01*
X173644198Y-100543937D01*
X173645497Y-100543147D01*
X173647008Y-100542977D01*
X173683437Y-100520086D01*
X173720258Y-100497706D01*
X173721087Y-100496429D01*
X173722373Y-100495621D01*
X173841421Y-100376574D01*
X173888777Y-100301208D01*
X173898742Y-100212760D01*
X173869345Y-100128745D01*
X173806407Y-100065807D01*
X173722392Y-100036410D01*
X173633944Y-100046375D01*
X173558578Y-100093731D01*
X173472916Y-100179393D01*
X173191354Y-100273247D01*
X173018171Y-100273247D01*
X172736607Y-100179393D01*
X172554847Y-99997632D01*
X172460133Y-99808203D01*
X172352381Y-99377199D01*
X172352381Y-99069295D01*
X172458223Y-98645929D01*
X174456756Y-98645929D01*
X174458078Y-98734928D01*
X174497883Y-98814539D01*
X174568290Y-98868995D01*
X174655351Y-98887511D01*
X174741824Y-98866418D01*
X174979919Y-98747370D01*
X175004718Y-98726983D01*
X175031897Y-98709906D01*
X175166667Y-98575136D01*
X175166667Y-100273247D01*
X174652381Y-100273247D01*
X174565604Y-100293053D01*
X174496015Y-100348549D01*
X174457395Y-100428743D01*
X174457395Y-100517751D01*
X174496015Y-100597945D01*
X174565604Y-100653441D01*
X174652381Y-100673247D01*
X176080952Y-100673247D01*
X176167729Y-100653441D01*
X176237318Y-100597945D01*
X176275938Y-100517751D01*
X176275938Y-100428743D01*
X176237318Y-100348549D01*
X176167729Y-100293053D01*
X176080952Y-100273247D01*
X175566667Y-100273247D01*
X175566667Y-99997057D01*
X176833333Y-99997057D01*
X176833671Y-99998539D01*
X176833355Y-100000027D01*
X176843554Y-100041840D01*
X176853139Y-100083834D01*
X176854087Y-100085023D01*
X176854448Y-100086500D01*
X176973496Y-100324595D01*
X176993880Y-100349392D01*
X177010959Y-100376573D01*
X177130006Y-100495621D01*
X177157186Y-100512700D01*
X177181986Y-100533086D01*
X177420081Y-100652133D01*
X177421557Y-100652493D01*
X177422746Y-100653441D01*
X177464724Y-100663022D01*
X177506554Y-100673225D01*
X177508040Y-100672908D01*
X177509523Y-100673247D01*
X177985714Y-100673247D01*
X177987196Y-100672908D01*
X177988683Y-100673225D01*
X178030512Y-100663022D01*
X178072491Y-100653441D01*
X178073679Y-100652493D01*
X178075156Y-100652133D01*
X178313251Y-100533086D01*
X178338052Y-100512698D01*
X178365230Y-100495621D01*
X178484278Y-100376574D01*
X178501357Y-100349393D01*
X178521743Y-100324594D01*
X178640790Y-100086499D01*
X178641150Y-100085022D01*
X178642098Y-100083834D01*
X178651679Y-100041855D01*
X178661882Y-100000026D01*
X178661565Y-99998539D01*
X178661904Y-99997057D01*
X178661904Y-99565370D01*
X179338347Y-99565370D01*
X179376967Y-99645564D01*
X179446556Y-99701060D01*
X179533333Y-99720866D01*
X181438095Y-99720866D01*
X181524872Y-99701060D01*
X181594461Y-99645564D01*
X181597182Y-99639914D01*
X182309523Y-99639914D01*
X182314989Y-99663864D01*
X182315495Y-99688421D01*
X182434543Y-100164612D01*
X182438752Y-100172910D01*
X182439794Y-100182159D01*
X182458716Y-100212273D01*
X182474804Y-100243994D01*
X182482198Y-100249645D01*
X182487149Y-100257525D01*
X182725244Y-100495621D01*
X182752424Y-100512700D01*
X182777224Y-100533086D01*
X183015319Y-100652133D01*
X183016795Y-100652493D01*
X183017984Y-100653441D01*
X183059962Y-100663022D01*
X183101792Y-100673225D01*
X183103278Y-100672908D01*
X183104761Y-100673247D01*
X183580952Y-100673247D01*
X183582434Y-100672908D01*
X183583921Y-100673225D01*
X183625750Y-100663022D01*
X183667729Y-100653441D01*
X183668917Y-100652493D01*
X183670394Y-100652133D01*
X183779556Y-100597551D01*
X183915721Y-100733716D01*
X183942898Y-100750793D01*
X183967700Y-100771181D01*
X184205795Y-100890228D01*
X184292268Y-100911320D01*
X184379329Y-100892804D01*
X184449735Y-100838348D01*
X184489541Y-100758736D01*
X184490862Y-100669737D01*
X184453438Y-100588979D01*
X184384679Y-100532456D01*
X184175611Y-100427922D01*
X184101889Y-100354200D01*
X184198564Y-100257525D01*
X184203514Y-100249645D01*
X184210909Y-100243994D01*
X184226995Y-100212275D01*
X184245919Y-100182159D01*
X184246961Y-100172909D01*
X184251170Y-100164611D01*
X184370219Y-99688421D01*
X184370724Y-99663859D01*
X184376190Y-99639914D01*
X184376190Y-98806580D01*
X184370724Y-98782634D01*
X184370219Y-98758073D01*
X184251170Y-98281883D01*
X184246961Y-98273584D01*
X184245919Y-98264334D01*
X184226995Y-98234218D01*
X184210909Y-98202500D01*
X184203513Y-98196847D01*
X184198563Y-98188969D01*
X184027345Y-98017751D01*
X184814537Y-98017751D01*
X184853157Y-98097945D01*
X184922746Y-98153441D01*
X185009523Y-98173247D01*
X186372882Y-98173247D01*
X185420932Y-100394463D01*
X185404953Y-100482026D01*
X185428550Y-100567849D01*
X185487047Y-100634936D01*
X185568858Y-100669998D01*
X185657781Y-100666091D01*
X185736202Y-100623990D01*
X185788590Y-100552031D01*
X186605491Y-98645929D01*
X187313898Y-98645929D01*
X187315220Y-98734928D01*
X187355025Y-98814539D01*
X187425432Y-98868995D01*
X187512493Y-98887511D01*
X187598966Y-98866418D01*
X187837061Y-98747370D01*
X187861860Y-98726983D01*
X187889039Y-98709906D01*
X188023809Y-98575135D01*
X188023809Y-100273247D01*
X187509523Y-100273247D01*
X187422746Y-100293053D01*
X187353157Y-100348549D01*
X187314537Y-100428743D01*
X187314537Y-100517751D01*
X187353157Y-100597945D01*
X187422746Y-100653441D01*
X187509523Y-100673247D01*
X188938094Y-100673247D01*
X189024871Y-100653441D01*
X189094460Y-100597945D01*
X189133080Y-100517751D01*
X189133080Y-100428743D01*
X189094460Y-100348549D01*
X189024871Y-100293053D01*
X188938094Y-100273247D01*
X188423809Y-100273247D01*
X188423809Y-97973247D01*
X188416930Y-97943109D01*
X188414300Y-97912313D01*
X188407135Y-97900196D01*
X188404003Y-97886470D01*
X188384731Y-97862304D01*
X188368998Y-97835695D01*
X188357281Y-97827884D01*
X188348507Y-97816881D01*
X188320665Y-97803472D01*
X188294939Y-97786322D01*
X188280994Y-97784368D01*
X188268313Y-97778261D01*
X188237404Y-97778261D01*
X188206791Y-97773972D01*
X188193383Y-97778261D01*
X188179305Y-97778261D01*
X188151458Y-97791671D01*
X188122014Y-97801090D01*
X188111792Y-97810773D01*
X188099111Y-97816881D01*
X188079838Y-97841047D01*
X188057399Y-97862307D01*
X187830287Y-98202973D01*
X187629146Y-98404114D01*
X187420080Y-98508648D01*
X187351322Y-98565171D01*
X187313898Y-98645929D01*
X186605491Y-98645929D01*
X186860019Y-98052031D01*
X186863284Y-98034138D01*
X186871176Y-98017751D01*
X186871176Y-97990891D01*
X186875998Y-97964468D01*
X186871176Y-97946930D01*
X186871176Y-97928743D01*
X186859521Y-97904542D01*
X186852401Y-97878645D01*
X186840448Y-97864936D01*
X186832556Y-97848549D01*
X186811555Y-97831801D01*
X186793904Y-97811558D01*
X186777187Y-97804393D01*
X186762967Y-97793053D01*
X186736779Y-97787075D01*
X186712093Y-97776496D01*
X186693922Y-97777294D01*
X186676190Y-97773247D01*
X185009523Y-97773247D01*
X184922746Y-97793053D01*
X184853157Y-97848549D01*
X184814537Y-97928743D01*
X184814537Y-98017751D01*
X184027345Y-98017751D01*
X183960468Y-97950874D01*
X183933289Y-97933796D01*
X183908490Y-97913410D01*
X183670395Y-97794362D01*
X183668918Y-97794001D01*
X183667729Y-97793053D01*
X183625735Y-97783468D01*
X183583922Y-97773269D01*
X183582434Y-97773585D01*
X183580952Y-97773247D01*
X183104761Y-97773247D01*
X183103279Y-97773585D01*
X183101792Y-97773269D01*
X183059985Y-97783466D01*
X183017984Y-97793053D01*
X183016794Y-97794001D01*
X183015318Y-97794362D01*
X182777223Y-97913410D01*
X182752425Y-97933795D01*
X182725245Y-97950874D01*
X182487150Y-98188969D01*
X182482199Y-98196847D01*
X182474804Y-98202500D01*
X182458715Y-98234220D01*
X182439794Y-98264334D01*
X182438751Y-98273583D01*
X182434543Y-98281882D01*
X182315495Y-98758073D01*
X182314989Y-98782629D01*
X182309523Y-98806580D01*
X182309523Y-99639914D01*
X181597182Y-99639914D01*
X181633081Y-99565370D01*
X181633081Y-99476362D01*
X181594461Y-99396168D01*
X181524872Y-99340672D01*
X181438095Y-99320866D01*
X179533333Y-99320866D01*
X179446556Y-99340672D01*
X179376967Y-99396168D01*
X179338347Y-99476362D01*
X179338347Y-99565370D01*
X178661904Y-99565370D01*
X178661904Y-99520866D01*
X178661565Y-99519383D01*
X178661882Y-99517897D01*
X178651679Y-99476067D01*
X178642098Y-99434089D01*
X178641150Y-99432900D01*
X178640790Y-99431424D01*
X178521743Y-99193329D01*
X178501357Y-99168529D01*
X178484278Y-99141349D01*
X178387603Y-99044675D01*
X178484278Y-98948002D01*
X178501357Y-98920821D01*
X178521743Y-98896022D01*
X178640790Y-98657927D01*
X178641150Y-98656450D01*
X178642098Y-98655262D01*
X178651679Y-98613283D01*
X178661882Y-98571454D01*
X178661565Y-98569967D01*
X178661904Y-98568485D01*
X178661904Y-98449438D01*
X178661565Y-98447955D01*
X178661882Y-98446469D01*
X178651679Y-98404639D01*
X178642098Y-98362661D01*
X178641150Y-98361472D01*
X178640790Y-98359996D01*
X178521743Y-98121900D01*
X178501357Y-98097100D01*
X178484278Y-98069920D01*
X178365230Y-97950873D01*
X178338049Y-97933794D01*
X178313252Y-97913410D01*
X178075157Y-97794362D01*
X178073680Y-97794001D01*
X178072491Y-97793053D01*
X178030497Y-97783468D01*
X177988684Y-97773269D01*
X177987196Y-97773585D01*
X177985714Y-97773247D01*
X177509523Y-97773247D01*
X177508041Y-97773585D01*
X177506554Y-97773269D01*
X177464747Y-97783466D01*
X177422746Y-97793053D01*
X177421556Y-97794001D01*
X177420080Y-97794362D01*
X177181985Y-97913410D01*
X177157187Y-97933795D01*
X177130007Y-97950874D01*
X177010960Y-98069921D01*
X176993882Y-98097098D01*
X176973495Y-98121900D01*
X176854448Y-98359995D01*
X176854087Y-98361471D01*
X176853139Y-98362661D01*
X176843552Y-98404662D01*
X176833355Y-98446469D01*
X176833671Y-98447955D01*
X176833333Y-98449438D01*
X176833333Y-98568485D01*
X176833671Y-98569967D01*
X176833355Y-98571455D01*
X176843554Y-98613268D01*
X176853139Y-98655262D01*
X176854087Y-98656451D01*
X176854448Y-98657928D01*
X176973496Y-98896023D01*
X176993880Y-98920820D01*
X177010959Y-98948001D01*
X177107632Y-99044675D01*
X177010959Y-99141350D01*
X176993880Y-99168530D01*
X176973496Y-99193328D01*
X176854448Y-99431423D01*
X176854087Y-99432899D01*
X176853139Y-99434089D01*
X176843554Y-99476082D01*
X176833355Y-99517896D01*
X176833671Y-99519383D01*
X176833333Y-99520866D01*
X176833333Y-99997057D01*
X175566667Y-99997057D01*
X175566667Y-97973247D01*
X175559788Y-97943109D01*
X175557158Y-97912313D01*
X175549993Y-97900196D01*
X175546861Y-97886470D01*
X175527589Y-97862304D01*
X175511856Y-97835695D01*
X175500139Y-97827884D01*
X175491365Y-97816881D01*
X175463523Y-97803472D01*
X175437797Y-97786322D01*
X175423852Y-97784368D01*
X175411171Y-97778261D01*
X175380262Y-97778261D01*
X175349649Y-97773972D01*
X175336241Y-97778261D01*
X175322163Y-97778261D01*
X175294316Y-97791671D01*
X175264872Y-97801090D01*
X175254650Y-97810773D01*
X175241969Y-97816881D01*
X175222696Y-97841047D01*
X175200257Y-97862307D01*
X174973145Y-98202973D01*
X174772004Y-98404114D01*
X174562938Y-98508648D01*
X174494180Y-98565171D01*
X174456756Y-98645929D01*
X172458223Y-98645929D01*
X172460133Y-98638290D01*
X172554848Y-98448859D01*
X172736605Y-98267102D01*
X173018171Y-98173247D01*
X173191353Y-98173247D01*
X173472916Y-98267102D01*
X173558580Y-98352764D01*
X173633945Y-98400120D01*
X173722394Y-98410084D01*
X173806408Y-98380687D01*
X173869346Y-98317748D01*
X173898743Y-98233734D01*
X173888777Y-98145286D01*
X173841421Y-98069920D01*
X173722373Y-97950873D01*
X173721086Y-97950064D01*
X173720259Y-97948790D01*
X173683454Y-97926419D01*
X173647007Y-97903518D01*
X173645497Y-97903347D01*
X173644198Y-97902558D01*
X173287056Y-97783510D01*
X173255105Y-97780389D01*
X173223810Y-97773247D01*
X172985714Y-97773247D01*
X172954418Y-97780389D01*
X172922468Y-97783510D01*
X172565325Y-97902558D01*
X172564025Y-97903347D01*
X172562515Y-97903518D01*
X172526085Y-97926408D01*
X172489265Y-97948789D01*
X172488435Y-97950065D01*
X172487150Y-97950874D01*
X172249055Y-98188969D01*
X172231977Y-98216146D01*
X172211590Y-98240948D01*
X172092543Y-98479043D01*
X172087337Y-98500386D01*
X172077401Y-98519977D01*
X171958353Y-98996169D01*
X171957847Y-99020725D01*
X171952381Y-99044676D01*
X171952381Y-99401819D01*
X171280953Y-99401819D01*
X171280953Y-97973247D01*
X171261147Y-97886470D01*
X171205651Y-97816881D01*
X171125457Y-97778261D01*
X171036449Y-97778261D01*
X170956255Y-97816881D01*
X170900759Y-97886470D01*
X170880953Y-97973247D01*
X170880953Y-100473247D01*
X168780953Y-100473247D01*
X168780953Y-99482771D01*
X169533334Y-99482771D01*
X169534816Y-99482432D01*
X169536304Y-99482749D01*
X169578117Y-99472549D01*
X169620111Y-99462965D01*
X169621300Y-99462016D01*
X169622777Y-99461656D01*
X169860872Y-99342608D01*
X169885671Y-99322221D01*
X169912850Y-99305144D01*
X170031897Y-99186097D01*
X170048974Y-99158918D01*
X170069361Y-99134119D01*
X170188409Y-98896023D01*
X170188769Y-98894546D01*
X170189718Y-98893357D01*
X170199302Y-98851363D01*
X170209502Y-98809550D01*
X170209185Y-98808062D01*
X170209524Y-98806580D01*
X170209524Y-98449438D01*
X170209185Y-98447955D01*
X170209502Y-98446468D01*
X170199302Y-98404654D01*
X170189718Y-98362661D01*
X170188769Y-98361471D01*
X170188409Y-98359995D01*
X170069361Y-98121899D01*
X170048974Y-98097099D01*
X170031897Y-98069921D01*
X169912850Y-97950874D01*
X169885671Y-97933796D01*
X169860872Y-97913410D01*
X169622777Y-97794362D01*
X169621300Y-97794001D01*
X169620111Y-97793053D01*
X169578117Y-97783468D01*
X169536304Y-97773269D01*
X169534816Y-97773585D01*
X169533334Y-97773247D01*
X168580953Y-97773247D01*
X168558985Y-97778261D01*
X168536449Y-97778261D01*
X168516145Y-97788038D01*
X168494176Y-97793053D01*
X168476556Y-97807104D01*
X168456255Y-97816881D01*
X168442204Y-97834498D01*
X168424587Y-97848549D01*
X168414810Y-97868850D01*
X168400759Y-97886470D01*
X168395744Y-97908439D01*
X168385967Y-97928743D01*
X168385967Y-97951278D01*
X168380953Y-97973247D01*
X168380953Y-100473247D01*
X168023810Y-100473247D01*
X168023810Y-97416104D01*
X189490223Y-97416104D01*
X189490223Y-101268463D01*
G37*
D10*
G36*
X175241503Y-83952990D02*
G01*
X175315616Y-84027103D01*
X175354109Y-84104089D01*
X175397493Y-84277623D01*
X175397493Y-84402013D01*
X175354109Y-84575546D01*
X175315615Y-84652534D01*
X175241503Y-84726647D01*
X175126990Y-84764819D01*
X174976065Y-84764819D01*
X174976065Y-83914819D01*
X175126990Y-83914819D01*
X175241503Y-83952990D01*
G37*
G36*
X177999495Y-84282410D02*
G01*
X178029902Y-84312817D01*
X178064160Y-84381332D01*
X178064160Y-84631637D01*
X178029901Y-84700153D01*
X177999494Y-84730561D01*
X177930979Y-84764819D01*
X177823532Y-84764819D01*
X177755016Y-84730561D01*
X177724609Y-84700153D01*
X177690351Y-84631637D01*
X177690351Y-84381333D01*
X177724608Y-84312817D01*
X177755016Y-84282409D01*
X177823532Y-84248152D01*
X177930979Y-84248152D01*
X177999495Y-84282410D01*
G37*
G36*
X180702306Y-84276672D02*
G01*
X180730827Y-84333714D01*
X180730827Y-84349762D01*
X180404637Y-84414999D01*
X180404637Y-84333713D01*
X180433157Y-84276672D01*
X180490199Y-84248152D01*
X180645265Y-84248152D01*
X180702306Y-84276672D01*
G37*
G36*
X182999496Y-84282409D02*
G01*
X183029903Y-84312817D01*
X183064161Y-84381332D01*
X183064161Y-84631637D01*
X183029902Y-84700153D01*
X182999495Y-84730561D01*
X182930980Y-84764819D01*
X182823533Y-84764819D01*
X182755017Y-84730561D01*
X182724610Y-84700153D01*
X182690352Y-84631637D01*
X182690352Y-84381333D01*
X182724610Y-84312817D01*
X182755017Y-84282410D01*
X182823533Y-84248152D01*
X182930980Y-84248152D01*
X182999496Y-84282409D01*
G37*
G36*
X184070165Y-85057676D02*
G01*
X172968922Y-85057676D01*
X172968922Y-84839819D01*
X173111779Y-84839819D01*
X173118442Y-84858127D01*
X173121827Y-84877319D01*
X173127011Y-84881669D01*
X173129326Y-84888028D01*
X173146199Y-84897770D01*
X173161127Y-84910296D01*
X173170869Y-84912013D01*
X173173755Y-84913680D01*
X173177037Y-84913101D01*
X173186779Y-84914819D01*
X173662969Y-84914819D01*
X173711178Y-84897272D01*
X173736830Y-84852843D01*
X173734533Y-84839819D01*
X173921303Y-84839819D01*
X173927966Y-84858127D01*
X173931351Y-84877319D01*
X173936535Y-84881669D01*
X173938850Y-84888028D01*
X173955723Y-84897770D01*
X173970651Y-84910296D01*
X173980393Y-84912013D01*
X173983279Y-84913680D01*
X173986561Y-84913101D01*
X173996303Y-84914819D01*
X174472493Y-84914819D01*
X174520702Y-84897272D01*
X174546354Y-84852843D01*
X174544057Y-84839819D01*
X174826065Y-84839819D01*
X174832728Y-84858127D01*
X174836113Y-84877319D01*
X174841297Y-84881669D01*
X174843612Y-84888028D01*
X174860485Y-84897770D01*
X174875413Y-84910296D01*
X174885155Y-84912013D01*
X174888041Y-84913680D01*
X174891323Y-84913101D01*
X174901065Y-84914819D01*
X175139160Y-84914819D01*
X175140698Y-84914258D01*
X175162877Y-84910970D01*
X175305734Y-84863351D01*
X175309246Y-84860563D01*
X175313713Y-84860173D01*
X175335050Y-84845233D01*
X175430289Y-84749993D01*
X175430980Y-84748510D01*
X175444337Y-84730502D01*
X175491956Y-84635264D01*
X175492362Y-84631735D01*
X175497635Y-84619913D01*
X175545254Y-84429437D01*
X175544893Y-84425988D01*
X175547493Y-84411247D01*
X176540351Y-84411247D01*
X176541536Y-84414504D01*
X176542590Y-84429437D01*
X176590209Y-84619913D01*
X176592197Y-84622857D01*
X176595888Y-84635264D01*
X176643507Y-84730502D01*
X176644693Y-84731625D01*
X176657556Y-84749994D01*
X176752794Y-84845233D01*
X176756858Y-84847128D01*
X176759205Y-84850948D01*
X176782110Y-84863351D01*
X176924966Y-84910970D01*
X176926601Y-84910925D01*
X176948684Y-84914819D01*
X177043922Y-84914819D01*
X177045460Y-84914258D01*
X177067639Y-84910970D01*
X177210496Y-84863351D01*
X177214007Y-84860563D01*
X177218476Y-84860173D01*
X177239813Y-84845232D01*
X177287431Y-84797613D01*
X177309112Y-84751116D01*
X177295834Y-84701561D01*
X177253809Y-84672135D01*
X177202701Y-84676607D01*
X177181364Y-84691548D01*
X177146265Y-84726647D01*
X177031752Y-84764819D01*
X176960854Y-84764819D01*
X176846341Y-84726648D01*
X176772228Y-84652534D01*
X176770632Y-84649342D01*
X177540351Y-84649342D01*
X177541884Y-84653555D01*
X177540843Y-84657916D01*
X177548269Y-84682883D01*
X177595888Y-84778121D01*
X177597076Y-84779246D01*
X177609936Y-84797612D01*
X177657555Y-84845232D01*
X177659036Y-84845922D01*
X177677048Y-84859282D01*
X177772286Y-84906901D01*
X177776739Y-84907413D01*
X177780175Y-84910296D01*
X177805827Y-84914819D01*
X177948684Y-84914819D01*
X177952897Y-84913285D01*
X177957258Y-84914327D01*
X177982225Y-84906901D01*
X178077463Y-84859282D01*
X178078587Y-84858094D01*
X178096956Y-84845232D01*
X178102369Y-84839819D01*
X178492732Y-84839819D01*
X178510279Y-84888028D01*
X178554708Y-84913680D01*
X178605232Y-84904771D01*
X178638209Y-84865471D01*
X178642732Y-84839819D01*
X178642732Y-84299456D01*
X178659778Y-84282410D01*
X178728294Y-84248152D01*
X178835741Y-84248152D01*
X178892782Y-84276672D01*
X178921303Y-84333713D01*
X178921303Y-84839819D01*
X178938850Y-84888028D01*
X178983279Y-84913680D01*
X179033803Y-84904771D01*
X179066780Y-84865471D01*
X179071303Y-84839819D01*
X179397494Y-84839819D01*
X179415041Y-84888028D01*
X179459470Y-84913680D01*
X179509994Y-84904771D01*
X179542971Y-84865471D01*
X179547494Y-84839819D01*
X179547494Y-84299456D01*
X179564540Y-84282410D01*
X179633056Y-84248152D01*
X179740503Y-84248152D01*
X179797544Y-84276672D01*
X179826065Y-84333714D01*
X179826065Y-84839819D01*
X179843612Y-84888028D01*
X179888041Y-84913680D01*
X179938565Y-84904771D01*
X179971542Y-84865471D01*
X179976065Y-84839819D01*
X179976065Y-84696961D01*
X180254637Y-84696961D01*
X180256170Y-84701173D01*
X180255128Y-84705535D01*
X180262555Y-84730502D01*
X180310174Y-84825741D01*
X180318327Y-84833460D01*
X180322794Y-84843765D01*
X180343715Y-84859282D01*
X180438953Y-84906901D01*
X180443406Y-84907413D01*
X180446842Y-84910296D01*
X180472494Y-84914819D01*
X180662970Y-84914819D01*
X180667183Y-84913285D01*
X180671544Y-84914327D01*
X180696511Y-84906901D01*
X180791749Y-84859282D01*
X180827021Y-84822028D01*
X180830096Y-84770818D01*
X180799532Y-84729612D01*
X180749633Y-84717692D01*
X180724667Y-84725118D01*
X180645265Y-84764819D01*
X180490199Y-84764819D01*
X180433157Y-84736298D01*
X180404637Y-84679256D01*
X180404637Y-84649342D01*
X181111780Y-84649342D01*
X181113313Y-84653555D01*
X181112272Y-84657916D01*
X181119698Y-84682883D01*
X181167317Y-84778121D01*
X181168505Y-84779246D01*
X181181365Y-84797612D01*
X181228984Y-84845232D01*
X181230465Y-84845922D01*
X181248477Y-84859282D01*
X181343715Y-84906901D01*
X181348168Y-84907413D01*
X181351604Y-84910296D01*
X181377256Y-84914819D01*
X181567732Y-84914819D01*
X181571945Y-84913285D01*
X181576306Y-84914327D01*
X181601273Y-84906901D01*
X181696511Y-84859282D01*
X181731783Y-84822028D01*
X181734858Y-84770818D01*
X181704294Y-84729612D01*
X181654395Y-84717692D01*
X181629429Y-84725118D01*
X181550027Y-84764819D01*
X181394961Y-84764819D01*
X181326445Y-84730561D01*
X181296038Y-84700153D01*
X181261780Y-84631636D01*
X181261780Y-84381333D01*
X181296037Y-84312817D01*
X181326445Y-84282410D01*
X181394961Y-84248152D01*
X181550027Y-84248152D01*
X181629429Y-84287853D01*
X181680395Y-84293718D01*
X181723208Y-84265452D01*
X181737835Y-84216277D01*
X181717432Y-84169206D01*
X181705192Y-84160128D01*
X181874824Y-84160128D01*
X181883733Y-84210652D01*
X181923033Y-84243629D01*
X181948685Y-84248152D01*
X182016542Y-84248152D01*
X182016542Y-84696961D01*
X182018075Y-84701173D01*
X182017033Y-84705535D01*
X182024460Y-84730502D01*
X182072079Y-84825741D01*
X182080232Y-84833460D01*
X182084699Y-84843765D01*
X182105620Y-84859282D01*
X182200858Y-84906901D01*
X182205311Y-84907413D01*
X182208747Y-84910296D01*
X182234399Y-84914819D01*
X182329637Y-84914819D01*
X182377846Y-84897272D01*
X182403498Y-84852843D01*
X182394589Y-84802319D01*
X182355289Y-84769342D01*
X182329637Y-84764819D01*
X182252104Y-84764819D01*
X182195062Y-84736298D01*
X182166542Y-84679256D01*
X182166542Y-84649342D01*
X182540352Y-84649342D01*
X182541885Y-84653555D01*
X182540844Y-84657916D01*
X182548270Y-84682883D01*
X182595889Y-84778121D01*
X182597077Y-84779246D01*
X182609937Y-84797612D01*
X182657556Y-84845232D01*
X182659037Y-84845922D01*
X182677049Y-84859282D01*
X182772287Y-84906901D01*
X182776740Y-84907413D01*
X182780176Y-84910296D01*
X182805828Y-84914819D01*
X182948685Y-84914819D01*
X182952898Y-84913285D01*
X182957259Y-84914327D01*
X182982226Y-84906901D01*
X183077464Y-84859282D01*
X183078588Y-84858094D01*
X183096957Y-84845232D01*
X183102370Y-84839819D01*
X183492733Y-84839819D01*
X183510280Y-84888028D01*
X183554709Y-84913680D01*
X183605233Y-84904771D01*
X183638210Y-84865471D01*
X183642733Y-84839819D01*
X183642733Y-84381332D01*
X183676991Y-84312816D01*
X183707397Y-84282410D01*
X183775914Y-84248152D01*
X183853447Y-84248152D01*
X183901656Y-84230605D01*
X183927308Y-84186176D01*
X183918399Y-84135652D01*
X183879099Y-84102675D01*
X183853447Y-84098152D01*
X183758209Y-84098152D01*
X183753995Y-84099685D01*
X183749634Y-84098644D01*
X183724668Y-84106070D01*
X183634691Y-84151058D01*
X183625186Y-84124943D01*
X183580757Y-84099291D01*
X183530233Y-84108200D01*
X183497256Y-84147500D01*
X183492733Y-84173152D01*
X183492733Y-84839819D01*
X183102370Y-84839819D01*
X183144575Y-84797613D01*
X183145265Y-84796131D01*
X183158624Y-84778121D01*
X183206243Y-84682883D01*
X183206755Y-84678429D01*
X183209638Y-84674994D01*
X183214161Y-84649342D01*
X183214161Y-84363628D01*
X183212627Y-84359414D01*
X183213669Y-84355053D01*
X183206243Y-84330087D01*
X183158624Y-84234849D01*
X183157434Y-84233723D01*
X183144575Y-84215357D01*
X183096956Y-84167738D01*
X183095474Y-84167047D01*
X183077464Y-84153689D01*
X182982226Y-84106070D01*
X182977772Y-84105557D01*
X182974337Y-84102675D01*
X182948685Y-84098152D01*
X182805828Y-84098152D01*
X182801614Y-84099685D01*
X182797253Y-84098644D01*
X182772287Y-84106070D01*
X182677049Y-84153689D01*
X182675923Y-84154878D01*
X182657557Y-84167738D01*
X182609938Y-84215357D01*
X182609247Y-84216838D01*
X182595889Y-84234849D01*
X182548270Y-84330087D01*
X182547757Y-84334540D01*
X182544875Y-84337976D01*
X182540352Y-84363628D01*
X182540352Y-84649342D01*
X182166542Y-84649342D01*
X182166542Y-84248152D01*
X182329637Y-84248152D01*
X182377846Y-84230605D01*
X182403498Y-84186176D01*
X182394589Y-84135652D01*
X182355289Y-84102675D01*
X182329637Y-84098152D01*
X182166542Y-84098152D01*
X182166542Y-83839819D01*
X182148995Y-83791610D01*
X182104566Y-83765958D01*
X182054042Y-83774867D01*
X182021065Y-83814167D01*
X182016542Y-83839819D01*
X182016542Y-84098152D01*
X181948685Y-84098152D01*
X181900476Y-84115699D01*
X181874824Y-84160128D01*
X181705192Y-84160128D01*
X181696511Y-84153689D01*
X181601273Y-84106070D01*
X181596819Y-84105557D01*
X181593384Y-84102675D01*
X181567732Y-84098152D01*
X181377256Y-84098152D01*
X181373042Y-84099685D01*
X181368681Y-84098644D01*
X181343715Y-84106070D01*
X181248477Y-84153689D01*
X181247351Y-84154878D01*
X181228985Y-84167738D01*
X181181366Y-84215357D01*
X181180675Y-84216838D01*
X181167317Y-84234849D01*
X181119698Y-84330087D01*
X181119185Y-84334540D01*
X181116303Y-84337976D01*
X181111780Y-84363628D01*
X181111780Y-84649342D01*
X180404637Y-84649342D01*
X180404637Y-84567970D01*
X180820535Y-84484791D01*
X180831122Y-84478351D01*
X180843327Y-84476199D01*
X180852361Y-84465432D01*
X180864367Y-84458130D01*
X180868337Y-84446392D01*
X180876304Y-84436899D01*
X180880827Y-84411247D01*
X180880827Y-84316009D01*
X180879293Y-84311795D01*
X180880335Y-84307434D01*
X180872909Y-84282468D01*
X180825290Y-84187230D01*
X180817136Y-84179510D01*
X180812670Y-84169206D01*
X180791749Y-84153689D01*
X180696511Y-84106070D01*
X180692057Y-84105557D01*
X180688622Y-84102675D01*
X180662970Y-84098152D01*
X180472494Y-84098152D01*
X180468280Y-84099685D01*
X180463919Y-84098644D01*
X180438953Y-84106070D01*
X180343715Y-84153689D01*
X180335995Y-84161842D01*
X180325691Y-84166309D01*
X180310174Y-84187230D01*
X180262555Y-84282468D01*
X180262042Y-84286921D01*
X180259160Y-84290357D01*
X180254637Y-84316009D01*
X180254637Y-84696961D01*
X179976065Y-84696961D01*
X179976065Y-84316009D01*
X179974531Y-84311795D01*
X179975573Y-84307434D01*
X179968147Y-84282468D01*
X179920528Y-84187230D01*
X179912374Y-84179510D01*
X179907908Y-84169206D01*
X179886987Y-84153689D01*
X179791749Y-84106070D01*
X179787295Y-84105557D01*
X179783860Y-84102675D01*
X179758208Y-84098152D01*
X179615351Y-84098152D01*
X179611137Y-84099685D01*
X179606776Y-84098644D01*
X179581810Y-84106070D01*
X179532120Y-84130914D01*
X179529947Y-84124943D01*
X179485518Y-84099291D01*
X179434994Y-84108200D01*
X179402017Y-84147500D01*
X179397494Y-84173152D01*
X179397494Y-84839819D01*
X179071303Y-84839819D01*
X179071303Y-84316009D01*
X179069769Y-84311795D01*
X179070811Y-84307434D01*
X179063385Y-84282468D01*
X179015766Y-84187230D01*
X179007612Y-84179510D01*
X179003146Y-84169206D01*
X178982225Y-84153689D01*
X178886987Y-84106070D01*
X178882533Y-84105557D01*
X178879098Y-84102675D01*
X178853446Y-84098152D01*
X178710589Y-84098152D01*
X178706375Y-84099685D01*
X178702014Y-84098644D01*
X178677048Y-84106070D01*
X178627358Y-84130914D01*
X178625185Y-84124943D01*
X178580756Y-84099291D01*
X178530232Y-84108200D01*
X178497255Y-84147500D01*
X178492732Y-84173152D01*
X178492732Y-84839819D01*
X178102369Y-84839819D01*
X178144574Y-84797613D01*
X178145264Y-84796131D01*
X178158623Y-84778121D01*
X178206242Y-84682883D01*
X178206754Y-84678429D01*
X178209637Y-84674994D01*
X178214160Y-84649342D01*
X178214160Y-84363628D01*
X178212626Y-84359414D01*
X178213668Y-84355053D01*
X178206242Y-84330087D01*
X178158623Y-84234849D01*
X178157433Y-84233723D01*
X178144574Y-84215357D01*
X178096955Y-84167738D01*
X178095473Y-84167047D01*
X178077463Y-84153689D01*
X177982225Y-84106070D01*
X177977771Y-84105557D01*
X177974336Y-84102675D01*
X177948684Y-84098152D01*
X177805827Y-84098152D01*
X177801613Y-84099685D01*
X177797252Y-84098644D01*
X177772286Y-84106070D01*
X177677048Y-84153689D01*
X177675922Y-84154878D01*
X177657556Y-84167738D01*
X177609937Y-84215357D01*
X177609246Y-84216838D01*
X177595888Y-84234849D01*
X177548269Y-84330087D01*
X177547756Y-84334540D01*
X177544874Y-84337976D01*
X177540351Y-84363628D01*
X177540351Y-84649342D01*
X176770632Y-84649342D01*
X176733734Y-84575546D01*
X176690350Y-84402012D01*
X176690350Y-84277624D01*
X176733734Y-84104089D01*
X176772227Y-84027103D01*
X176846340Y-83952990D01*
X176960854Y-83914819D01*
X177031752Y-83914819D01*
X177146265Y-83952990D01*
X177181365Y-83988090D01*
X177227861Y-84009771D01*
X177277416Y-83996494D01*
X177306842Y-83954468D01*
X177302371Y-83903361D01*
X177287431Y-83882024D01*
X177239812Y-83834405D01*
X177235748Y-83832510D01*
X177233401Y-83828689D01*
X177210496Y-83816287D01*
X177067639Y-83768668D01*
X177066004Y-83768712D01*
X177043922Y-83764819D01*
X176948684Y-83764819D01*
X176947146Y-83765378D01*
X176924966Y-83768668D01*
X176782110Y-83816287D01*
X176778599Y-83819073D01*
X176774131Y-83819464D01*
X176752794Y-83834405D01*
X176657556Y-83929643D01*
X176656865Y-83931124D01*
X176643507Y-83949135D01*
X176595888Y-84044373D01*
X176595481Y-84047901D01*
X176590209Y-84059724D01*
X176542590Y-84250200D01*
X176542950Y-84253648D01*
X176540351Y-84268390D01*
X176540351Y-84411247D01*
X175547493Y-84411247D01*
X175547493Y-84268390D01*
X175546307Y-84265132D01*
X175545254Y-84250200D01*
X175497635Y-84059724D01*
X175495646Y-84056779D01*
X175491956Y-84044373D01*
X175444337Y-83949135D01*
X175443150Y-83948011D01*
X175430288Y-83929643D01*
X175335050Y-83834405D01*
X175330986Y-83832510D01*
X175328639Y-83828689D01*
X175305734Y-83816287D01*
X175162877Y-83768668D01*
X175161242Y-83768712D01*
X175139160Y-83764819D01*
X174901065Y-83764819D01*
X174882756Y-83771482D01*
X174863565Y-83774867D01*
X174859214Y-83780051D01*
X174852856Y-83782366D01*
X174843113Y-83799239D01*
X174830588Y-83814167D01*
X174828870Y-83823909D01*
X174827204Y-83826795D01*
X174827782Y-83830077D01*
X174826065Y-83839819D01*
X174826065Y-84839819D01*
X174544057Y-84839819D01*
X174537445Y-84802319D01*
X174498145Y-84769342D01*
X174472493Y-84764819D01*
X174071303Y-84764819D01*
X174071303Y-84391009D01*
X174329636Y-84391009D01*
X174377845Y-84373462D01*
X174403497Y-84329033D01*
X174394588Y-84278509D01*
X174355288Y-84245532D01*
X174329636Y-84241009D01*
X174071303Y-84241009D01*
X174071303Y-83914819D01*
X174472493Y-83914819D01*
X174520702Y-83897272D01*
X174546354Y-83852843D01*
X174537445Y-83802319D01*
X174498145Y-83769342D01*
X174472493Y-83764819D01*
X173996303Y-83764819D01*
X173977994Y-83771482D01*
X173958803Y-83774867D01*
X173954452Y-83780051D01*
X173948094Y-83782366D01*
X173938351Y-83799239D01*
X173925826Y-83814167D01*
X173924108Y-83823909D01*
X173922442Y-83826795D01*
X173923020Y-83830077D01*
X173921303Y-83839819D01*
X173921303Y-84839819D01*
X173734533Y-84839819D01*
X173727921Y-84802319D01*
X173688621Y-84769342D01*
X173662969Y-84764819D01*
X173261779Y-84764819D01*
X173261779Y-83839819D01*
X173244232Y-83791610D01*
X173199803Y-83765958D01*
X173149279Y-83774867D01*
X173116302Y-83814167D01*
X173111779Y-83839819D01*
X173111779Y-84839819D01*
X172968922Y-84839819D01*
X172968922Y-83621962D01*
X184070165Y-83621962D01*
X184070165Y-85057676D01*
G37*
D13*
G36*
X186054002Y-83828154D02*
G01*
X186114816Y-83888968D01*
X186183332Y-84026000D01*
X186183332Y-84240894D01*
X186114815Y-84377926D01*
X186054001Y-84438741D01*
X185916970Y-84507257D01*
X185340475Y-84507257D01*
X185340475Y-83759638D01*
X185916970Y-83759638D01*
X186054002Y-83828154D01*
G37*
G36*
X187840576Y-84483345D02*
G01*
X187897618Y-84597428D01*
X187897618Y-84629524D01*
X187245237Y-84760000D01*
X187245237Y-84597428D01*
X187302277Y-84483345D01*
X187416361Y-84426304D01*
X187726494Y-84426304D01*
X187840576Y-84483345D01*
G37*
G36*
X191269148Y-84483345D02*
G01*
X191326190Y-84597428D01*
X191326190Y-84629524D01*
X190673809Y-84760000D01*
X190673809Y-84597428D01*
X190730849Y-84483345D01*
X190844933Y-84426304D01*
X191155066Y-84426304D01*
X191269148Y-84483345D01*
G37*
G36*
X195459625Y-84483345D02*
G01*
X195516667Y-84597428D01*
X195516667Y-84629524D01*
X194864286Y-84760000D01*
X194864286Y-84597428D01*
X194921326Y-84483345D01*
X195035410Y-84426304D01*
X195345543Y-84426304D01*
X195459625Y-84483345D01*
G37*
G36*
X189061830Y-80615981D02*
G01*
X189210055Y-80764206D01*
X189287044Y-80918184D01*
X189373809Y-81265243D01*
X189373809Y-81514031D01*
X189287044Y-81861091D01*
X189210054Y-82015069D01*
X189061830Y-82163294D01*
X188832799Y-82239638D01*
X188530952Y-82239638D01*
X188530952Y-80539638D01*
X188832799Y-80539638D01*
X189061830Y-80615981D01*
G37*
G36*
X197530953Y-86045352D02*
G01*
X184754761Y-86045352D01*
X184754761Y-85609638D01*
X185040475Y-85609638D01*
X185060571Y-85684638D01*
X185115475Y-85739542D01*
X185190475Y-85759638D01*
X185265475Y-85739542D01*
X185320379Y-85684638D01*
X185340475Y-85609638D01*
X185340475Y-84807257D01*
X185588567Y-84807257D01*
X186210447Y-85695657D01*
X186269920Y-85745575D01*
X186346384Y-85759069D01*
X186419351Y-85732522D01*
X186469269Y-85673050D01*
X186482763Y-85596585D01*
X186456217Y-85523618D01*
X186316430Y-85323923D01*
X186945237Y-85323923D01*
X186954160Y-85357226D01*
X186961073Y-85391005D01*
X187056311Y-85581482D01*
X187062396Y-85588344D01*
X187065298Y-85597049D01*
X187087838Y-85617036D01*
X187107826Y-85639577D01*
X187116530Y-85642478D01*
X187123393Y-85648564D01*
X187313869Y-85743802D01*
X187347647Y-85750714D01*
X187380951Y-85759638D01*
X187761904Y-85759638D01*
X187795205Y-85750714D01*
X187828986Y-85743802D01*
X188019462Y-85648564D01*
X188077557Y-85597048D01*
X188102111Y-85523387D01*
X188086544Y-85447318D01*
X188035029Y-85389223D01*
X187961368Y-85364669D01*
X187885298Y-85380236D01*
X187726494Y-85459638D01*
X187416361Y-85459638D01*
X187302277Y-85402596D01*
X187245237Y-85288513D01*
X187245237Y-85228685D01*
X188659523Y-85228685D01*
X188668446Y-85261986D01*
X188675359Y-85295767D01*
X188770597Y-85486243D01*
X188786619Y-85504311D01*
X188798694Y-85525226D01*
X188893933Y-85620466D01*
X188914847Y-85632540D01*
X188932917Y-85648564D01*
X189123393Y-85743802D01*
X189157171Y-85750714D01*
X189190475Y-85759638D01*
X189571428Y-85759638D01*
X189604729Y-85750714D01*
X189638510Y-85743802D01*
X189828986Y-85648564D01*
X189887081Y-85597048D01*
X189911635Y-85523387D01*
X189896068Y-85447318D01*
X189844553Y-85389223D01*
X189770892Y-85364669D01*
X189694822Y-85380236D01*
X189536018Y-85459638D01*
X189225885Y-85459638D01*
X189088853Y-85391122D01*
X189028039Y-85330307D01*
X189024847Y-85323923D01*
X190373809Y-85323923D01*
X190382732Y-85357226D01*
X190389645Y-85391005D01*
X190484883Y-85581482D01*
X190490968Y-85588344D01*
X190493870Y-85597049D01*
X190516410Y-85617036D01*
X190536398Y-85639577D01*
X190545102Y-85642478D01*
X190551965Y-85648564D01*
X190742441Y-85743802D01*
X190776219Y-85750714D01*
X190809523Y-85759638D01*
X191190476Y-85759638D01*
X191223777Y-85750714D01*
X191257558Y-85743802D01*
X191448034Y-85648564D01*
X191491931Y-85609638D01*
X192183333Y-85609638D01*
X192203429Y-85684638D01*
X192258333Y-85739542D01*
X192333333Y-85759638D01*
X192408333Y-85739542D01*
X192463237Y-85684638D01*
X192483333Y-85609638D01*
X192483333Y-84276304D01*
X192476115Y-84249365D01*
X192947677Y-84249365D01*
X192953977Y-84326754D01*
X193430167Y-85660089D01*
X193445535Y-85682322D01*
X193457106Y-85706749D01*
X193467282Y-85713783D01*
X193474317Y-85723960D01*
X193498746Y-85735532D01*
X193520978Y-85750899D01*
X193533305Y-85751902D01*
X193544489Y-85757200D01*
X193571434Y-85755006D01*
X193598367Y-85757199D01*
X193609545Y-85751904D01*
X193621879Y-85750900D01*
X193644115Y-85735528D01*
X193668539Y-85723960D01*
X193675573Y-85713783D01*
X193685750Y-85706749D01*
X193697321Y-85682319D01*
X193712689Y-85660088D01*
X193832748Y-85323923D01*
X194564286Y-85323923D01*
X194573209Y-85357226D01*
X194580122Y-85391005D01*
X194675360Y-85581482D01*
X194681445Y-85588344D01*
X194684347Y-85597049D01*
X194706887Y-85617036D01*
X194726875Y-85639577D01*
X194735579Y-85642478D01*
X194742442Y-85648564D01*
X194932918Y-85743802D01*
X194966696Y-85750714D01*
X195000000Y-85759638D01*
X195380953Y-85759638D01*
X195414254Y-85750714D01*
X195448035Y-85743802D01*
X195638511Y-85648564D01*
X195682408Y-85609638D01*
X196373810Y-85609638D01*
X196393906Y-85684638D01*
X196448810Y-85739542D01*
X196523810Y-85759638D01*
X196598810Y-85739542D01*
X196653714Y-85684638D01*
X196673810Y-85609638D01*
X196673810Y-84692666D01*
X196742325Y-84555634D01*
X196803140Y-84494820D01*
X196940172Y-84426304D01*
X197095239Y-84426304D01*
X197170239Y-84406208D01*
X197225143Y-84351304D01*
X197245239Y-84276304D01*
X197225143Y-84201304D01*
X197170239Y-84146400D01*
X197095239Y-84126304D01*
X196904762Y-84126304D01*
X196871458Y-84135227D01*
X196837680Y-84142140D01*
X196661468Y-84230245D01*
X196653714Y-84201304D01*
X196598810Y-84146400D01*
X196523810Y-84126304D01*
X196448810Y-84146400D01*
X196393906Y-84201304D01*
X196373810Y-84276304D01*
X196373810Y-85609638D01*
X195682408Y-85609638D01*
X195696606Y-85597048D01*
X195721160Y-85523387D01*
X195705593Y-85447318D01*
X195654078Y-85389223D01*
X195580417Y-85364669D01*
X195504347Y-85380236D01*
X195345543Y-85459638D01*
X195035410Y-85459638D01*
X194921326Y-85402596D01*
X194864286Y-85288513D01*
X194864286Y-85065941D01*
X195696085Y-84899582D01*
X195718025Y-84888733D01*
X195741667Y-84882399D01*
X195752258Y-84871807D01*
X195765687Y-84865168D01*
X195779264Y-84844801D01*
X195796571Y-84827495D01*
X195800448Y-84813025D01*
X195808757Y-84800562D01*
X195810332Y-84776137D01*
X195816667Y-84752495D01*
X195816667Y-84562019D01*
X195807742Y-84528713D01*
X195800831Y-84494938D01*
X195705593Y-84304460D01*
X195699506Y-84297596D01*
X195696606Y-84288894D01*
X195674068Y-84268908D01*
X195654078Y-84246365D01*
X195645373Y-84243463D01*
X195638511Y-84237378D01*
X195448035Y-84142140D01*
X195414254Y-84135227D01*
X195380953Y-84126304D01*
X195000000Y-84126304D01*
X194966696Y-84135227D01*
X194932918Y-84142140D01*
X194742442Y-84237378D01*
X194735579Y-84243463D01*
X194726875Y-84246365D01*
X194706887Y-84268905D01*
X194684347Y-84288893D01*
X194681445Y-84297597D01*
X194675360Y-84304460D01*
X194580122Y-84494937D01*
X194573209Y-84528715D01*
X194564286Y-84562019D01*
X194564286Y-85323923D01*
X193832748Y-85323923D01*
X194188880Y-84326754D01*
X194195180Y-84249365D01*
X194161941Y-84179193D01*
X194098070Y-84135043D01*
X194020680Y-84128743D01*
X193950508Y-84161982D01*
X193906358Y-84225853D01*
X193571428Y-85163656D01*
X193236499Y-84225854D01*
X193192349Y-84161982D01*
X193122177Y-84128743D01*
X193044788Y-84135043D01*
X192980916Y-84179193D01*
X192947677Y-84249365D01*
X192476115Y-84249365D01*
X192463237Y-84201304D01*
X192408333Y-84146400D01*
X192333333Y-84126304D01*
X192258333Y-84146400D01*
X192203429Y-84201304D01*
X192183333Y-84276304D01*
X192183333Y-85609638D01*
X191491931Y-85609638D01*
X191506129Y-85597048D01*
X191530683Y-85523387D01*
X191515116Y-85447318D01*
X191463601Y-85389223D01*
X191389940Y-85364669D01*
X191313870Y-85380236D01*
X191155066Y-85459638D01*
X190844933Y-85459638D01*
X190730849Y-85402596D01*
X190673809Y-85288513D01*
X190673809Y-85065941D01*
X191505608Y-84899582D01*
X191527548Y-84888733D01*
X191551190Y-84882399D01*
X191561781Y-84871807D01*
X191575210Y-84865168D01*
X191588787Y-84844801D01*
X191606094Y-84827495D01*
X191609971Y-84813025D01*
X191618280Y-84800562D01*
X191619855Y-84776137D01*
X191626190Y-84752495D01*
X191626190Y-84562019D01*
X191617265Y-84528713D01*
X191610354Y-84494938D01*
X191515116Y-84304460D01*
X191509029Y-84297596D01*
X191506129Y-84288894D01*
X191483591Y-84268908D01*
X191463601Y-84246365D01*
X191454896Y-84243463D01*
X191448034Y-84237378D01*
X191257558Y-84142140D01*
X191223777Y-84135227D01*
X191190476Y-84126304D01*
X190809523Y-84126304D01*
X190776219Y-84135227D01*
X190742441Y-84142140D01*
X190551965Y-84237378D01*
X190545102Y-84243463D01*
X190536398Y-84246365D01*
X190516410Y-84268905D01*
X190493870Y-84288893D01*
X190490968Y-84297597D01*
X190484883Y-84304460D01*
X190389645Y-84494937D01*
X190382732Y-84528715D01*
X190373809Y-84562019D01*
X190373809Y-85323923D01*
X189024847Y-85323923D01*
X188959523Y-85193275D01*
X188959523Y-84692666D01*
X189028038Y-84555634D01*
X189088853Y-84494820D01*
X189225885Y-84426304D01*
X189536018Y-84426304D01*
X189694822Y-84505706D01*
X189770892Y-84521273D01*
X189844553Y-84496719D01*
X189896068Y-84438624D01*
X189911635Y-84362555D01*
X189887081Y-84288894D01*
X189828986Y-84237378D01*
X189638510Y-84142140D01*
X189604729Y-84135227D01*
X189571428Y-84126304D01*
X189190475Y-84126304D01*
X189157171Y-84135227D01*
X189123393Y-84142140D01*
X188932917Y-84237378D01*
X188914847Y-84253401D01*
X188893933Y-84265476D01*
X188798695Y-84360714D01*
X188786620Y-84381628D01*
X188770597Y-84399698D01*
X188675359Y-84590175D01*
X188668446Y-84623953D01*
X188659523Y-84657257D01*
X188659523Y-85228685D01*
X187245237Y-85228685D01*
X187245237Y-85065941D01*
X188077036Y-84899582D01*
X188098976Y-84888733D01*
X188122618Y-84882399D01*
X188133209Y-84871807D01*
X188146638Y-84865168D01*
X188160215Y-84844801D01*
X188177522Y-84827495D01*
X188181399Y-84813025D01*
X188189708Y-84800562D01*
X188191283Y-84776137D01*
X188197618Y-84752495D01*
X188197618Y-84562019D01*
X188188693Y-84528713D01*
X188181782Y-84494938D01*
X188086544Y-84304460D01*
X188080457Y-84297596D01*
X188077557Y-84288894D01*
X188055019Y-84268908D01*
X188035029Y-84246365D01*
X188026324Y-84243463D01*
X188019462Y-84237378D01*
X187828986Y-84142140D01*
X187795205Y-84135227D01*
X187761904Y-84126304D01*
X187380951Y-84126304D01*
X187347647Y-84135227D01*
X187313869Y-84142140D01*
X187123393Y-84237378D01*
X187116530Y-84243463D01*
X187107826Y-84246365D01*
X187087838Y-84268905D01*
X187065298Y-84288893D01*
X187062396Y-84297597D01*
X187056311Y-84304460D01*
X186961073Y-84494937D01*
X186954160Y-84528715D01*
X186945237Y-84562019D01*
X186945237Y-85323923D01*
X186316430Y-85323923D01*
X185954387Y-84806719D01*
X185985681Y-84798333D01*
X186019462Y-84791421D01*
X186209938Y-84696183D01*
X186228006Y-84680160D01*
X186248923Y-84668084D01*
X186344161Y-84572845D01*
X186356236Y-84551930D01*
X186372258Y-84533862D01*
X186467496Y-84343386D01*
X186474408Y-84309607D01*
X186483332Y-84276304D01*
X186483332Y-83990590D01*
X186474408Y-83957286D01*
X186467496Y-83923508D01*
X186377591Y-83743699D01*
X192093206Y-83743699D01*
X192132029Y-83810942D01*
X192227267Y-83906180D01*
X192244368Y-83916053D01*
X192258333Y-83930018D01*
X192277407Y-83935129D01*
X192294510Y-83945003D01*
X192314258Y-83945003D01*
X192333333Y-83950114D01*
X192352408Y-83945003D01*
X192372156Y-83945003D01*
X192389258Y-83935129D01*
X192408333Y-83930018D01*
X192422297Y-83916053D01*
X192439399Y-83906180D01*
X192439398Y-83906180D01*
X192534637Y-83810942D01*
X192573460Y-83743699D01*
X192573460Y-83666053D01*
X192534637Y-83598810D01*
X192534636Y-83598810D01*
X192439399Y-83503572D01*
X192422297Y-83493698D01*
X192408333Y-83479734D01*
X192389258Y-83474622D01*
X192372156Y-83464749D01*
X192352408Y-83464749D01*
X192333333Y-83459638D01*
X192314258Y-83464749D01*
X192294510Y-83464749D01*
X192277407Y-83474622D01*
X192258333Y-83479734D01*
X192244368Y-83493698D01*
X192227267Y-83503572D01*
X192132029Y-83598809D01*
X192132029Y-83598810D01*
X192093206Y-83666053D01*
X192093206Y-83743699D01*
X186377591Y-83743699D01*
X186372258Y-83733032D01*
X186356234Y-83714962D01*
X186344160Y-83694048D01*
X186248922Y-83598810D01*
X186228006Y-83586734D01*
X186209938Y-83570712D01*
X186019462Y-83475474D01*
X185985681Y-83468561D01*
X185952380Y-83459638D01*
X185190475Y-83459638D01*
X185115475Y-83479734D01*
X185060571Y-83534638D01*
X185040475Y-83609638D01*
X185040475Y-85609638D01*
X184754761Y-85609638D01*
X184754761Y-82389638D01*
X188230952Y-82389638D01*
X188251048Y-82464638D01*
X188305952Y-82519542D01*
X188380952Y-82539638D01*
X188857142Y-82539638D01*
X188880467Y-82533388D01*
X188904576Y-82531941D01*
X189190291Y-82436703D01*
X189219066Y-82417703D01*
X189248923Y-82400466D01*
X189259751Y-82389638D01*
X190230952Y-82389638D01*
X190251048Y-82464638D01*
X190305952Y-82519542D01*
X190380952Y-82539638D01*
X190455952Y-82519542D01*
X190510856Y-82464638D01*
X190530952Y-82389638D01*
X190530952Y-81065771D01*
X190911692Y-81881642D01*
X190920199Y-81891774D01*
X190924721Y-81904209D01*
X190944776Y-81921047D01*
X190961619Y-81941108D01*
X190974055Y-81945630D01*
X190984186Y-81954136D01*
X191009974Y-81958691D01*
X191034590Y-81967642D01*
X191047619Y-81965340D01*
X191060648Y-81967642D01*
X191085258Y-81958692D01*
X191111052Y-81954137D01*
X191121186Y-81945627D01*
X191133619Y-81941107D01*
X191150456Y-81921052D01*
X191170517Y-81904210D01*
X191175039Y-81891774D01*
X191183546Y-81881642D01*
X191564285Y-81065772D01*
X191564285Y-82389638D01*
X191584381Y-82464638D01*
X191639285Y-82519542D01*
X191714285Y-82539638D01*
X191789285Y-82519542D01*
X191844189Y-82464638D01*
X191864285Y-82389638D01*
X191864285Y-82379984D01*
X192326501Y-82379984D01*
X192341728Y-82456122D01*
X192392985Y-82514446D01*
X192466536Y-82539327D01*
X192542674Y-82524100D01*
X192600998Y-82472843D01*
X193142856Y-81660054D01*
X193684716Y-82472843D01*
X193743039Y-82524100D01*
X193819177Y-82539327D01*
X193892728Y-82514446D01*
X193943985Y-82456122D01*
X193959212Y-82379984D01*
X193934331Y-82306433D01*
X193323134Y-81389638D01*
X193934331Y-80472843D01*
X193959212Y-80399292D01*
X193943985Y-80323154D01*
X193892728Y-80264830D01*
X193819177Y-80239949D01*
X193743039Y-80255176D01*
X193684716Y-80306433D01*
X193142856Y-81119221D01*
X192600998Y-80306433D01*
X192542674Y-80255176D01*
X192466536Y-80239949D01*
X192392985Y-80264830D01*
X192341728Y-80323154D01*
X192326501Y-80399292D01*
X192351382Y-80472843D01*
X192962578Y-81389637D01*
X192351382Y-82306433D01*
X192326501Y-82379984D01*
X191864285Y-82379984D01*
X191864285Y-80389638D01*
X191862556Y-80383186D01*
X191863718Y-80376609D01*
X191852606Y-80346051D01*
X191844189Y-80314638D01*
X191839465Y-80309914D01*
X191837183Y-80303638D01*
X191812282Y-80282731D01*
X191789285Y-80259734D01*
X191782832Y-80258005D01*
X191777718Y-80253711D01*
X191745698Y-80248055D01*
X191714285Y-80239638D01*
X191707833Y-80241366D01*
X191701256Y-80240205D01*
X191670696Y-80251317D01*
X191639285Y-80259734D01*
X191634561Y-80264457D01*
X191628284Y-80266740D01*
X191607374Y-80291644D01*
X191584381Y-80314638D01*
X191582652Y-80321090D01*
X191578357Y-80326206D01*
X191047619Y-81463502D01*
X190516879Y-80326205D01*
X190512584Y-80321090D01*
X190510856Y-80314638D01*
X190487858Y-80291640D01*
X190466952Y-80266740D01*
X190460675Y-80264457D01*
X190455952Y-80259734D01*
X190424538Y-80251316D01*
X190393981Y-80240205D01*
X190387403Y-80241366D01*
X190380952Y-80239638D01*
X190349538Y-80248055D01*
X190317519Y-80253711D01*
X190312404Y-80258005D01*
X190305952Y-80259734D01*
X190282954Y-80282731D01*
X190258054Y-80303638D01*
X190255771Y-80309914D01*
X190251048Y-80314638D01*
X190242630Y-80346051D01*
X190231519Y-80376609D01*
X190232680Y-80383186D01*
X190230952Y-80389638D01*
X190230952Y-82389638D01*
X189259751Y-82389638D01*
X189439399Y-82209989D01*
X189451473Y-82189074D01*
X189467497Y-82171005D01*
X189562735Y-81980529D01*
X189566055Y-81964304D01*
X189574092Y-81949827D01*
X189669330Y-81568876D01*
X189669018Y-81550372D01*
X189673809Y-81532495D01*
X189673809Y-81246780D01*
X189669018Y-81228902D01*
X189669330Y-81210399D01*
X189574092Y-80829448D01*
X189566055Y-80814970D01*
X189562735Y-80798746D01*
X189467497Y-80608270D01*
X189451473Y-80590200D01*
X189439399Y-80569286D01*
X189248923Y-80378810D01*
X189219066Y-80361572D01*
X189190291Y-80342573D01*
X188904576Y-80247335D01*
X188880467Y-80245887D01*
X188857142Y-80239638D01*
X188380952Y-80239638D01*
X188305952Y-80259734D01*
X188251048Y-80314638D01*
X188230952Y-80389638D01*
X188230952Y-82389638D01*
X184754761Y-82389638D01*
X184754761Y-79953924D01*
X197530953Y-79953924D01*
X197530953Y-86045352D01*
G37*
D10*
X152256666Y-101969819D02*
X152256666Y-102684104D01*
X152256666Y-102684104D02*
X152209047Y-102826961D01*
X152209047Y-102826961D02*
X152113809Y-102922200D01*
X152113809Y-102922200D02*
X151970952Y-102969819D01*
X151970952Y-102969819D02*
X151875714Y-102969819D01*
X153256666Y-102969819D02*
X152685238Y-102969819D01*
X152970952Y-102969819D02*
X152970952Y-101969819D01*
X152970952Y-101969819D02*
X152875714Y-102112676D01*
X152875714Y-102112676D02*
X152780476Y-102207914D01*
X152780476Y-102207914D02*
X152685238Y-102255533D01*
X162307142Y-99814819D02*
X161973809Y-99338628D01*
X161735714Y-99814819D02*
X161735714Y-98814819D01*
X161735714Y-98814819D02*
X162116666Y-98814819D01*
X162116666Y-98814819D02*
X162211904Y-98862438D01*
X162211904Y-98862438D02*
X162259523Y-98910057D01*
X162259523Y-98910057D02*
X162307142Y-99005295D01*
X162307142Y-99005295D02*
X162307142Y-99148152D01*
X162307142Y-99148152D02*
X162259523Y-99243390D01*
X162259523Y-99243390D02*
X162211904Y-99291009D01*
X162211904Y-99291009D02*
X162116666Y-99338628D01*
X162116666Y-99338628D02*
X161735714Y-99338628D01*
X163259523Y-99814819D02*
X162688095Y-99814819D01*
X162973809Y-99814819D02*
X162973809Y-98814819D01*
X162973809Y-98814819D02*
X162878571Y-98957676D01*
X162878571Y-98957676D02*
X162783333Y-99052914D01*
X162783333Y-99052914D02*
X162688095Y-99100533D01*
X163592857Y-98814819D02*
X164259523Y-98814819D01*
X164259523Y-98814819D02*
X163830952Y-99814819D01*
X189309524Y-93254819D02*
X189309524Y-92254819D01*
X189309524Y-92254819D02*
X189547619Y-92254819D01*
X189547619Y-92254819D02*
X189690476Y-92302438D01*
X189690476Y-92302438D02*
X189785714Y-92397676D01*
X189785714Y-92397676D02*
X189833333Y-92492914D01*
X189833333Y-92492914D02*
X189880952Y-92683390D01*
X189880952Y-92683390D02*
X189880952Y-92826247D01*
X189880952Y-92826247D02*
X189833333Y-93016723D01*
X189833333Y-93016723D02*
X189785714Y-93111961D01*
X189785714Y-93111961D02*
X189690476Y-93207200D01*
X189690476Y-93207200D02*
X189547619Y-93254819D01*
X189547619Y-93254819D02*
X189309524Y-93254819D01*
X190500000Y-92254819D02*
X190690476Y-92254819D01*
X190690476Y-92254819D02*
X190785714Y-92302438D01*
X190785714Y-92302438D02*
X190880952Y-92397676D01*
X190880952Y-92397676D02*
X190928571Y-92588152D01*
X190928571Y-92588152D02*
X190928571Y-92921485D01*
X190928571Y-92921485D02*
X190880952Y-93111961D01*
X190880952Y-93111961D02*
X190785714Y-93207200D01*
X190785714Y-93207200D02*
X190690476Y-93254819D01*
X190690476Y-93254819D02*
X190500000Y-93254819D01*
X190500000Y-93254819D02*
X190404762Y-93207200D01*
X190404762Y-93207200D02*
X190309524Y-93111961D01*
X190309524Y-93111961D02*
X190261905Y-92921485D01*
X190261905Y-92921485D02*
X190261905Y-92588152D01*
X190261905Y-92588152D02*
X190309524Y-92397676D01*
X190309524Y-92397676D02*
X190404762Y-92302438D01*
X190404762Y-92302438D02*
X190500000Y-92254819D01*
X191357143Y-92254819D02*
X191357143Y-93064342D01*
X191357143Y-93064342D02*
X191404762Y-93159580D01*
X191404762Y-93159580D02*
X191452381Y-93207200D01*
X191452381Y-93207200D02*
X191547619Y-93254819D01*
X191547619Y-93254819D02*
X191738095Y-93254819D01*
X191738095Y-93254819D02*
X191833333Y-93207200D01*
X191833333Y-93207200D02*
X191880952Y-93159580D01*
X191880952Y-93159580D02*
X191928571Y-93064342D01*
X191928571Y-93064342D02*
X191928571Y-92254819D01*
X192261905Y-92254819D02*
X192833333Y-92254819D01*
X192547619Y-93254819D02*
X192547619Y-92254819D01*
X177754819Y-112766666D02*
X177278628Y-113099999D01*
X177754819Y-113338094D02*
X176754819Y-113338094D01*
X176754819Y-113338094D02*
X176754819Y-112957142D01*
X176754819Y-112957142D02*
X176802438Y-112861904D01*
X176802438Y-112861904D02*
X176850057Y-112814285D01*
X176850057Y-112814285D02*
X176945295Y-112766666D01*
X176945295Y-112766666D02*
X177088152Y-112766666D01*
X177088152Y-112766666D02*
X177183390Y-112814285D01*
X177183390Y-112814285D02*
X177231009Y-112861904D01*
X177231009Y-112861904D02*
X177278628Y-112957142D01*
X177278628Y-112957142D02*
X177278628Y-113338094D01*
X177183390Y-112195237D02*
X177135771Y-112290475D01*
X177135771Y-112290475D02*
X177088152Y-112338094D01*
X177088152Y-112338094D02*
X176992914Y-112385713D01*
X176992914Y-112385713D02*
X176945295Y-112385713D01*
X176945295Y-112385713D02*
X176850057Y-112338094D01*
X176850057Y-112338094D02*
X176802438Y-112290475D01*
X176802438Y-112290475D02*
X176754819Y-112195237D01*
X176754819Y-112195237D02*
X176754819Y-112004761D01*
X176754819Y-112004761D02*
X176802438Y-111909523D01*
X176802438Y-111909523D02*
X176850057Y-111861904D01*
X176850057Y-111861904D02*
X176945295Y-111814285D01*
X176945295Y-111814285D02*
X176992914Y-111814285D01*
X176992914Y-111814285D02*
X177088152Y-111861904D01*
X177088152Y-111861904D02*
X177135771Y-111909523D01*
X177135771Y-111909523D02*
X177183390Y-112004761D01*
X177183390Y-112004761D02*
X177183390Y-112195237D01*
X177183390Y-112195237D02*
X177231009Y-112290475D01*
X177231009Y-112290475D02*
X177278628Y-112338094D01*
X177278628Y-112338094D02*
X177373866Y-112385713D01*
X177373866Y-112385713D02*
X177564342Y-112385713D01*
X177564342Y-112385713D02*
X177659580Y-112338094D01*
X177659580Y-112338094D02*
X177707200Y-112290475D01*
X177707200Y-112290475D02*
X177754819Y-112195237D01*
X177754819Y-112195237D02*
X177754819Y-112004761D01*
X177754819Y-112004761D02*
X177707200Y-111909523D01*
X177707200Y-111909523D02*
X177659580Y-111861904D01*
X177659580Y-111861904D02*
X177564342Y-111814285D01*
X177564342Y-111814285D02*
X177373866Y-111814285D01*
X177373866Y-111814285D02*
X177278628Y-111861904D01*
X177278628Y-111861904D02*
X177231009Y-111909523D01*
X177231009Y-111909523D02*
X177183390Y-112004761D01*
X187359580Y-128642857D02*
X187407200Y-128690476D01*
X187407200Y-128690476D02*
X187454819Y-128833333D01*
X187454819Y-128833333D02*
X187454819Y-128928571D01*
X187454819Y-128928571D02*
X187407200Y-129071428D01*
X187407200Y-129071428D02*
X187311961Y-129166666D01*
X187311961Y-129166666D02*
X187216723Y-129214285D01*
X187216723Y-129214285D02*
X187026247Y-129261904D01*
X187026247Y-129261904D02*
X186883390Y-129261904D01*
X186883390Y-129261904D02*
X186692914Y-129214285D01*
X186692914Y-129214285D02*
X186597676Y-129166666D01*
X186597676Y-129166666D02*
X186502438Y-129071428D01*
X186502438Y-129071428D02*
X186454819Y-128928571D01*
X186454819Y-128928571D02*
X186454819Y-128833333D01*
X186454819Y-128833333D02*
X186502438Y-128690476D01*
X186502438Y-128690476D02*
X186550057Y-128642857D01*
X187454819Y-127690476D02*
X187454819Y-128261904D01*
X187454819Y-127976190D02*
X186454819Y-127976190D01*
X186454819Y-127976190D02*
X186597676Y-128071428D01*
X186597676Y-128071428D02*
X186692914Y-128166666D01*
X186692914Y-128166666D02*
X186740533Y-128261904D01*
X187454819Y-126738095D02*
X187454819Y-127309523D01*
X187454819Y-127023809D02*
X186454819Y-127023809D01*
X186454819Y-127023809D02*
X186597676Y-127119047D01*
X186597676Y-127119047D02*
X186692914Y-127214285D01*
X186692914Y-127214285D02*
X186740533Y-127309523D01*
D14*
X200462180Y-114714285D02*
X200509800Y-114761904D01*
X200509800Y-114761904D02*
X200557419Y-114904761D01*
X200557419Y-114904761D02*
X200557419Y-114999999D01*
X200557419Y-114999999D02*
X200509800Y-115142856D01*
X200509800Y-115142856D02*
X200414561Y-115238094D01*
X200414561Y-115238094D02*
X200319323Y-115285713D01*
X200319323Y-115285713D02*
X200128847Y-115333332D01*
X200128847Y-115333332D02*
X199985990Y-115333332D01*
X199985990Y-115333332D02*
X199795514Y-115285713D01*
X199795514Y-115285713D02*
X199700276Y-115238094D01*
X199700276Y-115238094D02*
X199605038Y-115142856D01*
X199605038Y-115142856D02*
X199557419Y-114999999D01*
X199557419Y-114999999D02*
X199557419Y-114904761D01*
X199557419Y-114904761D02*
X199605038Y-114761904D01*
X199605038Y-114761904D02*
X199652657Y-114714285D01*
X199557419Y-114095237D02*
X199557419Y-113904761D01*
X199557419Y-113904761D02*
X199605038Y-113809523D01*
X199605038Y-113809523D02*
X199700276Y-113714285D01*
X199700276Y-113714285D02*
X199890752Y-113666666D01*
X199890752Y-113666666D02*
X200224085Y-113666666D01*
X200224085Y-113666666D02*
X200414561Y-113714285D01*
X200414561Y-113714285D02*
X200509800Y-113809523D01*
X200509800Y-113809523D02*
X200557419Y-113904761D01*
X200557419Y-113904761D02*
X200557419Y-114095237D01*
X200557419Y-114095237D02*
X200509800Y-114190475D01*
X200509800Y-114190475D02*
X200414561Y-114285713D01*
X200414561Y-114285713D02*
X200224085Y-114333332D01*
X200224085Y-114333332D02*
X199890752Y-114333332D01*
X199890752Y-114333332D02*
X199700276Y-114285713D01*
X199700276Y-114285713D02*
X199605038Y-114190475D01*
X199605038Y-114190475D02*
X199557419Y-114095237D01*
X200557419Y-113238094D02*
X199557419Y-113238094D01*
X199557419Y-113238094D02*
X200557419Y-112666666D01*
X200557419Y-112666666D02*
X199557419Y-112666666D01*
X199652657Y-112238094D02*
X199605038Y-112190475D01*
X199605038Y-112190475D02*
X199557419Y-112095237D01*
X199557419Y-112095237D02*
X199557419Y-111857142D01*
X199557419Y-111857142D02*
X199605038Y-111761904D01*
X199605038Y-111761904D02*
X199652657Y-111714285D01*
X199652657Y-111714285D02*
X199747895Y-111666666D01*
X199747895Y-111666666D02*
X199843133Y-111666666D01*
X199843133Y-111666666D02*
X199985990Y-111714285D01*
X199985990Y-111714285D02*
X200557419Y-112285713D01*
X200557419Y-112285713D02*
X200557419Y-111666666D01*
X204068609Y-115247782D02*
X204068609Y-115581115D01*
X204592419Y-115581115D02*
X203592419Y-115581115D01*
X203592419Y-115581115D02*
X203592419Y-115104925D01*
X204592419Y-114152544D02*
X204116228Y-114485877D01*
X204592419Y-114723972D02*
X203592419Y-114723972D01*
X203592419Y-114723972D02*
X203592419Y-114343020D01*
X203592419Y-114343020D02*
X203640038Y-114247782D01*
X203640038Y-114247782D02*
X203687657Y-114200163D01*
X203687657Y-114200163D02*
X203782895Y-114152544D01*
X203782895Y-114152544D02*
X203925752Y-114152544D01*
X203925752Y-114152544D02*
X204020990Y-114200163D01*
X204020990Y-114200163D02*
X204068609Y-114247782D01*
X204068609Y-114247782D02*
X204116228Y-114343020D01*
X204116228Y-114343020D02*
X204116228Y-114723972D01*
X203592419Y-113533496D02*
X203592419Y-113343020D01*
X203592419Y-113343020D02*
X203640038Y-113247782D01*
X203640038Y-113247782D02*
X203735276Y-113152544D01*
X203735276Y-113152544D02*
X203925752Y-113104925D01*
X203925752Y-113104925D02*
X204259085Y-113104925D01*
X204259085Y-113104925D02*
X204449561Y-113152544D01*
X204449561Y-113152544D02*
X204544800Y-113247782D01*
X204544800Y-113247782D02*
X204592419Y-113343020D01*
X204592419Y-113343020D02*
X204592419Y-113533496D01*
X204592419Y-113533496D02*
X204544800Y-113628734D01*
X204544800Y-113628734D02*
X204449561Y-113723972D01*
X204449561Y-113723972D02*
X204259085Y-113771591D01*
X204259085Y-113771591D02*
X203925752Y-113771591D01*
X203925752Y-113771591D02*
X203735276Y-113723972D01*
X203735276Y-113723972D02*
X203640038Y-113628734D01*
X203640038Y-113628734D02*
X203592419Y-113533496D01*
X204592419Y-112676353D02*
X203592419Y-112676353D01*
X203592419Y-112676353D02*
X204592419Y-112104925D01*
X204592419Y-112104925D02*
X203592419Y-112104925D01*
X203592419Y-111771591D02*
X203592419Y-111200163D01*
X204592419Y-111485877D02*
X203592419Y-111485877D01*
D10*
X183699580Y-111102857D02*
X183747200Y-111150476D01*
X183747200Y-111150476D02*
X183794819Y-111293333D01*
X183794819Y-111293333D02*
X183794819Y-111388571D01*
X183794819Y-111388571D02*
X183747200Y-111531428D01*
X183747200Y-111531428D02*
X183651961Y-111626666D01*
X183651961Y-111626666D02*
X183556723Y-111674285D01*
X183556723Y-111674285D02*
X183366247Y-111721904D01*
X183366247Y-111721904D02*
X183223390Y-111721904D01*
X183223390Y-111721904D02*
X183032914Y-111674285D01*
X183032914Y-111674285D02*
X182937676Y-111626666D01*
X182937676Y-111626666D02*
X182842438Y-111531428D01*
X182842438Y-111531428D02*
X182794819Y-111388571D01*
X182794819Y-111388571D02*
X182794819Y-111293333D01*
X182794819Y-111293333D02*
X182842438Y-111150476D01*
X182842438Y-111150476D02*
X182890057Y-111102857D01*
X183794819Y-110150476D02*
X183794819Y-110721904D01*
X183794819Y-110436190D02*
X182794819Y-110436190D01*
X182794819Y-110436190D02*
X182937676Y-110531428D01*
X182937676Y-110531428D02*
X183032914Y-110626666D01*
X183032914Y-110626666D02*
X183080533Y-110721904D01*
X182794819Y-109531428D02*
X182794819Y-109436190D01*
X182794819Y-109436190D02*
X182842438Y-109340952D01*
X182842438Y-109340952D02*
X182890057Y-109293333D01*
X182890057Y-109293333D02*
X182985295Y-109245714D01*
X182985295Y-109245714D02*
X183175771Y-109198095D01*
X183175771Y-109198095D02*
X183413866Y-109198095D01*
X183413866Y-109198095D02*
X183604342Y-109245714D01*
X183604342Y-109245714D02*
X183699580Y-109293333D01*
X183699580Y-109293333D02*
X183747200Y-109340952D01*
X183747200Y-109340952D02*
X183794819Y-109436190D01*
X183794819Y-109436190D02*
X183794819Y-109531428D01*
X183794819Y-109531428D02*
X183747200Y-109626666D01*
X183747200Y-109626666D02*
X183699580Y-109674285D01*
X183699580Y-109674285D02*
X183604342Y-109721904D01*
X183604342Y-109721904D02*
X183413866Y-109769523D01*
X183413866Y-109769523D02*
X183175771Y-109769523D01*
X183175771Y-109769523D02*
X182985295Y-109721904D01*
X182985295Y-109721904D02*
X182890057Y-109674285D01*
X182890057Y-109674285D02*
X182842438Y-109626666D01*
X182842438Y-109626666D02*
X182794819Y-109531428D01*
X185357142Y-91259580D02*
X185309523Y-91307200D01*
X185309523Y-91307200D02*
X185166666Y-91354819D01*
X185166666Y-91354819D02*
X185071428Y-91354819D01*
X185071428Y-91354819D02*
X184928571Y-91307200D01*
X184928571Y-91307200D02*
X184833333Y-91211961D01*
X184833333Y-91211961D02*
X184785714Y-91116723D01*
X184785714Y-91116723D02*
X184738095Y-90926247D01*
X184738095Y-90926247D02*
X184738095Y-90783390D01*
X184738095Y-90783390D02*
X184785714Y-90592914D01*
X184785714Y-90592914D02*
X184833333Y-90497676D01*
X184833333Y-90497676D02*
X184928571Y-90402438D01*
X184928571Y-90402438D02*
X185071428Y-90354819D01*
X185071428Y-90354819D02*
X185166666Y-90354819D01*
X185166666Y-90354819D02*
X185309523Y-90402438D01*
X185309523Y-90402438D02*
X185357142Y-90450057D01*
X186309523Y-91354819D02*
X185738095Y-91354819D01*
X186023809Y-91354819D02*
X186023809Y-90354819D01*
X186023809Y-90354819D02*
X185928571Y-90497676D01*
X185928571Y-90497676D02*
X185833333Y-90592914D01*
X185833333Y-90592914D02*
X185738095Y-90640533D01*
X186880952Y-90783390D02*
X186785714Y-90735771D01*
X186785714Y-90735771D02*
X186738095Y-90688152D01*
X186738095Y-90688152D02*
X186690476Y-90592914D01*
X186690476Y-90592914D02*
X186690476Y-90545295D01*
X186690476Y-90545295D02*
X186738095Y-90450057D01*
X186738095Y-90450057D02*
X186785714Y-90402438D01*
X186785714Y-90402438D02*
X186880952Y-90354819D01*
X186880952Y-90354819D02*
X187071428Y-90354819D01*
X187071428Y-90354819D02*
X187166666Y-90402438D01*
X187166666Y-90402438D02*
X187214285Y-90450057D01*
X187214285Y-90450057D02*
X187261904Y-90545295D01*
X187261904Y-90545295D02*
X187261904Y-90592914D01*
X187261904Y-90592914D02*
X187214285Y-90688152D01*
X187214285Y-90688152D02*
X187166666Y-90735771D01*
X187166666Y-90735771D02*
X187071428Y-90783390D01*
X187071428Y-90783390D02*
X186880952Y-90783390D01*
X186880952Y-90783390D02*
X186785714Y-90831009D01*
X186785714Y-90831009D02*
X186738095Y-90878628D01*
X186738095Y-90878628D02*
X186690476Y-90973866D01*
X186690476Y-90973866D02*
X186690476Y-91164342D01*
X186690476Y-91164342D02*
X186738095Y-91259580D01*
X186738095Y-91259580D02*
X186785714Y-91307200D01*
X186785714Y-91307200D02*
X186880952Y-91354819D01*
X186880952Y-91354819D02*
X187071428Y-91354819D01*
X187071428Y-91354819D02*
X187166666Y-91307200D01*
X187166666Y-91307200D02*
X187214285Y-91259580D01*
X187214285Y-91259580D02*
X187261904Y-91164342D01*
X187261904Y-91164342D02*
X187261904Y-90973866D01*
X187261904Y-90973866D02*
X187214285Y-90878628D01*
X187214285Y-90878628D02*
X187166666Y-90831009D01*
X187166666Y-90831009D02*
X187071428Y-90783390D01*
X190866667Y-98754819D02*
X191200000Y-99754819D01*
X191200000Y-99754819D02*
X191533333Y-98754819D01*
X191866667Y-99754819D02*
X191866667Y-98754819D01*
X191866667Y-98754819D02*
X192104762Y-98754819D01*
X192104762Y-98754819D02*
X192247619Y-98802438D01*
X192247619Y-98802438D02*
X192342857Y-98897676D01*
X192342857Y-98897676D02*
X192390476Y-98992914D01*
X192390476Y-98992914D02*
X192438095Y-99183390D01*
X192438095Y-99183390D02*
X192438095Y-99326247D01*
X192438095Y-99326247D02*
X192390476Y-99516723D01*
X192390476Y-99516723D02*
X192342857Y-99611961D01*
X192342857Y-99611961D02*
X192247619Y-99707200D01*
X192247619Y-99707200D02*
X192104762Y-99754819D01*
X192104762Y-99754819D02*
X191866667Y-99754819D01*
X192866667Y-99754819D02*
X192866667Y-98754819D01*
X192866667Y-98754819D02*
X193104762Y-98754819D01*
X193104762Y-98754819D02*
X193247619Y-98802438D01*
X193247619Y-98802438D02*
X193342857Y-98897676D01*
X193342857Y-98897676D02*
X193390476Y-98992914D01*
X193390476Y-98992914D02*
X193438095Y-99183390D01*
X193438095Y-99183390D02*
X193438095Y-99326247D01*
X193438095Y-99326247D02*
X193390476Y-99516723D01*
X193390476Y-99516723D02*
X193342857Y-99611961D01*
X193342857Y-99611961D02*
X193247619Y-99707200D01*
X193247619Y-99707200D02*
X193104762Y-99754819D01*
X193104762Y-99754819D02*
X192866667Y-99754819D01*
X155878095Y-98233866D02*
X156640000Y-98233866D01*
X156259047Y-98614819D02*
X156259047Y-97852914D01*
X157544761Y-97948152D02*
X157544761Y-98614819D01*
X157306666Y-97567200D02*
X157068571Y-98281485D01*
X157068571Y-98281485D02*
X157687618Y-98281485D01*
X158211428Y-98043390D02*
X158116190Y-97995771D01*
X158116190Y-97995771D02*
X158068571Y-97948152D01*
X158068571Y-97948152D02*
X158020952Y-97852914D01*
X158020952Y-97852914D02*
X158020952Y-97805295D01*
X158020952Y-97805295D02*
X158068571Y-97710057D01*
X158068571Y-97710057D02*
X158116190Y-97662438D01*
X158116190Y-97662438D02*
X158211428Y-97614819D01*
X158211428Y-97614819D02*
X158401904Y-97614819D01*
X158401904Y-97614819D02*
X158497142Y-97662438D01*
X158497142Y-97662438D02*
X158544761Y-97710057D01*
X158544761Y-97710057D02*
X158592380Y-97805295D01*
X158592380Y-97805295D02*
X158592380Y-97852914D01*
X158592380Y-97852914D02*
X158544761Y-97948152D01*
X158544761Y-97948152D02*
X158497142Y-97995771D01*
X158497142Y-97995771D02*
X158401904Y-98043390D01*
X158401904Y-98043390D02*
X158211428Y-98043390D01*
X158211428Y-98043390D02*
X158116190Y-98091009D01*
X158116190Y-98091009D02*
X158068571Y-98138628D01*
X158068571Y-98138628D02*
X158020952Y-98233866D01*
X158020952Y-98233866D02*
X158020952Y-98424342D01*
X158020952Y-98424342D02*
X158068571Y-98519580D01*
X158068571Y-98519580D02*
X158116190Y-98567200D01*
X158116190Y-98567200D02*
X158211428Y-98614819D01*
X158211428Y-98614819D02*
X158401904Y-98614819D01*
X158401904Y-98614819D02*
X158497142Y-98567200D01*
X158497142Y-98567200D02*
X158544761Y-98519580D01*
X158544761Y-98519580D02*
X158592380Y-98424342D01*
X158592380Y-98424342D02*
X158592380Y-98233866D01*
X158592380Y-98233866D02*
X158544761Y-98138628D01*
X158544761Y-98138628D02*
X158497142Y-98091009D01*
X158497142Y-98091009D02*
X158401904Y-98043390D01*
X158878095Y-97614819D02*
X159211428Y-98614819D01*
X159211428Y-98614819D02*
X159544761Y-97614819D01*
X187714819Y-112516666D02*
X187238628Y-112849999D01*
X187714819Y-113088094D02*
X186714819Y-113088094D01*
X186714819Y-113088094D02*
X186714819Y-112707142D01*
X186714819Y-112707142D02*
X186762438Y-112611904D01*
X186762438Y-112611904D02*
X186810057Y-112564285D01*
X186810057Y-112564285D02*
X186905295Y-112516666D01*
X186905295Y-112516666D02*
X187048152Y-112516666D01*
X187048152Y-112516666D02*
X187143390Y-112564285D01*
X187143390Y-112564285D02*
X187191009Y-112611904D01*
X187191009Y-112611904D02*
X187238628Y-112707142D01*
X187238628Y-112707142D02*
X187238628Y-113088094D01*
X187714819Y-111564285D02*
X187714819Y-112135713D01*
X187714819Y-111849999D02*
X186714819Y-111849999D01*
X186714819Y-111849999D02*
X186857676Y-111945237D01*
X186857676Y-111945237D02*
X186952914Y-112040475D01*
X186952914Y-112040475D02*
X187000533Y-112135713D01*
X197766667Y-95407200D02*
X197909524Y-95454819D01*
X197909524Y-95454819D02*
X198147619Y-95454819D01*
X198147619Y-95454819D02*
X198242857Y-95407200D01*
X198242857Y-95407200D02*
X198290476Y-95359580D01*
X198290476Y-95359580D02*
X198338095Y-95264342D01*
X198338095Y-95264342D02*
X198338095Y-95169104D01*
X198338095Y-95169104D02*
X198290476Y-95073866D01*
X198290476Y-95073866D02*
X198242857Y-95026247D01*
X198242857Y-95026247D02*
X198147619Y-94978628D01*
X198147619Y-94978628D02*
X197957143Y-94931009D01*
X197957143Y-94931009D02*
X197861905Y-94883390D01*
X197861905Y-94883390D02*
X197814286Y-94835771D01*
X197814286Y-94835771D02*
X197766667Y-94740533D01*
X197766667Y-94740533D02*
X197766667Y-94645295D01*
X197766667Y-94645295D02*
X197814286Y-94550057D01*
X197814286Y-94550057D02*
X197861905Y-94502438D01*
X197861905Y-94502438D02*
X197957143Y-94454819D01*
X197957143Y-94454819D02*
X198195238Y-94454819D01*
X198195238Y-94454819D02*
X198338095Y-94502438D01*
X198671429Y-94454819D02*
X198909524Y-95454819D01*
X198909524Y-95454819D02*
X199100000Y-94740533D01*
X199100000Y-94740533D02*
X199290476Y-95454819D01*
X199290476Y-95454819D02*
X199528572Y-94454819D01*
X200433333Y-95454819D02*
X199861905Y-95454819D01*
X200147619Y-95454819D02*
X200147619Y-94454819D01*
X200147619Y-94454819D02*
X200052381Y-94597676D01*
X200052381Y-94597676D02*
X199957143Y-94692914D01*
X199957143Y-94692914D02*
X199861905Y-94740533D01*
X161614286Y-93707200D02*
X161757143Y-93754819D01*
X161757143Y-93754819D02*
X161995238Y-93754819D01*
X161995238Y-93754819D02*
X162090476Y-93707200D01*
X162090476Y-93707200D02*
X162138095Y-93659580D01*
X162138095Y-93659580D02*
X162185714Y-93564342D01*
X162185714Y-93564342D02*
X162185714Y-93469104D01*
X162185714Y-93469104D02*
X162138095Y-93373866D01*
X162138095Y-93373866D02*
X162090476Y-93326247D01*
X162090476Y-93326247D02*
X161995238Y-93278628D01*
X161995238Y-93278628D02*
X161804762Y-93231009D01*
X161804762Y-93231009D02*
X161709524Y-93183390D01*
X161709524Y-93183390D02*
X161661905Y-93135771D01*
X161661905Y-93135771D02*
X161614286Y-93040533D01*
X161614286Y-93040533D02*
X161614286Y-92945295D01*
X161614286Y-92945295D02*
X161661905Y-92850057D01*
X161661905Y-92850057D02*
X161709524Y-92802438D01*
X161709524Y-92802438D02*
X161804762Y-92754819D01*
X161804762Y-92754819D02*
X162042857Y-92754819D01*
X162042857Y-92754819D02*
X162185714Y-92802438D01*
X163185714Y-93659580D02*
X163138095Y-93707200D01*
X163138095Y-93707200D02*
X162995238Y-93754819D01*
X162995238Y-93754819D02*
X162900000Y-93754819D01*
X162900000Y-93754819D02*
X162757143Y-93707200D01*
X162757143Y-93707200D02*
X162661905Y-93611961D01*
X162661905Y-93611961D02*
X162614286Y-93516723D01*
X162614286Y-93516723D02*
X162566667Y-93326247D01*
X162566667Y-93326247D02*
X162566667Y-93183390D01*
X162566667Y-93183390D02*
X162614286Y-92992914D01*
X162614286Y-92992914D02*
X162661905Y-92897676D01*
X162661905Y-92897676D02*
X162757143Y-92802438D01*
X162757143Y-92802438D02*
X162900000Y-92754819D01*
X162900000Y-92754819D02*
X162995238Y-92754819D01*
X162995238Y-92754819D02*
X163138095Y-92802438D01*
X163138095Y-92802438D02*
X163185714Y-92850057D01*
X163614286Y-93754819D02*
X163614286Y-92754819D01*
X164185714Y-93754819D02*
X163757143Y-93183390D01*
X164185714Y-92754819D02*
X163614286Y-93326247D01*
X172663333Y-111979580D02*
X172615714Y-112027200D01*
X172615714Y-112027200D02*
X172472857Y-112074819D01*
X172472857Y-112074819D02*
X172377619Y-112074819D01*
X172377619Y-112074819D02*
X172234762Y-112027200D01*
X172234762Y-112027200D02*
X172139524Y-111931961D01*
X172139524Y-111931961D02*
X172091905Y-111836723D01*
X172091905Y-111836723D02*
X172044286Y-111646247D01*
X172044286Y-111646247D02*
X172044286Y-111503390D01*
X172044286Y-111503390D02*
X172091905Y-111312914D01*
X172091905Y-111312914D02*
X172139524Y-111217676D01*
X172139524Y-111217676D02*
X172234762Y-111122438D01*
X172234762Y-111122438D02*
X172377619Y-111074819D01*
X172377619Y-111074819D02*
X172472857Y-111074819D01*
X172472857Y-111074819D02*
X172615714Y-111122438D01*
X172615714Y-111122438D02*
X172663333Y-111170057D01*
X172996667Y-111074819D02*
X173615714Y-111074819D01*
X173615714Y-111074819D02*
X173282381Y-111455771D01*
X173282381Y-111455771D02*
X173425238Y-111455771D01*
X173425238Y-111455771D02*
X173520476Y-111503390D01*
X173520476Y-111503390D02*
X173568095Y-111551009D01*
X173568095Y-111551009D02*
X173615714Y-111646247D01*
X173615714Y-111646247D02*
X173615714Y-111884342D01*
X173615714Y-111884342D02*
X173568095Y-111979580D01*
X173568095Y-111979580D02*
X173520476Y-112027200D01*
X173520476Y-112027200D02*
X173425238Y-112074819D01*
X173425238Y-112074819D02*
X173139524Y-112074819D01*
X173139524Y-112074819D02*
X173044286Y-112027200D01*
X173044286Y-112027200D02*
X172996667Y-111979580D01*
X162087142Y-104254819D02*
X161753809Y-103778628D01*
X161515714Y-104254819D02*
X161515714Y-103254819D01*
X161515714Y-103254819D02*
X161896666Y-103254819D01*
X161896666Y-103254819D02*
X161991904Y-103302438D01*
X161991904Y-103302438D02*
X162039523Y-103350057D01*
X162039523Y-103350057D02*
X162087142Y-103445295D01*
X162087142Y-103445295D02*
X162087142Y-103588152D01*
X162087142Y-103588152D02*
X162039523Y-103683390D01*
X162039523Y-103683390D02*
X161991904Y-103731009D01*
X161991904Y-103731009D02*
X161896666Y-103778628D01*
X161896666Y-103778628D02*
X161515714Y-103778628D01*
X162468095Y-103350057D02*
X162515714Y-103302438D01*
X162515714Y-103302438D02*
X162610952Y-103254819D01*
X162610952Y-103254819D02*
X162849047Y-103254819D01*
X162849047Y-103254819D02*
X162944285Y-103302438D01*
X162944285Y-103302438D02*
X162991904Y-103350057D01*
X162991904Y-103350057D02*
X163039523Y-103445295D01*
X163039523Y-103445295D02*
X163039523Y-103540533D01*
X163039523Y-103540533D02*
X162991904Y-103683390D01*
X162991904Y-103683390D02*
X162420476Y-104254819D01*
X162420476Y-104254819D02*
X163039523Y-104254819D01*
X163658571Y-103254819D02*
X163753809Y-103254819D01*
X163753809Y-103254819D02*
X163849047Y-103302438D01*
X163849047Y-103302438D02*
X163896666Y-103350057D01*
X163896666Y-103350057D02*
X163944285Y-103445295D01*
X163944285Y-103445295D02*
X163991904Y-103635771D01*
X163991904Y-103635771D02*
X163991904Y-103873866D01*
X163991904Y-103873866D02*
X163944285Y-104064342D01*
X163944285Y-104064342D02*
X163896666Y-104159580D01*
X163896666Y-104159580D02*
X163849047Y-104207200D01*
X163849047Y-104207200D02*
X163753809Y-104254819D01*
X163753809Y-104254819D02*
X163658571Y-104254819D01*
X163658571Y-104254819D02*
X163563333Y-104207200D01*
X163563333Y-104207200D02*
X163515714Y-104159580D01*
X163515714Y-104159580D02*
X163468095Y-104064342D01*
X163468095Y-104064342D02*
X163420476Y-103873866D01*
X163420476Y-103873866D02*
X163420476Y-103635771D01*
X163420476Y-103635771D02*
X163468095Y-103445295D01*
X163468095Y-103445295D02*
X163515714Y-103350057D01*
X163515714Y-103350057D02*
X163563333Y-103302438D01*
X163563333Y-103302438D02*
X163658571Y-103254819D01*
X172829819Y-82633333D02*
X173544104Y-82633333D01*
X173544104Y-82633333D02*
X173686961Y-82680952D01*
X173686961Y-82680952D02*
X173782200Y-82776190D01*
X173782200Y-82776190D02*
X173829819Y-82919047D01*
X173829819Y-82919047D02*
X173829819Y-83014285D01*
X172925057Y-82204761D02*
X172877438Y-82157142D01*
X172877438Y-82157142D02*
X172829819Y-82061904D01*
X172829819Y-82061904D02*
X172829819Y-81823809D01*
X172829819Y-81823809D02*
X172877438Y-81728571D01*
X172877438Y-81728571D02*
X172925057Y-81680952D01*
X172925057Y-81680952D02*
X173020295Y-81633333D01*
X173020295Y-81633333D02*
X173115533Y-81633333D01*
X173115533Y-81633333D02*
X173258390Y-81680952D01*
X173258390Y-81680952D02*
X173829819Y-82252380D01*
X173829819Y-82252380D02*
X173829819Y-81633333D01*
X157180952Y-92854819D02*
X157180952Y-93664342D01*
X157180952Y-93664342D02*
X157228571Y-93759580D01*
X157228571Y-93759580D02*
X157276190Y-93807200D01*
X157276190Y-93807200D02*
X157371428Y-93854819D01*
X157371428Y-93854819D02*
X157561904Y-93854819D01*
X157561904Y-93854819D02*
X157657142Y-93807200D01*
X157657142Y-93807200D02*
X157704761Y-93759580D01*
X157704761Y-93759580D02*
X157752380Y-93664342D01*
X157752380Y-93664342D02*
X157752380Y-92854819D01*
X158752380Y-93854819D02*
X158180952Y-93854819D01*
X158466666Y-93854819D02*
X158466666Y-92854819D01*
X158466666Y-92854819D02*
X158371428Y-92997676D01*
X158371428Y-92997676D02*
X158276190Y-93092914D01*
X158276190Y-93092914D02*
X158180952Y-93140533D01*
X159038095Y-92854819D02*
X159609523Y-92854819D01*
X159323809Y-93854819D02*
X159323809Y-92854819D01*
X159847619Y-92854819D02*
X160514285Y-93854819D01*
X160514285Y-92854819D02*
X159847619Y-93854819D01*
X162187142Y-103014819D02*
X161853809Y-102538628D01*
X161615714Y-103014819D02*
X161615714Y-102014819D01*
X161615714Y-102014819D02*
X161996666Y-102014819D01*
X161996666Y-102014819D02*
X162091904Y-102062438D01*
X162091904Y-102062438D02*
X162139523Y-102110057D01*
X162139523Y-102110057D02*
X162187142Y-102205295D01*
X162187142Y-102205295D02*
X162187142Y-102348152D01*
X162187142Y-102348152D02*
X162139523Y-102443390D01*
X162139523Y-102443390D02*
X162091904Y-102491009D01*
X162091904Y-102491009D02*
X161996666Y-102538628D01*
X161996666Y-102538628D02*
X161615714Y-102538628D01*
X163139523Y-103014819D02*
X162568095Y-103014819D01*
X162853809Y-103014819D02*
X162853809Y-102014819D01*
X162853809Y-102014819D02*
X162758571Y-102157676D01*
X162758571Y-102157676D02*
X162663333Y-102252914D01*
X162663333Y-102252914D02*
X162568095Y-102300533D01*
X163615714Y-103014819D02*
X163806190Y-103014819D01*
X163806190Y-103014819D02*
X163901428Y-102967200D01*
X163901428Y-102967200D02*
X163949047Y-102919580D01*
X163949047Y-102919580D02*
X164044285Y-102776723D01*
X164044285Y-102776723D02*
X164091904Y-102586247D01*
X164091904Y-102586247D02*
X164091904Y-102205295D01*
X164091904Y-102205295D02*
X164044285Y-102110057D01*
X164044285Y-102110057D02*
X163996666Y-102062438D01*
X163996666Y-102062438D02*
X163901428Y-102014819D01*
X163901428Y-102014819D02*
X163710952Y-102014819D01*
X163710952Y-102014819D02*
X163615714Y-102062438D01*
X163615714Y-102062438D02*
X163568095Y-102110057D01*
X163568095Y-102110057D02*
X163520476Y-102205295D01*
X163520476Y-102205295D02*
X163520476Y-102443390D01*
X163520476Y-102443390D02*
X163568095Y-102538628D01*
X163568095Y-102538628D02*
X163615714Y-102586247D01*
X163615714Y-102586247D02*
X163710952Y-102633866D01*
X163710952Y-102633866D02*
X163901428Y-102633866D01*
X163901428Y-102633866D02*
X163996666Y-102586247D01*
X163996666Y-102586247D02*
X164044285Y-102538628D01*
X164044285Y-102538628D02*
X164091904Y-102443390D01*
X167757142Y-85354819D02*
X167423809Y-84878628D01*
X167185714Y-85354819D02*
X167185714Y-84354819D01*
X167185714Y-84354819D02*
X167566666Y-84354819D01*
X167566666Y-84354819D02*
X167661904Y-84402438D01*
X167661904Y-84402438D02*
X167709523Y-84450057D01*
X167709523Y-84450057D02*
X167757142Y-84545295D01*
X167757142Y-84545295D02*
X167757142Y-84688152D01*
X167757142Y-84688152D02*
X167709523Y-84783390D01*
X167709523Y-84783390D02*
X167661904Y-84831009D01*
X167661904Y-84831009D02*
X167566666Y-84878628D01*
X167566666Y-84878628D02*
X167185714Y-84878628D01*
X168709523Y-85354819D02*
X168138095Y-85354819D01*
X168423809Y-85354819D02*
X168423809Y-84354819D01*
X168423809Y-84354819D02*
X168328571Y-84497676D01*
X168328571Y-84497676D02*
X168233333Y-84592914D01*
X168233333Y-84592914D02*
X168138095Y-84640533D01*
X169566666Y-84354819D02*
X169376190Y-84354819D01*
X169376190Y-84354819D02*
X169280952Y-84402438D01*
X169280952Y-84402438D02*
X169233333Y-84450057D01*
X169233333Y-84450057D02*
X169138095Y-84592914D01*
X169138095Y-84592914D02*
X169090476Y-84783390D01*
X169090476Y-84783390D02*
X169090476Y-85164342D01*
X169090476Y-85164342D02*
X169138095Y-85259580D01*
X169138095Y-85259580D02*
X169185714Y-85307200D01*
X169185714Y-85307200D02*
X169280952Y-85354819D01*
X169280952Y-85354819D02*
X169471428Y-85354819D01*
X169471428Y-85354819D02*
X169566666Y-85307200D01*
X169566666Y-85307200D02*
X169614285Y-85259580D01*
X169614285Y-85259580D02*
X169661904Y-85164342D01*
X169661904Y-85164342D02*
X169661904Y-84926247D01*
X169661904Y-84926247D02*
X169614285Y-84831009D01*
X169614285Y-84831009D02*
X169566666Y-84783390D01*
X169566666Y-84783390D02*
X169471428Y-84735771D01*
X169471428Y-84735771D02*
X169280952Y-84735771D01*
X169280952Y-84735771D02*
X169185714Y-84783390D01*
X169185714Y-84783390D02*
X169138095Y-84831009D01*
X169138095Y-84831009D02*
X169090476Y-84926247D01*
X189154819Y-116566666D02*
X188678628Y-116899999D01*
X189154819Y-117138094D02*
X188154819Y-117138094D01*
X188154819Y-117138094D02*
X188154819Y-116757142D01*
X188154819Y-116757142D02*
X188202438Y-116661904D01*
X188202438Y-116661904D02*
X188250057Y-116614285D01*
X188250057Y-116614285D02*
X188345295Y-116566666D01*
X188345295Y-116566666D02*
X188488152Y-116566666D01*
X188488152Y-116566666D02*
X188583390Y-116614285D01*
X188583390Y-116614285D02*
X188631009Y-116661904D01*
X188631009Y-116661904D02*
X188678628Y-116757142D01*
X188678628Y-116757142D02*
X188678628Y-117138094D01*
X188488152Y-115709523D02*
X189154819Y-115709523D01*
X188107200Y-115947618D02*
X188821485Y-116185713D01*
X188821485Y-116185713D02*
X188821485Y-115566666D01*
D14*
X159466667Y-84109800D02*
X159609524Y-84157419D01*
X159609524Y-84157419D02*
X159847619Y-84157419D01*
X159847619Y-84157419D02*
X159942857Y-84109800D01*
X159942857Y-84109800D02*
X159990476Y-84062180D01*
X159990476Y-84062180D02*
X160038095Y-83966942D01*
X160038095Y-83966942D02*
X160038095Y-83871704D01*
X160038095Y-83871704D02*
X159990476Y-83776466D01*
X159990476Y-83776466D02*
X159942857Y-83728847D01*
X159942857Y-83728847D02*
X159847619Y-83681228D01*
X159847619Y-83681228D02*
X159657143Y-83633609D01*
X159657143Y-83633609D02*
X159561905Y-83585990D01*
X159561905Y-83585990D02*
X159514286Y-83538371D01*
X159514286Y-83538371D02*
X159466667Y-83443133D01*
X159466667Y-83443133D02*
X159466667Y-83347895D01*
X159466667Y-83347895D02*
X159514286Y-83252657D01*
X159514286Y-83252657D02*
X159561905Y-83205038D01*
X159561905Y-83205038D02*
X159657143Y-83157419D01*
X159657143Y-83157419D02*
X159895238Y-83157419D01*
X159895238Y-83157419D02*
X160038095Y-83205038D01*
X160371429Y-83157419D02*
X160609524Y-84157419D01*
X160609524Y-84157419D02*
X160800000Y-83443133D01*
X160800000Y-83443133D02*
X160990476Y-84157419D01*
X160990476Y-84157419D02*
X161228572Y-83157419D01*
X161561905Y-83252657D02*
X161609524Y-83205038D01*
X161609524Y-83205038D02*
X161704762Y-83157419D01*
X161704762Y-83157419D02*
X161942857Y-83157419D01*
X161942857Y-83157419D02*
X162038095Y-83205038D01*
X162038095Y-83205038D02*
X162085714Y-83252657D01*
X162085714Y-83252657D02*
X162133333Y-83347895D01*
X162133333Y-83347895D02*
X162133333Y-83443133D01*
X162133333Y-83443133D02*
X162085714Y-83585990D01*
X162085714Y-83585990D02*
X161514286Y-84157419D01*
X161514286Y-84157419D02*
X162133333Y-84157419D01*
D10*
X156214286Y-101663866D02*
X156976191Y-101663866D01*
X156595238Y-102044819D02*
X156595238Y-101282914D01*
X157928571Y-101044819D02*
X157452381Y-101044819D01*
X157452381Y-101044819D02*
X157404762Y-101521009D01*
X157404762Y-101521009D02*
X157452381Y-101473390D01*
X157452381Y-101473390D02*
X157547619Y-101425771D01*
X157547619Y-101425771D02*
X157785714Y-101425771D01*
X157785714Y-101425771D02*
X157880952Y-101473390D01*
X157880952Y-101473390D02*
X157928571Y-101521009D01*
X157928571Y-101521009D02*
X157976190Y-101616247D01*
X157976190Y-101616247D02*
X157976190Y-101854342D01*
X157976190Y-101854342D02*
X157928571Y-101949580D01*
X157928571Y-101949580D02*
X157880952Y-101997200D01*
X157880952Y-101997200D02*
X157785714Y-102044819D01*
X157785714Y-102044819D02*
X157547619Y-102044819D01*
X157547619Y-102044819D02*
X157452381Y-101997200D01*
X157452381Y-101997200D02*
X157404762Y-101949580D01*
X158261905Y-101044819D02*
X158595238Y-102044819D01*
X158595238Y-102044819D02*
X158928571Y-101044819D01*
X185407142Y-103119580D02*
X185359523Y-103167200D01*
X185359523Y-103167200D02*
X185216666Y-103214819D01*
X185216666Y-103214819D02*
X185121428Y-103214819D01*
X185121428Y-103214819D02*
X184978571Y-103167200D01*
X184978571Y-103167200D02*
X184883333Y-103071961D01*
X184883333Y-103071961D02*
X184835714Y-102976723D01*
X184835714Y-102976723D02*
X184788095Y-102786247D01*
X184788095Y-102786247D02*
X184788095Y-102643390D01*
X184788095Y-102643390D02*
X184835714Y-102452914D01*
X184835714Y-102452914D02*
X184883333Y-102357676D01*
X184883333Y-102357676D02*
X184978571Y-102262438D01*
X184978571Y-102262438D02*
X185121428Y-102214819D01*
X185121428Y-102214819D02*
X185216666Y-102214819D01*
X185216666Y-102214819D02*
X185359523Y-102262438D01*
X185359523Y-102262438D02*
X185407142Y-102310057D01*
X186359523Y-103214819D02*
X185788095Y-103214819D01*
X186073809Y-103214819D02*
X186073809Y-102214819D01*
X186073809Y-102214819D02*
X185978571Y-102357676D01*
X185978571Y-102357676D02*
X185883333Y-102452914D01*
X185883333Y-102452914D02*
X185788095Y-102500533D01*
X186835714Y-103214819D02*
X187026190Y-103214819D01*
X187026190Y-103214819D02*
X187121428Y-103167200D01*
X187121428Y-103167200D02*
X187169047Y-103119580D01*
X187169047Y-103119580D02*
X187264285Y-102976723D01*
X187264285Y-102976723D02*
X187311904Y-102786247D01*
X187311904Y-102786247D02*
X187311904Y-102405295D01*
X187311904Y-102405295D02*
X187264285Y-102310057D01*
X187264285Y-102310057D02*
X187216666Y-102262438D01*
X187216666Y-102262438D02*
X187121428Y-102214819D01*
X187121428Y-102214819D02*
X186930952Y-102214819D01*
X186930952Y-102214819D02*
X186835714Y-102262438D01*
X186835714Y-102262438D02*
X186788095Y-102310057D01*
X186788095Y-102310057D02*
X186740476Y-102405295D01*
X186740476Y-102405295D02*
X186740476Y-102643390D01*
X186740476Y-102643390D02*
X186788095Y-102738628D01*
X186788095Y-102738628D02*
X186835714Y-102786247D01*
X186835714Y-102786247D02*
X186930952Y-102833866D01*
X186930952Y-102833866D02*
X187121428Y-102833866D01*
X187121428Y-102833866D02*
X187216666Y-102786247D01*
X187216666Y-102786247D02*
X187264285Y-102738628D01*
X187264285Y-102738628D02*
X187311904Y-102643390D01*
X186506218Y-119821458D02*
X186030027Y-120154791D01*
X186506218Y-120392886D02*
X185506218Y-120392886D01*
X185506218Y-120392886D02*
X185506218Y-120011934D01*
X185506218Y-120011934D02*
X185553837Y-119916696D01*
X185553837Y-119916696D02*
X185601456Y-119869077D01*
X185601456Y-119869077D02*
X185696694Y-119821458D01*
X185696694Y-119821458D02*
X185839551Y-119821458D01*
X185839551Y-119821458D02*
X185934789Y-119869077D01*
X185934789Y-119869077D02*
X185982408Y-119916696D01*
X185982408Y-119916696D02*
X186030027Y-120011934D01*
X186030027Y-120011934D02*
X186030027Y-120392886D01*
X186506218Y-118869077D02*
X186506218Y-119440505D01*
X186506218Y-119154791D02*
X185506218Y-119154791D01*
X185506218Y-119154791D02*
X185649075Y-119250029D01*
X185649075Y-119250029D02*
X185744313Y-119345267D01*
X185744313Y-119345267D02*
X185791932Y-119440505D01*
X185506218Y-118535743D02*
X185506218Y-117916696D01*
X185506218Y-117916696D02*
X185887170Y-118250029D01*
X185887170Y-118250029D02*
X185887170Y-118107172D01*
X185887170Y-118107172D02*
X185934789Y-118011934D01*
X185934789Y-118011934D02*
X185982408Y-117964315D01*
X185982408Y-117964315D02*
X186077646Y-117916696D01*
X186077646Y-117916696D02*
X186315741Y-117916696D01*
X186315741Y-117916696D02*
X186410979Y-117964315D01*
X186410979Y-117964315D02*
X186458599Y-118011934D01*
X186458599Y-118011934D02*
X186506218Y-118107172D01*
X186506218Y-118107172D02*
X186506218Y-118392886D01*
X186506218Y-118392886D02*
X186458599Y-118488124D01*
X186458599Y-118488124D02*
X186410979Y-118535743D01*
X172257142Y-130854819D02*
X171923809Y-130378628D01*
X171685714Y-130854819D02*
X171685714Y-129854819D01*
X171685714Y-129854819D02*
X172066666Y-129854819D01*
X172066666Y-129854819D02*
X172161904Y-129902438D01*
X172161904Y-129902438D02*
X172209523Y-129950057D01*
X172209523Y-129950057D02*
X172257142Y-130045295D01*
X172257142Y-130045295D02*
X172257142Y-130188152D01*
X172257142Y-130188152D02*
X172209523Y-130283390D01*
X172209523Y-130283390D02*
X172161904Y-130331009D01*
X172161904Y-130331009D02*
X172066666Y-130378628D01*
X172066666Y-130378628D02*
X171685714Y-130378628D01*
X173209523Y-130854819D02*
X172638095Y-130854819D01*
X172923809Y-130854819D02*
X172923809Y-129854819D01*
X172923809Y-129854819D02*
X172828571Y-129997676D01*
X172828571Y-129997676D02*
X172733333Y-130092914D01*
X172733333Y-130092914D02*
X172638095Y-130140533D01*
X174066666Y-130188152D02*
X174066666Y-130854819D01*
X173828571Y-129807200D02*
X173590476Y-130521485D01*
X173590476Y-130521485D02*
X174209523Y-130521485D01*
X166838095Y-103202438D02*
X166742857Y-103154819D01*
X166742857Y-103154819D02*
X166600000Y-103154819D01*
X166600000Y-103154819D02*
X166457143Y-103202438D01*
X166457143Y-103202438D02*
X166361905Y-103297676D01*
X166361905Y-103297676D02*
X166314286Y-103392914D01*
X166314286Y-103392914D02*
X166266667Y-103583390D01*
X166266667Y-103583390D02*
X166266667Y-103726247D01*
X166266667Y-103726247D02*
X166314286Y-103916723D01*
X166314286Y-103916723D02*
X166361905Y-104011961D01*
X166361905Y-104011961D02*
X166457143Y-104107200D01*
X166457143Y-104107200D02*
X166600000Y-104154819D01*
X166600000Y-104154819D02*
X166695238Y-104154819D01*
X166695238Y-104154819D02*
X166838095Y-104107200D01*
X166838095Y-104107200D02*
X166885714Y-104059580D01*
X166885714Y-104059580D02*
X166885714Y-103726247D01*
X166885714Y-103726247D02*
X166695238Y-103726247D01*
X167314286Y-104154819D02*
X167314286Y-103154819D01*
X167314286Y-103154819D02*
X167885714Y-104154819D01*
X167885714Y-104154819D02*
X167885714Y-103154819D01*
X168361905Y-104154819D02*
X168361905Y-103154819D01*
X168361905Y-103154819D02*
X168600000Y-103154819D01*
X168600000Y-103154819D02*
X168742857Y-103202438D01*
X168742857Y-103202438D02*
X168838095Y-103297676D01*
X168838095Y-103297676D02*
X168885714Y-103392914D01*
X168885714Y-103392914D02*
X168933333Y-103583390D01*
X168933333Y-103583390D02*
X168933333Y-103726247D01*
X168933333Y-103726247D02*
X168885714Y-103916723D01*
X168885714Y-103916723D02*
X168838095Y-104011961D01*
X168838095Y-104011961D02*
X168742857Y-104107200D01*
X168742857Y-104107200D02*
X168600000Y-104154819D01*
X168600000Y-104154819D02*
X168361905Y-104154819D01*
X167801132Y-123213180D02*
X167753513Y-123260800D01*
X167753513Y-123260800D02*
X167610656Y-123308419D01*
X167610656Y-123308419D02*
X167515418Y-123308419D01*
X167515418Y-123308419D02*
X167372561Y-123260800D01*
X167372561Y-123260800D02*
X167277323Y-123165561D01*
X167277323Y-123165561D02*
X167229704Y-123070323D01*
X167229704Y-123070323D02*
X167182085Y-122879847D01*
X167182085Y-122879847D02*
X167182085Y-122736990D01*
X167182085Y-122736990D02*
X167229704Y-122546514D01*
X167229704Y-122546514D02*
X167277323Y-122451276D01*
X167277323Y-122451276D02*
X167372561Y-122356038D01*
X167372561Y-122356038D02*
X167515418Y-122308419D01*
X167515418Y-122308419D02*
X167610656Y-122308419D01*
X167610656Y-122308419D02*
X167753513Y-122356038D01*
X167753513Y-122356038D02*
X167801132Y-122403657D01*
X168372561Y-122736990D02*
X168277323Y-122689371D01*
X168277323Y-122689371D02*
X168229704Y-122641752D01*
X168229704Y-122641752D02*
X168182085Y-122546514D01*
X168182085Y-122546514D02*
X168182085Y-122498895D01*
X168182085Y-122498895D02*
X168229704Y-122403657D01*
X168229704Y-122403657D02*
X168277323Y-122356038D01*
X168277323Y-122356038D02*
X168372561Y-122308419D01*
X168372561Y-122308419D02*
X168563037Y-122308419D01*
X168563037Y-122308419D02*
X168658275Y-122356038D01*
X168658275Y-122356038D02*
X168705894Y-122403657D01*
X168705894Y-122403657D02*
X168753513Y-122498895D01*
X168753513Y-122498895D02*
X168753513Y-122546514D01*
X168753513Y-122546514D02*
X168705894Y-122641752D01*
X168705894Y-122641752D02*
X168658275Y-122689371D01*
X168658275Y-122689371D02*
X168563037Y-122736990D01*
X168563037Y-122736990D02*
X168372561Y-122736990D01*
X168372561Y-122736990D02*
X168277323Y-122784609D01*
X168277323Y-122784609D02*
X168229704Y-122832228D01*
X168229704Y-122832228D02*
X168182085Y-122927466D01*
X168182085Y-122927466D02*
X168182085Y-123117942D01*
X168182085Y-123117942D02*
X168229704Y-123213180D01*
X168229704Y-123213180D02*
X168277323Y-123260800D01*
X168277323Y-123260800D02*
X168372561Y-123308419D01*
X168372561Y-123308419D02*
X168563037Y-123308419D01*
X168563037Y-123308419D02*
X168658275Y-123260800D01*
X168658275Y-123260800D02*
X168705894Y-123213180D01*
X168705894Y-123213180D02*
X168753513Y-123117942D01*
X168753513Y-123117942D02*
X168753513Y-122927466D01*
X168753513Y-122927466D02*
X168705894Y-122832228D01*
X168705894Y-122832228D02*
X168658275Y-122784609D01*
X168658275Y-122784609D02*
X168563037Y-122736990D01*
X177538095Y-104054819D02*
X177538095Y-104864342D01*
X177538095Y-104864342D02*
X177585714Y-104959580D01*
X177585714Y-104959580D02*
X177633333Y-105007200D01*
X177633333Y-105007200D02*
X177728571Y-105054819D01*
X177728571Y-105054819D02*
X177919047Y-105054819D01*
X177919047Y-105054819D02*
X178014285Y-105007200D01*
X178014285Y-105007200D02*
X178061904Y-104959580D01*
X178061904Y-104959580D02*
X178109523Y-104864342D01*
X178109523Y-104864342D02*
X178109523Y-104054819D01*
X178490476Y-104054819D02*
X179109523Y-104054819D01*
X179109523Y-104054819D02*
X178776190Y-104435771D01*
X178776190Y-104435771D02*
X178919047Y-104435771D01*
X178919047Y-104435771D02*
X179014285Y-104483390D01*
X179014285Y-104483390D02*
X179061904Y-104531009D01*
X179061904Y-104531009D02*
X179109523Y-104626247D01*
X179109523Y-104626247D02*
X179109523Y-104864342D01*
X179109523Y-104864342D02*
X179061904Y-104959580D01*
X179061904Y-104959580D02*
X179014285Y-105007200D01*
X179014285Y-105007200D02*
X178919047Y-105054819D01*
X178919047Y-105054819D02*
X178633333Y-105054819D01*
X178633333Y-105054819D02*
X178538095Y-105007200D01*
X178538095Y-105007200D02*
X178490476Y-104959580D01*
X167457142Y-131059580D02*
X167409523Y-131107200D01*
X167409523Y-131107200D02*
X167266666Y-131154819D01*
X167266666Y-131154819D02*
X167171428Y-131154819D01*
X167171428Y-131154819D02*
X167028571Y-131107200D01*
X167028571Y-131107200D02*
X166933333Y-131011961D01*
X166933333Y-131011961D02*
X166885714Y-130916723D01*
X166885714Y-130916723D02*
X166838095Y-130726247D01*
X166838095Y-130726247D02*
X166838095Y-130583390D01*
X166838095Y-130583390D02*
X166885714Y-130392914D01*
X166885714Y-130392914D02*
X166933333Y-130297676D01*
X166933333Y-130297676D02*
X167028571Y-130202438D01*
X167028571Y-130202438D02*
X167171428Y-130154819D01*
X167171428Y-130154819D02*
X167266666Y-130154819D01*
X167266666Y-130154819D02*
X167409523Y-130202438D01*
X167409523Y-130202438D02*
X167457142Y-130250057D01*
X168409523Y-131154819D02*
X167838095Y-131154819D01*
X168123809Y-131154819D02*
X168123809Y-130154819D01*
X168123809Y-130154819D02*
X168028571Y-130297676D01*
X168028571Y-130297676D02*
X167933333Y-130392914D01*
X167933333Y-130392914D02*
X167838095Y-130440533D01*
X169266666Y-130154819D02*
X169076190Y-130154819D01*
X169076190Y-130154819D02*
X168980952Y-130202438D01*
X168980952Y-130202438D02*
X168933333Y-130250057D01*
X168933333Y-130250057D02*
X168838095Y-130392914D01*
X168838095Y-130392914D02*
X168790476Y-130583390D01*
X168790476Y-130583390D02*
X168790476Y-130964342D01*
X168790476Y-130964342D02*
X168838095Y-131059580D01*
X168838095Y-131059580D02*
X168885714Y-131107200D01*
X168885714Y-131107200D02*
X168980952Y-131154819D01*
X168980952Y-131154819D02*
X169171428Y-131154819D01*
X169171428Y-131154819D02*
X169266666Y-131107200D01*
X169266666Y-131107200D02*
X169314285Y-131059580D01*
X169314285Y-131059580D02*
X169361904Y-130964342D01*
X169361904Y-130964342D02*
X169361904Y-130726247D01*
X169361904Y-130726247D02*
X169314285Y-130631009D01*
X169314285Y-130631009D02*
X169266666Y-130583390D01*
X169266666Y-130583390D02*
X169171428Y-130535771D01*
X169171428Y-130535771D02*
X168980952Y-130535771D01*
X168980952Y-130535771D02*
X168885714Y-130583390D01*
X168885714Y-130583390D02*
X168838095Y-130631009D01*
X168838095Y-130631009D02*
X168790476Y-130726247D01*
X185659580Y-128642857D02*
X185707200Y-128690476D01*
X185707200Y-128690476D02*
X185754819Y-128833333D01*
X185754819Y-128833333D02*
X185754819Y-128928571D01*
X185754819Y-128928571D02*
X185707200Y-129071428D01*
X185707200Y-129071428D02*
X185611961Y-129166666D01*
X185611961Y-129166666D02*
X185516723Y-129214285D01*
X185516723Y-129214285D02*
X185326247Y-129261904D01*
X185326247Y-129261904D02*
X185183390Y-129261904D01*
X185183390Y-129261904D02*
X184992914Y-129214285D01*
X184992914Y-129214285D02*
X184897676Y-129166666D01*
X184897676Y-129166666D02*
X184802438Y-129071428D01*
X184802438Y-129071428D02*
X184754819Y-128928571D01*
X184754819Y-128928571D02*
X184754819Y-128833333D01*
X184754819Y-128833333D02*
X184802438Y-128690476D01*
X184802438Y-128690476D02*
X184850057Y-128642857D01*
X185754819Y-127690476D02*
X185754819Y-128261904D01*
X185754819Y-127976190D02*
X184754819Y-127976190D01*
X184754819Y-127976190D02*
X184897676Y-128071428D01*
X184897676Y-128071428D02*
X184992914Y-128166666D01*
X184992914Y-128166666D02*
X185040533Y-128261904D01*
X184850057Y-127309523D02*
X184802438Y-127261904D01*
X184802438Y-127261904D02*
X184754819Y-127166666D01*
X184754819Y-127166666D02*
X184754819Y-126928571D01*
X184754819Y-126928571D02*
X184802438Y-126833333D01*
X184802438Y-126833333D02*
X184850057Y-126785714D01*
X184850057Y-126785714D02*
X184945295Y-126738095D01*
X184945295Y-126738095D02*
X185040533Y-126738095D01*
X185040533Y-126738095D02*
X185183390Y-126785714D01*
X185183390Y-126785714D02*
X185754819Y-127357142D01*
X185754819Y-127357142D02*
X185754819Y-126738095D01*
X189859580Y-128742857D02*
X189907200Y-128790476D01*
X189907200Y-128790476D02*
X189954819Y-128933333D01*
X189954819Y-128933333D02*
X189954819Y-129028571D01*
X189954819Y-129028571D02*
X189907200Y-129171428D01*
X189907200Y-129171428D02*
X189811961Y-129266666D01*
X189811961Y-129266666D02*
X189716723Y-129314285D01*
X189716723Y-129314285D02*
X189526247Y-129361904D01*
X189526247Y-129361904D02*
X189383390Y-129361904D01*
X189383390Y-129361904D02*
X189192914Y-129314285D01*
X189192914Y-129314285D02*
X189097676Y-129266666D01*
X189097676Y-129266666D02*
X189002438Y-129171428D01*
X189002438Y-129171428D02*
X188954819Y-129028571D01*
X188954819Y-129028571D02*
X188954819Y-128933333D01*
X188954819Y-128933333D02*
X189002438Y-128790476D01*
X189002438Y-128790476D02*
X189050057Y-128742857D01*
X189954819Y-127790476D02*
X189954819Y-128361904D01*
X189954819Y-128076190D02*
X188954819Y-128076190D01*
X188954819Y-128076190D02*
X189097676Y-128171428D01*
X189097676Y-128171428D02*
X189192914Y-128266666D01*
X189192914Y-128266666D02*
X189240533Y-128361904D01*
X189288152Y-126933333D02*
X189954819Y-126933333D01*
X188907200Y-127171428D02*
X189621485Y-127409523D01*
X189621485Y-127409523D02*
X189621485Y-126790476D01*
X170533333Y-112534819D02*
X170200000Y-112058628D01*
X169961905Y-112534819D02*
X169961905Y-111534819D01*
X169961905Y-111534819D02*
X170342857Y-111534819D01*
X170342857Y-111534819D02*
X170438095Y-111582438D01*
X170438095Y-111582438D02*
X170485714Y-111630057D01*
X170485714Y-111630057D02*
X170533333Y-111725295D01*
X170533333Y-111725295D02*
X170533333Y-111868152D01*
X170533333Y-111868152D02*
X170485714Y-111963390D01*
X170485714Y-111963390D02*
X170438095Y-112011009D01*
X170438095Y-112011009D02*
X170342857Y-112058628D01*
X170342857Y-112058628D02*
X169961905Y-112058628D01*
X170866667Y-111534819D02*
X171533333Y-111534819D01*
X171533333Y-111534819D02*
X171104762Y-112534819D01*
X186506218Y-114821458D02*
X186030027Y-115154791D01*
X186506218Y-115392886D02*
X185506218Y-115392886D01*
X185506218Y-115392886D02*
X185506218Y-115011934D01*
X185506218Y-115011934D02*
X185553837Y-114916696D01*
X185553837Y-114916696D02*
X185601456Y-114869077D01*
X185601456Y-114869077D02*
X185696694Y-114821458D01*
X185696694Y-114821458D02*
X185839551Y-114821458D01*
X185839551Y-114821458D02*
X185934789Y-114869077D01*
X185934789Y-114869077D02*
X185982408Y-114916696D01*
X185982408Y-114916696D02*
X186030027Y-115011934D01*
X186030027Y-115011934D02*
X186030027Y-115392886D01*
X186506218Y-113869077D02*
X186506218Y-114440505D01*
X186506218Y-114154791D02*
X185506218Y-114154791D01*
X185506218Y-114154791D02*
X185649075Y-114250029D01*
X185649075Y-114250029D02*
X185744313Y-114345267D01*
X185744313Y-114345267D02*
X185791932Y-114440505D01*
X185506218Y-112964315D02*
X185506218Y-113440505D01*
X185506218Y-113440505D02*
X185982408Y-113488124D01*
X185982408Y-113488124D02*
X185934789Y-113440505D01*
X185934789Y-113440505D02*
X185887170Y-113345267D01*
X185887170Y-113345267D02*
X185887170Y-113107172D01*
X185887170Y-113107172D02*
X185934789Y-113011934D01*
X185934789Y-113011934D02*
X185982408Y-112964315D01*
X185982408Y-112964315D02*
X186077646Y-112916696D01*
X186077646Y-112916696D02*
X186315741Y-112916696D01*
X186315741Y-112916696D02*
X186410979Y-112964315D01*
X186410979Y-112964315D02*
X186458599Y-113011934D01*
X186458599Y-113011934D02*
X186506218Y-113107172D01*
X186506218Y-113107172D02*
X186506218Y-113345267D01*
X186506218Y-113345267D02*
X186458599Y-113440505D01*
X186458599Y-113440505D02*
X186410979Y-113488124D01*
X168533333Y-121259580D02*
X168485714Y-121307200D01*
X168485714Y-121307200D02*
X168342857Y-121354819D01*
X168342857Y-121354819D02*
X168247619Y-121354819D01*
X168247619Y-121354819D02*
X168104762Y-121307200D01*
X168104762Y-121307200D02*
X168009524Y-121211961D01*
X168009524Y-121211961D02*
X167961905Y-121116723D01*
X167961905Y-121116723D02*
X167914286Y-120926247D01*
X167914286Y-120926247D02*
X167914286Y-120783390D01*
X167914286Y-120783390D02*
X167961905Y-120592914D01*
X167961905Y-120592914D02*
X168009524Y-120497676D01*
X168009524Y-120497676D02*
X168104762Y-120402438D01*
X168104762Y-120402438D02*
X168247619Y-120354819D01*
X168247619Y-120354819D02*
X168342857Y-120354819D01*
X168342857Y-120354819D02*
X168485714Y-120402438D01*
X168485714Y-120402438D02*
X168533333Y-120450057D01*
X169390476Y-120688152D02*
X169390476Y-121354819D01*
X169152381Y-120307200D02*
X168914286Y-121021485D01*
X168914286Y-121021485D02*
X169533333Y-121021485D01*
X174773333Y-112439580D02*
X174725714Y-112487200D01*
X174725714Y-112487200D02*
X174582857Y-112534819D01*
X174582857Y-112534819D02*
X174487619Y-112534819D01*
X174487619Y-112534819D02*
X174344762Y-112487200D01*
X174344762Y-112487200D02*
X174249524Y-112391961D01*
X174249524Y-112391961D02*
X174201905Y-112296723D01*
X174201905Y-112296723D02*
X174154286Y-112106247D01*
X174154286Y-112106247D02*
X174154286Y-111963390D01*
X174154286Y-111963390D02*
X174201905Y-111772914D01*
X174201905Y-111772914D02*
X174249524Y-111677676D01*
X174249524Y-111677676D02*
X174344762Y-111582438D01*
X174344762Y-111582438D02*
X174487619Y-111534819D01*
X174487619Y-111534819D02*
X174582857Y-111534819D01*
X174582857Y-111534819D02*
X174725714Y-111582438D01*
X174725714Y-111582438D02*
X174773333Y-111630057D01*
X175725714Y-112534819D02*
X175154286Y-112534819D01*
X175440000Y-112534819D02*
X175440000Y-111534819D01*
X175440000Y-111534819D02*
X175344762Y-111677676D01*
X175344762Y-111677676D02*
X175249524Y-111772914D01*
X175249524Y-111772914D02*
X175154286Y-111820533D01*
X182324819Y-110336666D02*
X181848628Y-110669999D01*
X182324819Y-110908094D02*
X181324819Y-110908094D01*
X181324819Y-110908094D02*
X181324819Y-110527142D01*
X181324819Y-110527142D02*
X181372438Y-110431904D01*
X181372438Y-110431904D02*
X181420057Y-110384285D01*
X181420057Y-110384285D02*
X181515295Y-110336666D01*
X181515295Y-110336666D02*
X181658152Y-110336666D01*
X181658152Y-110336666D02*
X181753390Y-110384285D01*
X181753390Y-110384285D02*
X181801009Y-110431904D01*
X181801009Y-110431904D02*
X181848628Y-110527142D01*
X181848628Y-110527142D02*
X181848628Y-110908094D01*
X182324819Y-109860475D02*
X182324819Y-109669999D01*
X182324819Y-109669999D02*
X182277200Y-109574761D01*
X182277200Y-109574761D02*
X182229580Y-109527142D01*
X182229580Y-109527142D02*
X182086723Y-109431904D01*
X182086723Y-109431904D02*
X181896247Y-109384285D01*
X181896247Y-109384285D02*
X181515295Y-109384285D01*
X181515295Y-109384285D02*
X181420057Y-109431904D01*
X181420057Y-109431904D02*
X181372438Y-109479523D01*
X181372438Y-109479523D02*
X181324819Y-109574761D01*
X181324819Y-109574761D02*
X181324819Y-109765237D01*
X181324819Y-109765237D02*
X181372438Y-109860475D01*
X181372438Y-109860475D02*
X181420057Y-109908094D01*
X181420057Y-109908094D02*
X181515295Y-109955713D01*
X181515295Y-109955713D02*
X181753390Y-109955713D01*
X181753390Y-109955713D02*
X181848628Y-109908094D01*
X181848628Y-109908094D02*
X181896247Y-109860475D01*
X181896247Y-109860475D02*
X181943866Y-109765237D01*
X181943866Y-109765237D02*
X181943866Y-109574761D01*
X181943866Y-109574761D02*
X181896247Y-109479523D01*
X181896247Y-109479523D02*
X181848628Y-109431904D01*
X181848628Y-109431904D02*
X181753390Y-109384285D01*
X177498095Y-91334819D02*
X177498095Y-92144342D01*
X177498095Y-92144342D02*
X177545714Y-92239580D01*
X177545714Y-92239580D02*
X177593333Y-92287200D01*
X177593333Y-92287200D02*
X177688571Y-92334819D01*
X177688571Y-92334819D02*
X177879047Y-92334819D01*
X177879047Y-92334819D02*
X177974285Y-92287200D01*
X177974285Y-92287200D02*
X178021904Y-92239580D01*
X178021904Y-92239580D02*
X178069523Y-92144342D01*
X178069523Y-92144342D02*
X178069523Y-91334819D01*
X179069523Y-92334819D02*
X178498095Y-92334819D01*
X178783809Y-92334819D02*
X178783809Y-91334819D01*
X178783809Y-91334819D02*
X178688571Y-91477676D01*
X178688571Y-91477676D02*
X178593333Y-91572914D01*
X178593333Y-91572914D02*
X178498095Y-91620533D01*
X174000000Y-87953819D02*
X174000000Y-88191914D01*
X173761905Y-88096676D02*
X174000000Y-88191914D01*
X174000000Y-88191914D02*
X174238095Y-88096676D01*
X173857143Y-88382390D02*
X174000000Y-88191914D01*
X174000000Y-88191914D02*
X174142857Y-88382390D01*
X174000000Y-87953819D02*
X174000000Y-88191914D01*
X173761905Y-88096676D02*
X174000000Y-88191914D01*
X174000000Y-88191914D02*
X174238095Y-88096676D01*
X173857143Y-88382390D02*
X174000000Y-88191914D01*
X174000000Y-88191914D02*
X174142857Y-88382390D01*
X152042857Y-126407200D02*
X152185714Y-126454819D01*
X152185714Y-126454819D02*
X152423809Y-126454819D01*
X152423809Y-126454819D02*
X152519047Y-126407200D01*
X152519047Y-126407200D02*
X152566666Y-126359580D01*
X152566666Y-126359580D02*
X152614285Y-126264342D01*
X152614285Y-126264342D02*
X152614285Y-126169104D01*
X152614285Y-126169104D02*
X152566666Y-126073866D01*
X152566666Y-126073866D02*
X152519047Y-126026247D01*
X152519047Y-126026247D02*
X152423809Y-125978628D01*
X152423809Y-125978628D02*
X152233333Y-125931009D01*
X152233333Y-125931009D02*
X152138095Y-125883390D01*
X152138095Y-125883390D02*
X152090476Y-125835771D01*
X152090476Y-125835771D02*
X152042857Y-125740533D01*
X152042857Y-125740533D02*
X152042857Y-125645295D01*
X152042857Y-125645295D02*
X152090476Y-125550057D01*
X152090476Y-125550057D02*
X152138095Y-125502438D01*
X152138095Y-125502438D02*
X152233333Y-125454819D01*
X152233333Y-125454819D02*
X152471428Y-125454819D01*
X152471428Y-125454819D02*
X152614285Y-125502438D01*
X152947619Y-125454819D02*
X153185714Y-126454819D01*
X153185714Y-126454819D02*
X153376190Y-125740533D01*
X153376190Y-125740533D02*
X153566666Y-126454819D01*
X153566666Y-126454819D02*
X153804762Y-125454819D01*
X172938095Y-115854819D02*
X172938095Y-116664342D01*
X172938095Y-116664342D02*
X172985714Y-116759580D01*
X172985714Y-116759580D02*
X173033333Y-116807200D01*
X173033333Y-116807200D02*
X173128571Y-116854819D01*
X173128571Y-116854819D02*
X173319047Y-116854819D01*
X173319047Y-116854819D02*
X173414285Y-116807200D01*
X173414285Y-116807200D02*
X173461904Y-116759580D01*
X173461904Y-116759580D02*
X173509523Y-116664342D01*
X173509523Y-116664342D02*
X173509523Y-115854819D01*
X173938095Y-115950057D02*
X173985714Y-115902438D01*
X173985714Y-115902438D02*
X174080952Y-115854819D01*
X174080952Y-115854819D02*
X174319047Y-115854819D01*
X174319047Y-115854819D02*
X174414285Y-115902438D01*
X174414285Y-115902438D02*
X174461904Y-115950057D01*
X174461904Y-115950057D02*
X174509523Y-116045295D01*
X174509523Y-116045295D02*
X174509523Y-116140533D01*
X174509523Y-116140533D02*
X174461904Y-116283390D01*
X174461904Y-116283390D02*
X173890476Y-116854819D01*
X173890476Y-116854819D02*
X174509523Y-116854819D01*
X172537999Y-117633419D02*
X172537999Y-117871514D01*
X172299904Y-117776276D02*
X172537999Y-117871514D01*
X172537999Y-117871514D02*
X172776094Y-117776276D01*
X172395142Y-118061990D02*
X172537999Y-117871514D01*
X172537999Y-117871514D02*
X172680856Y-118061990D01*
X172537999Y-117633419D02*
X172537999Y-117871514D01*
X172299904Y-117776276D02*
X172537999Y-117871514D01*
X172537999Y-117871514D02*
X172776094Y-117776276D01*
X172395142Y-118061990D02*
X172537999Y-117871514D01*
X172537999Y-117871514D02*
X172680856Y-118061990D01*
X170359580Y-92042857D02*
X170407200Y-92090476D01*
X170407200Y-92090476D02*
X170454819Y-92233333D01*
X170454819Y-92233333D02*
X170454819Y-92328571D01*
X170454819Y-92328571D02*
X170407200Y-92471428D01*
X170407200Y-92471428D02*
X170311961Y-92566666D01*
X170311961Y-92566666D02*
X170216723Y-92614285D01*
X170216723Y-92614285D02*
X170026247Y-92661904D01*
X170026247Y-92661904D02*
X169883390Y-92661904D01*
X169883390Y-92661904D02*
X169692914Y-92614285D01*
X169692914Y-92614285D02*
X169597676Y-92566666D01*
X169597676Y-92566666D02*
X169502438Y-92471428D01*
X169502438Y-92471428D02*
X169454819Y-92328571D01*
X169454819Y-92328571D02*
X169454819Y-92233333D01*
X169454819Y-92233333D02*
X169502438Y-92090476D01*
X169502438Y-92090476D02*
X169550057Y-92042857D01*
X170454819Y-91090476D02*
X170454819Y-91661904D01*
X170454819Y-91376190D02*
X169454819Y-91376190D01*
X169454819Y-91376190D02*
X169597676Y-91471428D01*
X169597676Y-91471428D02*
X169692914Y-91566666D01*
X169692914Y-91566666D02*
X169740533Y-91661904D01*
X169454819Y-90757142D02*
X169454819Y-90090476D01*
X169454819Y-90090476D02*
X170454819Y-90519047D01*
X165890476Y-93707200D02*
X166033333Y-93754819D01*
X166033333Y-93754819D02*
X166271428Y-93754819D01*
X166271428Y-93754819D02*
X166366666Y-93707200D01*
X166366666Y-93707200D02*
X166414285Y-93659580D01*
X166414285Y-93659580D02*
X166461904Y-93564342D01*
X166461904Y-93564342D02*
X166461904Y-93469104D01*
X166461904Y-93469104D02*
X166414285Y-93373866D01*
X166414285Y-93373866D02*
X166366666Y-93326247D01*
X166366666Y-93326247D02*
X166271428Y-93278628D01*
X166271428Y-93278628D02*
X166080952Y-93231009D01*
X166080952Y-93231009D02*
X165985714Y-93183390D01*
X165985714Y-93183390D02*
X165938095Y-93135771D01*
X165938095Y-93135771D02*
X165890476Y-93040533D01*
X165890476Y-93040533D02*
X165890476Y-92945295D01*
X165890476Y-92945295D02*
X165938095Y-92850057D01*
X165938095Y-92850057D02*
X165985714Y-92802438D01*
X165985714Y-92802438D02*
X166080952Y-92754819D01*
X166080952Y-92754819D02*
X166319047Y-92754819D01*
X166319047Y-92754819D02*
X166461904Y-92802438D01*
X166890476Y-93754819D02*
X166890476Y-92754819D01*
X166890476Y-92754819D02*
X167128571Y-92754819D01*
X167128571Y-92754819D02*
X167271428Y-92802438D01*
X167271428Y-92802438D02*
X167366666Y-92897676D01*
X167366666Y-92897676D02*
X167414285Y-92992914D01*
X167414285Y-92992914D02*
X167461904Y-93183390D01*
X167461904Y-93183390D02*
X167461904Y-93326247D01*
X167461904Y-93326247D02*
X167414285Y-93516723D01*
X167414285Y-93516723D02*
X167366666Y-93611961D01*
X167366666Y-93611961D02*
X167271428Y-93707200D01*
X167271428Y-93707200D02*
X167128571Y-93754819D01*
X167128571Y-93754819D02*
X166890476Y-93754819D01*
X168080952Y-92754819D02*
X168271428Y-92754819D01*
X168271428Y-92754819D02*
X168366666Y-92802438D01*
X168366666Y-92802438D02*
X168461904Y-92897676D01*
X168461904Y-92897676D02*
X168509523Y-93088152D01*
X168509523Y-93088152D02*
X168509523Y-93421485D01*
X168509523Y-93421485D02*
X168461904Y-93611961D01*
X168461904Y-93611961D02*
X168366666Y-93707200D01*
X168366666Y-93707200D02*
X168271428Y-93754819D01*
X168271428Y-93754819D02*
X168080952Y-93754819D01*
X168080952Y-93754819D02*
X167985714Y-93707200D01*
X167985714Y-93707200D02*
X167890476Y-93611961D01*
X167890476Y-93611961D02*
X167842857Y-93421485D01*
X167842857Y-93421485D02*
X167842857Y-93088152D01*
X167842857Y-93088152D02*
X167890476Y-92897676D01*
X167890476Y-92897676D02*
X167985714Y-92802438D01*
X167985714Y-92802438D02*
X168080952Y-92754819D01*
X169554819Y-112766666D02*
X169078628Y-113099999D01*
X169554819Y-113338094D02*
X168554819Y-113338094D01*
X168554819Y-113338094D02*
X168554819Y-112957142D01*
X168554819Y-112957142D02*
X168602438Y-112861904D01*
X168602438Y-112861904D02*
X168650057Y-112814285D01*
X168650057Y-112814285D02*
X168745295Y-112766666D01*
X168745295Y-112766666D02*
X168888152Y-112766666D01*
X168888152Y-112766666D02*
X168983390Y-112814285D01*
X168983390Y-112814285D02*
X169031009Y-112861904D01*
X169031009Y-112861904D02*
X169078628Y-112957142D01*
X169078628Y-112957142D02*
X169078628Y-113338094D01*
X168554819Y-111861904D02*
X168554819Y-112338094D01*
X168554819Y-112338094D02*
X169031009Y-112385713D01*
X169031009Y-112385713D02*
X168983390Y-112338094D01*
X168983390Y-112338094D02*
X168935771Y-112242856D01*
X168935771Y-112242856D02*
X168935771Y-112004761D01*
X168935771Y-112004761D02*
X168983390Y-111909523D01*
X168983390Y-111909523D02*
X169031009Y-111861904D01*
X169031009Y-111861904D02*
X169126247Y-111814285D01*
X169126247Y-111814285D02*
X169364342Y-111814285D01*
X169364342Y-111814285D02*
X169459580Y-111861904D01*
X169459580Y-111861904D02*
X169507200Y-111909523D01*
X169507200Y-111909523D02*
X169554819Y-112004761D01*
X169554819Y-112004761D02*
X169554819Y-112242856D01*
X169554819Y-112242856D02*
X169507200Y-112338094D01*
X169507200Y-112338094D02*
X169459580Y-112385713D01*
D14*
X155417819Y-111540714D02*
X155370200Y-111493095D01*
X155370200Y-111493095D02*
X155322580Y-111350238D01*
X155322580Y-111350238D02*
X155322580Y-111255000D01*
X155322580Y-111255000D02*
X155370200Y-111112143D01*
X155370200Y-111112143D02*
X155465438Y-111016905D01*
X155465438Y-111016905D02*
X155560676Y-110969286D01*
X155560676Y-110969286D02*
X155751152Y-110921667D01*
X155751152Y-110921667D02*
X155894009Y-110921667D01*
X155894009Y-110921667D02*
X156084485Y-110969286D01*
X156084485Y-110969286D02*
X156179723Y-111016905D01*
X156179723Y-111016905D02*
X156274961Y-111112143D01*
X156274961Y-111112143D02*
X156322580Y-111255000D01*
X156322580Y-111255000D02*
X156322580Y-111350238D01*
X156322580Y-111350238D02*
X156274961Y-111493095D01*
X156274961Y-111493095D02*
X156227342Y-111540714D01*
X156322580Y-112159762D02*
X156322580Y-112350238D01*
X156322580Y-112350238D02*
X156274961Y-112445476D01*
X156274961Y-112445476D02*
X156179723Y-112540714D01*
X156179723Y-112540714D02*
X155989247Y-112588333D01*
X155989247Y-112588333D02*
X155655914Y-112588333D01*
X155655914Y-112588333D02*
X155465438Y-112540714D01*
X155465438Y-112540714D02*
X155370200Y-112445476D01*
X155370200Y-112445476D02*
X155322580Y-112350238D01*
X155322580Y-112350238D02*
X155322580Y-112159762D01*
X155322580Y-112159762D02*
X155370200Y-112064524D01*
X155370200Y-112064524D02*
X155465438Y-111969286D01*
X155465438Y-111969286D02*
X155655914Y-111921667D01*
X155655914Y-111921667D02*
X155989247Y-111921667D01*
X155989247Y-111921667D02*
X156179723Y-111969286D01*
X156179723Y-111969286D02*
X156274961Y-112064524D01*
X156274961Y-112064524D02*
X156322580Y-112159762D01*
X155322580Y-113016905D02*
X156322580Y-113016905D01*
X156322580Y-113016905D02*
X155322580Y-113588333D01*
X155322580Y-113588333D02*
X156322580Y-113588333D01*
X155322580Y-114588333D02*
X155322580Y-114016905D01*
X155322580Y-114302619D02*
X156322580Y-114302619D01*
X156322580Y-114302619D02*
X156179723Y-114207381D01*
X156179723Y-114207381D02*
X156084485Y-114112143D01*
X156084485Y-114112143D02*
X156036866Y-114016905D01*
X151131390Y-110992217D02*
X151131390Y-110658884D01*
X150607580Y-110658884D02*
X151607580Y-110658884D01*
X151607580Y-110658884D02*
X151607580Y-111135074D01*
X150607580Y-112087455D02*
X151083771Y-111754122D01*
X150607580Y-111516027D02*
X151607580Y-111516027D01*
X151607580Y-111516027D02*
X151607580Y-111896979D01*
X151607580Y-111896979D02*
X151559961Y-111992217D01*
X151559961Y-111992217D02*
X151512342Y-112039836D01*
X151512342Y-112039836D02*
X151417104Y-112087455D01*
X151417104Y-112087455D02*
X151274247Y-112087455D01*
X151274247Y-112087455D02*
X151179009Y-112039836D01*
X151179009Y-112039836D02*
X151131390Y-111992217D01*
X151131390Y-111992217D02*
X151083771Y-111896979D01*
X151083771Y-111896979D02*
X151083771Y-111516027D01*
X151607580Y-112706503D02*
X151607580Y-112896979D01*
X151607580Y-112896979D02*
X151559961Y-112992217D01*
X151559961Y-112992217D02*
X151464723Y-113087455D01*
X151464723Y-113087455D02*
X151274247Y-113135074D01*
X151274247Y-113135074D02*
X150940914Y-113135074D01*
X150940914Y-113135074D02*
X150750438Y-113087455D01*
X150750438Y-113087455D02*
X150655200Y-112992217D01*
X150655200Y-112992217D02*
X150607580Y-112896979D01*
X150607580Y-112896979D02*
X150607580Y-112706503D01*
X150607580Y-112706503D02*
X150655200Y-112611265D01*
X150655200Y-112611265D02*
X150750438Y-112516027D01*
X150750438Y-112516027D02*
X150940914Y-112468408D01*
X150940914Y-112468408D02*
X151274247Y-112468408D01*
X151274247Y-112468408D02*
X151464723Y-112516027D01*
X151464723Y-112516027D02*
X151559961Y-112611265D01*
X151559961Y-112611265D02*
X151607580Y-112706503D01*
X150607580Y-113563646D02*
X151607580Y-113563646D01*
X151607580Y-113563646D02*
X150607580Y-114135074D01*
X150607580Y-114135074D02*
X151607580Y-114135074D01*
X151607580Y-114468408D02*
X151607580Y-115039836D01*
X150607580Y-114754122D02*
X151607580Y-114754122D01*
D10*
X188171429Y-88554819D02*
X188171429Y-87554819D01*
X188171429Y-87554819D02*
X188409524Y-87554819D01*
X188409524Y-87554819D02*
X188552381Y-87602438D01*
X188552381Y-87602438D02*
X188647619Y-87697676D01*
X188647619Y-87697676D02*
X188695238Y-87792914D01*
X188695238Y-87792914D02*
X188742857Y-87983390D01*
X188742857Y-87983390D02*
X188742857Y-88126247D01*
X188742857Y-88126247D02*
X188695238Y-88316723D01*
X188695238Y-88316723D02*
X188647619Y-88411961D01*
X188647619Y-88411961D02*
X188552381Y-88507200D01*
X188552381Y-88507200D02*
X188409524Y-88554819D01*
X188409524Y-88554819D02*
X188171429Y-88554819D01*
X189171429Y-88554819D02*
X189171429Y-87554819D01*
X189171429Y-87554819D02*
X189504762Y-88269104D01*
X189504762Y-88269104D02*
X189838095Y-87554819D01*
X189838095Y-87554819D02*
X189838095Y-88554819D01*
X190219048Y-87554819D02*
X190885714Y-88554819D01*
X190885714Y-87554819D02*
X190219048Y-88554819D01*
X192028572Y-88554819D02*
X192028572Y-87554819D01*
X192028572Y-87554819D02*
X192266667Y-87554819D01*
X192266667Y-87554819D02*
X192409524Y-87602438D01*
X192409524Y-87602438D02*
X192504762Y-87697676D01*
X192504762Y-87697676D02*
X192552381Y-87792914D01*
X192552381Y-87792914D02*
X192600000Y-87983390D01*
X192600000Y-87983390D02*
X192600000Y-88126247D01*
X192600000Y-88126247D02*
X192552381Y-88316723D01*
X192552381Y-88316723D02*
X192504762Y-88411961D01*
X192504762Y-88411961D02*
X192409524Y-88507200D01*
X192409524Y-88507200D02*
X192266667Y-88554819D01*
X192266667Y-88554819D02*
X192028572Y-88554819D01*
X193028572Y-88554819D02*
X193028572Y-87554819D01*
X189184819Y-112616666D02*
X188708628Y-112949999D01*
X189184819Y-113188094D02*
X188184819Y-113188094D01*
X188184819Y-113188094D02*
X188184819Y-112807142D01*
X188184819Y-112807142D02*
X188232438Y-112711904D01*
X188232438Y-112711904D02*
X188280057Y-112664285D01*
X188280057Y-112664285D02*
X188375295Y-112616666D01*
X188375295Y-112616666D02*
X188518152Y-112616666D01*
X188518152Y-112616666D02*
X188613390Y-112664285D01*
X188613390Y-112664285D02*
X188661009Y-112711904D01*
X188661009Y-112711904D02*
X188708628Y-112807142D01*
X188708628Y-112807142D02*
X188708628Y-113188094D01*
X188184819Y-112283332D02*
X188184819Y-111664285D01*
X188184819Y-111664285D02*
X188565771Y-111997618D01*
X188565771Y-111997618D02*
X188565771Y-111854761D01*
X188565771Y-111854761D02*
X188613390Y-111759523D01*
X188613390Y-111759523D02*
X188661009Y-111711904D01*
X188661009Y-111711904D02*
X188756247Y-111664285D01*
X188756247Y-111664285D02*
X188994342Y-111664285D01*
X188994342Y-111664285D02*
X189089580Y-111711904D01*
X189089580Y-111711904D02*
X189137200Y-111759523D01*
X189137200Y-111759523D02*
X189184819Y-111854761D01*
X189184819Y-111854761D02*
X189184819Y-112140475D01*
X189184819Y-112140475D02*
X189137200Y-112235713D01*
X189137200Y-112235713D02*
X189089580Y-112283332D01*
X170414286Y-103873866D02*
X171176191Y-103873866D01*
X170795238Y-104254819D02*
X170795238Y-103492914D01*
X172128571Y-103254819D02*
X171652381Y-103254819D01*
X171652381Y-103254819D02*
X171604762Y-103731009D01*
X171604762Y-103731009D02*
X171652381Y-103683390D01*
X171652381Y-103683390D02*
X171747619Y-103635771D01*
X171747619Y-103635771D02*
X171985714Y-103635771D01*
X171985714Y-103635771D02*
X172080952Y-103683390D01*
X172080952Y-103683390D02*
X172128571Y-103731009D01*
X172128571Y-103731009D02*
X172176190Y-103826247D01*
X172176190Y-103826247D02*
X172176190Y-104064342D01*
X172176190Y-104064342D02*
X172128571Y-104159580D01*
X172128571Y-104159580D02*
X172080952Y-104207200D01*
X172080952Y-104207200D02*
X171985714Y-104254819D01*
X171985714Y-104254819D02*
X171747619Y-104254819D01*
X171747619Y-104254819D02*
X171652381Y-104207200D01*
X171652381Y-104207200D02*
X171604762Y-104159580D01*
X172461905Y-103254819D02*
X172795238Y-104254819D01*
X172795238Y-104254819D02*
X173128571Y-103254819D01*
X170033333Y-123259580D02*
X169985714Y-123307200D01*
X169985714Y-123307200D02*
X169842857Y-123354819D01*
X169842857Y-123354819D02*
X169747619Y-123354819D01*
X169747619Y-123354819D02*
X169604762Y-123307200D01*
X169604762Y-123307200D02*
X169509524Y-123211961D01*
X169509524Y-123211961D02*
X169461905Y-123116723D01*
X169461905Y-123116723D02*
X169414286Y-122926247D01*
X169414286Y-122926247D02*
X169414286Y-122783390D01*
X169414286Y-122783390D02*
X169461905Y-122592914D01*
X169461905Y-122592914D02*
X169509524Y-122497676D01*
X169509524Y-122497676D02*
X169604762Y-122402438D01*
X169604762Y-122402438D02*
X169747619Y-122354819D01*
X169747619Y-122354819D02*
X169842857Y-122354819D01*
X169842857Y-122354819D02*
X169985714Y-122402438D01*
X169985714Y-122402438D02*
X170033333Y-122450057D01*
X170509524Y-123354819D02*
X170700000Y-123354819D01*
X170700000Y-123354819D02*
X170795238Y-123307200D01*
X170795238Y-123307200D02*
X170842857Y-123259580D01*
X170842857Y-123259580D02*
X170938095Y-123116723D01*
X170938095Y-123116723D02*
X170985714Y-122926247D01*
X170985714Y-122926247D02*
X170985714Y-122545295D01*
X170985714Y-122545295D02*
X170938095Y-122450057D01*
X170938095Y-122450057D02*
X170890476Y-122402438D01*
X170890476Y-122402438D02*
X170795238Y-122354819D01*
X170795238Y-122354819D02*
X170604762Y-122354819D01*
X170604762Y-122354819D02*
X170509524Y-122402438D01*
X170509524Y-122402438D02*
X170461905Y-122450057D01*
X170461905Y-122450057D02*
X170414286Y-122545295D01*
X170414286Y-122545295D02*
X170414286Y-122783390D01*
X170414286Y-122783390D02*
X170461905Y-122878628D01*
X170461905Y-122878628D02*
X170509524Y-122926247D01*
X170509524Y-122926247D02*
X170604762Y-122973866D01*
X170604762Y-122973866D02*
X170795238Y-122973866D01*
X170795238Y-122973866D02*
X170890476Y-122926247D01*
X170890476Y-122926247D02*
X170938095Y-122878628D01*
X170938095Y-122878628D02*
X170985714Y-122783390D01*
X161459580Y-126066666D02*
X161507200Y-126114285D01*
X161507200Y-126114285D02*
X161554819Y-126257142D01*
X161554819Y-126257142D02*
X161554819Y-126352380D01*
X161554819Y-126352380D02*
X161507200Y-126495237D01*
X161507200Y-126495237D02*
X161411961Y-126590475D01*
X161411961Y-126590475D02*
X161316723Y-126638094D01*
X161316723Y-126638094D02*
X161126247Y-126685713D01*
X161126247Y-126685713D02*
X160983390Y-126685713D01*
X160983390Y-126685713D02*
X160792914Y-126638094D01*
X160792914Y-126638094D02*
X160697676Y-126590475D01*
X160697676Y-126590475D02*
X160602438Y-126495237D01*
X160602438Y-126495237D02*
X160554819Y-126352380D01*
X160554819Y-126352380D02*
X160554819Y-126257142D01*
X160554819Y-126257142D02*
X160602438Y-126114285D01*
X160602438Y-126114285D02*
X160650057Y-126066666D01*
X160554819Y-125209523D02*
X160554819Y-125399999D01*
X160554819Y-125399999D02*
X160602438Y-125495237D01*
X160602438Y-125495237D02*
X160650057Y-125542856D01*
X160650057Y-125542856D02*
X160792914Y-125638094D01*
X160792914Y-125638094D02*
X160983390Y-125685713D01*
X160983390Y-125685713D02*
X161364342Y-125685713D01*
X161364342Y-125685713D02*
X161459580Y-125638094D01*
X161459580Y-125638094D02*
X161507200Y-125590475D01*
X161507200Y-125590475D02*
X161554819Y-125495237D01*
X161554819Y-125495237D02*
X161554819Y-125304761D01*
X161554819Y-125304761D02*
X161507200Y-125209523D01*
X161507200Y-125209523D02*
X161459580Y-125161904D01*
X161459580Y-125161904D02*
X161364342Y-125114285D01*
X161364342Y-125114285D02*
X161126247Y-125114285D01*
X161126247Y-125114285D02*
X161031009Y-125161904D01*
X161031009Y-125161904D02*
X160983390Y-125209523D01*
X160983390Y-125209523D02*
X160935771Y-125304761D01*
X160935771Y-125304761D02*
X160935771Y-125495237D01*
X160935771Y-125495237D02*
X160983390Y-125590475D01*
X160983390Y-125590475D02*
X161031009Y-125638094D01*
X161031009Y-125638094D02*
X161126247Y-125685713D01*
X179759580Y-114345267D02*
X179807200Y-114392886D01*
X179807200Y-114392886D02*
X179854819Y-114535743D01*
X179854819Y-114535743D02*
X179854819Y-114630981D01*
X179854819Y-114630981D02*
X179807200Y-114773838D01*
X179807200Y-114773838D02*
X179711961Y-114869076D01*
X179711961Y-114869076D02*
X179616723Y-114916695D01*
X179616723Y-114916695D02*
X179426247Y-114964314D01*
X179426247Y-114964314D02*
X179283390Y-114964314D01*
X179283390Y-114964314D02*
X179092914Y-114916695D01*
X179092914Y-114916695D02*
X178997676Y-114869076D01*
X178997676Y-114869076D02*
X178902438Y-114773838D01*
X178902438Y-114773838D02*
X178854819Y-114630981D01*
X178854819Y-114630981D02*
X178854819Y-114535743D01*
X178854819Y-114535743D02*
X178902438Y-114392886D01*
X178902438Y-114392886D02*
X178950057Y-114345267D01*
X178950057Y-113964314D02*
X178902438Y-113916695D01*
X178902438Y-113916695D02*
X178854819Y-113821457D01*
X178854819Y-113821457D02*
X178854819Y-113583362D01*
X178854819Y-113583362D02*
X178902438Y-113488124D01*
X178902438Y-113488124D02*
X178950057Y-113440505D01*
X178950057Y-113440505D02*
X179045295Y-113392886D01*
X179045295Y-113392886D02*
X179140533Y-113392886D01*
X179140533Y-113392886D02*
X179283390Y-113440505D01*
X179283390Y-113440505D02*
X179854819Y-114011933D01*
X179854819Y-114011933D02*
X179854819Y-113392886D01*
X192059580Y-128742857D02*
X192107200Y-128790476D01*
X192107200Y-128790476D02*
X192154819Y-128933333D01*
X192154819Y-128933333D02*
X192154819Y-129028571D01*
X192154819Y-129028571D02*
X192107200Y-129171428D01*
X192107200Y-129171428D02*
X192011961Y-129266666D01*
X192011961Y-129266666D02*
X191916723Y-129314285D01*
X191916723Y-129314285D02*
X191726247Y-129361904D01*
X191726247Y-129361904D02*
X191583390Y-129361904D01*
X191583390Y-129361904D02*
X191392914Y-129314285D01*
X191392914Y-129314285D02*
X191297676Y-129266666D01*
X191297676Y-129266666D02*
X191202438Y-129171428D01*
X191202438Y-129171428D02*
X191154819Y-129028571D01*
X191154819Y-129028571D02*
X191154819Y-128933333D01*
X191154819Y-128933333D02*
X191202438Y-128790476D01*
X191202438Y-128790476D02*
X191250057Y-128742857D01*
X192154819Y-127790476D02*
X192154819Y-128361904D01*
X192154819Y-128076190D02*
X191154819Y-128076190D01*
X191154819Y-128076190D02*
X191297676Y-128171428D01*
X191297676Y-128171428D02*
X191392914Y-128266666D01*
X191392914Y-128266666D02*
X191440533Y-128361904D01*
X191154819Y-126885714D02*
X191154819Y-127361904D01*
X191154819Y-127361904D02*
X191631009Y-127409523D01*
X191631009Y-127409523D02*
X191583390Y-127361904D01*
X191583390Y-127361904D02*
X191535771Y-127266666D01*
X191535771Y-127266666D02*
X191535771Y-127028571D01*
X191535771Y-127028571D02*
X191583390Y-126933333D01*
X191583390Y-126933333D02*
X191631009Y-126885714D01*
X191631009Y-126885714D02*
X191726247Y-126838095D01*
X191726247Y-126838095D02*
X191964342Y-126838095D01*
X191964342Y-126838095D02*
X192059580Y-126885714D01*
X192059580Y-126885714D02*
X192107200Y-126933333D01*
X192107200Y-126933333D02*
X192154819Y-127028571D01*
X192154819Y-127028571D02*
X192154819Y-127266666D01*
X192154819Y-127266666D02*
X192107200Y-127361904D01*
X192107200Y-127361904D02*
X192059580Y-127409523D01*
X181550979Y-119345267D02*
X181598599Y-119392886D01*
X181598599Y-119392886D02*
X181646218Y-119535743D01*
X181646218Y-119535743D02*
X181646218Y-119630981D01*
X181646218Y-119630981D02*
X181598599Y-119773838D01*
X181598599Y-119773838D02*
X181503360Y-119869076D01*
X181503360Y-119869076D02*
X181408122Y-119916695D01*
X181408122Y-119916695D02*
X181217646Y-119964314D01*
X181217646Y-119964314D02*
X181074789Y-119964314D01*
X181074789Y-119964314D02*
X180884313Y-119916695D01*
X180884313Y-119916695D02*
X180789075Y-119869076D01*
X180789075Y-119869076D02*
X180693837Y-119773838D01*
X180693837Y-119773838D02*
X180646218Y-119630981D01*
X180646218Y-119630981D02*
X180646218Y-119535743D01*
X180646218Y-119535743D02*
X180693837Y-119392886D01*
X180693837Y-119392886D02*
X180741456Y-119345267D01*
X180646218Y-118440505D02*
X180646218Y-118916695D01*
X180646218Y-118916695D02*
X181122408Y-118964314D01*
X181122408Y-118964314D02*
X181074789Y-118916695D01*
X181074789Y-118916695D02*
X181027170Y-118821457D01*
X181027170Y-118821457D02*
X181027170Y-118583362D01*
X181027170Y-118583362D02*
X181074789Y-118488124D01*
X181074789Y-118488124D02*
X181122408Y-118440505D01*
X181122408Y-118440505D02*
X181217646Y-118392886D01*
X181217646Y-118392886D02*
X181455741Y-118392886D01*
X181455741Y-118392886D02*
X181550979Y-118440505D01*
X181550979Y-118440505D02*
X181598599Y-118488124D01*
X181598599Y-118488124D02*
X181646218Y-118583362D01*
X181646218Y-118583362D02*
X181646218Y-118821457D01*
X181646218Y-118821457D02*
X181598599Y-118916695D01*
X181598599Y-118916695D02*
X181550979Y-118964314D01*
X162333333Y-88554819D02*
X162000000Y-88078628D01*
X161761905Y-88554819D02*
X161761905Y-87554819D01*
X161761905Y-87554819D02*
X162142857Y-87554819D01*
X162142857Y-87554819D02*
X162238095Y-87602438D01*
X162238095Y-87602438D02*
X162285714Y-87650057D01*
X162285714Y-87650057D02*
X162333333Y-87745295D01*
X162333333Y-87745295D02*
X162333333Y-87888152D01*
X162333333Y-87888152D02*
X162285714Y-87983390D01*
X162285714Y-87983390D02*
X162238095Y-88031009D01*
X162238095Y-88031009D02*
X162142857Y-88078628D01*
X162142857Y-88078628D02*
X161761905Y-88078628D01*
X163333333Y-88459580D02*
X163285714Y-88507200D01*
X163285714Y-88507200D02*
X163142857Y-88554819D01*
X163142857Y-88554819D02*
X163047619Y-88554819D01*
X163047619Y-88554819D02*
X162904762Y-88507200D01*
X162904762Y-88507200D02*
X162809524Y-88411961D01*
X162809524Y-88411961D02*
X162761905Y-88316723D01*
X162761905Y-88316723D02*
X162714286Y-88126247D01*
X162714286Y-88126247D02*
X162714286Y-87983390D01*
X162714286Y-87983390D02*
X162761905Y-87792914D01*
X162761905Y-87792914D02*
X162809524Y-87697676D01*
X162809524Y-87697676D02*
X162904762Y-87602438D01*
X162904762Y-87602438D02*
X163047619Y-87554819D01*
X163047619Y-87554819D02*
X163142857Y-87554819D01*
X163142857Y-87554819D02*
X163285714Y-87602438D01*
X163285714Y-87602438D02*
X163333333Y-87650057D01*
X163952381Y-87554819D02*
X164047619Y-87554819D01*
X164047619Y-87554819D02*
X164142857Y-87602438D01*
X164142857Y-87602438D02*
X164190476Y-87650057D01*
X164190476Y-87650057D02*
X164238095Y-87745295D01*
X164238095Y-87745295D02*
X164285714Y-87935771D01*
X164285714Y-87935771D02*
X164285714Y-88173866D01*
X164285714Y-88173866D02*
X164238095Y-88364342D01*
X164238095Y-88364342D02*
X164190476Y-88459580D01*
X164190476Y-88459580D02*
X164142857Y-88507200D01*
X164142857Y-88507200D02*
X164047619Y-88554819D01*
X164047619Y-88554819D02*
X163952381Y-88554819D01*
X163952381Y-88554819D02*
X163857143Y-88507200D01*
X163857143Y-88507200D02*
X163809524Y-88459580D01*
X163809524Y-88459580D02*
X163761905Y-88364342D01*
X163761905Y-88364342D02*
X163714286Y-88173866D01*
X163714286Y-88173866D02*
X163714286Y-87935771D01*
X163714286Y-87935771D02*
X163761905Y-87745295D01*
X163761905Y-87745295D02*
X163809524Y-87650057D01*
X163809524Y-87650057D02*
X163857143Y-87602438D01*
X163857143Y-87602438D02*
X163952381Y-87554819D01*
D14*
X179811934Y-134778818D02*
X179335744Y-134778818D01*
X179335744Y-134778818D02*
X179335744Y-133778818D01*
X180669077Y-134778818D02*
X180097649Y-134778818D01*
X180383363Y-134778818D02*
X180383363Y-133778818D01*
X180383363Y-133778818D02*
X180288125Y-133921675D01*
X180288125Y-133921675D02*
X180192887Y-134016913D01*
X180192887Y-134016913D02*
X180097649Y-134064532D01*
D10*
X170057142Y-119254819D02*
X169723809Y-118778628D01*
X169485714Y-119254819D02*
X169485714Y-118254819D01*
X169485714Y-118254819D02*
X169866666Y-118254819D01*
X169866666Y-118254819D02*
X169961904Y-118302438D01*
X169961904Y-118302438D02*
X170009523Y-118350057D01*
X170009523Y-118350057D02*
X170057142Y-118445295D01*
X170057142Y-118445295D02*
X170057142Y-118588152D01*
X170057142Y-118588152D02*
X170009523Y-118683390D01*
X170009523Y-118683390D02*
X169961904Y-118731009D01*
X169961904Y-118731009D02*
X169866666Y-118778628D01*
X169866666Y-118778628D02*
X169485714Y-118778628D01*
X171009523Y-119254819D02*
X170438095Y-119254819D01*
X170723809Y-119254819D02*
X170723809Y-118254819D01*
X170723809Y-118254819D02*
X170628571Y-118397676D01*
X170628571Y-118397676D02*
X170533333Y-118492914D01*
X170533333Y-118492914D02*
X170438095Y-118540533D01*
X171390476Y-118350057D02*
X171438095Y-118302438D01*
X171438095Y-118302438D02*
X171533333Y-118254819D01*
X171533333Y-118254819D02*
X171771428Y-118254819D01*
X171771428Y-118254819D02*
X171866666Y-118302438D01*
X171866666Y-118302438D02*
X171914285Y-118350057D01*
X171914285Y-118350057D02*
X171961904Y-118445295D01*
X171961904Y-118445295D02*
X171961904Y-118540533D01*
X171961904Y-118540533D02*
X171914285Y-118683390D01*
X171914285Y-118683390D02*
X171342857Y-119254819D01*
X171342857Y-119254819D02*
X171961904Y-119254819D01*
X161134465Y-121909610D02*
X160801132Y-121909610D01*
X160801132Y-122433420D02*
X160801132Y-121433420D01*
X160801132Y-121433420D02*
X161277322Y-121433420D01*
X161991608Y-121909610D02*
X162134465Y-121957229D01*
X162134465Y-121957229D02*
X162182084Y-122004848D01*
X162182084Y-122004848D02*
X162229703Y-122100086D01*
X162229703Y-122100086D02*
X162229703Y-122242943D01*
X162229703Y-122242943D02*
X162182084Y-122338181D01*
X162182084Y-122338181D02*
X162134465Y-122385801D01*
X162134465Y-122385801D02*
X162039227Y-122433420D01*
X162039227Y-122433420D02*
X161658275Y-122433420D01*
X161658275Y-122433420D02*
X161658275Y-121433420D01*
X161658275Y-121433420D02*
X161991608Y-121433420D01*
X161991608Y-121433420D02*
X162086846Y-121481039D01*
X162086846Y-121481039D02*
X162134465Y-121528658D01*
X162134465Y-121528658D02*
X162182084Y-121623896D01*
X162182084Y-121623896D02*
X162182084Y-121719134D01*
X162182084Y-121719134D02*
X162134465Y-121814372D01*
X162134465Y-121814372D02*
X162086846Y-121861991D01*
X162086846Y-121861991D02*
X161991608Y-121909610D01*
X161991608Y-121909610D02*
X161658275Y-121909610D01*
X163182084Y-122433420D02*
X162610656Y-122433420D01*
X162896370Y-122433420D02*
X162896370Y-121433420D01*
X162896370Y-121433420D02*
X162801132Y-121576277D01*
X162801132Y-121576277D02*
X162705894Y-121671515D01*
X162705894Y-121671515D02*
X162610656Y-121719134D01*
X166357142Y-117854819D02*
X166023809Y-117378628D01*
X165785714Y-117854819D02*
X165785714Y-116854819D01*
X165785714Y-116854819D02*
X166166666Y-116854819D01*
X166166666Y-116854819D02*
X166261904Y-116902438D01*
X166261904Y-116902438D02*
X166309523Y-116950057D01*
X166309523Y-116950057D02*
X166357142Y-117045295D01*
X166357142Y-117045295D02*
X166357142Y-117188152D01*
X166357142Y-117188152D02*
X166309523Y-117283390D01*
X166309523Y-117283390D02*
X166261904Y-117331009D01*
X166261904Y-117331009D02*
X166166666Y-117378628D01*
X166166666Y-117378628D02*
X165785714Y-117378628D01*
X167309523Y-117854819D02*
X166738095Y-117854819D01*
X167023809Y-117854819D02*
X167023809Y-116854819D01*
X167023809Y-116854819D02*
X166928571Y-116997676D01*
X166928571Y-116997676D02*
X166833333Y-117092914D01*
X166833333Y-117092914D02*
X166738095Y-117140533D01*
X167928571Y-116854819D02*
X168023809Y-116854819D01*
X168023809Y-116854819D02*
X168119047Y-116902438D01*
X168119047Y-116902438D02*
X168166666Y-116950057D01*
X168166666Y-116950057D02*
X168214285Y-117045295D01*
X168214285Y-117045295D02*
X168261904Y-117235771D01*
X168261904Y-117235771D02*
X168261904Y-117473866D01*
X168261904Y-117473866D02*
X168214285Y-117664342D01*
X168214285Y-117664342D02*
X168166666Y-117759580D01*
X168166666Y-117759580D02*
X168119047Y-117807200D01*
X168119047Y-117807200D02*
X168023809Y-117854819D01*
X168023809Y-117854819D02*
X167928571Y-117854819D01*
X167928571Y-117854819D02*
X167833333Y-117807200D01*
X167833333Y-117807200D02*
X167785714Y-117759580D01*
X167785714Y-117759580D02*
X167738095Y-117664342D01*
X167738095Y-117664342D02*
X167690476Y-117473866D01*
X167690476Y-117473866D02*
X167690476Y-117235771D01*
X167690476Y-117235771D02*
X167738095Y-117045295D01*
X167738095Y-117045295D02*
X167785714Y-116950057D01*
X167785714Y-116950057D02*
X167833333Y-116902438D01*
X167833333Y-116902438D02*
X167928571Y-116854819D01*
X187654819Y-116566666D02*
X187178628Y-116899999D01*
X187654819Y-117138094D02*
X186654819Y-117138094D01*
X186654819Y-117138094D02*
X186654819Y-116757142D01*
X186654819Y-116757142D02*
X186702438Y-116661904D01*
X186702438Y-116661904D02*
X186750057Y-116614285D01*
X186750057Y-116614285D02*
X186845295Y-116566666D01*
X186845295Y-116566666D02*
X186988152Y-116566666D01*
X186988152Y-116566666D02*
X187083390Y-116614285D01*
X187083390Y-116614285D02*
X187131009Y-116661904D01*
X187131009Y-116661904D02*
X187178628Y-116757142D01*
X187178628Y-116757142D02*
X187178628Y-117138094D01*
X186750057Y-116185713D02*
X186702438Y-116138094D01*
X186702438Y-116138094D02*
X186654819Y-116042856D01*
X186654819Y-116042856D02*
X186654819Y-115804761D01*
X186654819Y-115804761D02*
X186702438Y-115709523D01*
X186702438Y-115709523D02*
X186750057Y-115661904D01*
X186750057Y-115661904D02*
X186845295Y-115614285D01*
X186845295Y-115614285D02*
X186940533Y-115614285D01*
X186940533Y-115614285D02*
X187083390Y-115661904D01*
X187083390Y-115661904D02*
X187654819Y-116233332D01*
X187654819Y-116233332D02*
X187654819Y-115614285D01*
X156304762Y-125454819D02*
X156638095Y-126454819D01*
X156638095Y-126454819D02*
X156971428Y-125454819D01*
X157304762Y-126454819D02*
X157304762Y-125454819D01*
X157780952Y-126454819D02*
X157780952Y-125454819D01*
X157780952Y-125454819D02*
X158352380Y-126454819D01*
X158352380Y-126454819D02*
X158352380Y-125454819D01*
X165795238Y-88654819D02*
X165795238Y-87654819D01*
X165795238Y-87654819D02*
X166176190Y-87654819D01*
X166176190Y-87654819D02*
X166271428Y-87702438D01*
X166271428Y-87702438D02*
X166319047Y-87750057D01*
X166319047Y-87750057D02*
X166366666Y-87845295D01*
X166366666Y-87845295D02*
X166366666Y-87988152D01*
X166366666Y-87988152D02*
X166319047Y-88083390D01*
X166319047Y-88083390D02*
X166271428Y-88131009D01*
X166271428Y-88131009D02*
X166176190Y-88178628D01*
X166176190Y-88178628D02*
X165795238Y-88178628D01*
X166700000Y-87654819D02*
X166938095Y-88654819D01*
X166938095Y-88654819D02*
X167128571Y-87940533D01*
X167128571Y-87940533D02*
X167319047Y-88654819D01*
X167319047Y-88654819D02*
X167557143Y-87654819D01*
X167938095Y-88654819D02*
X167938095Y-87654819D01*
X167938095Y-87654819D02*
X168271428Y-88369104D01*
X168271428Y-88369104D02*
X168604761Y-87654819D01*
X168604761Y-87654819D02*
X168604761Y-88654819D01*
X178657142Y-126159580D02*
X178609523Y-126207200D01*
X178609523Y-126207200D02*
X178466666Y-126254819D01*
X178466666Y-126254819D02*
X178371428Y-126254819D01*
X178371428Y-126254819D02*
X178228571Y-126207200D01*
X178228571Y-126207200D02*
X178133333Y-126111961D01*
X178133333Y-126111961D02*
X178085714Y-126016723D01*
X178085714Y-126016723D02*
X178038095Y-125826247D01*
X178038095Y-125826247D02*
X178038095Y-125683390D01*
X178038095Y-125683390D02*
X178085714Y-125492914D01*
X178085714Y-125492914D02*
X178133333Y-125397676D01*
X178133333Y-125397676D02*
X178228571Y-125302438D01*
X178228571Y-125302438D02*
X178371428Y-125254819D01*
X178371428Y-125254819D02*
X178466666Y-125254819D01*
X178466666Y-125254819D02*
X178609523Y-125302438D01*
X178609523Y-125302438D02*
X178657142Y-125350057D01*
X179609523Y-126254819D02*
X179038095Y-126254819D01*
X179323809Y-126254819D02*
X179323809Y-125254819D01*
X179323809Y-125254819D02*
X179228571Y-125397676D01*
X179228571Y-125397676D02*
X179133333Y-125492914D01*
X179133333Y-125492914D02*
X179038095Y-125540533D01*
X179942857Y-125254819D02*
X180561904Y-125254819D01*
X180561904Y-125254819D02*
X180228571Y-125635771D01*
X180228571Y-125635771D02*
X180371428Y-125635771D01*
X180371428Y-125635771D02*
X180466666Y-125683390D01*
X180466666Y-125683390D02*
X180514285Y-125731009D01*
X180514285Y-125731009D02*
X180561904Y-125826247D01*
X180561904Y-125826247D02*
X180561904Y-126064342D01*
X180561904Y-126064342D02*
X180514285Y-126159580D01*
X180514285Y-126159580D02*
X180466666Y-126207200D01*
X180466666Y-126207200D02*
X180371428Y-126254819D01*
X180371428Y-126254819D02*
X180085714Y-126254819D01*
X180085714Y-126254819D02*
X179990476Y-126207200D01*
X179990476Y-126207200D02*
X179942857Y-126159580D01*
X183054819Y-116826666D02*
X182578628Y-117159999D01*
X183054819Y-117398094D02*
X182054819Y-117398094D01*
X182054819Y-117398094D02*
X182054819Y-117017142D01*
X182054819Y-117017142D02*
X182102438Y-116921904D01*
X182102438Y-116921904D02*
X182150057Y-116874285D01*
X182150057Y-116874285D02*
X182245295Y-116826666D01*
X182245295Y-116826666D02*
X182388152Y-116826666D01*
X182388152Y-116826666D02*
X182483390Y-116874285D01*
X182483390Y-116874285D02*
X182531009Y-116921904D01*
X182531009Y-116921904D02*
X182578628Y-117017142D01*
X182578628Y-117017142D02*
X182578628Y-117398094D01*
X182054819Y-115969523D02*
X182054819Y-116159999D01*
X182054819Y-116159999D02*
X182102438Y-116255237D01*
X182102438Y-116255237D02*
X182150057Y-116302856D01*
X182150057Y-116302856D02*
X182292914Y-116398094D01*
X182292914Y-116398094D02*
X182483390Y-116445713D01*
X182483390Y-116445713D02*
X182864342Y-116445713D01*
X182864342Y-116445713D02*
X182959580Y-116398094D01*
X182959580Y-116398094D02*
X183007200Y-116350475D01*
X183007200Y-116350475D02*
X183054819Y-116255237D01*
X183054819Y-116255237D02*
X183054819Y-116064761D01*
X183054819Y-116064761D02*
X183007200Y-115969523D01*
X183007200Y-115969523D02*
X182959580Y-115921904D01*
X182959580Y-115921904D02*
X182864342Y-115874285D01*
X182864342Y-115874285D02*
X182626247Y-115874285D01*
X182626247Y-115874285D02*
X182531009Y-115921904D01*
X182531009Y-115921904D02*
X182483390Y-115969523D01*
X182483390Y-115969523D02*
X182435771Y-116064761D01*
X182435771Y-116064761D02*
X182435771Y-116255237D01*
X182435771Y-116255237D02*
X182483390Y-116350475D01*
X182483390Y-116350475D02*
X182531009Y-116398094D01*
X182531009Y-116398094D02*
X182626247Y-116445713D01*
X162287142Y-101024819D02*
X161953809Y-100548628D01*
X161715714Y-101024819D02*
X161715714Y-100024819D01*
X161715714Y-100024819D02*
X162096666Y-100024819D01*
X162096666Y-100024819D02*
X162191904Y-100072438D01*
X162191904Y-100072438D02*
X162239523Y-100120057D01*
X162239523Y-100120057D02*
X162287142Y-100215295D01*
X162287142Y-100215295D02*
X162287142Y-100358152D01*
X162287142Y-100358152D02*
X162239523Y-100453390D01*
X162239523Y-100453390D02*
X162191904Y-100501009D01*
X162191904Y-100501009D02*
X162096666Y-100548628D01*
X162096666Y-100548628D02*
X161715714Y-100548628D01*
X163239523Y-101024819D02*
X162668095Y-101024819D01*
X162953809Y-101024819D02*
X162953809Y-100024819D01*
X162953809Y-100024819D02*
X162858571Y-100167676D01*
X162858571Y-100167676D02*
X162763333Y-100262914D01*
X162763333Y-100262914D02*
X162668095Y-100310533D01*
X163810952Y-100453390D02*
X163715714Y-100405771D01*
X163715714Y-100405771D02*
X163668095Y-100358152D01*
X163668095Y-100358152D02*
X163620476Y-100262914D01*
X163620476Y-100262914D02*
X163620476Y-100215295D01*
X163620476Y-100215295D02*
X163668095Y-100120057D01*
X163668095Y-100120057D02*
X163715714Y-100072438D01*
X163715714Y-100072438D02*
X163810952Y-100024819D01*
X163810952Y-100024819D02*
X164001428Y-100024819D01*
X164001428Y-100024819D02*
X164096666Y-100072438D01*
X164096666Y-100072438D02*
X164144285Y-100120057D01*
X164144285Y-100120057D02*
X164191904Y-100215295D01*
X164191904Y-100215295D02*
X164191904Y-100262914D01*
X164191904Y-100262914D02*
X164144285Y-100358152D01*
X164144285Y-100358152D02*
X164096666Y-100405771D01*
X164096666Y-100405771D02*
X164001428Y-100453390D01*
X164001428Y-100453390D02*
X163810952Y-100453390D01*
X163810952Y-100453390D02*
X163715714Y-100501009D01*
X163715714Y-100501009D02*
X163668095Y-100548628D01*
X163668095Y-100548628D02*
X163620476Y-100643866D01*
X163620476Y-100643866D02*
X163620476Y-100834342D01*
X163620476Y-100834342D02*
X163668095Y-100929580D01*
X163668095Y-100929580D02*
X163715714Y-100977200D01*
X163715714Y-100977200D02*
X163810952Y-101024819D01*
X163810952Y-101024819D02*
X164001428Y-101024819D01*
X164001428Y-101024819D02*
X164096666Y-100977200D01*
X164096666Y-100977200D02*
X164144285Y-100929580D01*
X164144285Y-100929580D02*
X164191904Y-100834342D01*
X164191904Y-100834342D02*
X164191904Y-100643866D01*
X164191904Y-100643866D02*
X164144285Y-100548628D01*
X164144285Y-100548628D02*
X164096666Y-100501009D01*
X164096666Y-100501009D02*
X164001428Y-100453390D01*
D15*
%TO.C,J1*%
X151100000Y-88370000D02*
X152430000Y-88370000D01*
X151100000Y-89700000D02*
X151100000Y-88370000D01*
X151100000Y-90970000D02*
X151100000Y-101190000D01*
X151100000Y-90970000D02*
X153760000Y-90970000D01*
X151100000Y-101190000D02*
X153760000Y-101190000D01*
X153760000Y-90970000D02*
X153760000Y-101190000D01*
%TO.C,R17*%
X160202379Y-98900000D02*
X160537621Y-98900000D01*
X160202379Y-99660000D02*
X160537621Y-99660000D01*
%TO.C,TP5*%
X192200000Y-94900000D02*
G75*
G03*
X192200000Y-94900000I-1500000J0D01*
G01*
%TO.C,R8*%
X177580000Y-114432379D02*
X177580000Y-114767621D01*
X176820000Y-114432379D02*
X176820000Y-114767621D01*
%TO.C,C11*%
X186111399Y-124889853D02*
X186111399Y-123467349D01*
X187931399Y-124889853D02*
X187931399Y-123467349D01*
%TO.C,C10*%
X184111399Y-110524868D02*
X184111399Y-110232334D01*
X185131399Y-110524868D02*
X185131399Y-110232334D01*
%TO.C,C18*%
X184710000Y-92715835D02*
X184710000Y-92484165D01*
X185430000Y-92715835D02*
X185430000Y-92484165D01*
%TO.C,TP12*%
X193700000Y-101500000D02*
G75*
G03*
X193700000Y-101500000I-1500000J0D01*
G01*
%TO.C,R1*%
X186841399Y-110746222D02*
X186841399Y-110410980D01*
X187601399Y-110746222D02*
X187601399Y-110410980D01*
%TO.C,SW1*%
X195145000Y-97740000D02*
X202885000Y-97740000D01*
X202885000Y-97740000D02*
X202885000Y-92440000D01*
X195145000Y-96090000D02*
X195145000Y-97740000D01*
X195145000Y-92440000D02*
X195145000Y-94090000D01*
X202885000Y-92440000D02*
X195145000Y-92440000D01*
X195145000Y-96090000D02*
G75*
G03*
X195145000Y-94090000I0J1000000D01*
G01*
%TO.C,TP2*%
X164400000Y-95600000D02*
G75*
G03*
X164400000Y-95600000I-1500000J0D01*
G01*
%TO.C,C3*%
X172086399Y-114239853D02*
X172086399Y-113717349D01*
X173556399Y-114239853D02*
X173556399Y-113717349D01*
%TO.C,R20*%
X160397621Y-104080000D02*
X160062379Y-104080000D01*
X160397621Y-103320000D02*
X160062379Y-103320000D01*
%TO.C,J2*%
X174375000Y-83630000D02*
X174375000Y-82300000D01*
X175705000Y-83630000D02*
X174375000Y-83630000D01*
X176975000Y-83630000D02*
X182115000Y-83630000D01*
X176975000Y-83630000D02*
X176975000Y-80970000D01*
X182115000Y-83630000D02*
X182115000Y-80970000D01*
X176975000Y-80970000D02*
X182115000Y-80970000D01*
%TO.C,TP4*%
X160300000Y-95600000D02*
G75*
G03*
X160300000Y-95600000I-1500000J0D01*
G01*
%TO.C,R19*%
X160062379Y-102220000D02*
X160397621Y-102220000D01*
X160062379Y-102980000D02*
X160397621Y-102980000D01*
%TO.C,R16*%
X170832379Y-84490000D02*
X171167621Y-84490000D01*
X170832379Y-85250000D02*
X171167621Y-85250000D01*
%TO.C,R4*%
X189001399Y-114213480D02*
X189001399Y-114548722D01*
X188241399Y-114213480D02*
X188241399Y-114548722D01*
%TO.C,G\u002A\u002A\u002A*%
G36*
X155384136Y-89639685D02*
G01*
X155384136Y-90640100D01*
X155369134Y-90630716D01*
X155364355Y-90627893D01*
X155352948Y-90621249D01*
X155335217Y-90610959D01*
X155311466Y-90597197D01*
X155281998Y-90580141D01*
X155247118Y-90559965D01*
X155207128Y-90536844D01*
X155162332Y-90510954D01*
X155113034Y-90482470D01*
X155059537Y-90451569D01*
X155002146Y-90418424D01*
X154941163Y-90383211D01*
X154876893Y-90346107D01*
X154809638Y-90307286D01*
X154739703Y-90266923D01*
X154667391Y-90225195D01*
X154593006Y-90182276D01*
X154516852Y-90138342D01*
X154505998Y-90132081D01*
X154429790Y-90088116D01*
X154355400Y-90045193D01*
X154283125Y-90003483D01*
X154213264Y-89963160D01*
X154146113Y-89924394D01*
X154081971Y-89887358D01*
X154021136Y-89852224D01*
X153963906Y-89819164D01*
X153910577Y-89788350D01*
X153861449Y-89759955D01*
X153816819Y-89734151D01*
X153776985Y-89711109D01*
X153742244Y-89691001D01*
X153712895Y-89674001D01*
X153689235Y-89660279D01*
X153671562Y-89650009D01*
X153660174Y-89643361D01*
X153655368Y-89640509D01*
X153655227Y-89640414D01*
X153658404Y-89638226D01*
X153668217Y-89632217D01*
X153684370Y-89622559D01*
X153706567Y-89609424D01*
X153734510Y-89592986D01*
X153767904Y-89573416D01*
X153806451Y-89550888D01*
X153849855Y-89525574D01*
X153897821Y-89497645D01*
X153950051Y-89467276D01*
X154006248Y-89434638D01*
X154066117Y-89399903D01*
X154129360Y-89363245D01*
X154195682Y-89324835D01*
X154264786Y-89284847D01*
X154336374Y-89243453D01*
X154410152Y-89200825D01*
X154485822Y-89157136D01*
X154494722Y-89152000D01*
X154570942Y-89108013D01*
X154645500Y-89064989D01*
X154718087Y-89023104D01*
X154788393Y-88982537D01*
X154856111Y-88943466D01*
X154920931Y-88906069D01*
X154982545Y-88870524D01*
X155040643Y-88837010D01*
X155094917Y-88805704D01*
X155145059Y-88776784D01*
X155190759Y-88750429D01*
X155231708Y-88726817D01*
X155267599Y-88706125D01*
X155298122Y-88688532D01*
X155322968Y-88674217D01*
X155341829Y-88663356D01*
X155354395Y-88656128D01*
X155360359Y-88652712D01*
X155360495Y-88652635D01*
X155384136Y-88639271D01*
X155384136Y-89639685D01*
G37*
%TO.C,C19*%
X183615835Y-103060000D02*
X183384165Y-103060000D01*
X183615835Y-102340000D02*
X183384165Y-102340000D01*
%TO.C,R13*%
X185143899Y-118923877D02*
X185143899Y-119433325D01*
X184098899Y-118923877D02*
X184098899Y-119433325D01*
%TO.C,R14*%
X172794335Y-131243601D02*
X173248463Y-131243601D01*
X172794335Y-132713601D02*
X173248463Y-132713601D01*
%TO.C,TP7*%
X169100000Y-105900000D02*
G75*
G03*
X169100000Y-105900000I-1500000J0D01*
G01*
%TO.C,C8*%
X168381399Y-125267349D02*
X168381399Y-126689853D01*
X165661399Y-125267349D02*
X165661399Y-126689853D01*
D16*
%TO.C,U3*%
X176179100Y-107228900D02*
X180420900Y-107228900D01*
X180420900Y-101971100D02*
X176179100Y-101971100D01*
D15*
%TO.C,C16*%
X169167666Y-132488601D02*
X168875132Y-132488601D01*
X169167666Y-131468601D02*
X168875132Y-131468601D01*
%TO.C,C12*%
X183511399Y-124852353D02*
X183511399Y-123429849D01*
X185331399Y-124852353D02*
X185331399Y-123429849D01*
%TO.C,C14*%
X188686399Y-125039853D02*
X188686399Y-124517349D01*
X190156399Y-125039853D02*
X190156399Y-124517349D01*
%TO.C,R7*%
X171143899Y-113923877D02*
X171143899Y-114433325D01*
X170098899Y-113923877D02*
X170098899Y-114433325D01*
%TO.C,R15*%
X185143899Y-113923877D02*
X185143899Y-114433325D01*
X184098899Y-113923877D02*
X184098899Y-114433325D01*
%TO.C,C4*%
X167767666Y-120163600D02*
X167475132Y-120163600D01*
X167767666Y-119143600D02*
X167475132Y-119143600D01*
%TO.C,C1*%
X174511399Y-114324868D02*
X174511399Y-114032334D01*
X175531399Y-114324868D02*
X175531399Y-114032334D01*
%TO.C,R9*%
X181143899Y-109923877D02*
X181143899Y-110433325D01*
X180098899Y-109923877D02*
X180098899Y-110433325D01*
D16*
%TO.C,U1*%
X174627800Y-88247800D02*
X174627800Y-88657560D01*
X174627800Y-95102440D02*
X174627800Y-95512200D01*
X174627800Y-95512200D02*
X175037560Y-95512200D01*
X175037560Y-88247800D02*
X174627800Y-88247800D01*
X181482440Y-95512200D02*
X181892200Y-95512200D01*
X181892200Y-88247800D02*
X181482440Y-88247800D01*
X181892200Y-88657560D02*
X181892200Y-88247800D01*
X181892200Y-95512200D02*
X181892200Y-95102440D01*
G36*
X173154600Y-93820499D02*
G01*
X172900600Y-93820499D01*
X172900600Y-93439499D01*
X173154600Y-93439499D01*
X173154600Y-93820499D01*
G37*
G36*
X179200501Y-97239400D02*
G01*
X178819501Y-97239400D01*
X178819501Y-96985400D01*
X179200501Y-96985400D01*
X179200501Y-97239400D01*
G37*
G36*
X179700500Y-86774600D02*
G01*
X179319500Y-86774600D01*
X179319500Y-86520600D01*
X179700500Y-86520600D01*
X179700500Y-86774600D01*
G37*
G36*
X183619400Y-92320500D02*
G01*
X183365400Y-92320500D01*
X183365400Y-91939499D01*
X183619400Y-91939499D01*
X183619400Y-92320500D01*
G37*
D15*
%TO.C,TP11*%
X154400000Y-123700000D02*
G75*
G03*
X154400000Y-123700000I-1500000J0D01*
G01*
D16*
%TO.C,U2*%
X173350799Y-117329400D02*
X173350799Y-117718861D01*
X173740260Y-117329400D02*
X173350799Y-117329400D01*
X179599199Y-117329400D02*
X179209738Y-117329400D01*
X179599199Y-117718861D02*
X179599199Y-117329400D01*
G36*
X175040498Y-124263600D02*
G01*
X174659498Y-124263600D01*
X174659498Y-124009600D01*
X175040498Y-124009600D01*
X175040498Y-124263600D01*
G37*
G36*
X175690500Y-116897600D02*
G01*
X175309500Y-116897600D01*
X175309500Y-116643600D01*
X175690500Y-116643600D01*
X175690500Y-116897600D01*
G37*
G36*
X180284999Y-120969101D02*
G01*
X180030999Y-120969101D01*
X180030999Y-120588101D01*
X180284999Y-120588101D01*
X180284999Y-120969101D01*
G37*
D15*
%TO.C,C17*%
X171500000Y-91334165D02*
X171500000Y-91565835D01*
X170780000Y-91334165D02*
X170780000Y-91565835D01*
%TO.C,TP3*%
X168600000Y-95600000D02*
G75*
G03*
X168600000Y-95600000I-1500000J0D01*
G01*
%TO.C,R5*%
X168641399Y-114746222D02*
X168641399Y-114410980D01*
X169401399Y-114746222D02*
X169401399Y-114410980D01*
%TO.C,TP6*%
X192100000Y-90300000D02*
G75*
G03*
X192100000Y-90300000I-1500000J0D01*
G01*
%TO.C,R3*%
X189001399Y-110410980D02*
X189001399Y-110746222D01*
X188241399Y-110410980D02*
X188241399Y-110746222D01*
%TO.C,TP8*%
X173200000Y-106000000D02*
G75*
G03*
X173200000Y-106000000I-1500000J0D01*
G01*
%TO.C,C9*%
X171581399Y-125267349D02*
X171581399Y-126689853D01*
X168861399Y-125267349D02*
X168861399Y-126689853D01*
%TO.C,C6*%
X164581399Y-125267349D02*
X164581399Y-126689853D01*
X161861399Y-125267349D02*
X161861399Y-126689853D01*
%TO.C,C2*%
X180111399Y-114324868D02*
X180111399Y-114032334D01*
X181131399Y-114324868D02*
X181131399Y-114032334D01*
%TO.C,C15*%
X190886399Y-125039853D02*
X190886399Y-124517349D01*
X192356399Y-125039853D02*
X192356399Y-124517349D01*
%TO.C,C5*%
X182111399Y-119324868D02*
X182111399Y-119032334D01*
X183131399Y-119324868D02*
X183131399Y-119032334D01*
%TO.C,TP10*%
X164500000Y-90300000D02*
G75*
G03*
X164500000Y-90300000I-1500000J0D01*
G01*
%TO.C,R12*%
X170453778Y-119473600D02*
X170789020Y-119473600D01*
X170453778Y-120233600D02*
X170789020Y-120233600D01*
%TO.C,FB1*%
X164940735Y-121318600D02*
X165394863Y-121318600D01*
X164940735Y-122788600D02*
X165394863Y-122788600D01*
%TO.C,R10*%
X169854175Y-116856101D02*
X170363623Y-116856101D01*
X169854175Y-117901101D02*
X170363623Y-117901101D01*
%TO.C,R2*%
X187601399Y-114210980D02*
X187601399Y-114546222D01*
X186841399Y-114210980D02*
X186841399Y-114546222D01*
%TO.C,TP9*%
X159000000Y-123800000D02*
G75*
G03*
X159000000Y-123800000I-1500000J0D01*
G01*
%TO.C,TP1*%
X168700000Y-90400000D02*
G75*
G03*
X168700000Y-90400000I-1500000J0D01*
G01*
%TO.C,C13*%
X180911399Y-124852353D02*
X180911399Y-123429849D01*
X182731399Y-124852353D02*
X182731399Y-123429849D01*
%TO.C,R6*%
X183143899Y-113923877D02*
X183143899Y-114433325D01*
X182098899Y-113923877D02*
X182098899Y-114433325D01*
%TO.C,R18*%
X160547621Y-100890000D02*
X160212379Y-100890000D01*
X160547621Y-100130000D02*
X160212379Y-100130000D01*
%TD*%
M02*
