%TF.GenerationSoftware,KiCad,Pcbnew,7.0.6*%
%TF.CreationDate,2023-09-15T11:23:23-07:00*%
%TF.ProjectId,dmxRx,646d7852-782e-46b6-9963-61645f706362,rev?*%
%TF.SameCoordinates,Original*%
%TF.FileFunction,Soldermask,Top*%
%TF.FilePolarity,Negative*%
%FSLAX46Y46*%
G04 Gerber Fmt 4.6, Leading zero omitted, Abs format (unit mm)*
G04 Created by KiCad (PCBNEW 7.0.6) date 2023-09-15 11:23:23*
%MOMM*%
%LPD*%
G01*
G04 APERTURE LIST*
G04 Aperture macros list*
%AMRoundRect*
0 Rectangle with rounded corners*
0 $1 Rounding radius*
0 $2 $3 $4 $5 $6 $7 $8 $9 X,Y pos of 4 corners*
0 Add a 4 corners polygon primitive as box body*
4,1,4,$2,$3,$4,$5,$6,$7,$8,$9,$2,$3,0*
0 Add four circle primitives for the rounded corners*
1,1,$1+$1,$2,$3*
1,1,$1+$1,$4,$5*
1,1,$1+$1,$6,$7*
1,1,$1+$1,$8,$9*
0 Add four rect primitives between the rounded corners*
20,1,$1+$1,$2,$3,$4,$5,0*
20,1,$1+$1,$4,$5,$6,$7,0*
20,1,$1+$1,$6,$7,$8,$9,0*
20,1,$1+$1,$8,$9,$2,$3,0*%
G04 Aperture macros list end*
%ADD10R,1.700000X1.700000*%
%ADD11O,1.700000X1.700000*%
%ADD12RoundRect,0.160000X-0.197500X-0.160000X0.197500X-0.160000X0.197500X0.160000X-0.197500X0.160000X0*%
%ADD13C,2.000000*%
%ADD14RoundRect,0.160000X-0.160000X0.197500X-0.160000X-0.197500X0.160000X-0.197500X0.160000X0.197500X0*%
%ADD15RoundRect,0.250000X0.650000X-0.412500X0.650000X0.412500X-0.650000X0.412500X-0.650000X-0.412500X0*%
%ADD16C,1.000000*%
%ADD17C,1.600000*%
%ADD18RoundRect,0.237500X0.237500X-0.300000X0.237500X0.300000X-0.237500X0.300000X-0.237500X-0.300000X0*%
%ADD19RoundRect,0.155000X0.155000X-0.212500X0.155000X0.212500X-0.155000X0.212500X-0.155000X-0.212500X0*%
%ADD20RoundRect,0.100000X-0.217500X-0.100000X0.217500X-0.100000X0.217500X0.100000X-0.217500X0.100000X0*%
%ADD21RoundRect,0.160000X0.160000X-0.197500X0.160000X0.197500X-0.160000X0.197500X-0.160000X-0.197500X0*%
%ADD22R,1.600000X1.600000*%
%ADD23O,1.600000X1.600000*%
%ADD24C,3.200000*%
%ADD25RoundRect,0.250000X0.475000X-0.337500X0.475000X0.337500X-0.475000X0.337500X-0.475000X-0.337500X0*%
%ADD26RoundRect,0.160000X0.197500X0.160000X-0.197500X0.160000X-0.197500X-0.160000X0.197500X-0.160000X0*%
%ADD27R,1.400000X1.050000*%
%ADD28RoundRect,0.155000X0.212500X0.155000X-0.212500X0.155000X-0.212500X-0.155000X0.212500X-0.155000X0*%
%ADD29RoundRect,0.237500X-0.237500X0.250000X-0.237500X-0.250000X0.237500X-0.250000X0.237500X0.250000X0*%
%ADD30RoundRect,0.250000X-0.350000X-0.450000X0.350000X-0.450000X0.350000X0.450000X-0.350000X0.450000X0*%
%ADD31RoundRect,0.250000X-1.100000X0.412500X-1.100000X-0.412500X1.100000X-0.412500X1.100000X0.412500X0*%
%ADD32R,1.460500X0.558800*%
%ADD33RoundRect,0.237500X0.300000X0.237500X-0.300000X0.237500X-0.300000X-0.237500X0.300000X-0.237500X0*%
%ADD34R,1.346200X0.279400*%
%ADD35R,0.279400X1.346200*%
%ADD36R,0.711200X0.254000*%
%ADD37R,0.254000X0.711200*%
%ADD38R,4.851400X2.362200*%
%ADD39R,2.133600X2.692400*%
%ADD40R,2.387600X2.692400*%
%ADD41R,0.762000X2.032000*%
%ADD42RoundRect,0.155000X-0.155000X0.212500X-0.155000X-0.212500X0.155000X-0.212500X0.155000X0.212500X0*%
%ADD43R,2.930000X5.500000*%
%ADD44RoundRect,0.237500X-0.250000X-0.237500X0.250000X-0.237500X0.250000X0.237500X-0.250000X0.237500X0*%
G04 APERTURE END LIST*
D10*
%TO.C,J1*%
X152633200Y-89700000D03*
D11*
X152226800Y-92240000D03*
X152633200Y-94780000D03*
X152226800Y-97320000D03*
X152633200Y-99860000D03*
%TD*%
D12*
%TO.C,R17*%
X159772500Y-99280000D03*
X160967500Y-99280000D03*
%TD*%
D13*
%TO.C,TP5*%
X190700000Y-94900000D03*
%TD*%
%TO.C,FID3*%
X203100000Y-88700000D03*
%TD*%
D14*
%TO.C,R8*%
X177200000Y-114002500D03*
X177200000Y-115197500D03*
%TD*%
D13*
%TO.C,FID2*%
X203100000Y-123200000D03*
%TD*%
D15*
%TO.C,C11*%
X187021399Y-125741101D03*
X187021399Y-122616101D03*
%TD*%
D16*
%TO.C,CON2*%
X199920000Y-119835000D03*
X199920000Y-107135000D03*
D17*
X195600000Y-117040000D03*
X197380000Y-116020000D03*
X195600000Y-115000000D03*
X197380000Y-113980000D03*
X195600000Y-112960000D03*
X197380000Y-111940000D03*
X195600000Y-110920000D03*
X197380000Y-109900000D03*
%TD*%
D18*
%TO.C,C10*%
X184621399Y-111241101D03*
X184621399Y-109516101D03*
%TD*%
D19*
%TO.C,C18*%
X185070000Y-93167500D03*
X185070000Y-92032500D03*
%TD*%
D13*
%TO.C,TP12*%
X192200000Y-101500000D03*
%TD*%
D20*
%TO.C,D1*%
X157582500Y-99200000D03*
X158397500Y-99200000D03*
%TD*%
D21*
%TO.C,R1*%
X187221399Y-111176101D03*
X187221399Y-109981101D03*
%TD*%
D22*
%TO.C,SW1*%
X196475000Y-98900000D03*
D23*
X199015000Y-98900000D03*
X201555000Y-98900000D03*
X201555000Y-91280000D03*
X199015000Y-91280000D03*
X196475000Y-91280000D03*
%TD*%
D24*
%TO.C,H3*%
X201000000Y-131000000D03*
%TD*%
D13*
%TO.C,TP2*%
X162900000Y-95600000D03*
%TD*%
D25*
%TO.C,C3*%
X172821399Y-115016101D03*
X172821399Y-112941101D03*
%TD*%
D26*
%TO.C,R20*%
X160827500Y-103700000D03*
X159632500Y-103700000D03*
%TD*%
D10*
%TO.C,J2*%
X175705000Y-82300000D03*
D11*
X178245000Y-82300000D03*
X180785000Y-82300000D03*
%TD*%
D13*
%TO.C,TP4*%
X158800000Y-95600000D03*
%TD*%
D12*
%TO.C,R19*%
X159632500Y-102600000D03*
X160827500Y-102600000D03*
%TD*%
D24*
%TO.C,H1*%
X154000000Y-84000000D03*
%TD*%
D12*
%TO.C,R16*%
X170402500Y-84870000D03*
X171597500Y-84870000D03*
%TD*%
D14*
%TO.C,R4*%
X188621399Y-113783601D03*
X188621399Y-114978601D03*
%TD*%
D27*
%TO.C,SW2*%
X159000000Y-80775000D03*
X162600000Y-80775000D03*
X159000000Y-82225000D03*
X162600000Y-82225000D03*
%TD*%
D20*
%TO.C,D2*%
X157392500Y-102600000D03*
X158207500Y-102600000D03*
%TD*%
D28*
%TO.C,C19*%
X184067500Y-102700000D03*
X182932500Y-102700000D03*
%TD*%
D29*
%TO.C,R13*%
X184621399Y-118266101D03*
X184621399Y-120091101D03*
%TD*%
D30*
%TO.C,R14*%
X172021399Y-131978601D03*
X174021399Y-131978601D03*
%TD*%
D13*
%TO.C,TP7*%
X167600000Y-105900000D03*
%TD*%
D31*
%TO.C,C8*%
X167021399Y-124416101D03*
X167021399Y-127541101D03*
%TD*%
D32*
%TO.C,U3*%
X175575850Y-102695000D03*
X175575850Y-103965000D03*
X175575850Y-105235000D03*
X175575850Y-106505000D03*
X181024150Y-106505000D03*
X181024150Y-105235000D03*
X181024150Y-103965000D03*
X181024150Y-102695000D03*
%TD*%
D33*
%TO.C,C16*%
X169883899Y-131978601D03*
X168158899Y-131978601D03*
%TD*%
D15*
%TO.C,C12*%
X184421399Y-125703601D03*
X184421399Y-122578601D03*
%TD*%
D25*
%TO.C,C14*%
X189421399Y-125816101D03*
X189421399Y-123741101D03*
%TD*%
D29*
%TO.C,R7*%
X170621399Y-113266101D03*
X170621399Y-115091101D03*
%TD*%
%TO.C,R15*%
X184621399Y-113266101D03*
X184621399Y-115091101D03*
%TD*%
D33*
%TO.C,C4*%
X168483899Y-119653600D03*
X166758899Y-119653600D03*
%TD*%
D18*
%TO.C,C1*%
X175021399Y-115041101D03*
X175021399Y-113316101D03*
%TD*%
D29*
%TO.C,R9*%
X180621399Y-109266101D03*
X180621399Y-111091101D03*
%TD*%
D34*
%TO.C,U1*%
X174081700Y-89130000D03*
X174081700Y-89629999D03*
X174081700Y-90130001D03*
X174081700Y-90630000D03*
X174081700Y-91129999D03*
X174081700Y-91630000D03*
X174081700Y-92130000D03*
X174081700Y-92630001D03*
X174081700Y-93130000D03*
X174081700Y-93629999D03*
X174081700Y-94130001D03*
X174081700Y-94630000D03*
D35*
X175510000Y-96058300D03*
X176009999Y-96058300D03*
X176510001Y-96058300D03*
X177010000Y-96058300D03*
X177509999Y-96058300D03*
X178010000Y-96058300D03*
X178510000Y-96058300D03*
X179010001Y-96058300D03*
X179510000Y-96058300D03*
X180009999Y-96058300D03*
X180510001Y-96058300D03*
X181010000Y-96058300D03*
D34*
X182438300Y-94630000D03*
X182438300Y-94130001D03*
X182438300Y-93629999D03*
X182438300Y-93130000D03*
X182438300Y-92630001D03*
X182438300Y-92130000D03*
X182438300Y-91630000D03*
X182438300Y-91129999D03*
X182438300Y-90630000D03*
X182438300Y-90130001D03*
X182438300Y-89629999D03*
X182438300Y-89130000D03*
D35*
X181010000Y-87701700D03*
X180510001Y-87701700D03*
X180009999Y-87701700D03*
X179510000Y-87701700D03*
X179010001Y-87701700D03*
X178510000Y-87701700D03*
X178010000Y-87701700D03*
X177509999Y-87701700D03*
X177010000Y-87701700D03*
X176510001Y-87701700D03*
X176009999Y-87701700D03*
X175510000Y-87701700D03*
%TD*%
D13*
%TO.C,TP11*%
X152900000Y-123700000D03*
%TD*%
D36*
%TO.C,U2*%
X173528599Y-118178601D03*
X173528599Y-118828599D03*
X173528599Y-119478601D03*
X173528599Y-120128599D03*
X173528599Y-120778601D03*
X173528599Y-121428599D03*
X173528599Y-122078601D03*
X173528599Y-122728599D03*
D37*
X174200000Y-123400000D03*
X174849998Y-123400000D03*
X175500000Y-123400000D03*
X176149998Y-123400000D03*
X176800000Y-123400000D03*
X177449998Y-123400000D03*
X178100000Y-123400000D03*
X178749998Y-123400000D03*
D36*
X179421399Y-122728599D03*
X179421399Y-122078601D03*
X179421399Y-121428599D03*
X179421399Y-120778601D03*
X179421399Y-120128599D03*
X179421399Y-119478601D03*
X179421399Y-118828599D03*
X179421399Y-118178601D03*
D37*
X178749998Y-117507200D03*
X178100000Y-117507200D03*
X177449998Y-117507200D03*
X176800000Y-117507200D03*
X176149998Y-117507200D03*
X175500000Y-117507200D03*
X174849998Y-117507200D03*
X174200000Y-117507200D03*
D38*
X176474999Y-119208600D03*
D39*
X174694999Y-121948600D03*
D40*
X177169999Y-121948600D03*
D41*
X178949999Y-122273600D03*
%TD*%
D42*
%TO.C,C17*%
X171140000Y-90882500D03*
X171140000Y-92017500D03*
%TD*%
D13*
%TO.C,TP3*%
X167100000Y-95600000D03*
%TD*%
D21*
%TO.C,R5*%
X169021399Y-115176101D03*
X169021399Y-113981101D03*
%TD*%
D16*
%TO.C,CON1*%
X155280000Y-106405000D03*
X155280000Y-119105000D03*
D17*
X159600000Y-109200000D03*
X157820000Y-110220000D03*
X159600000Y-111240000D03*
X157820000Y-112260000D03*
X159600000Y-113280000D03*
X157820000Y-114300000D03*
X159600000Y-115320000D03*
X157820000Y-116340000D03*
%TD*%
D13*
%TO.C,TP6*%
X190600000Y-90300000D03*
%TD*%
D14*
%TO.C,R3*%
X188621399Y-109981101D03*
X188621399Y-111176101D03*
%TD*%
D13*
%TO.C,TP8*%
X171700000Y-106000000D03*
%TD*%
D31*
%TO.C,C9*%
X170221399Y-124416101D03*
X170221399Y-127541101D03*
%TD*%
D24*
%TO.C,H2*%
X201000000Y-84000000D03*
%TD*%
D31*
%TO.C,C6*%
X163221399Y-124416101D03*
X163221399Y-127541101D03*
%TD*%
D18*
%TO.C,C2*%
X180621399Y-115041101D03*
X180621399Y-113316101D03*
%TD*%
D13*
%TO.C,FID1*%
X158600000Y-88700000D03*
%TD*%
D25*
%TO.C,C15*%
X191621399Y-125816101D03*
X191621399Y-123741101D03*
%TD*%
D18*
%TO.C,C5*%
X182621399Y-120041101D03*
X182621399Y-118316101D03*
%TD*%
D13*
%TO.C,TP10*%
X163000000Y-90300000D03*
%TD*%
D43*
%TO.C,L1*%
X177130000Y-130500000D03*
X182670000Y-130500000D03*
%TD*%
D12*
%TO.C,R12*%
X170023899Y-119853600D03*
X171218899Y-119853600D03*
%TD*%
D30*
%TO.C,FB1*%
X164167799Y-122053600D03*
X166167799Y-122053600D03*
%TD*%
D44*
%TO.C,R10*%
X169196399Y-117378601D03*
X171021399Y-117378601D03*
%TD*%
D14*
%TO.C,R2*%
X187221399Y-113781101D03*
X187221399Y-114976101D03*
%TD*%
D13*
%TO.C,TP9*%
X157500000Y-123800000D03*
%TD*%
%TO.C,TP1*%
X167200000Y-90400000D03*
%TD*%
D15*
%TO.C,C13*%
X181821399Y-125703601D03*
X181821399Y-122578601D03*
%TD*%
D29*
%TO.C,R6*%
X182621399Y-113266101D03*
X182621399Y-115091101D03*
%TD*%
D24*
%TO.C,H4*%
X154000000Y-131000000D03*
%TD*%
D26*
%TO.C,R18*%
X160977500Y-100510000D03*
X159782500Y-100510000D03*
%TD*%
M02*
