%TF.GenerationSoftware,KiCad,Pcbnew,7.0.6*%
%TF.CreationDate,2023-09-15T11:23:23-07:00*%
%TF.ProjectId,dmxRx,646d7852-782e-46b6-9963-61645f706362,rev?*%
%TF.SameCoordinates,Original*%
%TF.FileFunction,Copper,L4,Bot*%
%TF.FilePolarity,Positive*%
%FSLAX46Y46*%
G04 Gerber Fmt 4.6, Leading zero omitted, Abs format (unit mm)*
G04 Created by KiCad (PCBNEW 7.0.6) date 2023-09-15 11:23:23*
%MOMM*%
%LPD*%
G01*
G04 APERTURE LIST*
%TA.AperFunction,ComponentPad*%
%ADD10R,1.700000X1.700000*%
%TD*%
%TA.AperFunction,ComponentPad*%
%ADD11O,1.700000X1.700000*%
%TD*%
%TA.AperFunction,ComponentPad*%
%ADD12C,2.000000*%
%TD*%
%TA.AperFunction,ComponentPad*%
%ADD13C,1.600000*%
%TD*%
%TA.AperFunction,ComponentPad*%
%ADD14R,1.600000X1.600000*%
%TD*%
%TA.AperFunction,ComponentPad*%
%ADD15O,1.600000X1.600000*%
%TD*%
%TA.AperFunction,ViaPad*%
%ADD16C,0.800000*%
%TD*%
%TA.AperFunction,ViaPad*%
%ADD17C,0.600000*%
%TD*%
%TA.AperFunction,Conductor*%
%ADD18C,0.140000*%
%TD*%
%TA.AperFunction,Conductor*%
%ADD19C,0.250000*%
%TD*%
G04 APERTURE END LIST*
D10*
%TO.P,J1,1,Pin_1*%
%TO.N,MCLR*%
X152633200Y-89700000D03*
D11*
%TO.P,J1,2,Pin_2*%
%TO.N,+5V*%
X152226800Y-92240000D03*
%TO.P,J1,3,Pin_3*%
%TO.N,GND*%
X152633200Y-94780000D03*
%TO.P,J1,4,Pin_4*%
%TO.N,ICSPDAT*%
X152226800Y-97320000D03*
%TO.P,J1,5,Pin_5*%
%TO.N,ICSPCLK*%
X152633200Y-99860000D03*
%TD*%
D12*
%TO.P,TP5,1,1*%
%TO.N,DOUT*%
X190700000Y-94900000D03*
%TD*%
D13*
%TO.P,CON2,1,1*%
%TO.N,+48V*%
X195600000Y-117040000D03*
%TO.P,CON2,2,2*%
X197380000Y-116020000D03*
%TO.P,CON2,3,3*%
X195600000Y-115000000D03*
%TO.P,CON2,4,4*%
%TO.N,GND*%
X197380000Y-113980000D03*
%TO.P,CON2,5,5*%
X195600000Y-112960000D03*
%TO.P,CON2,6,6*%
X197380000Y-111940000D03*
%TO.P,CON2,7,7*%
%TO.N,D-*%
X195600000Y-110920000D03*
%TO.P,CON2,8,8*%
%TO.N,D+*%
X197380000Y-109900000D03*
%TD*%
D12*
%TO.P,TP12,1,1*%
%TO.N,VDD*%
X192200000Y-101500000D03*
%TD*%
D14*
%TO.P,SW1,1*%
%TO.N,GND*%
X196475000Y-98900000D03*
D15*
%TO.P,SW1,2*%
X199015000Y-98900000D03*
%TO.P,SW1,3*%
X201555000Y-98900000D03*
%TO.P,SW1,4*%
%TO.N,Net-(U1A-RD3)*%
X201555000Y-91280000D03*
%TO.P,SW1,5*%
%TO.N,Net-(U1A-RD2)*%
X199015000Y-91280000D03*
%TO.P,SW1,6*%
%TO.N,Net-(U1A-RD1)*%
X196475000Y-91280000D03*
%TD*%
D12*
%TO.P,TP2,1,1*%
%TO.N,Net-(U1A-RB1)*%
X162900000Y-95600000D03*
%TD*%
D10*
%TO.P,J2,1,Pin_1*%
%TO.N,+5V*%
X175705000Y-82300000D03*
D11*
%TO.P,J2,2,Pin_2*%
%TO.N,DOUT*%
X178245000Y-82300000D03*
%TO.P,J2,3,Pin_3*%
%TO.N,GND*%
X180785000Y-82300000D03*
%TD*%
D12*
%TO.P,TP4,1,1*%
%TO.N,Net-(U1A-RB4)*%
X158800000Y-95600000D03*
%TD*%
%TO.P,TP7,1,1*%
%TO.N,GND*%
X167600000Y-105900000D03*
%TD*%
%TO.P,TP11,1,1*%
%TO.N,SW*%
X152900000Y-123700000D03*
%TD*%
%TO.P,TP3,1,1*%
%TO.N,Net-(U1A-RB3)*%
X167100000Y-95600000D03*
%TD*%
D13*
%TO.P,CON1,1,1*%
%TO.N,+48V*%
X159600000Y-109200000D03*
%TO.P,CON1,2,2*%
X157820000Y-110220000D03*
%TO.P,CON1,3,3*%
X159600000Y-111240000D03*
%TO.P,CON1,4,4*%
%TO.N,GND*%
X157820000Y-112260000D03*
%TO.P,CON1,5,5*%
X159600000Y-113280000D03*
%TO.P,CON1,6,6*%
X157820000Y-114300000D03*
%TO.P,CON1,7,7*%
%TO.N,D-*%
X159600000Y-115320000D03*
%TO.P,CON1,8,8*%
%TO.N,D+*%
X157820000Y-116340000D03*
%TD*%
D12*
%TO.P,TP6,1,1*%
%TO.N,DMX DATA IN*%
X190600000Y-90300000D03*
%TD*%
%TO.P,TP8,1,1*%
%TO.N,+5V*%
X171700000Y-106000000D03*
%TD*%
%TO.P,TP10,1,1*%
%TO.N,Net-(U1A-RC0)*%
X163000000Y-90300000D03*
%TD*%
%TO.P,TP9,1,1*%
%TO.N,VIN*%
X157500000Y-123800000D03*
%TD*%
%TO.P,TP1,1,1*%
%TO.N,Net-(U1A-RB0)*%
X167200000Y-90400000D03*
%TD*%
D16*
%TO.N,+5V*%
X194900000Y-128400000D03*
X198900000Y-125400000D03*
X190900000Y-127400000D03*
X186900000Y-130400000D03*
X196900000Y-131400000D03*
X198900000Y-126400000D03*
X185900000Y-129400000D03*
X193900000Y-133400000D03*
X185900000Y-131400000D03*
X189900000Y-130400000D03*
X191900000Y-127400000D03*
X196900000Y-129400000D03*
X203000000Y-125400000D03*
X195900000Y-127400000D03*
X190900000Y-131400000D03*
X189900000Y-132400000D03*
X196900000Y-133400000D03*
X186900000Y-129400000D03*
X185900000Y-130400000D03*
X187900000Y-133400000D03*
X195900000Y-131400000D03*
X202000000Y-125400000D03*
X193900000Y-132400000D03*
X190900000Y-128400000D03*
X187900000Y-132400000D03*
X196900000Y-127400000D03*
X185900000Y-127400000D03*
X192900000Y-132400000D03*
X194900000Y-130400000D03*
X199900000Y-126400000D03*
X196900000Y-126400000D03*
X194900000Y-131400000D03*
X193900000Y-127400000D03*
X195900000Y-126400000D03*
X202000000Y-126400000D03*
X185900000Y-132400000D03*
X169800000Y-104080500D03*
X188900000Y-131400000D03*
X186900000Y-132400000D03*
X191900000Y-132400000D03*
X186900000Y-133400000D03*
X189900000Y-127400000D03*
X191900000Y-130400000D03*
X186900000Y-127400000D03*
X190900000Y-130400000D03*
X190900000Y-133400000D03*
X191900000Y-129400000D03*
X192900000Y-133400000D03*
X187900000Y-128400000D03*
X188900000Y-133400000D03*
X169900000Y-91800000D03*
X192900000Y-128400000D03*
X195900000Y-128400000D03*
X185900000Y-133400000D03*
X190900000Y-132400000D03*
X188900000Y-127400000D03*
X194900000Y-126400000D03*
X195900000Y-130400000D03*
X192900000Y-129400000D03*
X188900000Y-129400000D03*
X187900000Y-131400000D03*
X187900000Y-130400000D03*
X194900000Y-133400000D03*
X189900000Y-128400000D03*
X181100000Y-101600000D03*
X170400000Y-86100000D03*
X189900000Y-133400000D03*
X191900000Y-128400000D03*
X193900000Y-131400000D03*
X188900000Y-128400000D03*
X195900000Y-133400000D03*
X190900000Y-129400000D03*
X187900000Y-127400000D03*
X191900000Y-131400000D03*
X186400000Y-92200000D03*
X195900000Y-129400000D03*
X188900000Y-132400000D03*
X189900000Y-129400000D03*
X194900000Y-125400000D03*
X196900000Y-132400000D03*
X192900000Y-130400000D03*
X200900000Y-125400000D03*
X199900000Y-125400000D03*
X203000000Y-126400000D03*
X200900000Y-126400000D03*
X187900000Y-129400000D03*
X189900000Y-131400000D03*
X194900000Y-127400000D03*
X196900000Y-128400000D03*
X188900000Y-130400000D03*
X196900000Y-125400000D03*
X186900000Y-128400000D03*
X194900000Y-129400000D03*
X197900000Y-126400000D03*
X193900000Y-125400000D03*
X195900000Y-125400000D03*
X195900000Y-132400000D03*
X191900000Y-133400000D03*
X193900000Y-129400000D03*
X192900000Y-127400000D03*
X192900000Y-131400000D03*
X196900000Y-130400000D03*
X185900000Y-128400000D03*
X193900000Y-130400000D03*
X193900000Y-128400000D03*
X186900000Y-131400000D03*
X193900000Y-126400000D03*
X162300000Y-102600000D03*
X194900000Y-132400000D03*
X197900000Y-125400000D03*
%TO.N,D+*%
X187300000Y-105200000D03*
%TO.N,D-*%
X186700000Y-104000000D03*
%TO.N,MCLR*%
X171900000Y-86100000D03*
X178400000Y-98700000D03*
%TO.N,DOUT*%
X179900000Y-98100000D03*
%TO.N,DMX DATA IN*%
X173900000Y-102800000D03*
X184575354Y-89525354D03*
%TO.N,VIN*%
X167900000Y-121900000D03*
%TO.N,SW*%
X174000000Y-126800000D03*
X180700000Y-120793099D03*
X166758899Y-118541101D03*
X184600000Y-116300000D03*
%TO.N,GND*%
X169100000Y-133500000D03*
X166100000Y-129400000D03*
X167100000Y-133500000D03*
X162100000Y-129400000D03*
X191400000Y-120100000D03*
X168100000Y-130400000D03*
X159100000Y-129400000D03*
X166100000Y-133500000D03*
X159100000Y-131400000D03*
X166100000Y-131400000D03*
X161100000Y-132400000D03*
X168100000Y-129400000D03*
X176300000Y-89800000D03*
X159100000Y-130400000D03*
X160100000Y-129400000D03*
X188000000Y-120400000D03*
X178300000Y-92800000D03*
X176300000Y-93900000D03*
X164100000Y-132400000D03*
D17*
X175200000Y-119100000D03*
D16*
X177300000Y-92800000D03*
X179300000Y-93900000D03*
X158100000Y-132400000D03*
X161100000Y-133500000D03*
X167100000Y-132400000D03*
D17*
X178000000Y-119100000D03*
D16*
X165100000Y-129400000D03*
X181030127Y-118930127D03*
X171100000Y-133500000D03*
X161100000Y-130400000D03*
X166100000Y-130400000D03*
D17*
X178000000Y-119800000D03*
D16*
X189000000Y-122400000D03*
X170100000Y-129400000D03*
X190500000Y-119200000D03*
X189000000Y-119400000D03*
X167100000Y-129400000D03*
X188600000Y-112800000D03*
D17*
X175900000Y-119800000D03*
D16*
X158100000Y-131400000D03*
X172800000Y-111700000D03*
X177300000Y-89800000D03*
X160100000Y-133500000D03*
X186000000Y-121400000D03*
X161100000Y-127400000D03*
X160100000Y-127400000D03*
X162100000Y-133500000D03*
X160100000Y-130400000D03*
D17*
X174500000Y-118400000D03*
D16*
X164100000Y-131400000D03*
X189000000Y-118400000D03*
X190500000Y-121000000D03*
X176300000Y-92800000D03*
X187200000Y-109000000D03*
X167100000Y-130400000D03*
X179300000Y-91800000D03*
X180300000Y-90800000D03*
X180300000Y-89800000D03*
X160100000Y-131400000D03*
X188000000Y-121400000D03*
D17*
X178000000Y-118400000D03*
D16*
X171100000Y-130400000D03*
X191000000Y-122400000D03*
X177200000Y-113100000D03*
D17*
X175900000Y-118400000D03*
D16*
X165100000Y-132400000D03*
D17*
X178900000Y-122800000D03*
D16*
X164100000Y-133500000D03*
D17*
X176600000Y-119100000D03*
D16*
X180600000Y-108000000D03*
X159100000Y-133500000D03*
X159100000Y-127400000D03*
D17*
X177300000Y-119100000D03*
D16*
X190000000Y-122400000D03*
X162100000Y-131400000D03*
D17*
X174500000Y-119100000D03*
D16*
X180300000Y-92800000D03*
X179300000Y-90800000D03*
X170100000Y-130400000D03*
X165100000Y-130400000D03*
X189000000Y-121400000D03*
D17*
X178900000Y-121600000D03*
D16*
X192000000Y-122400000D03*
X163100000Y-129400000D03*
X167100000Y-131400000D03*
X163100000Y-133500000D03*
X163100000Y-131400000D03*
X191400000Y-121000000D03*
X187000000Y-121400000D03*
D17*
X174500000Y-119800000D03*
D16*
X186000000Y-118400000D03*
X165340000Y-103910000D03*
X180300000Y-91800000D03*
X162100000Y-132400000D03*
X175000000Y-112100000D03*
X192300000Y-121000000D03*
X177300000Y-90800000D03*
X158100000Y-129400000D03*
D17*
X176600000Y-118400000D03*
D16*
X161100000Y-128400000D03*
X171100000Y-129400000D03*
X176300000Y-91800000D03*
D17*
X175900000Y-119100000D03*
D16*
X172100000Y-130400000D03*
X165100000Y-133500000D03*
X158100000Y-127400000D03*
X165100000Y-131400000D03*
X172000000Y-118700000D03*
D17*
X177300000Y-119800000D03*
D16*
X178300000Y-91800000D03*
X160100000Y-132400000D03*
X168100000Y-133500000D03*
X179300000Y-89800000D03*
X188000000Y-118400000D03*
X178300000Y-89800000D03*
X158100000Y-130400000D03*
D17*
X177300000Y-118400000D03*
D16*
X166100000Y-132400000D03*
X169100000Y-129400000D03*
X164100000Y-130400000D03*
X176266759Y-116148648D03*
X172100000Y-133500000D03*
D17*
X178900000Y-122200000D03*
D16*
X160100000Y-128400000D03*
X169100000Y-130400000D03*
X176300000Y-90800000D03*
X190500000Y-120100000D03*
X178300000Y-90800000D03*
X187000000Y-120400000D03*
X162100000Y-130400000D03*
X161100000Y-131400000D03*
X159100000Y-132400000D03*
X159100000Y-128400000D03*
X188000000Y-119400000D03*
X189000000Y-120400000D03*
X163100000Y-130400000D03*
X186000000Y-120400000D03*
X186000000Y-119400000D03*
X164100000Y-129400000D03*
X177300000Y-93900000D03*
X163100000Y-132400000D03*
X178300000Y-93900000D03*
X187000000Y-118400000D03*
X187000000Y-119400000D03*
X180300000Y-93900000D03*
D17*
X176600000Y-119800000D03*
X175200000Y-118400000D03*
D16*
X179300000Y-92800000D03*
X177300000Y-91800000D03*
X170100000Y-133500000D03*
X158100000Y-128400000D03*
X172100000Y-129400000D03*
D17*
X175200000Y-119800000D03*
D16*
X158100000Y-133500000D03*
X161100000Y-129400000D03*
%TO.N,VDD*%
X176100000Y-114900000D03*
X179000000Y-116000000D03*
X168119873Y-114019873D03*
%TO.N,Net-(U1A-RC0)*%
X186400000Y-88000000D03*
%TO.N,Net-(U2A-FREQ)*%
X186264500Y-111188502D03*
X180500000Y-116664500D03*
%TO.N,Net-(U2A-EN)*%
X180900000Y-117800000D03*
X186100000Y-115000000D03*
%TD*%
D18*
%TO.N,D+*%
X157140000Y-116340000D02*
X155800000Y-115000000D01*
X162300000Y-106593024D02*
X162300000Y-106300000D01*
X159700000Y-106000000D02*
X160200000Y-106000000D01*
X161700000Y-105406950D02*
X161700000Y-106593024D01*
X166410000Y-107210000D02*
X185289997Y-107210000D01*
X155800000Y-109900000D02*
X159700000Y-106000000D01*
X155800000Y-115000000D02*
X155800000Y-109900000D01*
X165200000Y-106000000D02*
X166410000Y-107210000D01*
X185289997Y-107210000D02*
X187300000Y-105200000D01*
X157820000Y-116340000D02*
X157140000Y-116340000D01*
X160500000Y-106300000D02*
X160500000Y-106593050D01*
X161100000Y-106593050D02*
X161100000Y-105406950D01*
X162600000Y-106000000D02*
X165200000Y-106000000D01*
X160500000Y-106300000D02*
G75*
G03*
X160200000Y-106000000I-300000J0D01*
G01*
X162600000Y-106000000D02*
G75*
G03*
X162300000Y-106300000I0J-300000D01*
G01*
X161699976Y-106593024D02*
G75*
G03*
X162000000Y-106893024I300024J24D01*
G01*
X161400000Y-105107000D02*
G75*
G03*
X161100000Y-105406950I0J-300000D01*
G01*
X162000000Y-106893000D02*
G75*
G03*
X162300000Y-106593024I0J300000D01*
G01*
X160499950Y-106593050D02*
G75*
G03*
X160800000Y-106893050I300050J50D01*
G01*
X160800000Y-106893000D02*
G75*
G03*
X161100000Y-106593050I0J300000D01*
G01*
X161700050Y-105406950D02*
G75*
G03*
X161400000Y-105106950I-300050J-50D01*
G01*
%TO.N,D-*%
X186700000Y-104000000D02*
X183749020Y-104000000D01*
X160510000Y-104690000D02*
X155200000Y-110000000D01*
X159600000Y-116600000D02*
X159600000Y-115320000D01*
X183749020Y-104000000D02*
X183059020Y-104690000D01*
X157600000Y-117700000D02*
X158500000Y-117700000D01*
X155200000Y-110000000D02*
X155200000Y-115300000D01*
X155200000Y-115300000D02*
X157600000Y-117700000D01*
X183059020Y-104690000D02*
X160510000Y-104690000D01*
X158500000Y-117700000D02*
X159600000Y-116600000D01*
D19*
%TO.N,MCLR*%
X171900000Y-86100000D02*
X171900000Y-92200000D01*
X171900000Y-92200000D02*
X178400000Y-98700000D01*
%TO.N,DOUT*%
X180965000Y-85020000D02*
X180965000Y-97035000D01*
X178245000Y-82300000D02*
X180965000Y-85020000D01*
X180965000Y-97035000D02*
X179900000Y-98100000D01*
%TO.N,DMX DATA IN*%
X178100000Y-102800000D02*
X190600000Y-90300000D01*
X185350000Y-90300000D02*
X190600000Y-90300000D01*
X184575354Y-89525354D02*
X185350000Y-90300000D01*
X173900000Y-102800000D02*
X178100000Y-102800000D01*
%TO.N,VIN*%
X166000000Y-123800000D02*
X167900000Y-121900000D01*
X157500000Y-123800000D02*
X166000000Y-123800000D01*
%TO.N,SW*%
X180700000Y-120200000D02*
X180700000Y-120793099D01*
X163600000Y-121700000D02*
X166758899Y-118541101D01*
X166758899Y-119558899D02*
X174000000Y-126800000D01*
X154900000Y-121700000D02*
X163600000Y-121700000D01*
X166758899Y-118541101D02*
X166758899Y-119558899D01*
X184600000Y-116300000D02*
X180700000Y-120200000D01*
X177800000Y-126800000D02*
X180700000Y-123900000D01*
X152900000Y-123700000D02*
X154900000Y-121700000D01*
X180700000Y-123900000D02*
X180700000Y-120793099D01*
X174000000Y-126800000D02*
X177800000Y-126800000D01*
%TO.N,VDD*%
X168119873Y-114019873D02*
X169000000Y-114900000D01*
X179000000Y-116000000D02*
X179000000Y-114700000D01*
X169000000Y-114900000D02*
X176100000Y-114900000D01*
X177900000Y-114900000D02*
X176100000Y-114900000D01*
X179000000Y-114700000D02*
X192200000Y-101500000D01*
X179000000Y-116000000D02*
X177900000Y-114900000D01*
%TO.N,Net-(U1A-RC0)*%
X186400000Y-85800000D02*
X181600000Y-81000000D01*
X186400000Y-88000000D02*
X186400000Y-85800000D01*
X172300000Y-81000000D02*
X163000000Y-90300000D01*
X181600000Y-81000000D02*
X172300000Y-81000000D01*
%TO.N,Net-(U2A-FREQ)*%
X180500000Y-116664500D02*
X181400000Y-116664500D01*
X181400000Y-116664500D02*
X186264500Y-111800000D01*
X186264500Y-111800000D02*
X186264500Y-111188502D01*
%TO.N,Net-(U2A-EN)*%
X180900000Y-117800000D02*
X183700000Y-115000000D01*
X183700000Y-115000000D02*
X186100000Y-115000000D01*
%TD*%
%TA.AperFunction,Conductor*%
%TO.N,+5V*%
G36*
X201449240Y-80029348D02*
G01*
X201457775Y-80029940D01*
X201563384Y-80044672D01*
X201615557Y-80052411D01*
X201749829Y-80072329D01*
X201754871Y-80073294D01*
X201939341Y-80116681D01*
X202120221Y-80161989D01*
X202124797Y-80163327D01*
X202305568Y-80223916D01*
X202480339Y-80286450D01*
X202484471Y-80288100D01*
X202542986Y-80313936D01*
X202659474Y-80365370D01*
X202826973Y-80444592D01*
X202830601Y-80446457D01*
X202998128Y-80539770D01*
X202998142Y-80539778D01*
X203156964Y-80634972D01*
X203160119Y-80636996D01*
X203318603Y-80745559D01*
X203467377Y-80855897D01*
X203470001Y-80857957D01*
X203618027Y-80980876D01*
X203755321Y-81105314D01*
X203757514Y-81107402D01*
X203892596Y-81242484D01*
X203894687Y-81244680D01*
X203975626Y-81333982D01*
X204019129Y-81381980D01*
X204142034Y-81529989D01*
X204144109Y-81532632D01*
X204254443Y-81681400D01*
X204363002Y-81839879D01*
X204365032Y-81843044D01*
X204460221Y-82001857D01*
X204507715Y-82087124D01*
X204527413Y-82122489D01*
X204553527Y-82169371D01*
X204555410Y-82173034D01*
X204634638Y-82340547D01*
X204711899Y-82515527D01*
X204713558Y-82519685D01*
X204776093Y-82694459D01*
X204836662Y-82875173D01*
X204838018Y-82879812D01*
X204883317Y-83060654D01*
X204926696Y-83245090D01*
X204927672Y-83250189D01*
X204955337Y-83436689D01*
X204981177Y-83621933D01*
X204981697Y-83627459D01*
X204991512Y-83827238D01*
X204999434Y-83998575D01*
X204999500Y-84001439D01*
X204999500Y-130998560D01*
X204999434Y-131001424D01*
X204991512Y-131172761D01*
X204981697Y-131372539D01*
X204981177Y-131378065D01*
X204955337Y-131563310D01*
X204927672Y-131749809D01*
X204926696Y-131754908D01*
X204883317Y-131939345D01*
X204838018Y-132120186D01*
X204836662Y-132124825D01*
X204776093Y-132305540D01*
X204713557Y-132480314D01*
X204711899Y-132484470D01*
X204634638Y-132659452D01*
X204555410Y-132826964D01*
X204553527Y-132830627D01*
X204460221Y-132998142D01*
X204365032Y-133156954D01*
X204363002Y-133160118D01*
X204254437Y-133318608D01*
X204144121Y-133467350D01*
X204142021Y-133470025D01*
X204019132Y-133618016D01*
X203894695Y-133755310D01*
X203892596Y-133757514D01*
X203757514Y-133892596D01*
X203755310Y-133894695D01*
X203618016Y-134019132D01*
X203470025Y-134142021D01*
X203467350Y-134144121D01*
X203318608Y-134254437D01*
X203160118Y-134363002D01*
X203156954Y-134365032D01*
X202998142Y-134460221D01*
X202830627Y-134553527D01*
X202826964Y-134555410D01*
X202659452Y-134634638D01*
X202484470Y-134711899D01*
X202480314Y-134713557D01*
X202305540Y-134776093D01*
X202124825Y-134836662D01*
X202120186Y-134838018D01*
X201939345Y-134883317D01*
X201754908Y-134926696D01*
X201749809Y-134927672D01*
X201563310Y-134955337D01*
X201378065Y-134981177D01*
X201372539Y-134981697D01*
X201172761Y-134991512D01*
X201001424Y-134999434D01*
X200998560Y-134999500D01*
X154001440Y-134999500D01*
X153998576Y-134999434D01*
X153827238Y-134991512D01*
X153627459Y-134981697D01*
X153621933Y-134981177D01*
X153436689Y-134955337D01*
X153250189Y-134927672D01*
X153245090Y-134926696D01*
X153060654Y-134883317D01*
X152879812Y-134838018D01*
X152875173Y-134836662D01*
X152694459Y-134776093D01*
X152519685Y-134713558D01*
X152515527Y-134711899D01*
X152340547Y-134634638D01*
X152173034Y-134555410D01*
X152169371Y-134553527D01*
X152001857Y-134460221D01*
X151843044Y-134365032D01*
X151839879Y-134363002D01*
X151730371Y-134287989D01*
X151681392Y-134254437D01*
X151532632Y-134144109D01*
X151529989Y-134142034D01*
X151381980Y-134019129D01*
X151244688Y-133894695D01*
X151242484Y-133892596D01*
X151107402Y-133757514D01*
X151105314Y-133755321D01*
X150980867Y-133618016D01*
X150882868Y-133500000D01*
X157554836Y-133500000D01*
X157573411Y-133641097D01*
X157573413Y-133641102D01*
X157627871Y-133772577D01*
X157627871Y-133772578D01*
X157627873Y-133772581D01*
X157627874Y-133772582D01*
X157714511Y-133885489D01*
X157827418Y-133972126D01*
X157827421Y-133972127D01*
X157827422Y-133972128D01*
X157893159Y-133999356D01*
X157958901Y-134026588D01*
X158029450Y-134035876D01*
X158099999Y-134045164D01*
X158100000Y-134045164D01*
X158100001Y-134045164D01*
X158147032Y-134038972D01*
X158241099Y-134026588D01*
X158372577Y-133972128D01*
X158372578Y-133972128D01*
X158372578Y-133972127D01*
X158372582Y-133972126D01*
X158485489Y-133885489D01*
X158501624Y-133864460D01*
X158558052Y-133823258D01*
X158627798Y-133819103D01*
X158688718Y-133853315D01*
X158698372Y-133864456D01*
X158714511Y-133885489D01*
X158827418Y-133972126D01*
X158827421Y-133972127D01*
X158827422Y-133972128D01*
X158893159Y-133999356D01*
X158958901Y-134026588D01*
X159029450Y-134035876D01*
X159099999Y-134045164D01*
X159100000Y-134045164D01*
X159100001Y-134045164D01*
X159147032Y-134038972D01*
X159241099Y-134026588D01*
X159372577Y-133972128D01*
X159372578Y-133972128D01*
X159372578Y-133972127D01*
X159372582Y-133972126D01*
X159485489Y-133885489D01*
X159501624Y-133864460D01*
X159558052Y-133823258D01*
X159627798Y-133819103D01*
X159688718Y-133853315D01*
X159698372Y-133864456D01*
X159714511Y-133885489D01*
X159827418Y-133972126D01*
X159827421Y-133972127D01*
X159827422Y-133972128D01*
X159893159Y-133999356D01*
X159958901Y-134026588D01*
X160029450Y-134035876D01*
X160099999Y-134045164D01*
X160100000Y-134045164D01*
X160100001Y-134045164D01*
X160147032Y-134038972D01*
X160241099Y-134026588D01*
X160372577Y-133972128D01*
X160372578Y-133972128D01*
X160372578Y-133972127D01*
X160372582Y-133972126D01*
X160485489Y-133885489D01*
X160501624Y-133864460D01*
X160558052Y-133823258D01*
X160627798Y-133819103D01*
X160688718Y-133853315D01*
X160698372Y-133864456D01*
X160714511Y-133885489D01*
X160827418Y-133972126D01*
X160827421Y-133972127D01*
X160827422Y-133972128D01*
X160893159Y-133999356D01*
X160958901Y-134026588D01*
X161029450Y-134035876D01*
X161099999Y-134045164D01*
X161100000Y-134045164D01*
X161100001Y-134045164D01*
X161147032Y-134038972D01*
X161241099Y-134026588D01*
X161372577Y-133972128D01*
X161372578Y-133972128D01*
X161372578Y-133972127D01*
X161372582Y-133972126D01*
X161485489Y-133885489D01*
X161501624Y-133864460D01*
X161558052Y-133823258D01*
X161627798Y-133819103D01*
X161688718Y-133853315D01*
X161698372Y-133864456D01*
X161714511Y-133885489D01*
X161827418Y-133972126D01*
X161827421Y-133972127D01*
X161827422Y-133972128D01*
X161893159Y-133999356D01*
X161958901Y-134026588D01*
X162029450Y-134035876D01*
X162099999Y-134045164D01*
X162100000Y-134045164D01*
X162100001Y-134045164D01*
X162147032Y-134038972D01*
X162241099Y-134026588D01*
X162372577Y-133972128D01*
X162372578Y-133972128D01*
X162372578Y-133972127D01*
X162372582Y-133972126D01*
X162485489Y-133885489D01*
X162501624Y-133864460D01*
X162558052Y-133823258D01*
X162627798Y-133819103D01*
X162688718Y-133853315D01*
X162698372Y-133864456D01*
X162714511Y-133885489D01*
X162827418Y-133972126D01*
X162827421Y-133972127D01*
X162827422Y-133972128D01*
X162893159Y-133999356D01*
X162958901Y-134026588D01*
X163029450Y-134035876D01*
X163099999Y-134045164D01*
X163100000Y-134045164D01*
X163100001Y-134045164D01*
X163147032Y-134038972D01*
X163241099Y-134026588D01*
X163372577Y-133972128D01*
X163372578Y-133972128D01*
X163372578Y-133972127D01*
X163372582Y-133972126D01*
X163485489Y-133885489D01*
X163501624Y-133864460D01*
X163558052Y-133823258D01*
X163627798Y-133819103D01*
X163688718Y-133853315D01*
X163698372Y-133864456D01*
X163714511Y-133885489D01*
X163827418Y-133972126D01*
X163827421Y-133972127D01*
X163827422Y-133972128D01*
X163893159Y-133999356D01*
X163958901Y-134026588D01*
X164029450Y-134035876D01*
X164099999Y-134045164D01*
X164100000Y-134045164D01*
X164100001Y-134045164D01*
X164147032Y-134038972D01*
X164241099Y-134026588D01*
X164372577Y-133972128D01*
X164372578Y-133972128D01*
X164372578Y-133972127D01*
X164372582Y-133972126D01*
X164485489Y-133885489D01*
X164501624Y-133864460D01*
X164558052Y-133823258D01*
X164627798Y-133819103D01*
X164688718Y-133853315D01*
X164698372Y-133864456D01*
X164714511Y-133885489D01*
X164827418Y-133972126D01*
X164827421Y-133972127D01*
X164827422Y-133972128D01*
X164893159Y-133999356D01*
X164958901Y-134026588D01*
X165029450Y-134035876D01*
X165099999Y-134045164D01*
X165100000Y-134045164D01*
X165100001Y-134045164D01*
X165147032Y-134038972D01*
X165241099Y-134026588D01*
X165372577Y-133972128D01*
X165372578Y-133972128D01*
X165372578Y-133972127D01*
X165372582Y-133972126D01*
X165485489Y-133885489D01*
X165501624Y-133864460D01*
X165558052Y-133823258D01*
X165627798Y-133819103D01*
X165688718Y-133853315D01*
X165698372Y-133864456D01*
X165714511Y-133885489D01*
X165827418Y-133972126D01*
X165827421Y-133972127D01*
X165827422Y-133972128D01*
X165893159Y-133999356D01*
X165958901Y-134026588D01*
X166029450Y-134035876D01*
X166099999Y-134045164D01*
X166100000Y-134045164D01*
X166100001Y-134045164D01*
X166147032Y-134038972D01*
X166241099Y-134026588D01*
X166372577Y-133972128D01*
X166372578Y-133972128D01*
X166372578Y-133972127D01*
X166372582Y-133972126D01*
X166485489Y-133885489D01*
X166501624Y-133864460D01*
X166558052Y-133823258D01*
X166627798Y-133819103D01*
X166688718Y-133853315D01*
X166698372Y-133864456D01*
X166714511Y-133885489D01*
X166827418Y-133972126D01*
X166827421Y-133972127D01*
X166827422Y-133972128D01*
X166893159Y-133999356D01*
X166958901Y-134026588D01*
X167029450Y-134035876D01*
X167099999Y-134045164D01*
X167100000Y-134045164D01*
X167100001Y-134045164D01*
X167147032Y-134038972D01*
X167241099Y-134026588D01*
X167372577Y-133972128D01*
X167372578Y-133972128D01*
X167372578Y-133972127D01*
X167372582Y-133972126D01*
X167485489Y-133885489D01*
X167501624Y-133864460D01*
X167558052Y-133823258D01*
X167627798Y-133819103D01*
X167688718Y-133853315D01*
X167698372Y-133864456D01*
X167714511Y-133885489D01*
X167827418Y-133972126D01*
X167827421Y-133972127D01*
X167827422Y-133972128D01*
X167893159Y-133999356D01*
X167958901Y-134026588D01*
X168029450Y-134035876D01*
X168099999Y-134045164D01*
X168100000Y-134045164D01*
X168100001Y-134045164D01*
X168147032Y-134038972D01*
X168241099Y-134026588D01*
X168372577Y-133972128D01*
X168372578Y-133972128D01*
X168372578Y-133972127D01*
X168372582Y-133972126D01*
X168485489Y-133885489D01*
X168501624Y-133864460D01*
X168558052Y-133823258D01*
X168627798Y-133819103D01*
X168688718Y-133853315D01*
X168698372Y-133864456D01*
X168714511Y-133885489D01*
X168827418Y-133972126D01*
X168827421Y-133972127D01*
X168827422Y-133972128D01*
X168893159Y-133999356D01*
X168958901Y-134026588D01*
X169029450Y-134035876D01*
X169099999Y-134045164D01*
X169100000Y-134045164D01*
X169100001Y-134045164D01*
X169147032Y-134038972D01*
X169241099Y-134026588D01*
X169372577Y-133972128D01*
X169372578Y-133972128D01*
X169372578Y-133972127D01*
X169372582Y-133972126D01*
X169485489Y-133885489D01*
X169501624Y-133864460D01*
X169558052Y-133823258D01*
X169627798Y-133819103D01*
X169688718Y-133853315D01*
X169698372Y-133864456D01*
X169714511Y-133885489D01*
X169827418Y-133972126D01*
X169827421Y-133972127D01*
X169827422Y-133972128D01*
X169893159Y-133999356D01*
X169958901Y-134026588D01*
X170029450Y-134035876D01*
X170099999Y-134045164D01*
X170100000Y-134045164D01*
X170100001Y-134045164D01*
X170147032Y-134038972D01*
X170241099Y-134026588D01*
X170372577Y-133972128D01*
X170372578Y-133972128D01*
X170372578Y-133972127D01*
X170372582Y-133972126D01*
X170485489Y-133885489D01*
X170501624Y-133864460D01*
X170558052Y-133823258D01*
X170627798Y-133819103D01*
X170688718Y-133853315D01*
X170698372Y-133864456D01*
X170714511Y-133885489D01*
X170827418Y-133972126D01*
X170827421Y-133972127D01*
X170827422Y-133972128D01*
X170893159Y-133999356D01*
X170958901Y-134026588D01*
X171029450Y-134035876D01*
X171099999Y-134045164D01*
X171100000Y-134045164D01*
X171100001Y-134045164D01*
X171147032Y-134038972D01*
X171241099Y-134026588D01*
X171372577Y-133972128D01*
X171372578Y-133972128D01*
X171372578Y-133972127D01*
X171372582Y-133972126D01*
X171485489Y-133885489D01*
X171501624Y-133864460D01*
X171558052Y-133823258D01*
X171627798Y-133819103D01*
X171688718Y-133853315D01*
X171698372Y-133864456D01*
X171714511Y-133885489D01*
X171827418Y-133972126D01*
X171827421Y-133972127D01*
X171827422Y-133972128D01*
X171893159Y-133999356D01*
X171958901Y-134026588D01*
X172029450Y-134035876D01*
X172099999Y-134045164D01*
X172100000Y-134045164D01*
X172100001Y-134045164D01*
X172147032Y-134038972D01*
X172241099Y-134026588D01*
X172372577Y-133972128D01*
X172372578Y-133972128D01*
X172372578Y-133972127D01*
X172372582Y-133972126D01*
X172485489Y-133885489D01*
X172572126Y-133772582D01*
X172626588Y-133641099D01*
X172645164Y-133500000D01*
X172626588Y-133358901D01*
X172572128Y-133227422D01*
X172572128Y-133227421D01*
X172536428Y-133180896D01*
X172485489Y-133114511D01*
X172372582Y-133027874D01*
X172372579Y-133027873D01*
X172372577Y-133027871D01*
X172241102Y-132973413D01*
X172241097Y-132973411D01*
X172100001Y-132954836D01*
X172099999Y-132954836D01*
X171958902Y-132973411D01*
X171958897Y-132973413D01*
X171827422Y-133027871D01*
X171827421Y-133027871D01*
X171714510Y-133114512D01*
X171698375Y-133135540D01*
X171641946Y-133176742D01*
X171572200Y-133180896D01*
X171511280Y-133146682D01*
X171501625Y-133135540D01*
X171485489Y-133114511D01*
X171372582Y-133027874D01*
X171372579Y-133027873D01*
X171372577Y-133027871D01*
X171241102Y-132973413D01*
X171241097Y-132973411D01*
X171100001Y-132954836D01*
X171099999Y-132954836D01*
X170958902Y-132973411D01*
X170958897Y-132973413D01*
X170827422Y-133027871D01*
X170827421Y-133027871D01*
X170714510Y-133114512D01*
X170698375Y-133135540D01*
X170641946Y-133176742D01*
X170572200Y-133180896D01*
X170511280Y-133146682D01*
X170501625Y-133135540D01*
X170485489Y-133114511D01*
X170372582Y-133027874D01*
X170372579Y-133027873D01*
X170372577Y-133027871D01*
X170241102Y-132973413D01*
X170241097Y-132973411D01*
X170100001Y-132954836D01*
X170099999Y-132954836D01*
X169958902Y-132973411D01*
X169958897Y-132973413D01*
X169827422Y-133027871D01*
X169827421Y-133027871D01*
X169714510Y-133114512D01*
X169698375Y-133135540D01*
X169641946Y-133176742D01*
X169572200Y-133180896D01*
X169511280Y-133146682D01*
X169501625Y-133135540D01*
X169485489Y-133114511D01*
X169372582Y-133027874D01*
X169372579Y-133027873D01*
X169372577Y-133027871D01*
X169241102Y-132973413D01*
X169241097Y-132973411D01*
X169100001Y-132954836D01*
X169099999Y-132954836D01*
X168958902Y-132973411D01*
X168958897Y-132973413D01*
X168827422Y-133027871D01*
X168827421Y-133027871D01*
X168714510Y-133114512D01*
X168698375Y-133135540D01*
X168641946Y-133176742D01*
X168572200Y-133180896D01*
X168511280Y-133146682D01*
X168501625Y-133135540D01*
X168485489Y-133114511D01*
X168372582Y-133027874D01*
X168372579Y-133027873D01*
X168372577Y-133027871D01*
X168241102Y-132973413D01*
X168241097Y-132973411D01*
X168100001Y-132954836D01*
X168099999Y-132954836D01*
X167958902Y-132973411D01*
X167958897Y-132973413D01*
X167827422Y-133027871D01*
X167827421Y-133027871D01*
X167714510Y-133114512D01*
X167698375Y-133135540D01*
X167641946Y-133176742D01*
X167572200Y-133180896D01*
X167511280Y-133146682D01*
X167501625Y-133135540D01*
X167485489Y-133114511D01*
X167399296Y-133048373D01*
X167358097Y-132991948D01*
X167353942Y-132922202D01*
X167388154Y-132861282D01*
X167399286Y-132851634D01*
X167485489Y-132785489D01*
X167572126Y-132672582D01*
X167626588Y-132541099D01*
X167645164Y-132400000D01*
X167626588Y-132258901D01*
X167572128Y-132127422D01*
X167572128Y-132127421D01*
X167570136Y-132124825D01*
X167485489Y-132014511D01*
X167485487Y-132014510D01*
X167485487Y-132014509D01*
X167474541Y-132006110D01*
X167464460Y-131998375D01*
X167423258Y-131941948D01*
X167419103Y-131872202D01*
X167453315Y-131811282D01*
X167464460Y-131801625D01*
X167485489Y-131785489D01*
X167572126Y-131672582D01*
X167626588Y-131541099D01*
X167645164Y-131400000D01*
X167626588Y-131258901D01*
X167572128Y-131127422D01*
X167572128Y-131127421D01*
X167526351Y-131067763D01*
X199145787Y-131067763D01*
X199175413Y-131337013D01*
X199175415Y-131337024D01*
X199234564Y-131563270D01*
X199243928Y-131599088D01*
X199349870Y-131848390D01*
X199451252Y-132014510D01*
X199490979Y-132079605D01*
X199490986Y-132079615D01*
X199664253Y-132287819D01*
X199664259Y-132287824D01*
X199789456Y-132400000D01*
X199865998Y-132468582D01*
X200091910Y-132618044D01*
X200337176Y-132733020D01*
X200337183Y-132733022D01*
X200337185Y-132733023D01*
X200596557Y-132811057D01*
X200596564Y-132811058D01*
X200596569Y-132811060D01*
X200864561Y-132850500D01*
X200864566Y-132850500D01*
X201067636Y-132850500D01*
X201119133Y-132846730D01*
X201270156Y-132835677D01*
X201382758Y-132810593D01*
X201534546Y-132776782D01*
X201534548Y-132776781D01*
X201534553Y-132776780D01*
X201787558Y-132680014D01*
X202023777Y-132547441D01*
X202238177Y-132381888D01*
X202426186Y-132186881D01*
X202583799Y-131966579D01*
X202692626Y-131754909D01*
X202707649Y-131725690D01*
X202707651Y-131725684D01*
X202707656Y-131725675D01*
X202795118Y-131469305D01*
X202844319Y-131202933D01*
X202854212Y-130932235D01*
X202824586Y-130662982D01*
X202756072Y-130400912D01*
X202650130Y-130151610D01*
X202509018Y-129920390D01*
X202419747Y-129813119D01*
X202335746Y-129712180D01*
X202335740Y-129712175D01*
X202134002Y-129531418D01*
X201908092Y-129381957D01*
X201908090Y-129381956D01*
X201662824Y-129266980D01*
X201662819Y-129266978D01*
X201662814Y-129266976D01*
X201403442Y-129188942D01*
X201403428Y-129188939D01*
X201287791Y-129171921D01*
X201135439Y-129149500D01*
X200932369Y-129149500D01*
X200932364Y-129149500D01*
X200729844Y-129164323D01*
X200729831Y-129164325D01*
X200465453Y-129223217D01*
X200465446Y-129223220D01*
X200212439Y-129319987D01*
X199976226Y-129452557D01*
X199761822Y-129618112D01*
X199573822Y-129813109D01*
X199573816Y-129813116D01*
X199416202Y-130033419D01*
X199416199Y-130033424D01*
X199292350Y-130274309D01*
X199292343Y-130274327D01*
X199204884Y-130530685D01*
X199204881Y-130530699D01*
X199155681Y-130797068D01*
X199155680Y-130797075D01*
X199145787Y-131067763D01*
X167526351Y-131067763D01*
X167485487Y-131014509D01*
X167474541Y-131006110D01*
X167464460Y-130998375D01*
X167423258Y-130941948D01*
X167419103Y-130872202D01*
X167453315Y-130811282D01*
X167464460Y-130801625D01*
X167485489Y-130785489D01*
X167501624Y-130764460D01*
X167558052Y-130723258D01*
X167627798Y-130719103D01*
X167688718Y-130753315D01*
X167698372Y-130764456D01*
X167714511Y-130785489D01*
X167827418Y-130872126D01*
X167827421Y-130872127D01*
X167827422Y-130872128D01*
X167827601Y-130872202D01*
X167958901Y-130926588D01*
X168029450Y-130935876D01*
X168099999Y-130945164D01*
X168100000Y-130945164D01*
X168100001Y-130945164D01*
X168147032Y-130938972D01*
X168241099Y-130926588D01*
X168372577Y-130872128D01*
X168372578Y-130872128D01*
X168372578Y-130872127D01*
X168372582Y-130872126D01*
X168485489Y-130785489D01*
X168501624Y-130764460D01*
X168558052Y-130723258D01*
X168627798Y-130719103D01*
X168688718Y-130753315D01*
X168698372Y-130764456D01*
X168714511Y-130785489D01*
X168827418Y-130872126D01*
X168827421Y-130872127D01*
X168827422Y-130872128D01*
X168827601Y-130872202D01*
X168958901Y-130926588D01*
X169029450Y-130935876D01*
X169099999Y-130945164D01*
X169100000Y-130945164D01*
X169100001Y-130945164D01*
X169147032Y-130938972D01*
X169241099Y-130926588D01*
X169372577Y-130872128D01*
X169372578Y-130872128D01*
X169372578Y-130872127D01*
X169372582Y-130872126D01*
X169485489Y-130785489D01*
X169501624Y-130764460D01*
X169558052Y-130723258D01*
X169627798Y-130719103D01*
X169688718Y-130753315D01*
X169698372Y-130764456D01*
X169714511Y-130785489D01*
X169827418Y-130872126D01*
X169827421Y-130872127D01*
X169827422Y-130872128D01*
X169827601Y-130872202D01*
X169958901Y-130926588D01*
X170029450Y-130935876D01*
X170099999Y-130945164D01*
X170100000Y-130945164D01*
X170100001Y-130945164D01*
X170147032Y-130938972D01*
X170241099Y-130926588D01*
X170372577Y-130872128D01*
X170372578Y-130872128D01*
X170372578Y-130872127D01*
X170372582Y-130872126D01*
X170485489Y-130785489D01*
X170501624Y-130764460D01*
X170558052Y-130723258D01*
X170627798Y-130719103D01*
X170688718Y-130753315D01*
X170698372Y-130764456D01*
X170714511Y-130785489D01*
X170827418Y-130872126D01*
X170827421Y-130872127D01*
X170827422Y-130872128D01*
X170827601Y-130872202D01*
X170958901Y-130926588D01*
X171029450Y-130935876D01*
X171099999Y-130945164D01*
X171100000Y-130945164D01*
X171100001Y-130945164D01*
X171147032Y-130938972D01*
X171241099Y-130926588D01*
X171372577Y-130872128D01*
X171372578Y-130872128D01*
X171372578Y-130872127D01*
X171372582Y-130872126D01*
X171485489Y-130785489D01*
X171501624Y-130764460D01*
X171558052Y-130723258D01*
X171627798Y-130719103D01*
X171688718Y-130753315D01*
X171698372Y-130764456D01*
X171714511Y-130785489D01*
X171827418Y-130872126D01*
X171827421Y-130872127D01*
X171827422Y-130872128D01*
X171827601Y-130872202D01*
X171958901Y-130926588D01*
X172029450Y-130935876D01*
X172099999Y-130945164D01*
X172100000Y-130945164D01*
X172100001Y-130945164D01*
X172147032Y-130938972D01*
X172241099Y-130926588D01*
X172372577Y-130872128D01*
X172372578Y-130872128D01*
X172372578Y-130872127D01*
X172372582Y-130872126D01*
X172485489Y-130785489D01*
X172572126Y-130672582D01*
X172626588Y-130541099D01*
X172645164Y-130400000D01*
X172626588Y-130258901D01*
X172572128Y-130127422D01*
X172572128Y-130127421D01*
X172572126Y-130127418D01*
X172485489Y-130014511D01*
X172485487Y-130014510D01*
X172485487Y-130014509D01*
X172474541Y-130006110D01*
X172464460Y-129998375D01*
X172423258Y-129941948D01*
X172419103Y-129872202D01*
X172453315Y-129811282D01*
X172464460Y-129801625D01*
X172485489Y-129785489D01*
X172572126Y-129672582D01*
X172626588Y-129541099D01*
X172645164Y-129400000D01*
X172642788Y-129381956D01*
X172626588Y-129258902D01*
X172626586Y-129258897D01*
X172572128Y-129127422D01*
X172572128Y-129127421D01*
X172536428Y-129080896D01*
X172485489Y-129014511D01*
X172372582Y-128927874D01*
X172372579Y-128927873D01*
X172372577Y-128927871D01*
X172241102Y-128873413D01*
X172241097Y-128873411D01*
X172100001Y-128854836D01*
X172099999Y-128854836D01*
X171958902Y-128873411D01*
X171958897Y-128873413D01*
X171827422Y-128927871D01*
X171827421Y-128927871D01*
X171809076Y-128941948D01*
X171714513Y-129014510D01*
X171714510Y-129014512D01*
X171698375Y-129035540D01*
X171641946Y-129076742D01*
X171572200Y-129080896D01*
X171511280Y-129046682D01*
X171501625Y-129035540D01*
X171485489Y-129014511D01*
X171372582Y-128927874D01*
X171372579Y-128927873D01*
X171372577Y-128927871D01*
X171241102Y-128873413D01*
X171241097Y-128873411D01*
X171100001Y-128854836D01*
X171099999Y-128854836D01*
X170958902Y-128873411D01*
X170958897Y-128873413D01*
X170827422Y-128927871D01*
X170827421Y-128927871D01*
X170809076Y-128941948D01*
X170714513Y-129014510D01*
X170714510Y-129014512D01*
X170698375Y-129035540D01*
X170641946Y-129076742D01*
X170572200Y-129080896D01*
X170511280Y-129046682D01*
X170501625Y-129035540D01*
X170485489Y-129014511D01*
X170372582Y-128927874D01*
X170372579Y-128927873D01*
X170372577Y-128927871D01*
X170241102Y-128873413D01*
X170241097Y-128873411D01*
X170100001Y-128854836D01*
X170099999Y-128854836D01*
X169958902Y-128873411D01*
X169958897Y-128873413D01*
X169827422Y-128927871D01*
X169827421Y-128927871D01*
X169809076Y-128941948D01*
X169714513Y-129014510D01*
X169714510Y-129014512D01*
X169698375Y-129035540D01*
X169641946Y-129076742D01*
X169572200Y-129080896D01*
X169511280Y-129046682D01*
X169501625Y-129035540D01*
X169485489Y-129014511D01*
X169372582Y-128927874D01*
X169372579Y-128927873D01*
X169372577Y-128927871D01*
X169241102Y-128873413D01*
X169241097Y-128873411D01*
X169100001Y-128854836D01*
X169099999Y-128854836D01*
X168958902Y-128873411D01*
X168958897Y-128873413D01*
X168827422Y-128927871D01*
X168827421Y-128927871D01*
X168809076Y-128941948D01*
X168714513Y-129014510D01*
X168714510Y-129014512D01*
X168698375Y-129035540D01*
X168641946Y-129076742D01*
X168572200Y-129080896D01*
X168511280Y-129046682D01*
X168501625Y-129035540D01*
X168485489Y-129014511D01*
X168372582Y-128927874D01*
X168372579Y-128927873D01*
X168372577Y-128927871D01*
X168241102Y-128873413D01*
X168241097Y-128873411D01*
X168100001Y-128854836D01*
X168099999Y-128854836D01*
X167958902Y-128873411D01*
X167958897Y-128873413D01*
X167827422Y-128927871D01*
X167827421Y-128927871D01*
X167809076Y-128941948D01*
X167714513Y-129014510D01*
X167714510Y-129014512D01*
X167698375Y-129035540D01*
X167641946Y-129076742D01*
X167572200Y-129080896D01*
X167511280Y-129046682D01*
X167501625Y-129035540D01*
X167485489Y-129014511D01*
X167372582Y-128927874D01*
X167372579Y-128927873D01*
X167372577Y-128927871D01*
X167241102Y-128873413D01*
X167241097Y-128873411D01*
X167100001Y-128854836D01*
X167099999Y-128854836D01*
X166958902Y-128873411D01*
X166958897Y-128873413D01*
X166827422Y-128927871D01*
X166827421Y-128927871D01*
X166809076Y-128941948D01*
X166714513Y-129014510D01*
X166714510Y-129014512D01*
X166698375Y-129035540D01*
X166641946Y-129076742D01*
X166572200Y-129080896D01*
X166511280Y-129046682D01*
X166501625Y-129035540D01*
X166485489Y-129014511D01*
X166372582Y-128927874D01*
X166372579Y-128927873D01*
X166372577Y-128927871D01*
X166241102Y-128873413D01*
X166241097Y-128873411D01*
X166100001Y-128854836D01*
X166099999Y-128854836D01*
X165958902Y-128873411D01*
X165958897Y-128873413D01*
X165827422Y-128927871D01*
X165827421Y-128927871D01*
X165809076Y-128941948D01*
X165714513Y-129014510D01*
X165714510Y-129014512D01*
X165698375Y-129035540D01*
X165641946Y-129076742D01*
X165572200Y-129080896D01*
X165511280Y-129046682D01*
X165501625Y-129035540D01*
X165485489Y-129014511D01*
X165372582Y-128927874D01*
X165372579Y-128927873D01*
X165372577Y-128927871D01*
X165241102Y-128873413D01*
X165241097Y-128873411D01*
X165100001Y-128854836D01*
X165099999Y-128854836D01*
X164958902Y-128873411D01*
X164958897Y-128873413D01*
X164827422Y-128927871D01*
X164827421Y-128927871D01*
X164809076Y-128941948D01*
X164714513Y-129014510D01*
X164714510Y-129014512D01*
X164698375Y-129035540D01*
X164641946Y-129076742D01*
X164572200Y-129080896D01*
X164511280Y-129046682D01*
X164501625Y-129035540D01*
X164485489Y-129014511D01*
X164372582Y-128927874D01*
X164372579Y-128927873D01*
X164372577Y-128927871D01*
X164241102Y-128873413D01*
X164241097Y-128873411D01*
X164100001Y-128854836D01*
X164099999Y-128854836D01*
X163958902Y-128873411D01*
X163958897Y-128873413D01*
X163827422Y-128927871D01*
X163827421Y-128927871D01*
X163809076Y-128941948D01*
X163714513Y-129014510D01*
X163714510Y-129014512D01*
X163698375Y-129035540D01*
X163641946Y-129076742D01*
X163572200Y-129080896D01*
X163511280Y-129046682D01*
X163501625Y-129035540D01*
X163485489Y-129014511D01*
X163372582Y-128927874D01*
X163372579Y-128927873D01*
X163372577Y-128927871D01*
X163241102Y-128873413D01*
X163241097Y-128873411D01*
X163100001Y-128854836D01*
X163099999Y-128854836D01*
X162958902Y-128873411D01*
X162958897Y-128873413D01*
X162827422Y-128927871D01*
X162827421Y-128927871D01*
X162809076Y-128941948D01*
X162714513Y-129014510D01*
X162714510Y-129014512D01*
X162698375Y-129035540D01*
X162641946Y-129076742D01*
X162572200Y-129080896D01*
X162511280Y-129046682D01*
X162501625Y-129035540D01*
X162485489Y-129014511D01*
X162372582Y-128927874D01*
X162372579Y-128927873D01*
X162372577Y-128927871D01*
X162241102Y-128873413D01*
X162241097Y-128873411D01*
X162100001Y-128854836D01*
X162099999Y-128854836D01*
X161958902Y-128873411D01*
X161958897Y-128873413D01*
X161827422Y-128927871D01*
X161827421Y-128927871D01*
X161809076Y-128941948D01*
X161714513Y-129014510D01*
X161714510Y-129014512D01*
X161698375Y-129035540D01*
X161641946Y-129076742D01*
X161572200Y-129080896D01*
X161511280Y-129046682D01*
X161501625Y-129035540D01*
X161485489Y-129014511D01*
X161464460Y-128998375D01*
X161423258Y-128941948D01*
X161419103Y-128872202D01*
X161453315Y-128811282D01*
X161464460Y-128801625D01*
X161485489Y-128785489D01*
X161572126Y-128672582D01*
X161626588Y-128541099D01*
X161645164Y-128400000D01*
X161626588Y-128258901D01*
X161572128Y-128127422D01*
X161572128Y-128127421D01*
X161485487Y-128014509D01*
X161474541Y-128006110D01*
X161464460Y-127998375D01*
X161423258Y-127941948D01*
X161419103Y-127872202D01*
X161453315Y-127811282D01*
X161464460Y-127801625D01*
X161485489Y-127785489D01*
X161572126Y-127672582D01*
X161626588Y-127541099D01*
X161645164Y-127400000D01*
X161626588Y-127258901D01*
X161572128Y-127127422D01*
X161572128Y-127127421D01*
X161536428Y-127080896D01*
X161485489Y-127014511D01*
X161372582Y-126927874D01*
X161372579Y-126927873D01*
X161372577Y-126927871D01*
X161241102Y-126873413D01*
X161241097Y-126873411D01*
X161100001Y-126854836D01*
X161099999Y-126854836D01*
X160958902Y-126873411D01*
X160958897Y-126873413D01*
X160827422Y-126927871D01*
X160827421Y-126927871D01*
X160714510Y-127014512D01*
X160698375Y-127035540D01*
X160641946Y-127076742D01*
X160572200Y-127080896D01*
X160511280Y-127046682D01*
X160501625Y-127035540D01*
X160485489Y-127014511D01*
X160372582Y-126927874D01*
X160372579Y-126927873D01*
X160372577Y-126927871D01*
X160241102Y-126873413D01*
X160241097Y-126873411D01*
X160100001Y-126854836D01*
X160099999Y-126854836D01*
X159958902Y-126873411D01*
X159958897Y-126873413D01*
X159827422Y-126927871D01*
X159827421Y-126927871D01*
X159714510Y-127014512D01*
X159698375Y-127035540D01*
X159641946Y-127076742D01*
X159572200Y-127080896D01*
X159511280Y-127046682D01*
X159501625Y-127035540D01*
X159485489Y-127014511D01*
X159372582Y-126927874D01*
X159372579Y-126927873D01*
X159372577Y-126927871D01*
X159241102Y-126873413D01*
X159241097Y-126873411D01*
X159100001Y-126854836D01*
X159099999Y-126854836D01*
X158958902Y-126873411D01*
X158958897Y-126873413D01*
X158827422Y-126927871D01*
X158827421Y-126927871D01*
X158714510Y-127014512D01*
X158698375Y-127035540D01*
X158641946Y-127076742D01*
X158572200Y-127080896D01*
X158511280Y-127046682D01*
X158501625Y-127035540D01*
X158485489Y-127014511D01*
X158372582Y-126927874D01*
X158372579Y-126927873D01*
X158372577Y-126927871D01*
X158241102Y-126873413D01*
X158241097Y-126873411D01*
X158100001Y-126854836D01*
X158099999Y-126854836D01*
X157958902Y-126873411D01*
X157958897Y-126873413D01*
X157827422Y-126927871D01*
X157827421Y-126927871D01*
X157714511Y-127014511D01*
X157627871Y-127127421D01*
X157627871Y-127127422D01*
X157573413Y-127258897D01*
X157573411Y-127258902D01*
X157554836Y-127399999D01*
X157554836Y-127400000D01*
X157573411Y-127541097D01*
X157573413Y-127541102D01*
X157627871Y-127672577D01*
X157627871Y-127672578D01*
X157627873Y-127672581D01*
X157627874Y-127672582D01*
X157714511Y-127785489D01*
X157735540Y-127801625D01*
X157776742Y-127858054D01*
X157780896Y-127927800D01*
X157746682Y-127988720D01*
X157735541Y-127998373D01*
X157725927Y-128005750D01*
X157714512Y-128014510D01*
X157627871Y-128127421D01*
X157627871Y-128127422D01*
X157573413Y-128258897D01*
X157573411Y-128258902D01*
X157554836Y-128399999D01*
X157554836Y-128400000D01*
X157573411Y-128541097D01*
X157573413Y-128541102D01*
X157627871Y-128672577D01*
X157627871Y-128672578D01*
X157627873Y-128672581D01*
X157627874Y-128672582D01*
X157714511Y-128785489D01*
X157735540Y-128801625D01*
X157776742Y-128858054D01*
X157780896Y-128927800D01*
X157746682Y-128988720D01*
X157735541Y-128998373D01*
X157725927Y-129005750D01*
X157714512Y-129014510D01*
X157627871Y-129127421D01*
X157627871Y-129127422D01*
X157573413Y-129258897D01*
X157573411Y-129258902D01*
X157554836Y-129399999D01*
X157554836Y-129400000D01*
X157573411Y-129541097D01*
X157573413Y-129541102D01*
X157627871Y-129672577D01*
X157627871Y-129672578D01*
X157627873Y-129672581D01*
X157627874Y-129672582D01*
X157714511Y-129785489D01*
X157735540Y-129801625D01*
X157776742Y-129858054D01*
X157780896Y-129927800D01*
X157746682Y-129988720D01*
X157735541Y-129998373D01*
X157725927Y-130005750D01*
X157714514Y-130014509D01*
X157714511Y-130014511D01*
X157692851Y-130042737D01*
X157627871Y-130127421D01*
X157627871Y-130127422D01*
X157573413Y-130258897D01*
X157573411Y-130258902D01*
X157554836Y-130399999D01*
X157554836Y-130400000D01*
X157573411Y-130541097D01*
X157573413Y-130541102D01*
X157627871Y-130672577D01*
X157627871Y-130672578D01*
X157627873Y-130672581D01*
X157627874Y-130672582D01*
X157714511Y-130785489D01*
X157735540Y-130801625D01*
X157776742Y-130858054D01*
X157780896Y-130927800D01*
X157746682Y-130988720D01*
X157735541Y-130998373D01*
X157735299Y-130998560D01*
X157714512Y-131014510D01*
X157627871Y-131127421D01*
X157627871Y-131127422D01*
X157573413Y-131258897D01*
X157573411Y-131258902D01*
X157554836Y-131399999D01*
X157554836Y-131400000D01*
X157573411Y-131541097D01*
X157573413Y-131541102D01*
X157627871Y-131672577D01*
X157627871Y-131672578D01*
X157627873Y-131672581D01*
X157627874Y-131672582D01*
X157714511Y-131785489D01*
X157735540Y-131801625D01*
X157776742Y-131858054D01*
X157780896Y-131927800D01*
X157746682Y-131988720D01*
X157735541Y-131998373D01*
X157725927Y-132005750D01*
X157714512Y-132014510D01*
X157627871Y-132127421D01*
X157627871Y-132127422D01*
X157573413Y-132258897D01*
X157573411Y-132258902D01*
X157554836Y-132399999D01*
X157554836Y-132400000D01*
X157573411Y-132541097D01*
X157573413Y-132541102D01*
X157627871Y-132672577D01*
X157627871Y-132672578D01*
X157627873Y-132672581D01*
X157627874Y-132672582D01*
X157714511Y-132785489D01*
X157747832Y-132811057D01*
X157800700Y-132851625D01*
X157841902Y-132908053D01*
X157846057Y-132977799D01*
X157811844Y-133038719D01*
X157800700Y-133048375D01*
X157714513Y-133114509D01*
X157714512Y-133114510D01*
X157714511Y-133114511D01*
X157698375Y-133135540D01*
X157627871Y-133227421D01*
X157627871Y-133227422D01*
X157573413Y-133358897D01*
X157573411Y-133358902D01*
X157554836Y-133499999D01*
X157554836Y-133500000D01*
X150882868Y-133500000D01*
X150857957Y-133470001D01*
X150855897Y-133467377D01*
X150745559Y-133318603D01*
X150636995Y-133160118D01*
X150634966Y-133156954D01*
X150628809Y-133146682D01*
X150539778Y-132998142D01*
X150526003Y-132973411D01*
X150446457Y-132830601D01*
X150444588Y-132826964D01*
X150424972Y-132785490D01*
X150365370Y-132659474D01*
X150288100Y-132484471D01*
X150286450Y-132480339D01*
X150223906Y-132305540D01*
X150163327Y-132124797D01*
X150161989Y-132120221D01*
X150116675Y-131939315D01*
X150073294Y-131754871D01*
X150072329Y-131749828D01*
X150044662Y-131563310D01*
X150018819Y-131378048D01*
X150018302Y-131372549D01*
X150008487Y-131172761D01*
X150003633Y-131067763D01*
X152145787Y-131067763D01*
X152175413Y-131337013D01*
X152175415Y-131337024D01*
X152234564Y-131563270D01*
X152243928Y-131599088D01*
X152349870Y-131848390D01*
X152451252Y-132014510D01*
X152490979Y-132079605D01*
X152490986Y-132079615D01*
X152664253Y-132287819D01*
X152664259Y-132287824D01*
X152789456Y-132400000D01*
X152865998Y-132468582D01*
X153091910Y-132618044D01*
X153337176Y-132733020D01*
X153337183Y-132733022D01*
X153337185Y-132733023D01*
X153596557Y-132811057D01*
X153596564Y-132811058D01*
X153596569Y-132811060D01*
X153864561Y-132850500D01*
X153864566Y-132850500D01*
X154067636Y-132850500D01*
X154119133Y-132846730D01*
X154270156Y-132835677D01*
X154382758Y-132810593D01*
X154534546Y-132776782D01*
X154534548Y-132776781D01*
X154534553Y-132776780D01*
X154787558Y-132680014D01*
X155023777Y-132547441D01*
X155238177Y-132381888D01*
X155426186Y-132186881D01*
X155583799Y-131966579D01*
X155692626Y-131754909D01*
X155707649Y-131725690D01*
X155707651Y-131725684D01*
X155707656Y-131725675D01*
X155795118Y-131469305D01*
X155844319Y-131202933D01*
X155854212Y-130932235D01*
X155824586Y-130662982D01*
X155756072Y-130400912D01*
X155650130Y-130151610D01*
X155509018Y-129920390D01*
X155419747Y-129813119D01*
X155335746Y-129712180D01*
X155335740Y-129712175D01*
X155134002Y-129531418D01*
X154908092Y-129381957D01*
X154908090Y-129381956D01*
X154662824Y-129266980D01*
X154662819Y-129266978D01*
X154662814Y-129266976D01*
X154403442Y-129188942D01*
X154403428Y-129188939D01*
X154287791Y-129171921D01*
X154135439Y-129149500D01*
X153932369Y-129149500D01*
X153932364Y-129149500D01*
X153729844Y-129164323D01*
X153729831Y-129164325D01*
X153465453Y-129223217D01*
X153465446Y-129223220D01*
X153212439Y-129319987D01*
X152976226Y-129452557D01*
X152761822Y-129618112D01*
X152573822Y-129813109D01*
X152573816Y-129813116D01*
X152416202Y-130033419D01*
X152416199Y-130033424D01*
X152292350Y-130274309D01*
X152292343Y-130274327D01*
X152204884Y-130530685D01*
X152204881Y-130530699D01*
X152155681Y-130797068D01*
X152155680Y-130797075D01*
X152145787Y-131067763D01*
X150003633Y-131067763D01*
X150000566Y-131001423D01*
X150000500Y-130998560D01*
X150000500Y-123700000D01*
X151754614Y-123700000D01*
X151774115Y-123910463D01*
X151774116Y-123910466D01*
X151831956Y-124113756D01*
X151831959Y-124113762D01*
X151926173Y-124302968D01*
X152053551Y-124471644D01*
X152163245Y-124571642D01*
X152209751Y-124614038D01*
X152389458Y-124725308D01*
X152389459Y-124725308D01*
X152389460Y-124725309D01*
X152431213Y-124741484D01*
X152586550Y-124801662D01*
X152794317Y-124840500D01*
X152794319Y-124840500D01*
X153005681Y-124840500D01*
X153005683Y-124840500D01*
X153213450Y-124801662D01*
X153410542Y-124725308D01*
X153590249Y-124614038D01*
X153746450Y-124471642D01*
X153873827Y-124302968D01*
X153968041Y-124113761D01*
X153968041Y-124113758D01*
X153968043Y-124113756D01*
X154011617Y-123960607D01*
X154025884Y-123910464D01*
X154045386Y-123700000D01*
X154025884Y-123489536D01*
X153968041Y-123286239D01*
X153915127Y-123179975D01*
X153902867Y-123111191D01*
X153929740Y-123046697D01*
X153938437Y-123037034D01*
X154973653Y-122001819D01*
X155034977Y-121968334D01*
X155061335Y-121965500D01*
X163561636Y-121965500D01*
X163585828Y-121967883D01*
X163599999Y-121970702D01*
X163600000Y-121970702D01*
X163600002Y-121970702D01*
X163703589Y-121950096D01*
X163703590Y-121950095D01*
X163703593Y-121950095D01*
X163706043Y-121948458D01*
X163710974Y-121945164D01*
X163778568Y-121899999D01*
X163791415Y-121891415D01*
X163799442Y-121879400D01*
X163814860Y-121860612D01*
X166281717Y-119393755D01*
X166343041Y-119360270D01*
X166412733Y-119365254D01*
X166468666Y-119407126D01*
X166493083Y-119472590D01*
X166493399Y-119481436D01*
X166493399Y-119520535D01*
X166491016Y-119544727D01*
X166488197Y-119558899D01*
X166491303Y-119574512D01*
X166499159Y-119614004D01*
X166508804Y-119662493D01*
X166516908Y-119674621D01*
X166567484Y-119750314D01*
X166579497Y-119758340D01*
X166598287Y-119773761D01*
X167969062Y-121144536D01*
X168002547Y-121205859D01*
X167997563Y-121275551D01*
X167955691Y-121331484D01*
X167897567Y-121355156D01*
X167758901Y-121373412D01*
X167758897Y-121373413D01*
X167627422Y-121427871D01*
X167627421Y-121427871D01*
X167514511Y-121514511D01*
X167427871Y-121627421D01*
X167427871Y-121627422D01*
X167373413Y-121758897D01*
X167373411Y-121758902D01*
X167354836Y-121899999D01*
X167354836Y-121900001D01*
X167366595Y-121989321D01*
X167355829Y-122058356D01*
X167331337Y-122093187D01*
X165926345Y-123498181D01*
X165865022Y-123531666D01*
X165838664Y-123534500D01*
X158703865Y-123534500D01*
X158636826Y-123514815D01*
X158591071Y-123462011D01*
X158584599Y-123444435D01*
X158568042Y-123386243D01*
X158568041Y-123386239D01*
X158473827Y-123197032D01*
X158355694Y-123040599D01*
X158346448Y-123028355D01*
X158190250Y-122885963D01*
X158190249Y-122885962D01*
X158010542Y-122774692D01*
X158010540Y-122774691D01*
X158010539Y-122774690D01*
X157855205Y-122714514D01*
X157813450Y-122698338D01*
X157605683Y-122659500D01*
X157394317Y-122659500D01*
X157186550Y-122698338D01*
X157186547Y-122698338D01*
X157186547Y-122698339D01*
X156989460Y-122774690D01*
X156989459Y-122774691D01*
X156809749Y-122885963D01*
X156653551Y-123028355D01*
X156526173Y-123197031D01*
X156431959Y-123386237D01*
X156431956Y-123386243D01*
X156374116Y-123589533D01*
X156374115Y-123589536D01*
X156354614Y-123799999D01*
X156354614Y-123800000D01*
X156374115Y-124010463D01*
X156374116Y-124010466D01*
X156431956Y-124213756D01*
X156431959Y-124213762D01*
X156526173Y-124402968D01*
X156653551Y-124571644D01*
X156787925Y-124694141D01*
X156809751Y-124714038D01*
X156989458Y-124825308D01*
X156989459Y-124825308D01*
X156989460Y-124825309D01*
X157028673Y-124840500D01*
X157186550Y-124901662D01*
X157394317Y-124940500D01*
X157394319Y-124940500D01*
X157605681Y-124940500D01*
X157605683Y-124940500D01*
X157813450Y-124901662D01*
X158010542Y-124825308D01*
X158190249Y-124714038D01*
X158346450Y-124571642D01*
X158473827Y-124402968D01*
X158568041Y-124213761D01*
X158584599Y-124155564D01*
X158621878Y-124096472D01*
X158685188Y-124066915D01*
X158703865Y-124065500D01*
X165961636Y-124065500D01*
X165985828Y-124067883D01*
X165999999Y-124070702D01*
X166000000Y-124070702D01*
X166103593Y-124050095D01*
X166153556Y-124016711D01*
X166191415Y-123991415D01*
X166199442Y-123979400D01*
X166214860Y-123960612D01*
X167706812Y-122468660D01*
X167768133Y-122435177D01*
X167810674Y-122433404D01*
X167900000Y-122445164D01*
X167900001Y-122445164D01*
X167947032Y-122438972D01*
X168041099Y-122426588D01*
X168172577Y-122372128D01*
X168172578Y-122372128D01*
X168172578Y-122372127D01*
X168172582Y-122372126D01*
X168285489Y-122285489D01*
X168372126Y-122172582D01*
X168426588Y-122041099D01*
X168444843Y-121902430D01*
X168473109Y-121838537D01*
X168531433Y-121800065D01*
X168601298Y-121799233D01*
X168655463Y-121830937D01*
X173431337Y-126606810D01*
X173464822Y-126668133D01*
X173466595Y-126710676D01*
X173454836Y-126799998D01*
X173454836Y-126800000D01*
X173473411Y-126941097D01*
X173473413Y-126941102D01*
X173527871Y-127072577D01*
X173527871Y-127072578D01*
X173527873Y-127072581D01*
X173527874Y-127072582D01*
X173614511Y-127185489D01*
X173727418Y-127272126D01*
X173727421Y-127272127D01*
X173727422Y-127272128D01*
X173793159Y-127299356D01*
X173858901Y-127326588D01*
X173929450Y-127335876D01*
X173999999Y-127345164D01*
X174000000Y-127345164D01*
X174000001Y-127345164D01*
X174047032Y-127338972D01*
X174141099Y-127326588D01*
X174272577Y-127272128D01*
X174272578Y-127272128D01*
X174272578Y-127272127D01*
X174272582Y-127272126D01*
X174385489Y-127185489D01*
X174440334Y-127114013D01*
X174496763Y-127072811D01*
X174538710Y-127065500D01*
X177761636Y-127065500D01*
X177785828Y-127067883D01*
X177799999Y-127070702D01*
X177800000Y-127070702D01*
X177903593Y-127050095D01*
X177969248Y-127006226D01*
X177979735Y-126999219D01*
X178001568Y-126984631D01*
X178001574Y-126984626D01*
X178004943Y-126982374D01*
X178021800Y-126953672D01*
X180860609Y-124114862D01*
X180879391Y-124099448D01*
X180891415Y-124091415D01*
X180919024Y-124050095D01*
X180950094Y-124003596D01*
X180950095Y-124003592D01*
X180970701Y-123900001D01*
X180967883Y-123885836D01*
X180965499Y-123861639D01*
X180965499Y-122598338D01*
X180965499Y-121400000D01*
X185454836Y-121400000D01*
X185473411Y-121541097D01*
X185473413Y-121541102D01*
X185527871Y-121672577D01*
X185527871Y-121672578D01*
X185527873Y-121672581D01*
X185527874Y-121672582D01*
X185614511Y-121785489D01*
X185727418Y-121872126D01*
X185727421Y-121872127D01*
X185727422Y-121872128D01*
X185773981Y-121891413D01*
X185858901Y-121926588D01*
X185929450Y-121935876D01*
X185999999Y-121945164D01*
X186000000Y-121945164D01*
X186000001Y-121945164D01*
X186047032Y-121938972D01*
X186141099Y-121926588D01*
X186272577Y-121872128D01*
X186272578Y-121872128D01*
X186272578Y-121872127D01*
X186272582Y-121872126D01*
X186385489Y-121785489D01*
X186401624Y-121764460D01*
X186458052Y-121723258D01*
X186527798Y-121719103D01*
X186588718Y-121753315D01*
X186598372Y-121764456D01*
X186614511Y-121785489D01*
X186727418Y-121872126D01*
X186727421Y-121872127D01*
X186727422Y-121872128D01*
X186773981Y-121891413D01*
X186858901Y-121926588D01*
X186929450Y-121935876D01*
X186999999Y-121945164D01*
X187000000Y-121945164D01*
X187000001Y-121945164D01*
X187047032Y-121938972D01*
X187141099Y-121926588D01*
X187272577Y-121872128D01*
X187272578Y-121872128D01*
X187272578Y-121872127D01*
X187272582Y-121872126D01*
X187385489Y-121785489D01*
X187401624Y-121764460D01*
X187458052Y-121723258D01*
X187527798Y-121719103D01*
X187588718Y-121753315D01*
X187598372Y-121764456D01*
X187614511Y-121785489D01*
X187727418Y-121872126D01*
X187727421Y-121872127D01*
X187727422Y-121872128D01*
X187773981Y-121891413D01*
X187858901Y-121926588D01*
X187929450Y-121935876D01*
X187999999Y-121945164D01*
X188000000Y-121945164D01*
X188000001Y-121945164D01*
X188047032Y-121938972D01*
X188141099Y-121926588D01*
X188272577Y-121872128D01*
X188272578Y-121872128D01*
X188272578Y-121872127D01*
X188272582Y-121872126D01*
X188385489Y-121785489D01*
X188401624Y-121764460D01*
X188458052Y-121723258D01*
X188527798Y-121719103D01*
X188588718Y-121753315D01*
X188598372Y-121764456D01*
X188614511Y-121785489D01*
X188635540Y-121801625D01*
X188676742Y-121858054D01*
X188680896Y-121927800D01*
X188646682Y-121988720D01*
X188635541Y-121998373D01*
X188614511Y-122014511D01*
X188598376Y-122035538D01*
X188527871Y-122127421D01*
X188527871Y-122127422D01*
X188473413Y-122258897D01*
X188473411Y-122258902D01*
X188454836Y-122399999D01*
X188454836Y-122400000D01*
X188473411Y-122541097D01*
X188473413Y-122541102D01*
X188527871Y-122672577D01*
X188527871Y-122672578D01*
X188527873Y-122672581D01*
X188527874Y-122672582D01*
X188614511Y-122785489D01*
X188727418Y-122872126D01*
X188727421Y-122872127D01*
X188727422Y-122872128D01*
X188760821Y-122885962D01*
X188858901Y-122926588D01*
X188872346Y-122928358D01*
X188999999Y-122945164D01*
X189000000Y-122945164D01*
X189000001Y-122945164D01*
X189047032Y-122938972D01*
X189141099Y-122926588D01*
X189272577Y-122872128D01*
X189272578Y-122872128D01*
X189272578Y-122872127D01*
X189272582Y-122872126D01*
X189385489Y-122785489D01*
X189401624Y-122764460D01*
X189458052Y-122723258D01*
X189527798Y-122719103D01*
X189588718Y-122753315D01*
X189598372Y-122764456D01*
X189606110Y-122774541D01*
X189614507Y-122785485D01*
X189614511Y-122785489D01*
X189727418Y-122872126D01*
X189727421Y-122872127D01*
X189727422Y-122872128D01*
X189760821Y-122885962D01*
X189858901Y-122926588D01*
X189872346Y-122928358D01*
X189999999Y-122945164D01*
X190000000Y-122945164D01*
X190000001Y-122945164D01*
X190047032Y-122938972D01*
X190141099Y-122926588D01*
X190272577Y-122872128D01*
X190272578Y-122872128D01*
X190272578Y-122872127D01*
X190272582Y-122872126D01*
X190385489Y-122785489D01*
X190401625Y-122764459D01*
X190458048Y-122723259D01*
X190527794Y-122719102D01*
X190588715Y-122753313D01*
X190598373Y-122764459D01*
X190606225Y-122774691D01*
X190614511Y-122785489D01*
X190727418Y-122872126D01*
X190727421Y-122872127D01*
X190727422Y-122872128D01*
X190760821Y-122885962D01*
X190858901Y-122926588D01*
X190872346Y-122928358D01*
X190999999Y-122945164D01*
X191000000Y-122945164D01*
X191000001Y-122945164D01*
X191047032Y-122938972D01*
X191141099Y-122926588D01*
X191272577Y-122872128D01*
X191272578Y-122872128D01*
X191272578Y-122872127D01*
X191272582Y-122872126D01*
X191385489Y-122785489D01*
X191401624Y-122764460D01*
X191458052Y-122723258D01*
X191527798Y-122719103D01*
X191588718Y-122753315D01*
X191598372Y-122764456D01*
X191606110Y-122774541D01*
X191614507Y-122785485D01*
X191614511Y-122785489D01*
X191727418Y-122872126D01*
X191727421Y-122872127D01*
X191727422Y-122872128D01*
X191760821Y-122885962D01*
X191858901Y-122926588D01*
X191872346Y-122928358D01*
X191999999Y-122945164D01*
X192000000Y-122945164D01*
X192000001Y-122945164D01*
X192047032Y-122938972D01*
X192141099Y-122926588D01*
X192272577Y-122872128D01*
X192272578Y-122872128D01*
X192272578Y-122872127D01*
X192272582Y-122872126D01*
X192385489Y-122785489D01*
X192472126Y-122672582D01*
X192526588Y-122541099D01*
X192545164Y-122400000D01*
X192526588Y-122258901D01*
X192490832Y-122172578D01*
X192472128Y-122127422D01*
X192472128Y-122127421D01*
X192472126Y-122127418D01*
X192385489Y-122014511D01*
X192272582Y-121927874D01*
X192272579Y-121927873D01*
X192272577Y-121927871D01*
X192141102Y-121873413D01*
X192141097Y-121873411D01*
X192000001Y-121854836D01*
X191999999Y-121854836D01*
X191858902Y-121873411D01*
X191858897Y-121873413D01*
X191727422Y-121927871D01*
X191727421Y-121927871D01*
X191648122Y-121988720D01*
X191614511Y-122014511D01*
X191598377Y-122035538D01*
X191598375Y-122035540D01*
X191541946Y-122076742D01*
X191472200Y-122080896D01*
X191411280Y-122046682D01*
X191401625Y-122035540D01*
X191385489Y-122014511D01*
X191272582Y-121927874D01*
X191272579Y-121927873D01*
X191272577Y-121927871D01*
X191141102Y-121873413D01*
X191141097Y-121873411D01*
X191000001Y-121854836D01*
X190999999Y-121854836D01*
X190858902Y-121873411D01*
X190858897Y-121873413D01*
X190727422Y-121927871D01*
X190727421Y-121927871D01*
X190614508Y-122014513D01*
X190598372Y-122035542D01*
X190541942Y-122076743D01*
X190472196Y-122080895D01*
X190411277Y-122046680D01*
X190401628Y-122035544D01*
X190385489Y-122014511D01*
X190272582Y-121927874D01*
X190272579Y-121927873D01*
X190272577Y-121927871D01*
X190141102Y-121873413D01*
X190141097Y-121873411D01*
X190000001Y-121854836D01*
X189999999Y-121854836D01*
X189858902Y-121873411D01*
X189858897Y-121873413D01*
X189727422Y-121927871D01*
X189727421Y-121927871D01*
X189648122Y-121988720D01*
X189614511Y-122014511D01*
X189598377Y-122035538D01*
X189598375Y-122035540D01*
X189541946Y-122076742D01*
X189472200Y-122080896D01*
X189411280Y-122046682D01*
X189401625Y-122035540D01*
X189385489Y-122014511D01*
X189364460Y-121998375D01*
X189323258Y-121941948D01*
X189319103Y-121872202D01*
X189353315Y-121811282D01*
X189364460Y-121801625D01*
X189385489Y-121785489D01*
X189472126Y-121672582D01*
X189526588Y-121541099D01*
X189545164Y-121400000D01*
X189543253Y-121385488D01*
X189527807Y-121268158D01*
X189526588Y-121258901D01*
X189472128Y-121127422D01*
X189472128Y-121127421D01*
X189391151Y-121021890D01*
X189385489Y-121014511D01*
X189385487Y-121014510D01*
X189385487Y-121014509D01*
X189366578Y-121000000D01*
X189954836Y-121000000D01*
X189973411Y-121141097D01*
X189973413Y-121141102D01*
X190027871Y-121272577D01*
X190027871Y-121272578D01*
X190027873Y-121272581D01*
X190027874Y-121272582D01*
X190114511Y-121385489D01*
X190227418Y-121472126D01*
X190227421Y-121472127D01*
X190227422Y-121472128D01*
X190233441Y-121474621D01*
X190358901Y-121526588D01*
X190390553Y-121530755D01*
X190499999Y-121545164D01*
X190500000Y-121545164D01*
X190500001Y-121545164D01*
X190547032Y-121538972D01*
X190641099Y-121526588D01*
X190772582Y-121472126D01*
X190874513Y-121393910D01*
X190939682Y-121368716D01*
X191008127Y-121382754D01*
X191025485Y-121393909D01*
X191033421Y-121399999D01*
X191127416Y-121472125D01*
X191127422Y-121472128D01*
X191133441Y-121474621D01*
X191258901Y-121526588D01*
X191290553Y-121530755D01*
X191399999Y-121545164D01*
X191400000Y-121545164D01*
X191400001Y-121545164D01*
X191447032Y-121538972D01*
X191541099Y-121526588D01*
X191672582Y-121472126D01*
X191774513Y-121393910D01*
X191839682Y-121368716D01*
X191908127Y-121382754D01*
X191925485Y-121393909D01*
X191933421Y-121399999D01*
X192027416Y-121472125D01*
X192027422Y-121472128D01*
X192033441Y-121474621D01*
X192158901Y-121526588D01*
X192190553Y-121530755D01*
X192299999Y-121545164D01*
X192300000Y-121545164D01*
X192300001Y-121545164D01*
X192347032Y-121538972D01*
X192441099Y-121526588D01*
X192572577Y-121472128D01*
X192572578Y-121472128D01*
X192572578Y-121472127D01*
X192572582Y-121472126D01*
X192685489Y-121385489D01*
X192772126Y-121272582D01*
X192826588Y-121141099D01*
X192845164Y-121000000D01*
X192839305Y-120955500D01*
X192826588Y-120858902D01*
X192826586Y-120858897D01*
X192806863Y-120811282D01*
X192772128Y-120727422D01*
X192772128Y-120727421D01*
X192772125Y-120727417D01*
X192685489Y-120614511D01*
X192572582Y-120527874D01*
X192572579Y-120527873D01*
X192572577Y-120527871D01*
X192441102Y-120473413D01*
X192441097Y-120473411D01*
X192300001Y-120454836D01*
X192299999Y-120454836D01*
X192158902Y-120473411D01*
X192158897Y-120473413D01*
X192038892Y-120523120D01*
X191969422Y-120530589D01*
X191906943Y-120499313D01*
X191871292Y-120439224D01*
X191873786Y-120369399D01*
X191876874Y-120361118D01*
X191926588Y-120241099D01*
X191945164Y-120100000D01*
X191941422Y-120071580D01*
X191926588Y-119958902D01*
X191926586Y-119958897D01*
X191913705Y-119927800D01*
X191903335Y-119902763D01*
X198065787Y-119902763D01*
X198095413Y-120172013D01*
X198095415Y-120172024D01*
X198163926Y-120434082D01*
X198163928Y-120434088D01*
X198269870Y-120683390D01*
X198390946Y-120881780D01*
X198410979Y-120914605D01*
X198410986Y-120914615D01*
X198584253Y-121122819D01*
X198584259Y-121122824D01*
X198707706Y-121233432D01*
X198785998Y-121303582D01*
X199011910Y-121453044D01*
X199257176Y-121568020D01*
X199257183Y-121568022D01*
X199257185Y-121568023D01*
X199516557Y-121646057D01*
X199516564Y-121646058D01*
X199516569Y-121646060D01*
X199784561Y-121685500D01*
X199784566Y-121685500D01*
X199987636Y-121685500D01*
X200039133Y-121681730D01*
X200190156Y-121670677D01*
X200302758Y-121645593D01*
X200454546Y-121611782D01*
X200454548Y-121611781D01*
X200454553Y-121611780D01*
X200707558Y-121515014D01*
X200943777Y-121382441D01*
X201158177Y-121216888D01*
X201346186Y-121021881D01*
X201503799Y-120801579D01*
X201580705Y-120651996D01*
X201627649Y-120560690D01*
X201627651Y-120560684D01*
X201627656Y-120560675D01*
X201715118Y-120304305D01*
X201764319Y-120037933D01*
X201774212Y-119767235D01*
X201744586Y-119497982D01*
X201676072Y-119235912D01*
X201570130Y-118986610D01*
X201429018Y-118755390D01*
X201406117Y-118727871D01*
X201255746Y-118547180D01*
X201255740Y-118547175D01*
X201054002Y-118366418D01*
X200828092Y-118216957D01*
X200780637Y-118194711D01*
X200582824Y-118101980D01*
X200582819Y-118101978D01*
X200582814Y-118101976D01*
X200323442Y-118023942D01*
X200323428Y-118023939D01*
X200207791Y-118006921D01*
X200055439Y-117984500D01*
X199852369Y-117984500D01*
X199852364Y-117984500D01*
X199649844Y-117999323D01*
X199649831Y-117999325D01*
X199385453Y-118058217D01*
X199385446Y-118058220D01*
X199132439Y-118154987D01*
X198896226Y-118287557D01*
X198681822Y-118453112D01*
X198493822Y-118648109D01*
X198493816Y-118648116D01*
X198336202Y-118868419D01*
X198336199Y-118868424D01*
X198212350Y-119109309D01*
X198212343Y-119109327D01*
X198124884Y-119365685D01*
X198124881Y-119365699D01*
X198110783Y-119442024D01*
X198076456Y-119627874D01*
X198075681Y-119632068D01*
X198075680Y-119632075D01*
X198065787Y-119902763D01*
X191903335Y-119902763D01*
X191884816Y-119858054D01*
X191872128Y-119827422D01*
X191872128Y-119827421D01*
X191839953Y-119785490D01*
X191785489Y-119714511D01*
X191672582Y-119627874D01*
X191672579Y-119627873D01*
X191672577Y-119627871D01*
X191541102Y-119573413D01*
X191541097Y-119573411D01*
X191400001Y-119554836D01*
X191399999Y-119554836D01*
X191258902Y-119573411D01*
X191258897Y-119573413D01*
X191138892Y-119623120D01*
X191069422Y-119630589D01*
X191006943Y-119599313D01*
X190971292Y-119539224D01*
X190973786Y-119469399D01*
X190976874Y-119461118D01*
X191026588Y-119341099D01*
X191045164Y-119200000D01*
X191041578Y-119172765D01*
X191026588Y-119058902D01*
X191026586Y-119058897D01*
X191017613Y-119037235D01*
X190990832Y-118972578D01*
X190972128Y-118927422D01*
X190972128Y-118927421D01*
X190972126Y-118927418D01*
X190885489Y-118814511D01*
X190772582Y-118727874D01*
X190772579Y-118727873D01*
X190772577Y-118727871D01*
X190641102Y-118673413D01*
X190641097Y-118673411D01*
X190500001Y-118654836D01*
X190499999Y-118654836D01*
X190358902Y-118673411D01*
X190358897Y-118673413D01*
X190227422Y-118727871D01*
X190227421Y-118727871D01*
X190114511Y-118814511D01*
X190027871Y-118927421D01*
X190027871Y-118927422D01*
X189973413Y-119058897D01*
X189973411Y-119058902D01*
X189954836Y-119199999D01*
X189954836Y-119200000D01*
X189973411Y-119341097D01*
X189973413Y-119341102D01*
X190027871Y-119472577D01*
X190027871Y-119472578D01*
X190027873Y-119472581D01*
X190027874Y-119472582D01*
X190106090Y-119574514D01*
X190131283Y-119639681D01*
X190117245Y-119708126D01*
X190106089Y-119725485D01*
X190027874Y-119827417D01*
X190027871Y-119827422D01*
X189973413Y-119958897D01*
X189973411Y-119958902D01*
X189954836Y-120099999D01*
X189954836Y-120100000D01*
X189973411Y-120241097D01*
X189973413Y-120241102D01*
X190027871Y-120372577D01*
X190027874Y-120372582D01*
X190106089Y-120474514D01*
X190131283Y-120539683D01*
X190117245Y-120608128D01*
X190106089Y-120625486D01*
X190027874Y-120727417D01*
X190027871Y-120727422D01*
X189973413Y-120858897D01*
X189973411Y-120858902D01*
X189954836Y-120999999D01*
X189954836Y-121000000D01*
X189366578Y-121000000D01*
X189364460Y-120998375D01*
X189323258Y-120941948D01*
X189319103Y-120872202D01*
X189353315Y-120811282D01*
X189364460Y-120801625D01*
X189385489Y-120785489D01*
X189472126Y-120672582D01*
X189526588Y-120541099D01*
X189545164Y-120400000D01*
X189526588Y-120258901D01*
X189495814Y-120184605D01*
X189472128Y-120127422D01*
X189472128Y-120127421D01*
X189451087Y-120100000D01*
X189385489Y-120014511D01*
X189385487Y-120014510D01*
X189385487Y-120014509D01*
X189374541Y-120006110D01*
X189364460Y-119998375D01*
X189323258Y-119941948D01*
X189319103Y-119872202D01*
X189353315Y-119811282D01*
X189364460Y-119801625D01*
X189385489Y-119785489D01*
X189472126Y-119672582D01*
X189526588Y-119541099D01*
X189545164Y-119400000D01*
X189539933Y-119360270D01*
X189534055Y-119315616D01*
X189526588Y-119258901D01*
X189490909Y-119172765D01*
X189472128Y-119127422D01*
X189472128Y-119127421D01*
X189458244Y-119109327D01*
X189385489Y-119014511D01*
X189385487Y-119014510D01*
X189385487Y-119014509D01*
X189374541Y-119006110D01*
X189364460Y-118998375D01*
X189323258Y-118941948D01*
X189319103Y-118872202D01*
X189353315Y-118811282D01*
X189364460Y-118801625D01*
X189385489Y-118785489D01*
X189472126Y-118672582D01*
X189526588Y-118541099D01*
X189545164Y-118400000D01*
X189544661Y-118396183D01*
X189533909Y-118314511D01*
X189526588Y-118258901D01*
X189491177Y-118173411D01*
X189472128Y-118127422D01*
X189472128Y-118127421D01*
X189472126Y-118127418D01*
X189385489Y-118014511D01*
X189272582Y-117927874D01*
X189272579Y-117927873D01*
X189272577Y-117927871D01*
X189141102Y-117873413D01*
X189141097Y-117873411D01*
X189000001Y-117854836D01*
X188999999Y-117854836D01*
X188858902Y-117873411D01*
X188858897Y-117873413D01*
X188727422Y-117927871D01*
X188727421Y-117927871D01*
X188614510Y-118014512D01*
X188598375Y-118035540D01*
X188541946Y-118076742D01*
X188472200Y-118080896D01*
X188411280Y-118046682D01*
X188401625Y-118035540D01*
X188385489Y-118014511D01*
X188272582Y-117927874D01*
X188272579Y-117927873D01*
X188272577Y-117927871D01*
X188141102Y-117873413D01*
X188141097Y-117873411D01*
X188000001Y-117854836D01*
X187999999Y-117854836D01*
X187858902Y-117873411D01*
X187858897Y-117873413D01*
X187727422Y-117927871D01*
X187727421Y-117927871D01*
X187614510Y-118014512D01*
X187598375Y-118035540D01*
X187541946Y-118076742D01*
X187472200Y-118080896D01*
X187411280Y-118046682D01*
X187401625Y-118035540D01*
X187385489Y-118014511D01*
X187272582Y-117927874D01*
X187272579Y-117927873D01*
X187272577Y-117927871D01*
X187141102Y-117873413D01*
X187141097Y-117873411D01*
X187000001Y-117854836D01*
X186999999Y-117854836D01*
X186858902Y-117873411D01*
X186858897Y-117873413D01*
X186727422Y-117927871D01*
X186727421Y-117927871D01*
X186614510Y-118014512D01*
X186598375Y-118035540D01*
X186541946Y-118076742D01*
X186472200Y-118080896D01*
X186411280Y-118046682D01*
X186401625Y-118035540D01*
X186385489Y-118014511D01*
X186272582Y-117927874D01*
X186272579Y-117927873D01*
X186272577Y-117927871D01*
X186141102Y-117873413D01*
X186141097Y-117873411D01*
X186000001Y-117854836D01*
X185999999Y-117854836D01*
X185858902Y-117873411D01*
X185858897Y-117873413D01*
X185727422Y-117927871D01*
X185727421Y-117927871D01*
X185614511Y-118014511D01*
X185527871Y-118127421D01*
X185527871Y-118127422D01*
X185473413Y-118258897D01*
X185473411Y-118258902D01*
X185454836Y-118399999D01*
X185454836Y-118400000D01*
X185473411Y-118541097D01*
X185473413Y-118541102D01*
X185527871Y-118672577D01*
X185527871Y-118672578D01*
X185527873Y-118672581D01*
X185527874Y-118672582D01*
X185614511Y-118785489D01*
X185635540Y-118801625D01*
X185676742Y-118858054D01*
X185680896Y-118927800D01*
X185646682Y-118988720D01*
X185635541Y-118998373D01*
X185625927Y-119005750D01*
X185614512Y-119014510D01*
X185527871Y-119127421D01*
X185527871Y-119127422D01*
X185473413Y-119258897D01*
X185473411Y-119258902D01*
X185454836Y-119399999D01*
X185454836Y-119400000D01*
X185473411Y-119541097D01*
X185473413Y-119541102D01*
X185527871Y-119672577D01*
X185527871Y-119672578D01*
X185527873Y-119672581D01*
X185527874Y-119672582D01*
X185614511Y-119785489D01*
X185635540Y-119801625D01*
X185676742Y-119858054D01*
X185680896Y-119927800D01*
X185646682Y-119988720D01*
X185635541Y-119998373D01*
X185625927Y-120005750D01*
X185614514Y-120014509D01*
X185614511Y-120014511D01*
X185596540Y-120037931D01*
X185527871Y-120127421D01*
X185527871Y-120127422D01*
X185473413Y-120258897D01*
X185473411Y-120258902D01*
X185454836Y-120399999D01*
X185454836Y-120400000D01*
X185473411Y-120541097D01*
X185473413Y-120541102D01*
X185527871Y-120672577D01*
X185527871Y-120672578D01*
X185527873Y-120672581D01*
X185527874Y-120672582D01*
X185614511Y-120785489D01*
X185635540Y-120801625D01*
X185676742Y-120858054D01*
X185680896Y-120927800D01*
X185646682Y-120988720D01*
X185635541Y-120998373D01*
X185633422Y-121000000D01*
X185614512Y-121014510D01*
X185527871Y-121127421D01*
X185527871Y-121127422D01*
X185473413Y-121258897D01*
X185473411Y-121258902D01*
X185454836Y-121399999D01*
X185454836Y-121400000D01*
X180965499Y-121400000D01*
X180965499Y-121331804D01*
X180985184Y-121264769D01*
X181014007Y-121233437D01*
X181085489Y-121178588D01*
X181172126Y-121065681D01*
X181226588Y-120934198D01*
X181245164Y-120793099D01*
X181226588Y-120652000D01*
X181180653Y-120541102D01*
X181172128Y-120520521D01*
X181172128Y-120520520D01*
X181172126Y-120520517D01*
X181085489Y-120407610D01*
X181085487Y-120407609D01*
X181085487Y-120407608D01*
X181074524Y-120399196D01*
X181033323Y-120342766D01*
X181029170Y-120273020D01*
X181062330Y-120213143D01*
X184235472Y-117040000D01*
X194544417Y-117040000D01*
X194564699Y-117245932D01*
X194567298Y-117254500D01*
X194624768Y-117443954D01*
X194722315Y-117626450D01*
X194734782Y-117641641D01*
X194853589Y-117786410D01*
X194899546Y-117824125D01*
X195013550Y-117917685D01*
X195196046Y-118015232D01*
X195394066Y-118075300D01*
X195394065Y-118075300D01*
X195412529Y-118077118D01*
X195600000Y-118095583D01*
X195805934Y-118075300D01*
X196003954Y-118015232D01*
X196186450Y-117917685D01*
X196346410Y-117786410D01*
X196477685Y-117626450D01*
X196575232Y-117443954D01*
X196635300Y-117245934D01*
X196655583Y-117040000D01*
X196655583Y-117039999D01*
X196655583Y-117033908D01*
X196657548Y-117033908D01*
X196668876Y-116974162D01*
X196716939Y-116923450D01*
X196784789Y-116906773D01*
X196837714Y-116921291D01*
X196976046Y-116995232D01*
X197174066Y-117055300D01*
X197174065Y-117055300D01*
X197192529Y-117057118D01*
X197380000Y-117075583D01*
X197585934Y-117055300D01*
X197783954Y-116995232D01*
X197966450Y-116897685D01*
X198126410Y-116766410D01*
X198257685Y-116606450D01*
X198355232Y-116423954D01*
X198415300Y-116225934D01*
X198435583Y-116020000D01*
X198415300Y-115814066D01*
X198355232Y-115616046D01*
X198257685Y-115433550D01*
X198167547Y-115323716D01*
X198126410Y-115273589D01*
X197966452Y-115142317D01*
X197966453Y-115142317D01*
X197966450Y-115142315D01*
X197848742Y-115079398D01*
X197787989Y-115046924D01*
X197738145Y-114997961D01*
X197722685Y-114929823D01*
X197746517Y-114864144D01*
X197796005Y-114824288D01*
X197852841Y-114798984D01*
X198012784Y-114682778D01*
X198145072Y-114535857D01*
X198243923Y-114364643D01*
X198305016Y-114176618D01*
X198325681Y-113980000D01*
X198305016Y-113783382D01*
X198253970Y-113626278D01*
X198243925Y-113595362D01*
X198243922Y-113595356D01*
X198145072Y-113424143D01*
X198012784Y-113277222D01*
X197852841Y-113161016D01*
X197672232Y-113080604D01*
X197672230Y-113080603D01*
X197666054Y-113078597D01*
X197666713Y-113076567D01*
X197613980Y-113048100D01*
X197580201Y-112986938D01*
X197584852Y-112917223D01*
X197626455Y-112861090D01*
X197666507Y-112842798D01*
X197666054Y-112841403D01*
X197672226Y-112839397D01*
X197672232Y-112839396D01*
X197852841Y-112758984D01*
X198012784Y-112642778D01*
X198145072Y-112495857D01*
X198243923Y-112324643D01*
X198305016Y-112136618D01*
X198325681Y-111940000D01*
X198305016Y-111743382D01*
X198249790Y-111573413D01*
X198243925Y-111555362D01*
X198243922Y-111555356D01*
X198243622Y-111554836D01*
X198145072Y-111384143D01*
X198012784Y-111237222D01*
X197852841Y-111121016D01*
X197672232Y-111040604D01*
X197672230Y-111040603D01*
X197666054Y-111038597D01*
X197666713Y-111036567D01*
X197613980Y-111008100D01*
X197580201Y-110946938D01*
X197584852Y-110877223D01*
X197626455Y-110821090D01*
X197666507Y-110802798D01*
X197666054Y-110801403D01*
X197672226Y-110799397D01*
X197672232Y-110799396D01*
X197852841Y-110718984D01*
X198012784Y-110602778D01*
X198145072Y-110455857D01*
X198243923Y-110284643D01*
X198305016Y-110096618D01*
X198325681Y-109900000D01*
X198305016Y-109703382D01*
X198243923Y-109515357D01*
X198145072Y-109344143D01*
X198012784Y-109197222D01*
X197852841Y-109081016D01*
X197672232Y-109000604D01*
X197672230Y-109000603D01*
X197531048Y-108970594D01*
X197478851Y-108959500D01*
X197281149Y-108959500D01*
X197247251Y-108966705D01*
X197087768Y-109000603D01*
X197087762Y-109000605D01*
X196907160Y-109081016D01*
X196907155Y-109081018D01*
X196747217Y-109197220D01*
X196747210Y-109197226D01*
X196614927Y-109344144D01*
X196516077Y-109515356D01*
X196516074Y-109515362D01*
X196454985Y-109703378D01*
X196454984Y-109703382D01*
X196434319Y-109900000D01*
X196454984Y-110096618D01*
X196456414Y-110101018D01*
X196461478Y-110116605D01*
X196463472Y-110186446D01*
X196427390Y-110246278D01*
X196364689Y-110277105D01*
X196295274Y-110269139D01*
X196251398Y-110237895D01*
X196232784Y-110217222D01*
X196072841Y-110101016D01*
X195892232Y-110020604D01*
X195892230Y-110020603D01*
X195739673Y-109988177D01*
X195698851Y-109979500D01*
X195501149Y-109979500D01*
X195476718Y-109984693D01*
X195307768Y-110020603D01*
X195307762Y-110020605D01*
X195127160Y-110101016D01*
X195127155Y-110101018D01*
X194967217Y-110217220D01*
X194967210Y-110217226D01*
X194834927Y-110364144D01*
X194736077Y-110535356D01*
X194736074Y-110535362D01*
X194676413Y-110718984D01*
X194674984Y-110723382D01*
X194654319Y-110920000D01*
X194674984Y-111116618D01*
X194674985Y-111116620D01*
X194674985Y-111116621D01*
X194736074Y-111304637D01*
X194736077Y-111304643D01*
X194834928Y-111475857D01*
X194967216Y-111622778D01*
X195127159Y-111738984D01*
X195307768Y-111819396D01*
X195307770Y-111819396D01*
X195313946Y-111821403D01*
X195313287Y-111823431D01*
X195366025Y-111851906D01*
X195399799Y-111913070D01*
X195395144Y-111982784D01*
X195353537Y-112038915D01*
X195313490Y-112057203D01*
X195313943Y-112058598D01*
X195307762Y-112060605D01*
X195127160Y-112141016D01*
X195127155Y-112141018D01*
X194967217Y-112257220D01*
X194967210Y-112257226D01*
X194834927Y-112404144D01*
X194736077Y-112575356D01*
X194736074Y-112575362D01*
X194676413Y-112758984D01*
X194674984Y-112763382D01*
X194654319Y-112960000D01*
X194674984Y-113156618D01*
X194674985Y-113156620D01*
X194674985Y-113156621D01*
X194736074Y-113344637D01*
X194736077Y-113344643D01*
X194834928Y-113515857D01*
X194967216Y-113662778D01*
X195127159Y-113778984D01*
X195183993Y-113804288D01*
X195237228Y-113849536D01*
X195257550Y-113916385D01*
X195238505Y-113983609D01*
X195192010Y-114026924D01*
X195057203Y-114098982D01*
X195013550Y-114122315D01*
X195013548Y-114122316D01*
X195013547Y-114122317D01*
X194853589Y-114253589D01*
X194722317Y-114413547D01*
X194722315Y-114413550D01*
X194714659Y-114427874D01*
X194624769Y-114596043D01*
X194624768Y-114596045D01*
X194624768Y-114596046D01*
X194624658Y-114596410D01*
X194564699Y-114794067D01*
X194546798Y-114975825D01*
X194544417Y-115000000D01*
X194545017Y-115006092D01*
X194564699Y-115205932D01*
X194588832Y-115285489D01*
X194624768Y-115403954D01*
X194722315Y-115586450D01*
X194738725Y-115606446D01*
X194853589Y-115746410D01*
X194936031Y-115814067D01*
X195013550Y-115877685D01*
X195075208Y-115910642D01*
X195125052Y-115959605D01*
X195140512Y-116027743D01*
X195116680Y-116093422D01*
X195075208Y-116129357D01*
X195013550Y-116162315D01*
X195013548Y-116162316D01*
X195013547Y-116162317D01*
X194853589Y-116293589D01*
X194726722Y-116448180D01*
X194722315Y-116453550D01*
X194690641Y-116512807D01*
X194624769Y-116636043D01*
X194564699Y-116834067D01*
X194544417Y-117040000D01*
X184235472Y-117040000D01*
X184406812Y-116868660D01*
X184468133Y-116835177D01*
X184510674Y-116833404D01*
X184600000Y-116845164D01*
X184600001Y-116845164D01*
X184647032Y-116838972D01*
X184741099Y-116826588D01*
X184872577Y-116772128D01*
X184872578Y-116772128D01*
X184872578Y-116772127D01*
X184872582Y-116772126D01*
X184985489Y-116685489D01*
X185072126Y-116572582D01*
X185126588Y-116441099D01*
X185145164Y-116300000D01*
X185126588Y-116158901D01*
X185072128Y-116027422D01*
X185072128Y-116027421D01*
X185072126Y-116027418D01*
X184985489Y-115914511D01*
X184872582Y-115827874D01*
X184872579Y-115827873D01*
X184872577Y-115827871D01*
X184741102Y-115773413D01*
X184741097Y-115773411D01*
X184600001Y-115754836D01*
X184599999Y-115754836D01*
X184458902Y-115773411D01*
X184458897Y-115773413D01*
X184327422Y-115827871D01*
X184327421Y-115827871D01*
X184214511Y-115914511D01*
X184127871Y-116027421D01*
X184127871Y-116027422D01*
X184073413Y-116158897D01*
X184073411Y-116158902D01*
X184054836Y-116299999D01*
X184054836Y-116300001D01*
X184066595Y-116389321D01*
X184055829Y-116458356D01*
X184031337Y-116493187D01*
X181740303Y-118784221D01*
X181678980Y-118817706D01*
X181609288Y-118812722D01*
X181553355Y-118770850D01*
X181538061Y-118743992D01*
X181502255Y-118657549D01*
X181502255Y-118657548D01*
X181495020Y-118648119D01*
X181415616Y-118544638D01*
X181302709Y-118458001D01*
X181302706Y-118458000D01*
X181302704Y-118457998D01*
X181259310Y-118440024D01*
X181204906Y-118396183D01*
X181182841Y-118329889D01*
X181200120Y-118262190D01*
X181231272Y-118227091D01*
X181285489Y-118185489D01*
X181372126Y-118072582D01*
X181426588Y-117941099D01*
X181445164Y-117800000D01*
X181433404Y-117710675D01*
X181444169Y-117641641D01*
X181468659Y-117606813D01*
X183773654Y-115301819D01*
X183834978Y-115268334D01*
X183861336Y-115265500D01*
X185561290Y-115265500D01*
X185628329Y-115285185D01*
X185659665Y-115314013D01*
X185673403Y-115331916D01*
X185714511Y-115385489D01*
X185827418Y-115472126D01*
X185827421Y-115472127D01*
X185827422Y-115472128D01*
X185868240Y-115489035D01*
X185958901Y-115526588D01*
X186000511Y-115532066D01*
X186099999Y-115545164D01*
X186100000Y-115545164D01*
X186100001Y-115545164D01*
X186165012Y-115536605D01*
X186241099Y-115526588D01*
X186372577Y-115472128D01*
X186372578Y-115472128D01*
X186372578Y-115472127D01*
X186372582Y-115472126D01*
X186485489Y-115385489D01*
X186572126Y-115272582D01*
X186626588Y-115141099D01*
X186645164Y-115000000D01*
X186642808Y-114982108D01*
X186626588Y-114858902D01*
X186626586Y-114858897D01*
X186572128Y-114727422D01*
X186572128Y-114727421D01*
X186571153Y-114726150D01*
X186485489Y-114614511D01*
X186372582Y-114527874D01*
X186372579Y-114527873D01*
X186372577Y-114527871D01*
X186241102Y-114473413D01*
X186241097Y-114473411D01*
X186100001Y-114454836D01*
X186099999Y-114454836D01*
X185958902Y-114473411D01*
X185958897Y-114473413D01*
X185827422Y-114527871D01*
X185827421Y-114527871D01*
X185794312Y-114553277D01*
X185714511Y-114614511D01*
X185714510Y-114614512D01*
X185714509Y-114614513D01*
X185659665Y-114685987D01*
X185603237Y-114727189D01*
X185561290Y-114734500D01*
X184004835Y-114734500D01*
X183937796Y-114714815D01*
X183892041Y-114662011D01*
X183882097Y-114592853D01*
X183911122Y-114529297D01*
X183917154Y-114522819D01*
X185167847Y-113272126D01*
X185639973Y-112800000D01*
X188054836Y-112800000D01*
X188073411Y-112941097D01*
X188073413Y-112941102D01*
X188127871Y-113072577D01*
X188127871Y-113072578D01*
X188127873Y-113072581D01*
X188127874Y-113072582D01*
X188214511Y-113185489D01*
X188327418Y-113272126D01*
X188327421Y-113272127D01*
X188327422Y-113272128D01*
X188393159Y-113299357D01*
X188458901Y-113326588D01*
X188509200Y-113333210D01*
X188599999Y-113345164D01*
X188600000Y-113345164D01*
X188600001Y-113345164D01*
X188647032Y-113338972D01*
X188741099Y-113326588D01*
X188872577Y-113272128D01*
X188872578Y-113272128D01*
X188872578Y-113272127D01*
X188872582Y-113272126D01*
X188985489Y-113185489D01*
X189072126Y-113072582D01*
X189126588Y-112941099D01*
X189145164Y-112800000D01*
X189126588Y-112658901D01*
X189092756Y-112577223D01*
X189072128Y-112527422D01*
X189072128Y-112527421D01*
X189047908Y-112495857D01*
X188985489Y-112414511D01*
X188872582Y-112327874D01*
X188872579Y-112327873D01*
X188872577Y-112327871D01*
X188741102Y-112273413D01*
X188741097Y-112273411D01*
X188600001Y-112254836D01*
X188599999Y-112254836D01*
X188458902Y-112273411D01*
X188458897Y-112273413D01*
X188327422Y-112327871D01*
X188327421Y-112327871D01*
X188214511Y-112414511D01*
X188127871Y-112527421D01*
X188127871Y-112527422D01*
X188073413Y-112658897D01*
X188073411Y-112658902D01*
X188054836Y-112799999D01*
X188054836Y-112800000D01*
X185639973Y-112800000D01*
X186425112Y-112014860D01*
X186443902Y-111999441D01*
X186455915Y-111991415D01*
X186490269Y-111940000D01*
X186514594Y-111903596D01*
X186514595Y-111903593D01*
X186524272Y-111854944D01*
X186524876Y-111851906D01*
X186535202Y-111800000D01*
X186532382Y-111785829D01*
X186529999Y-111761634D01*
X186529999Y-111727211D01*
X186549684Y-111660172D01*
X186578507Y-111628840D01*
X186649989Y-111573991D01*
X186736626Y-111461084D01*
X186791088Y-111329601D01*
X186809664Y-111188502D01*
X186807677Y-111173413D01*
X186791088Y-111047404D01*
X186791086Y-111047399D01*
X186788271Y-111040604D01*
X186749474Y-110946938D01*
X186736628Y-110915924D01*
X186736628Y-110915923D01*
X186719092Y-110893070D01*
X186649989Y-110803013D01*
X186537082Y-110716376D01*
X186537079Y-110716375D01*
X186537077Y-110716373D01*
X186405602Y-110661915D01*
X186405597Y-110661913D01*
X186264501Y-110643338D01*
X186264499Y-110643338D01*
X186123402Y-110661913D01*
X186123397Y-110661915D01*
X185991922Y-110716373D01*
X185991921Y-110716373D01*
X185879011Y-110803013D01*
X185792371Y-110915923D01*
X185792371Y-110915924D01*
X185737913Y-111047399D01*
X185737911Y-111047404D01*
X185719336Y-111188501D01*
X185719336Y-111188502D01*
X185737911Y-111329599D01*
X185737913Y-111329604D01*
X185792371Y-111461079D01*
X185792371Y-111461080D01*
X185792373Y-111461083D01*
X185792374Y-111461084D01*
X185879011Y-111573991D01*
X185900383Y-111590390D01*
X185941586Y-111646818D01*
X185945741Y-111716564D01*
X185912578Y-111776447D01*
X181326345Y-116362681D01*
X181265022Y-116396166D01*
X181238664Y-116399000D01*
X181038710Y-116399000D01*
X180971671Y-116379315D01*
X180940335Y-116350487D01*
X180901595Y-116300001D01*
X180885489Y-116279011D01*
X180772582Y-116192374D01*
X180772579Y-116192373D01*
X180772577Y-116192371D01*
X180641102Y-116137913D01*
X180641097Y-116137911D01*
X180500001Y-116119336D01*
X180499999Y-116119336D01*
X180358902Y-116137911D01*
X180358897Y-116137913D01*
X180227422Y-116192371D01*
X180227421Y-116192371D01*
X180114511Y-116279011D01*
X180027871Y-116391921D01*
X180027871Y-116391922D01*
X179973413Y-116523397D01*
X179973411Y-116523402D01*
X179954836Y-116664499D01*
X179954836Y-116664500D01*
X179973411Y-116805597D01*
X179973413Y-116805602D01*
X180027871Y-116937077D01*
X180027871Y-116937078D01*
X180027873Y-116937081D01*
X180027874Y-116937082D01*
X180114511Y-117049989D01*
X180227418Y-117136626D01*
X180227421Y-117136627D01*
X180227422Y-117136628D01*
X180281390Y-117158982D01*
X180358901Y-117191088D01*
X180444544Y-117202363D01*
X180508439Y-117230628D01*
X180546911Y-117288952D01*
X180547743Y-117358817D01*
X180519086Y-117407778D01*
X180519459Y-117408064D01*
X180517186Y-117411025D01*
X180516045Y-117412976D01*
X180514517Y-117414503D01*
X180427871Y-117527421D01*
X180427871Y-117527422D01*
X180373413Y-117658897D01*
X180373411Y-117658902D01*
X180354836Y-117799999D01*
X180354836Y-117800000D01*
X180373411Y-117941097D01*
X180373413Y-117941102D01*
X180427871Y-118072577D01*
X180427871Y-118072578D01*
X180427873Y-118072581D01*
X180427874Y-118072582D01*
X180514511Y-118185489D01*
X180627418Y-118272126D01*
X180670816Y-118290102D01*
X180725219Y-118333942D01*
X180747285Y-118400236D01*
X180730007Y-118467935D01*
X180698851Y-118503038D01*
X180644640Y-118544635D01*
X180557998Y-118657548D01*
X180557998Y-118657549D01*
X180503540Y-118789024D01*
X180503538Y-118789029D01*
X180484963Y-118930126D01*
X180484963Y-118930127D01*
X180503538Y-119071224D01*
X180503540Y-119071229D01*
X180557998Y-119202704D01*
X180557998Y-119202705D01*
X180558000Y-119202708D01*
X180558001Y-119202709D01*
X180644638Y-119315616D01*
X180757545Y-119402253D01*
X180757548Y-119402254D01*
X180757549Y-119402255D01*
X180843992Y-119438061D01*
X180898396Y-119481902D01*
X180920461Y-119548196D01*
X180903182Y-119615895D01*
X180884221Y-119640303D01*
X180539387Y-119985137D01*
X180520599Y-120000556D01*
X180508589Y-120008580D01*
X180508584Y-120008586D01*
X180487193Y-120040601D01*
X180449905Y-120096407D01*
X180429298Y-120199999D01*
X180432117Y-120214169D01*
X180434500Y-120238363D01*
X180434500Y-120254389D01*
X180414815Y-120321428D01*
X180385987Y-120352764D01*
X180314513Y-120407608D01*
X180227871Y-120520520D01*
X180227871Y-120520521D01*
X180173413Y-120651996D01*
X180173411Y-120652001D01*
X180154836Y-120793098D01*
X180154836Y-120793099D01*
X180173411Y-120934196D01*
X180173413Y-120934201D01*
X180227871Y-121065676D01*
X180227871Y-121065677D01*
X180227873Y-121065680D01*
X180227874Y-121065681D01*
X180314511Y-121178588D01*
X180385987Y-121233434D01*
X180427189Y-121289860D01*
X180434500Y-121331808D01*
X180434500Y-123738664D01*
X180414815Y-123805703D01*
X180398181Y-123826345D01*
X177726345Y-126498181D01*
X177665022Y-126531666D01*
X177638664Y-126534500D01*
X174538710Y-126534500D01*
X174471671Y-126514815D01*
X174440335Y-126485987D01*
X174421683Y-126461679D01*
X174385489Y-126414511D01*
X174272582Y-126327874D01*
X174272579Y-126327873D01*
X174272577Y-126327871D01*
X174141102Y-126273413D01*
X174141097Y-126273411D01*
X174000001Y-126254836D01*
X173999999Y-126254836D01*
X173910676Y-126266595D01*
X173841640Y-126255829D01*
X173806810Y-126231337D01*
X170375473Y-122800000D01*
X178454970Y-122800000D01*
X178472996Y-122925379D01*
X178482032Y-122945164D01*
X178525617Y-123040601D01*
X178608567Y-123136331D01*
X178676481Y-123179977D01*
X178715129Y-123204815D01*
X178836663Y-123240499D01*
X178836665Y-123240500D01*
X178836666Y-123240500D01*
X178963335Y-123240500D01*
X178963335Y-123240499D01*
X179084869Y-123204815D01*
X179084870Y-123204815D01*
X179084872Y-123204814D01*
X179191433Y-123136331D01*
X179274383Y-123040601D01*
X179327003Y-122925379D01*
X179345030Y-122800000D01*
X179327003Y-122674621D01*
X179320097Y-122659500D01*
X179270781Y-122551512D01*
X179260837Y-122482353D01*
X179270781Y-122448488D01*
X179280783Y-122426588D01*
X179327003Y-122325379D01*
X179345030Y-122200000D01*
X179327003Y-122074621D01*
X179274383Y-121959399D01*
X179274379Y-121959395D01*
X179270780Y-121951513D01*
X179260836Y-121882354D01*
X179270780Y-121848487D01*
X179274379Y-121840604D01*
X179274383Y-121840601D01*
X179327003Y-121725379D01*
X179345030Y-121600000D01*
X179327003Y-121474621D01*
X179325864Y-121472128D01*
X179280783Y-121373413D01*
X179274383Y-121359399D01*
X179191433Y-121263669D01*
X179118641Y-121216888D01*
X179084870Y-121195184D01*
X178963336Y-121159500D01*
X178963334Y-121159500D01*
X178836666Y-121159500D01*
X178836664Y-121159500D01*
X178715130Y-121195184D01*
X178715129Y-121195184D01*
X178608568Y-121263668D01*
X178525617Y-121359399D01*
X178525616Y-121359400D01*
X178472996Y-121474620D01*
X178454970Y-121600000D01*
X178472996Y-121725379D01*
X178529219Y-121848488D01*
X178539163Y-121917647D01*
X178529219Y-121951512D01*
X178472996Y-122074620D01*
X178454970Y-122200000D01*
X178472996Y-122325379D01*
X178529219Y-122448488D01*
X178539163Y-122517647D01*
X178529219Y-122551512D01*
X178472996Y-122674620D01*
X178454970Y-122800000D01*
X170375473Y-122800000D01*
X167375473Y-119800000D01*
X174054970Y-119800000D01*
X174072996Y-119925379D01*
X174125616Y-120040599D01*
X174125617Y-120040601D01*
X174208567Y-120136331D01*
X174217040Y-120141776D01*
X174315129Y-120204815D01*
X174436663Y-120240499D01*
X174436665Y-120240500D01*
X174436666Y-120240500D01*
X174563335Y-120240500D01*
X174563335Y-120240499D01*
X174684869Y-120204815D01*
X174684870Y-120204815D01*
X174684872Y-120204814D01*
X174782960Y-120141775D01*
X174849999Y-120122091D01*
X174917037Y-120141774D01*
X174917040Y-120141776D01*
X175015129Y-120204815D01*
X175136663Y-120240499D01*
X175136665Y-120240500D01*
X175136666Y-120240500D01*
X175263335Y-120240500D01*
X175263335Y-120240499D01*
X175384869Y-120204815D01*
X175384870Y-120204815D01*
X175384872Y-120204814D01*
X175482960Y-120141775D01*
X175549999Y-120122091D01*
X175617037Y-120141774D01*
X175617040Y-120141776D01*
X175715129Y-120204815D01*
X175836663Y-120240499D01*
X175836665Y-120240500D01*
X175836666Y-120240500D01*
X175963335Y-120240500D01*
X175963335Y-120240499D01*
X176084869Y-120204815D01*
X176084870Y-120204815D01*
X176084872Y-120204814D01*
X176182961Y-120141775D01*
X176249998Y-120122091D01*
X176317037Y-120141775D01*
X176317039Y-120141776D01*
X176351245Y-120163758D01*
X176415128Y-120204814D01*
X176415129Y-120204814D01*
X176415130Y-120204815D01*
X176536663Y-120240499D01*
X176536665Y-120240500D01*
X176536666Y-120240500D01*
X176663335Y-120240500D01*
X176663335Y-120240499D01*
X176784869Y-120204815D01*
X176784870Y-120204815D01*
X176784872Y-120204814D01*
X176882960Y-120141775D01*
X176949999Y-120122091D01*
X177017037Y-120141774D01*
X177017040Y-120141776D01*
X177115129Y-120204815D01*
X177236663Y-120240499D01*
X177236665Y-120240500D01*
X177236666Y-120240500D01*
X177363335Y-120240500D01*
X177363335Y-120240499D01*
X177484869Y-120204815D01*
X177484870Y-120204815D01*
X177484872Y-120204814D01*
X177582960Y-120141775D01*
X177649999Y-120122091D01*
X177717037Y-120141774D01*
X177717040Y-120141776D01*
X177815129Y-120204815D01*
X177936663Y-120240499D01*
X177936665Y-120240500D01*
X177936666Y-120240500D01*
X178063335Y-120240500D01*
X178063335Y-120240499D01*
X178184869Y-120204815D01*
X178184870Y-120204815D01*
X178184872Y-120204814D01*
X178291433Y-120136331D01*
X178374383Y-120040601D01*
X178427003Y-119925379D01*
X178445030Y-119800000D01*
X178427003Y-119674621D01*
X178421464Y-119662493D01*
X178380783Y-119573413D01*
X178374383Y-119559399D01*
X178349949Y-119531201D01*
X178320925Y-119467646D01*
X178330869Y-119398487D01*
X178349949Y-119368799D01*
X178374383Y-119340601D01*
X178427003Y-119225379D01*
X178445030Y-119100000D01*
X178428727Y-118986610D01*
X178427003Y-118974620D01*
X178380195Y-118872126D01*
X178374383Y-118859399D01*
X178349949Y-118831201D01*
X178320925Y-118767649D01*
X178330868Y-118698490D01*
X178349949Y-118668799D01*
X178374383Y-118640601D01*
X178427003Y-118525379D01*
X178445030Y-118400000D01*
X178427003Y-118274621D01*
X178424218Y-118268523D01*
X178380783Y-118173413D01*
X178374383Y-118159399D01*
X178291433Y-118063669D01*
X178247664Y-118035540D01*
X178184870Y-117995184D01*
X178063336Y-117959500D01*
X178063334Y-117959500D01*
X177936666Y-117959500D01*
X177936664Y-117959500D01*
X177815130Y-117995184D01*
X177717039Y-118058224D01*
X177650000Y-118077908D01*
X177582961Y-118058224D01*
X177516064Y-118015232D01*
X177484872Y-117995186D01*
X177484870Y-117995185D01*
X177484868Y-117995184D01*
X177484869Y-117995184D01*
X177363336Y-117959500D01*
X177363334Y-117959500D01*
X177236666Y-117959500D01*
X177236664Y-117959500D01*
X177115130Y-117995184D01*
X177017039Y-118058224D01*
X176950000Y-118077908D01*
X176882961Y-118058224D01*
X176816064Y-118015232D01*
X176784872Y-117995186D01*
X176784870Y-117995185D01*
X176784868Y-117995184D01*
X176784869Y-117995184D01*
X176663336Y-117959500D01*
X176663334Y-117959500D01*
X176536666Y-117959500D01*
X176536664Y-117959500D01*
X176415130Y-117995184D01*
X176317039Y-118058224D01*
X176250000Y-118077908D01*
X176182961Y-118058224D01*
X176116064Y-118015232D01*
X176084872Y-117995186D01*
X176084870Y-117995185D01*
X176084868Y-117995184D01*
X176084869Y-117995184D01*
X175963336Y-117959500D01*
X175963334Y-117959500D01*
X175836666Y-117959500D01*
X175836664Y-117959500D01*
X175715130Y-117995184D01*
X175617039Y-118058224D01*
X175550000Y-118077908D01*
X175482961Y-118058224D01*
X175416064Y-118015232D01*
X175384872Y-117995186D01*
X175384870Y-117995185D01*
X175384868Y-117995184D01*
X175384869Y-117995184D01*
X175263336Y-117959500D01*
X175263334Y-117959500D01*
X175136666Y-117959500D01*
X175136664Y-117959500D01*
X175015130Y-117995184D01*
X174917039Y-118058224D01*
X174850000Y-118077908D01*
X174782961Y-118058224D01*
X174716064Y-118015232D01*
X174684872Y-117995186D01*
X174684870Y-117995185D01*
X174684868Y-117995184D01*
X174684869Y-117995184D01*
X174563336Y-117959500D01*
X174563334Y-117959500D01*
X174436666Y-117959500D01*
X174436664Y-117959500D01*
X174315130Y-117995184D01*
X174315129Y-117995184D01*
X174208568Y-118063668D01*
X174125617Y-118159399D01*
X174125616Y-118159400D01*
X174072996Y-118274620D01*
X174054970Y-118400000D01*
X174072996Y-118525379D01*
X174125616Y-118640599D01*
X174125619Y-118640605D01*
X174150049Y-118668799D01*
X174179073Y-118732355D01*
X174169128Y-118801514D01*
X174150049Y-118831201D01*
X174125619Y-118859394D01*
X174125616Y-118859400D01*
X174072996Y-118974620D01*
X174054970Y-119100000D01*
X174072996Y-119225379D01*
X174125616Y-119340599D01*
X174125619Y-119340605D01*
X174150049Y-119368799D01*
X174179073Y-119432355D01*
X174169128Y-119501514D01*
X174150049Y-119531201D01*
X174125619Y-119559394D01*
X174125616Y-119559400D01*
X174072996Y-119674620D01*
X174054970Y-119800000D01*
X167375473Y-119800000D01*
X167060717Y-119485244D01*
X167027232Y-119423921D01*
X167024398Y-119397563D01*
X167024398Y-119235912D01*
X167024398Y-119079807D01*
X167044083Y-119012771D01*
X167072906Y-118981439D01*
X167144388Y-118926590D01*
X167231025Y-118813683D01*
X167278114Y-118700000D01*
X171454836Y-118700000D01*
X171473411Y-118841097D01*
X171473413Y-118841102D01*
X171527871Y-118972577D01*
X171527871Y-118972578D01*
X171527873Y-118972581D01*
X171527874Y-118972582D01*
X171614511Y-119085489D01*
X171727418Y-119172126D01*
X171727421Y-119172127D01*
X171727422Y-119172128D01*
X171781943Y-119194711D01*
X171858901Y-119226588D01*
X171929450Y-119235876D01*
X171999999Y-119245164D01*
X172000000Y-119245164D01*
X172000001Y-119245164D01*
X172070276Y-119235912D01*
X172141099Y-119226588D01*
X172272577Y-119172128D01*
X172272578Y-119172128D01*
X172272578Y-119172127D01*
X172272582Y-119172126D01*
X172385489Y-119085489D01*
X172472126Y-118972582D01*
X172526588Y-118841099D01*
X172545164Y-118700000D01*
X172541663Y-118673411D01*
X172526588Y-118558902D01*
X172526586Y-118558897D01*
X172519214Y-118541100D01*
X172472128Y-118427422D01*
X172472128Y-118427421D01*
X172472126Y-118427418D01*
X172385489Y-118314511D01*
X172272582Y-118227874D01*
X172272579Y-118227873D01*
X172272577Y-118227871D01*
X172141102Y-118173413D01*
X172141097Y-118173411D01*
X172000001Y-118154836D01*
X171999999Y-118154836D01*
X171858902Y-118173411D01*
X171858897Y-118173413D01*
X171727422Y-118227871D01*
X171727421Y-118227871D01*
X171614511Y-118314511D01*
X171527871Y-118427421D01*
X171527871Y-118427422D01*
X171473413Y-118558897D01*
X171473411Y-118558902D01*
X171454836Y-118699999D01*
X171454836Y-118700000D01*
X167278114Y-118700000D01*
X167285487Y-118682200D01*
X167304063Y-118541101D01*
X167304062Y-118541097D01*
X167285487Y-118400003D01*
X167285485Y-118399999D01*
X167255078Y-118326588D01*
X167231027Y-118268523D01*
X167231027Y-118268522D01*
X167231025Y-118268519D01*
X167144388Y-118155612D01*
X167031481Y-118068975D01*
X167031478Y-118068974D01*
X167031476Y-118068972D01*
X166900001Y-118014514D01*
X166899996Y-118014512D01*
X166758900Y-117995937D01*
X166758898Y-117995937D01*
X166617801Y-118014512D01*
X166617796Y-118014514D01*
X166486321Y-118068972D01*
X166486320Y-118068972D01*
X166373410Y-118155612D01*
X166286770Y-118268522D01*
X166286770Y-118268523D01*
X166232312Y-118399998D01*
X166232310Y-118400003D01*
X166213735Y-118541100D01*
X166213735Y-118541102D01*
X166225494Y-118630422D01*
X166214728Y-118699457D01*
X166190236Y-118734288D01*
X163526345Y-121398181D01*
X163465022Y-121431666D01*
X163438664Y-121434500D01*
X154938364Y-121434500D01*
X154914172Y-121432117D01*
X154900001Y-121429298D01*
X154900000Y-121429298D01*
X154798443Y-121449500D01*
X154797215Y-121449744D01*
X154796405Y-121449905D01*
X154708583Y-121508585D01*
X154700554Y-121520602D01*
X154685135Y-121539390D01*
X153566019Y-122658505D01*
X153504696Y-122691990D01*
X153435004Y-122687006D01*
X153413066Y-122676254D01*
X153410548Y-122674695D01*
X153410539Y-122674690D01*
X153231390Y-122605288D01*
X153213450Y-122598338D01*
X153005683Y-122559500D01*
X152794317Y-122559500D01*
X152586550Y-122598338D01*
X152586547Y-122598338D01*
X152586547Y-122598339D01*
X152389460Y-122674690D01*
X152389459Y-122674691D01*
X152209749Y-122785963D01*
X152053551Y-122928355D01*
X151926173Y-123097031D01*
X151831959Y-123286237D01*
X151831956Y-123286243D01*
X151774116Y-123489533D01*
X151774115Y-123489536D01*
X151754614Y-123699999D01*
X151754614Y-123700000D01*
X150000500Y-123700000D01*
X150000500Y-119172763D01*
X153425787Y-119172763D01*
X153455413Y-119442013D01*
X153455415Y-119442024D01*
X153515690Y-119672577D01*
X153523928Y-119704088D01*
X153629870Y-119953390D01*
X153719345Y-120100000D01*
X153770979Y-120184605D01*
X153770986Y-120184615D01*
X153944253Y-120392819D01*
X153944259Y-120392824D01*
X154086774Y-120520517D01*
X154145998Y-120573582D01*
X154371910Y-120723044D01*
X154617176Y-120838020D01*
X154617183Y-120838022D01*
X154617185Y-120838023D01*
X154876557Y-120916057D01*
X154876564Y-120916058D01*
X154876569Y-120916060D01*
X155144561Y-120955500D01*
X155144566Y-120955500D01*
X155347636Y-120955500D01*
X155399133Y-120951730D01*
X155550156Y-120940677D01*
X155667152Y-120914615D01*
X155814546Y-120881782D01*
X155814548Y-120881781D01*
X155814553Y-120881780D01*
X156067558Y-120785014D01*
X156303777Y-120652441D01*
X156518177Y-120486888D01*
X156706186Y-120291881D01*
X156863799Y-120071579D01*
X156973580Y-119858054D01*
X156987649Y-119830690D01*
X156987651Y-119830684D01*
X156987656Y-119830675D01*
X157075118Y-119574305D01*
X157124319Y-119307933D01*
X157134212Y-119037235D01*
X157104586Y-118767982D01*
X157036072Y-118505912D01*
X156930130Y-118256610D01*
X156789018Y-118025390D01*
X156787810Y-118023939D01*
X156615746Y-117817180D01*
X156615740Y-117817175D01*
X156414002Y-117636418D01*
X156188092Y-117486957D01*
X156116041Y-117453181D01*
X155942824Y-117371980D01*
X155942819Y-117371978D01*
X155942814Y-117371976D01*
X155683442Y-117293942D01*
X155683428Y-117293939D01*
X155563874Y-117276345D01*
X155415439Y-117254500D01*
X155212369Y-117254500D01*
X155212364Y-117254500D01*
X155009844Y-117269323D01*
X155009831Y-117269325D01*
X154745453Y-117328217D01*
X154745446Y-117328220D01*
X154492439Y-117424987D01*
X154256226Y-117557557D01*
X154041822Y-117723112D01*
X153853822Y-117918109D01*
X153853816Y-117918116D01*
X153696202Y-118138419D01*
X153696199Y-118138424D01*
X153572350Y-118379309D01*
X153572343Y-118379327D01*
X153484884Y-118635685D01*
X153484881Y-118635699D01*
X153435681Y-118902068D01*
X153435680Y-118902075D01*
X153425787Y-119172763D01*
X150000500Y-119172763D01*
X150000500Y-115275824D01*
X154985443Y-115275824D01*
X154987387Y-115293070D01*
X154989110Y-115308365D01*
X154989500Y-115315304D01*
X154989500Y-115323715D01*
X154991371Y-115331916D01*
X154992536Y-115338772D01*
X154996202Y-115371313D01*
X155000203Y-115382747D01*
X155005469Y-115393681D01*
X155025592Y-115418915D01*
X155025883Y-115419279D01*
X155029910Y-115424956D01*
X155034382Y-115432073D01*
X155034382Y-115432074D01*
X155040327Y-115438019D01*
X155044964Y-115443207D01*
X155065381Y-115468809D01*
X155076305Y-115477521D01*
X155075874Y-115478060D01*
X155091343Y-115489035D01*
X157410964Y-117808656D01*
X157421941Y-117824125D01*
X157422480Y-117823696D01*
X157431192Y-117834620D01*
X157456790Y-117855034D01*
X157461972Y-117859664D01*
X157467924Y-117865616D01*
X157467926Y-117865617D01*
X157475046Y-117870091D01*
X157480720Y-117874117D01*
X157506318Y-117894531D01*
X157517238Y-117899789D01*
X157528686Y-117903796D01*
X157528687Y-117903796D01*
X157528689Y-117903797D01*
X157561243Y-117907465D01*
X157568066Y-117908624D01*
X157576284Y-117910500D01*
X157584696Y-117910500D01*
X157591634Y-117910889D01*
X157624175Y-117914556D01*
X157624175Y-117914555D01*
X157624176Y-117914556D01*
X157638058Y-117912992D01*
X157638135Y-117913677D01*
X157656835Y-117910500D01*
X158443165Y-117910500D01*
X158461864Y-117913677D01*
X158461942Y-117912992D01*
X158475823Y-117914556D01*
X158475824Y-117914555D01*
X158475825Y-117914556D01*
X158508365Y-117910889D01*
X158515304Y-117910500D01*
X158523713Y-117910500D01*
X158523716Y-117910500D01*
X158531928Y-117908625D01*
X158538756Y-117907464D01*
X158571312Y-117903797D01*
X158571314Y-117903795D01*
X158582758Y-117899791D01*
X158593677Y-117894533D01*
X158593678Y-117894531D01*
X158593681Y-117894531D01*
X158619283Y-117874112D01*
X158624959Y-117870087D01*
X158632076Y-117865616D01*
X158638029Y-117859662D01*
X158643208Y-117855034D01*
X158668808Y-117834620D01*
X158668809Y-117834617D01*
X158677521Y-117823694D01*
X158678060Y-117824124D01*
X158689035Y-117808656D01*
X159708657Y-116789033D01*
X159724124Y-116778060D01*
X159723694Y-116777521D01*
X159734617Y-116768809D01*
X159734620Y-116768808D01*
X159755039Y-116743201D01*
X159759662Y-116738029D01*
X159765616Y-116732076D01*
X159770089Y-116724955D01*
X159774112Y-116719283D01*
X159794531Y-116693681D01*
X159794531Y-116693678D01*
X159794533Y-116693677D01*
X159799793Y-116682755D01*
X159803796Y-116671313D01*
X159803795Y-116671313D01*
X159803797Y-116671312D01*
X159807464Y-116638756D01*
X159808625Y-116631928D01*
X159810500Y-116623716D01*
X159810500Y-116615304D01*
X159810889Y-116608365D01*
X159814556Y-116575825D01*
X159814556Y-116575824D01*
X159812992Y-116561944D01*
X159813676Y-116561866D01*
X159810500Y-116543166D01*
X159810500Y-116336043D01*
X159830185Y-116269004D01*
X159882989Y-116223249D01*
X159887668Y-116221427D01*
X159892227Y-116219396D01*
X159892232Y-116219396D01*
X160072841Y-116138984D01*
X160232784Y-116022778D01*
X160365072Y-115875857D01*
X160463923Y-115704643D01*
X160525016Y-115516618D01*
X160545681Y-115320000D01*
X160525016Y-115123382D01*
X160473365Y-114964417D01*
X160463925Y-114935362D01*
X160463922Y-114935356D01*
X160365072Y-114764143D01*
X160232784Y-114617222D01*
X160072841Y-114501016D01*
X159892232Y-114420604D01*
X159892230Y-114420603D01*
X159886054Y-114418597D01*
X159886713Y-114416567D01*
X159833980Y-114388100D01*
X159800201Y-114326938D01*
X159804852Y-114257223D01*
X159846455Y-114201090D01*
X159886507Y-114182798D01*
X159886054Y-114181403D01*
X159892226Y-114179397D01*
X159892232Y-114179396D01*
X160072841Y-114098984D01*
X160232784Y-113982778D01*
X160365072Y-113835857D01*
X160463923Y-113664643D01*
X160525016Y-113476618D01*
X160545681Y-113280000D01*
X160526763Y-113100000D01*
X176654836Y-113100000D01*
X176673411Y-113241097D01*
X176673413Y-113241102D01*
X176727871Y-113372577D01*
X176727871Y-113372578D01*
X176727873Y-113372581D01*
X176727874Y-113372582D01*
X176814511Y-113485489D01*
X176927418Y-113572126D01*
X176927421Y-113572127D01*
X176927422Y-113572128D01*
X176983500Y-113595356D01*
X177058901Y-113626588D01*
X177118118Y-113634384D01*
X177199999Y-113645164D01*
X177200000Y-113645164D01*
X177200001Y-113645164D01*
X177281882Y-113634384D01*
X177341099Y-113626588D01*
X177472577Y-113572128D01*
X177472578Y-113572128D01*
X177472578Y-113572127D01*
X177472582Y-113572126D01*
X177585489Y-113485489D01*
X177672126Y-113372582D01*
X177726588Y-113241099D01*
X177745164Y-113100000D01*
X177742610Y-113080604D01*
X177726588Y-112958902D01*
X177726586Y-112958897D01*
X177672128Y-112827422D01*
X177672128Y-112827421D01*
X177651087Y-112800000D01*
X177585489Y-112714511D01*
X177472582Y-112627874D01*
X177472579Y-112627873D01*
X177472577Y-112627871D01*
X177341102Y-112573413D01*
X177341097Y-112573411D01*
X177200001Y-112554836D01*
X177199999Y-112554836D01*
X177058902Y-112573411D01*
X177058897Y-112573413D01*
X176927422Y-112627871D01*
X176927421Y-112627871D01*
X176814511Y-112714511D01*
X176727871Y-112827421D01*
X176727871Y-112827422D01*
X176673413Y-112958897D01*
X176673411Y-112958902D01*
X176654836Y-113099999D01*
X176654836Y-113100000D01*
X160526763Y-113100000D01*
X160525016Y-113083382D01*
X160479113Y-112942108D01*
X160463925Y-112895362D01*
X160463922Y-112895356D01*
X160450383Y-112871906D01*
X160365072Y-112724143D01*
X160232784Y-112577222D01*
X160072841Y-112461016D01*
X160016006Y-112435711D01*
X159962770Y-112390462D01*
X159942449Y-112323613D01*
X159961494Y-112256390D01*
X160007989Y-112213075D01*
X160186450Y-112117685D01*
X160346410Y-111986410D01*
X160477685Y-111826450D01*
X160545275Y-111700000D01*
X172254836Y-111700000D01*
X172273411Y-111841097D01*
X172273413Y-111841102D01*
X172327871Y-111972577D01*
X172327871Y-111972578D01*
X172327873Y-111972581D01*
X172327874Y-111972582D01*
X172414511Y-112085489D01*
X172527418Y-112172126D01*
X172527421Y-112172127D01*
X172527422Y-112172128D01*
X172551567Y-112182129D01*
X172658901Y-112226588D01*
X172729450Y-112235876D01*
X172799999Y-112245164D01*
X172800000Y-112245164D01*
X172800001Y-112245164D01*
X172847032Y-112238972D01*
X172941099Y-112226588D01*
X173072577Y-112172128D01*
X173072578Y-112172128D01*
X173072578Y-112172127D01*
X173072582Y-112172126D01*
X173166578Y-112100000D01*
X174454836Y-112100000D01*
X174473411Y-112241097D01*
X174473413Y-112241102D01*
X174527871Y-112372577D01*
X174527871Y-112372578D01*
X174527873Y-112372581D01*
X174527874Y-112372582D01*
X174614511Y-112485489D01*
X174727418Y-112572126D01*
X174727421Y-112572127D01*
X174727422Y-112572128D01*
X174793159Y-112599357D01*
X174858901Y-112626588D01*
X174909200Y-112633210D01*
X174999999Y-112645164D01*
X175000000Y-112645164D01*
X175000001Y-112645164D01*
X175047032Y-112638972D01*
X175141099Y-112626588D01*
X175272577Y-112572128D01*
X175272578Y-112572128D01*
X175272578Y-112572127D01*
X175272582Y-112572126D01*
X175385489Y-112485489D01*
X175472126Y-112372582D01*
X175526588Y-112241099D01*
X175545164Y-112100000D01*
X175543253Y-112085488D01*
X175531925Y-111999441D01*
X175526588Y-111958901D01*
X175472128Y-111827422D01*
X175472128Y-111827421D01*
X175472126Y-111827418D01*
X175385489Y-111714511D01*
X175272582Y-111627874D01*
X175272579Y-111627873D01*
X175272577Y-111627871D01*
X175141102Y-111573413D01*
X175141097Y-111573411D01*
X175000001Y-111554836D01*
X174999999Y-111554836D01*
X174858902Y-111573411D01*
X174858897Y-111573413D01*
X174727422Y-111627871D01*
X174727421Y-111627871D01*
X174614511Y-111714511D01*
X174527871Y-111827421D01*
X174527871Y-111827422D01*
X174473413Y-111958897D01*
X174473411Y-111958902D01*
X174454836Y-112099999D01*
X174454836Y-112100000D01*
X173166578Y-112100000D01*
X173185489Y-112085489D01*
X173272126Y-111972582D01*
X173326588Y-111841099D01*
X173345164Y-111700000D01*
X173338162Y-111646818D01*
X173334997Y-111622776D01*
X173326588Y-111558901D01*
X173279795Y-111445932D01*
X173272128Y-111427422D01*
X173272128Y-111427421D01*
X173263144Y-111415713D01*
X173185489Y-111314511D01*
X173072582Y-111227874D01*
X173072579Y-111227873D01*
X173072577Y-111227871D01*
X172941102Y-111173413D01*
X172941097Y-111173411D01*
X172800001Y-111154836D01*
X172799999Y-111154836D01*
X172658902Y-111173411D01*
X172658897Y-111173413D01*
X172527422Y-111227871D01*
X172527421Y-111227871D01*
X172414511Y-111314511D01*
X172327871Y-111427421D01*
X172327871Y-111427422D01*
X172273413Y-111558897D01*
X172273411Y-111558902D01*
X172254836Y-111699999D01*
X172254836Y-111700000D01*
X160545275Y-111700000D01*
X160575232Y-111643954D01*
X160635300Y-111445934D01*
X160655583Y-111240000D01*
X160635300Y-111034066D01*
X160575232Y-110836046D01*
X160477685Y-110653550D01*
X160412173Y-110573723D01*
X160346410Y-110493589D01*
X160186451Y-110362315D01*
X160124792Y-110329358D01*
X160074947Y-110280396D01*
X160059487Y-110212258D01*
X160083319Y-110146578D01*
X160124792Y-110110642D01*
X160142801Y-110101016D01*
X160186450Y-110077685D01*
X160346410Y-109946410D01*
X160477685Y-109786450D01*
X160575232Y-109603954D01*
X160635300Y-109405934D01*
X160655583Y-109200000D01*
X160635300Y-108994066D01*
X160575232Y-108796046D01*
X160477685Y-108613550D01*
X160407373Y-108527874D01*
X160346410Y-108453589D01*
X160186452Y-108322317D01*
X160186453Y-108322317D01*
X160186450Y-108322315D01*
X160003954Y-108224768D01*
X159805934Y-108164700D01*
X159805932Y-108164699D01*
X159805934Y-108164699D01*
X159600000Y-108144417D01*
X159394067Y-108164699D01*
X159196043Y-108224769D01*
X159106593Y-108272582D01*
X159013550Y-108322315D01*
X159013548Y-108322316D01*
X159013547Y-108322317D01*
X158853589Y-108453589D01*
X158730496Y-108603581D01*
X158722315Y-108613550D01*
X158685492Y-108682441D01*
X158624769Y-108796043D01*
X158564699Y-108994067D01*
X158544417Y-109200000D01*
X158544417Y-109206092D01*
X158542459Y-109206092D01*
X158531108Y-109265867D01*
X158483031Y-109316566D01*
X158415176Y-109333224D01*
X158362283Y-109318707D01*
X158223956Y-109244769D01*
X158223955Y-109244768D01*
X158223954Y-109244768D01*
X158025934Y-109184700D01*
X158025932Y-109184699D01*
X158025934Y-109184699D01*
X157820000Y-109164417D01*
X157614067Y-109184699D01*
X157416043Y-109244769D01*
X157364010Y-109272582D01*
X157233550Y-109342315D01*
X157233548Y-109342316D01*
X157233547Y-109342317D01*
X157073589Y-109473589D01*
X156942317Y-109633547D01*
X156844769Y-109816043D01*
X156844768Y-109816045D01*
X156844768Y-109816046D01*
X156842816Y-109822481D01*
X156784699Y-110014067D01*
X156764417Y-110220000D01*
X156784699Y-110425932D01*
X156784700Y-110425934D01*
X156844768Y-110623954D01*
X156942315Y-110806450D01*
X156942317Y-110806452D01*
X157073589Y-110966410D01*
X157156031Y-111034067D01*
X157233550Y-111097685D01*
X157375222Y-111173411D01*
X157412010Y-111193075D01*
X157461854Y-111242038D01*
X157477314Y-111310176D01*
X157453482Y-111375855D01*
X157403993Y-111415712D01*
X157347157Y-111441017D01*
X157347155Y-111441018D01*
X157187217Y-111557220D01*
X157187210Y-111557226D01*
X157054927Y-111704144D01*
X156956077Y-111875356D01*
X156956074Y-111875362D01*
X156895886Y-112060605D01*
X156894984Y-112063382D01*
X156874319Y-112260000D01*
X156894984Y-112456618D01*
X156894985Y-112456620D01*
X156894985Y-112456621D01*
X156956074Y-112644637D01*
X156956077Y-112644643D01*
X157054928Y-112815857D01*
X157135605Y-112905458D01*
X157183721Y-112958897D01*
X157187216Y-112962778D01*
X157347159Y-113078984D01*
X157527768Y-113159396D01*
X157527770Y-113159396D01*
X157533946Y-113161403D01*
X157533287Y-113163431D01*
X157586025Y-113191906D01*
X157619799Y-113253070D01*
X157615144Y-113322784D01*
X157573537Y-113378915D01*
X157533490Y-113397203D01*
X157533943Y-113398598D01*
X157527762Y-113400605D01*
X157347160Y-113481016D01*
X157347155Y-113481018D01*
X157187217Y-113597220D01*
X157187210Y-113597226D01*
X157054927Y-113744144D01*
X156956077Y-113915356D01*
X156956074Y-113915362D01*
X156896413Y-114098984D01*
X156894984Y-114103382D01*
X156874319Y-114300000D01*
X156894984Y-114496618D01*
X156894985Y-114496620D01*
X156894985Y-114496621D01*
X156956074Y-114684637D01*
X156956077Y-114684643D01*
X157054928Y-114855857D01*
X157127436Y-114936385D01*
X157184715Y-115000001D01*
X157187216Y-115002778D01*
X157347159Y-115118984D01*
X157527768Y-115199396D01*
X157527770Y-115199396D01*
X157533946Y-115201403D01*
X157533287Y-115203431D01*
X157586025Y-115231906D01*
X157619799Y-115293070D01*
X157615144Y-115362784D01*
X157573537Y-115418915D01*
X157533490Y-115437203D01*
X157533943Y-115438598D01*
X157527762Y-115440605D01*
X157347160Y-115521016D01*
X157347155Y-115521018D01*
X157187217Y-115637220D01*
X157187210Y-115637226D01*
X157060351Y-115778119D01*
X157000864Y-115814768D01*
X156931007Y-115813437D01*
X156880520Y-115782828D01*
X156046819Y-114949127D01*
X156013334Y-114887804D01*
X156010500Y-114861446D01*
X156010500Y-110038553D01*
X156030185Y-109971514D01*
X156046819Y-109950872D01*
X159750873Y-106246819D01*
X159812196Y-106213334D01*
X159838554Y-106210500D01*
X160158129Y-106210500D01*
X160165500Y-106210500D01*
X160232539Y-106230185D01*
X160278294Y-106282989D01*
X160289500Y-106334500D01*
X160289500Y-106539036D01*
X160289491Y-106539128D01*
X160289491Y-106541686D01*
X160289443Y-106541849D01*
X160289458Y-106650602D01*
X160289458Y-106650608D01*
X160315072Y-106762753D01*
X160315072Y-106762754D01*
X160364997Y-106866393D01*
X160364998Y-106866395D01*
X160436703Y-106956292D01*
X160436733Y-106956329D01*
X160526674Y-107028045D01*
X160630321Y-107077953D01*
X160630322Y-107077953D01*
X160630326Y-107077955D01*
X160742481Y-107103551D01*
X160800000Y-107103550D01*
X160841871Y-107103550D01*
X160853800Y-107103550D01*
X160854309Y-107103500D01*
X160857513Y-107103500D01*
X160969657Y-107077907D01*
X161073295Y-107028004D01*
X161073298Y-107028002D01*
X161163225Y-106956298D01*
X161163227Y-106956295D01*
X161163232Y-106956292D01*
X161234958Y-106866367D01*
X161284879Y-106762738D01*
X161284879Y-106762734D01*
X161287900Y-106756465D01*
X161290515Y-106757725D01*
X161323612Y-106711527D01*
X161388551Y-106685743D01*
X161457120Y-106699162D01*
X161507549Y-106747521D01*
X161511707Y-106756611D01*
X161512065Y-106756439D01*
X161515087Y-106762713D01*
X161565006Y-106866356D01*
X161636735Y-106956292D01*
X161636738Y-106956295D01*
X161726676Y-107028014D01*
X161726679Y-107028016D01*
X161830326Y-107077927D01*
X161830333Y-107077928D01*
X161830337Y-107077930D01*
X161913043Y-107096805D01*
X161942481Y-107103524D01*
X161942484Y-107103524D01*
X162053950Y-107103524D01*
X162054194Y-107103500D01*
X162057516Y-107103500D01*
X162057517Y-107103500D01*
X162057519Y-107103499D01*
X162057522Y-107103499D01*
X162100376Y-107093718D01*
X162169666Y-107077904D01*
X162273308Y-107027995D01*
X162363247Y-106956276D01*
X162434974Y-106866343D01*
X162484891Y-106762705D01*
X162510495Y-106650557D01*
X162510496Y-106626748D01*
X162510500Y-106626710D01*
X162510500Y-106593006D01*
X162510503Y-106551170D01*
X162510502Y-106551168D01*
X162510503Y-106540048D01*
X162510500Y-106540002D01*
X162510500Y-106334500D01*
X162530185Y-106267461D01*
X162582989Y-106221706D01*
X162634500Y-106210500D01*
X162641871Y-106210500D01*
X165061446Y-106210500D01*
X165128485Y-106230185D01*
X165149127Y-106246819D01*
X166220964Y-107318656D01*
X166231941Y-107334125D01*
X166232480Y-107333696D01*
X166241192Y-107344620D01*
X166266790Y-107365034D01*
X166271979Y-107369671D01*
X166277923Y-107375615D01*
X166283382Y-107379045D01*
X166285040Y-107380087D01*
X166290716Y-107384114D01*
X166299655Y-107391242D01*
X166316319Y-107404531D01*
X166316320Y-107404531D01*
X166316321Y-107404532D01*
X166327232Y-107409787D01*
X166338685Y-107413794D01*
X166338688Y-107413796D01*
X166371224Y-107417462D01*
X166378077Y-107418627D01*
X166384429Y-107420076D01*
X166386284Y-107420500D01*
X166394696Y-107420500D01*
X166401637Y-107420889D01*
X166434174Y-107424556D01*
X166434174Y-107424555D01*
X166434175Y-107424556D01*
X166448058Y-107422992D01*
X166448135Y-107423677D01*
X166466834Y-107420500D01*
X171197427Y-107420500D01*
X171237690Y-107427219D01*
X171330506Y-107459083D01*
X171575707Y-107500000D01*
X171824293Y-107500000D01*
X172069493Y-107459083D01*
X172162310Y-107427219D01*
X172202573Y-107420500D01*
X180111934Y-107420500D01*
X180178973Y-107440185D01*
X180224728Y-107492989D01*
X180234672Y-107562147D01*
X180210311Y-107619984D01*
X180163822Y-107680568D01*
X180127871Y-107727421D01*
X180127871Y-107727422D01*
X180073413Y-107858897D01*
X180073411Y-107858902D01*
X180054836Y-107999999D01*
X180054836Y-108000000D01*
X180073411Y-108141097D01*
X180073413Y-108141102D01*
X180127871Y-108272577D01*
X180127871Y-108272578D01*
X180127873Y-108272581D01*
X180127874Y-108272582D01*
X180214511Y-108385489D01*
X180327418Y-108472126D01*
X180327421Y-108472127D01*
X180327422Y-108472128D01*
X180393159Y-108499357D01*
X180458901Y-108526588D01*
X180529450Y-108535876D01*
X180599999Y-108545164D01*
X180600000Y-108545164D01*
X180600001Y-108545164D01*
X180647032Y-108538972D01*
X180741099Y-108526588D01*
X180872577Y-108472128D01*
X180872578Y-108472128D01*
X180872578Y-108472127D01*
X180872582Y-108472126D01*
X180985489Y-108385489D01*
X181072126Y-108272582D01*
X181126588Y-108141099D01*
X181145164Y-108000000D01*
X181126588Y-107858901D01*
X181074889Y-107734088D01*
X181072128Y-107727422D01*
X181072128Y-107727421D01*
X181072126Y-107727418D01*
X180989689Y-107619984D01*
X180964496Y-107554818D01*
X180978534Y-107486373D01*
X181027348Y-107436383D01*
X181088066Y-107420500D01*
X185233162Y-107420500D01*
X185251861Y-107423677D01*
X185251939Y-107422992D01*
X185265820Y-107424556D01*
X185265821Y-107424555D01*
X185265822Y-107424556D01*
X185298362Y-107420889D01*
X185305301Y-107420500D01*
X185313710Y-107420500D01*
X185313713Y-107420500D01*
X185321925Y-107418625D01*
X185328753Y-107417464D01*
X185361309Y-107413797D01*
X185361311Y-107413795D01*
X185372755Y-107409791D01*
X185383674Y-107404533D01*
X185383675Y-107404531D01*
X185383678Y-107404531D01*
X185409280Y-107384112D01*
X185414956Y-107380087D01*
X185422073Y-107375616D01*
X185428026Y-107369662D01*
X185433205Y-107365034D01*
X185458805Y-107344620D01*
X185458806Y-107344617D01*
X185467518Y-107333694D01*
X185468057Y-107334124D01*
X185479032Y-107318656D01*
X187039035Y-105758654D01*
X187100356Y-105725171D01*
X187150731Y-105726371D01*
X187150843Y-105725527D01*
X187158699Y-105726561D01*
X187158813Y-105726564D01*
X187158899Y-105726587D01*
X187158901Y-105726588D01*
X187297566Y-105744843D01*
X187361462Y-105773109D01*
X187399933Y-105831434D01*
X187400764Y-105901298D01*
X187369061Y-105955463D01*
X178839387Y-114485137D01*
X178820599Y-114500556D01*
X178808585Y-114508583D01*
X178756861Y-114585996D01*
X178749905Y-114596406D01*
X178749903Y-114596410D01*
X178729298Y-114699998D01*
X178732117Y-114714169D01*
X178734500Y-114738363D01*
X178734500Y-115059664D01*
X178714815Y-115126703D01*
X178662011Y-115172458D01*
X178592853Y-115182402D01*
X178529297Y-115153377D01*
X178522819Y-115147345D01*
X178114862Y-114739388D01*
X178099441Y-114720598D01*
X178091415Y-114708585D01*
X178013745Y-114656688D01*
X178009002Y-114652796D01*
X178003590Y-114649903D01*
X177900002Y-114629298D01*
X177900000Y-114629298D01*
X177885829Y-114632117D01*
X177861636Y-114634500D01*
X176638710Y-114634500D01*
X176571671Y-114614815D01*
X176540335Y-114585987D01*
X176501867Y-114535855D01*
X176485489Y-114514511D01*
X176372582Y-114427874D01*
X176372579Y-114427873D01*
X176372577Y-114427871D01*
X176241102Y-114373413D01*
X176241097Y-114373411D01*
X176100001Y-114354836D01*
X176099999Y-114354836D01*
X175958902Y-114373411D01*
X175958897Y-114373413D01*
X175827422Y-114427871D01*
X175827421Y-114427871D01*
X175768073Y-114473411D01*
X175714511Y-114514511D01*
X175714510Y-114514512D01*
X175714509Y-114514513D01*
X175659665Y-114585987D01*
X175603237Y-114627189D01*
X175561290Y-114634500D01*
X169161336Y-114634500D01*
X169094297Y-114614815D01*
X169073655Y-114598181D01*
X168688535Y-114213061D01*
X168655050Y-114151738D01*
X168653277Y-114109197D01*
X168665037Y-114019873D01*
X168659787Y-113979999D01*
X168646461Y-113878775D01*
X168646459Y-113878770D01*
X168592001Y-113747295D01*
X168592001Y-113747294D01*
X168563206Y-113709768D01*
X168505362Y-113634384D01*
X168392455Y-113547747D01*
X168392452Y-113547746D01*
X168392450Y-113547744D01*
X168260975Y-113493286D01*
X168260970Y-113493284D01*
X168119874Y-113474709D01*
X168119872Y-113474709D01*
X167978775Y-113493284D01*
X167978770Y-113493286D01*
X167847295Y-113547744D01*
X167847294Y-113547744D01*
X167734384Y-113634384D01*
X167647744Y-113747294D01*
X167647744Y-113747295D01*
X167593286Y-113878770D01*
X167593284Y-113878775D01*
X167574709Y-114019872D01*
X167574709Y-114019873D01*
X167593284Y-114160970D01*
X167593286Y-114160975D01*
X167647744Y-114292450D01*
X167647744Y-114292451D01*
X167647746Y-114292454D01*
X167647747Y-114292455D01*
X167734384Y-114405362D01*
X167847291Y-114491999D01*
X167847294Y-114492000D01*
X167847295Y-114492001D01*
X167887328Y-114508583D01*
X167978774Y-114546461D01*
X168030547Y-114553277D01*
X168119872Y-114565037D01*
X168119873Y-114565037D01*
X168209196Y-114553277D01*
X168278229Y-114564042D01*
X168313061Y-114588535D01*
X168785135Y-115060609D01*
X168800555Y-115079398D01*
X168802100Y-115081710D01*
X168808585Y-115091415D01*
X168856428Y-115123382D01*
X168896408Y-115150096D01*
X168896410Y-115150096D01*
X168896412Y-115150097D01*
X168999998Y-115170702D01*
X169000000Y-115170702D01*
X169000001Y-115170702D01*
X169014172Y-115167883D01*
X169038364Y-115165500D01*
X175561290Y-115165500D01*
X175628329Y-115185185D01*
X175659665Y-115214013D01*
X175673395Y-115231906D01*
X175714511Y-115285489D01*
X175827418Y-115372126D01*
X175827421Y-115372127D01*
X175827422Y-115372128D01*
X175859679Y-115385489D01*
X175958901Y-115426588D01*
X175984720Y-115429987D01*
X176048617Y-115458253D01*
X176087088Y-115516578D01*
X176087919Y-115586443D01*
X176050847Y-115645666D01*
X176015988Y-115667487D01*
X175994177Y-115676522D01*
X175927843Y-115727422D01*
X175881270Y-115763159D01*
X175794630Y-115876069D01*
X175794630Y-115876070D01*
X175740172Y-116007545D01*
X175740170Y-116007550D01*
X175721595Y-116148647D01*
X175721595Y-116148648D01*
X175740170Y-116289745D01*
X175740172Y-116289750D01*
X175794630Y-116421225D01*
X175794630Y-116421226D01*
X175794632Y-116421229D01*
X175794633Y-116421230D01*
X175881270Y-116534137D01*
X175994177Y-116620774D01*
X175994180Y-116620775D01*
X175994181Y-116620776D01*
X176031047Y-116636046D01*
X176125660Y-116675236D01*
X176174835Y-116681710D01*
X176266758Y-116693812D01*
X176266759Y-116693812D01*
X176266760Y-116693812D01*
X176313792Y-116687620D01*
X176407858Y-116675236D01*
X176539336Y-116620776D01*
X176539337Y-116620776D01*
X176539337Y-116620775D01*
X176539341Y-116620774D01*
X176652248Y-116534137D01*
X176738885Y-116421230D01*
X176793347Y-116289747D01*
X176811923Y-116148648D01*
X176810650Y-116138982D01*
X176799404Y-116053556D01*
X176793347Y-116007549D01*
X176766116Y-115941807D01*
X176738887Y-115876070D01*
X176738887Y-115876069D01*
X176738885Y-115876066D01*
X176652248Y-115763159D01*
X176539341Y-115676522D01*
X176539338Y-115676521D01*
X176539336Y-115676519D01*
X176407861Y-115622061D01*
X176407859Y-115622060D01*
X176407858Y-115622060D01*
X176400711Y-115621119D01*
X176382035Y-115618660D01*
X176318139Y-115590392D01*
X176279669Y-115532066D01*
X176278839Y-115462201D01*
X176315913Y-115402979D01*
X176350768Y-115381161D01*
X176372582Y-115372126D01*
X176485489Y-115285489D01*
X176540334Y-115214013D01*
X176596763Y-115172811D01*
X176638710Y-115165500D01*
X177738664Y-115165500D01*
X177805703Y-115185185D01*
X177826345Y-115201819D01*
X178431337Y-115806811D01*
X178464822Y-115868134D01*
X178466595Y-115910677D01*
X178454836Y-115999998D01*
X178454836Y-116000000D01*
X178473411Y-116141097D01*
X178473413Y-116141102D01*
X178527871Y-116272577D01*
X178527871Y-116272578D01*
X178527873Y-116272581D01*
X178527874Y-116272582D01*
X178614511Y-116385489D01*
X178727418Y-116472126D01*
X178727421Y-116472127D01*
X178727422Y-116472128D01*
X178778264Y-116493187D01*
X178858901Y-116526588D01*
X178929450Y-116535876D01*
X178999999Y-116545164D01*
X179000000Y-116545164D01*
X179000001Y-116545164D01*
X179047032Y-116538972D01*
X179141099Y-116526588D01*
X179272577Y-116472128D01*
X179272578Y-116472128D01*
X179272578Y-116472127D01*
X179272582Y-116472126D01*
X179385489Y-116385489D01*
X179472126Y-116272582D01*
X179526588Y-116141099D01*
X179545164Y-116000000D01*
X179526588Y-115858901D01*
X179491177Y-115773411D01*
X179472128Y-115727422D01*
X179472128Y-115727421D01*
X179454645Y-115704637D01*
X179385489Y-115614511D01*
X179314013Y-115559665D01*
X179272811Y-115503237D01*
X179265500Y-115461290D01*
X179265500Y-114861335D01*
X179285185Y-114794296D01*
X179301814Y-114773659D01*
X185075473Y-109000000D01*
X186654836Y-109000000D01*
X186673411Y-109141097D01*
X186673413Y-109141102D01*
X186727871Y-109272577D01*
X186727871Y-109272578D01*
X186727873Y-109272581D01*
X186727874Y-109272582D01*
X186814511Y-109385489D01*
X186927418Y-109472126D01*
X186927421Y-109472127D01*
X186927422Y-109472128D01*
X186930952Y-109473590D01*
X187058901Y-109526588D01*
X187129450Y-109535876D01*
X187199999Y-109545164D01*
X187200000Y-109545164D01*
X187200001Y-109545164D01*
X187247032Y-109538972D01*
X187341099Y-109526588D01*
X187472577Y-109472128D01*
X187472578Y-109472128D01*
X187472578Y-109472127D01*
X187472582Y-109472126D01*
X187585489Y-109385489D01*
X187672126Y-109272582D01*
X187726588Y-109141099D01*
X187745164Y-109000000D01*
X187741303Y-108970676D01*
X187733550Y-108911780D01*
X187726588Y-108858901D01*
X187672128Y-108727422D01*
X187672128Y-108727421D01*
X187672126Y-108727418D01*
X187585489Y-108614511D01*
X187472582Y-108527874D01*
X187472579Y-108527873D01*
X187472577Y-108527871D01*
X187341102Y-108473413D01*
X187341097Y-108473411D01*
X187200001Y-108454836D01*
X187199999Y-108454836D01*
X187058902Y-108473411D01*
X187058897Y-108473413D01*
X186927422Y-108527871D01*
X186927421Y-108527871D01*
X186814511Y-108614511D01*
X186727871Y-108727421D01*
X186727871Y-108727422D01*
X186673413Y-108858897D01*
X186673411Y-108858902D01*
X186654836Y-108999999D01*
X186654836Y-109000000D01*
X185075473Y-109000000D01*
X186872710Y-107202763D01*
X198065787Y-107202763D01*
X198095413Y-107472013D01*
X198095415Y-107472024D01*
X198153139Y-107692820D01*
X198163928Y-107734088D01*
X198269870Y-107983390D01*
X198390946Y-108181780D01*
X198410979Y-108214605D01*
X198410986Y-108214615D01*
X198584253Y-108422819D01*
X198584259Y-108422824D01*
X198720799Y-108545164D01*
X198785998Y-108603582D01*
X199011910Y-108753044D01*
X199257176Y-108868020D01*
X199257183Y-108868022D01*
X199257185Y-108868023D01*
X199516557Y-108946057D01*
X199516564Y-108946058D01*
X199516569Y-108946060D01*
X199784561Y-108985500D01*
X199784566Y-108985500D01*
X199987636Y-108985500D01*
X200039133Y-108981730D01*
X200190156Y-108970677D01*
X200302758Y-108945593D01*
X200454546Y-108911782D01*
X200454548Y-108911781D01*
X200454553Y-108911780D01*
X200707558Y-108815014D01*
X200943777Y-108682441D01*
X201158177Y-108516888D01*
X201346186Y-108321881D01*
X201503799Y-108101579D01*
X201580476Y-107952441D01*
X201627649Y-107860690D01*
X201627651Y-107860684D01*
X201627656Y-107860675D01*
X201715118Y-107604305D01*
X201764319Y-107337933D01*
X201774212Y-107067235D01*
X201744586Y-106797982D01*
X201676072Y-106535912D01*
X201570130Y-106286610D01*
X201429018Y-106055390D01*
X201427845Y-106053981D01*
X201255746Y-105847180D01*
X201255740Y-105847175D01*
X201054002Y-105666418D01*
X200828092Y-105516957D01*
X200815986Y-105511282D01*
X200582824Y-105401980D01*
X200582819Y-105401978D01*
X200582814Y-105401976D01*
X200323442Y-105323942D01*
X200323428Y-105323939D01*
X200207791Y-105306921D01*
X200055439Y-105284500D01*
X199852369Y-105284500D01*
X199852364Y-105284500D01*
X199649844Y-105299323D01*
X199649831Y-105299325D01*
X199385453Y-105358217D01*
X199385446Y-105358220D01*
X199132439Y-105454987D01*
X198896226Y-105587557D01*
X198681822Y-105753112D01*
X198493822Y-105948109D01*
X198493816Y-105948116D01*
X198336202Y-106168419D01*
X198336199Y-106168424D01*
X198212350Y-106409309D01*
X198212343Y-106409327D01*
X198124884Y-106665685D01*
X198124881Y-106665699D01*
X198110783Y-106742024D01*
X198076930Y-106925308D01*
X198075681Y-106932068D01*
X198075680Y-106932075D01*
X198065787Y-107202763D01*
X186872710Y-107202763D01*
X191533981Y-102541491D01*
X191595302Y-102508008D01*
X191664994Y-102512992D01*
X191686941Y-102523749D01*
X191689458Y-102525308D01*
X191886550Y-102601662D01*
X192094317Y-102640500D01*
X192094319Y-102640500D01*
X192305681Y-102640500D01*
X192305683Y-102640500D01*
X192513450Y-102601662D01*
X192710542Y-102525308D01*
X192890249Y-102414038D01*
X193044507Y-102273413D01*
X193046448Y-102271644D01*
X193059141Y-102254836D01*
X193173827Y-102102968D01*
X193268041Y-101913761D01*
X193268041Y-101913758D01*
X193268043Y-101913756D01*
X193325883Y-101710466D01*
X193325884Y-101710463D01*
X193345386Y-101500000D01*
X193345386Y-101499999D01*
X193325884Y-101289536D01*
X193325883Y-101289533D01*
X193268043Y-101086243D01*
X193268040Y-101086237D01*
X193173827Y-100897032D01*
X193046450Y-100728358D01*
X193046448Y-100728355D01*
X192890250Y-100585963D01*
X192890249Y-100585962D01*
X192710542Y-100474692D01*
X192710540Y-100474691D01*
X192710539Y-100474690D01*
X192551165Y-100412949D01*
X192513450Y-100398338D01*
X192305683Y-100359500D01*
X192094317Y-100359500D01*
X191886550Y-100398338D01*
X191886547Y-100398338D01*
X191886547Y-100398339D01*
X191689460Y-100474690D01*
X191689459Y-100474691D01*
X191509749Y-100585963D01*
X191353551Y-100728355D01*
X191226173Y-100897031D01*
X191131959Y-101086237D01*
X191131956Y-101086243D01*
X191074116Y-101289533D01*
X191074115Y-101289536D01*
X191054614Y-101499999D01*
X191054614Y-101500000D01*
X191074115Y-101710463D01*
X191074116Y-101710466D01*
X191131954Y-101913749D01*
X191131959Y-101913761D01*
X191184870Y-102020022D01*
X191197131Y-102088806D01*
X191170258Y-102153300D01*
X191161551Y-102162973D01*
X188055463Y-105269061D01*
X187994140Y-105302546D01*
X187924448Y-105297562D01*
X187868515Y-105255690D01*
X187844843Y-105197565D01*
X187836426Y-105133633D01*
X187826588Y-105058901D01*
X187789119Y-104968442D01*
X187772128Y-104927422D01*
X187772128Y-104927421D01*
X187766576Y-104920185D01*
X187685489Y-104814511D01*
X187572582Y-104727874D01*
X187572579Y-104727873D01*
X187572577Y-104727871D01*
X187441102Y-104673413D01*
X187441097Y-104673411D01*
X187300001Y-104654836D01*
X187299999Y-104654836D01*
X187158902Y-104673411D01*
X187158897Y-104673413D01*
X187027422Y-104727871D01*
X187027421Y-104727871D01*
X186914511Y-104814511D01*
X186827871Y-104927421D01*
X186827871Y-104927422D01*
X186773413Y-105058897D01*
X186773411Y-105058902D01*
X186754836Y-105199999D01*
X186754836Y-105200000D01*
X186773412Y-105341099D01*
X186773438Y-105341196D01*
X186773435Y-105341280D01*
X186774473Y-105349157D01*
X186773244Y-105349318D01*
X186771771Y-105411045D01*
X186741342Y-105460963D01*
X185239124Y-106963181D01*
X185177801Y-106996666D01*
X185151443Y-106999500D01*
X173067885Y-106999500D01*
X173000846Y-106979815D01*
X172955091Y-106927011D01*
X172945147Y-106857853D01*
X172964076Y-106807679D01*
X173023732Y-106716367D01*
X173123587Y-106488717D01*
X173184612Y-106247738D01*
X173184614Y-106247729D01*
X173205141Y-106000005D01*
X173205141Y-105999994D01*
X173184614Y-105752270D01*
X173184612Y-105752261D01*
X173123587Y-105511282D01*
X173023732Y-105283632D01*
X172898743Y-105092321D01*
X172878556Y-105025432D01*
X172897736Y-104958246D01*
X172950194Y-104912096D01*
X173002552Y-104900500D01*
X183002185Y-104900500D01*
X183020884Y-104903677D01*
X183020962Y-104902992D01*
X183034843Y-104904556D01*
X183034844Y-104904555D01*
X183034845Y-104904556D01*
X183067385Y-104900889D01*
X183074324Y-104900500D01*
X183082733Y-104900500D01*
X183082736Y-104900500D01*
X183090948Y-104898625D01*
X183097776Y-104897464D01*
X183130332Y-104893797D01*
X183130334Y-104893795D01*
X183141778Y-104889791D01*
X183152697Y-104884533D01*
X183152698Y-104884531D01*
X183152701Y-104884531D01*
X183178303Y-104864112D01*
X183183979Y-104860087D01*
X183191096Y-104855616D01*
X183197049Y-104849662D01*
X183202221Y-104845039D01*
X183227828Y-104824620D01*
X183227829Y-104824617D01*
X183236541Y-104813694D01*
X183237080Y-104814124D01*
X183248053Y-104798657D01*
X183799892Y-104246819D01*
X183861215Y-104213334D01*
X183887573Y-104210500D01*
X186120440Y-104210500D01*
X186187479Y-104230185D01*
X186222250Y-104266653D01*
X186222927Y-104266134D01*
X186227756Y-104272428D01*
X186227829Y-104272504D01*
X186227871Y-104272578D01*
X186227873Y-104272581D01*
X186227874Y-104272582D01*
X186314511Y-104385489D01*
X186427418Y-104472126D01*
X186427421Y-104472127D01*
X186427422Y-104472128D01*
X186477175Y-104492736D01*
X186558901Y-104526588D01*
X186606048Y-104532795D01*
X186699999Y-104545164D01*
X186700000Y-104545164D01*
X186700001Y-104545164D01*
X186777469Y-104534965D01*
X186841099Y-104526588D01*
X186972577Y-104472128D01*
X186972578Y-104472128D01*
X186972578Y-104472127D01*
X186972582Y-104472126D01*
X187085489Y-104385489D01*
X187172126Y-104272582D01*
X187226588Y-104141099D01*
X187245164Y-104000000D01*
X187226588Y-103858901D01*
X187174797Y-103733866D01*
X187172128Y-103727422D01*
X187172128Y-103727421D01*
X187172126Y-103727418D01*
X187085489Y-103614511D01*
X186972582Y-103527874D01*
X186972579Y-103527873D01*
X186972577Y-103527871D01*
X186841102Y-103473413D01*
X186841097Y-103473411D01*
X186700001Y-103454836D01*
X186699999Y-103454836D01*
X186558902Y-103473411D01*
X186558897Y-103473413D01*
X186427422Y-103527871D01*
X186427421Y-103527871D01*
X186314511Y-103614511D01*
X186227871Y-103727421D01*
X186227829Y-103727496D01*
X186227776Y-103727546D01*
X186222927Y-103733866D01*
X186221941Y-103733109D01*
X186177264Y-103775714D01*
X186120440Y-103789500D01*
X183805854Y-103789500D01*
X183787155Y-103786322D01*
X183787078Y-103787008D01*
X183773195Y-103785443D01*
X183749721Y-103788088D01*
X183740657Y-103789110D01*
X183733716Y-103789500D01*
X183725301Y-103789500D01*
X183717096Y-103791372D01*
X183710244Y-103792536D01*
X183677705Y-103796204D01*
X183666258Y-103800210D01*
X183655339Y-103805468D01*
X183629733Y-103825887D01*
X183624068Y-103829907D01*
X183616943Y-103834385D01*
X183610996Y-103840331D01*
X183605815Y-103844961D01*
X183580212Y-103865379D01*
X183571501Y-103876303D01*
X183570962Y-103875873D01*
X183559986Y-103891341D01*
X183008147Y-104443181D01*
X182946824Y-104476666D01*
X182920466Y-104479500D01*
X165835739Y-104479500D01*
X165768700Y-104459815D01*
X165722945Y-104407011D01*
X165713001Y-104337853D01*
X165737364Y-104280013D01*
X165788529Y-104213334D01*
X165812126Y-104182582D01*
X165866588Y-104051099D01*
X165885164Y-103910000D01*
X165866588Y-103768901D01*
X165812128Y-103637422D01*
X165812128Y-103637421D01*
X165812126Y-103637418D01*
X165725489Y-103524511D01*
X165612582Y-103437874D01*
X165612579Y-103437873D01*
X165612577Y-103437871D01*
X165481102Y-103383413D01*
X165481097Y-103383411D01*
X165340001Y-103364836D01*
X165339999Y-103364836D01*
X165198902Y-103383411D01*
X165198897Y-103383413D01*
X165067422Y-103437871D01*
X165067421Y-103437871D01*
X164954511Y-103524511D01*
X164867871Y-103637421D01*
X164867871Y-103637422D01*
X164813413Y-103768897D01*
X164813411Y-103768902D01*
X164794836Y-103909999D01*
X164794836Y-103910000D01*
X164813411Y-104051097D01*
X164813413Y-104051102D01*
X164867871Y-104182577D01*
X164867874Y-104182583D01*
X164942636Y-104280013D01*
X164967831Y-104345182D01*
X164953793Y-104413627D01*
X164904979Y-104463617D01*
X164844261Y-104479500D01*
X160566835Y-104479500D01*
X160548135Y-104476322D01*
X160548058Y-104477008D01*
X160534176Y-104475443D01*
X160513883Y-104477730D01*
X160501634Y-104479110D01*
X160494696Y-104479500D01*
X160486282Y-104479500D01*
X160478073Y-104481373D01*
X160471224Y-104482536D01*
X160438688Y-104486202D01*
X160427248Y-104490205D01*
X160416318Y-104495469D01*
X160390713Y-104515887D01*
X160385045Y-104519908D01*
X160377927Y-104524381D01*
X160377922Y-104524384D01*
X160371971Y-104530335D01*
X160366790Y-104534965D01*
X160341192Y-104555379D01*
X160332481Y-104566303D01*
X160331942Y-104565873D01*
X160320967Y-104581339D01*
X155091339Y-109810967D01*
X155075873Y-109821942D01*
X155076303Y-109822481D01*
X155065379Y-109831192D01*
X155044965Y-109856790D01*
X155040335Y-109861971D01*
X155034384Y-109867922D01*
X155034381Y-109867927D01*
X155029908Y-109875045D01*
X155025887Y-109880713D01*
X155005469Y-109906318D01*
X155000205Y-109917248D01*
X154996202Y-109928688D01*
X154992536Y-109961224D01*
X154991373Y-109968073D01*
X154989500Y-109976282D01*
X154989500Y-109984693D01*
X154989110Y-109991641D01*
X154985443Y-110024175D01*
X154987008Y-110038058D01*
X154986322Y-110038135D01*
X154989500Y-110056835D01*
X154989500Y-115243166D01*
X154986323Y-115261866D01*
X154987008Y-115261944D01*
X154985443Y-115275824D01*
X150000500Y-115275824D01*
X150000500Y-106472763D01*
X153425787Y-106472763D01*
X153455413Y-106742013D01*
X153455415Y-106742024D01*
X153523926Y-107004082D01*
X153523928Y-107004088D01*
X153629870Y-107253390D01*
X153743870Y-107440185D01*
X153770979Y-107484605D01*
X153770986Y-107484615D01*
X153944253Y-107692819D01*
X153944259Y-107692824D01*
X153982872Y-107727421D01*
X154145998Y-107873582D01*
X154371910Y-108023044D01*
X154617176Y-108138020D01*
X154617183Y-108138022D01*
X154617185Y-108138023D01*
X154876557Y-108216057D01*
X154876564Y-108216058D01*
X154876569Y-108216060D01*
X155144561Y-108255500D01*
X155144566Y-108255500D01*
X155347636Y-108255500D01*
X155399133Y-108251730D01*
X155550156Y-108240677D01*
X155667152Y-108214615D01*
X155814546Y-108181782D01*
X155814548Y-108181781D01*
X155814553Y-108181780D01*
X156067558Y-108085014D01*
X156303777Y-107952441D01*
X156518177Y-107786888D01*
X156706186Y-107591881D01*
X156863799Y-107371579D01*
X156950593Y-107202763D01*
X156987649Y-107130690D01*
X156987651Y-107130684D01*
X156987656Y-107130675D01*
X157075118Y-106874305D01*
X157124319Y-106607933D01*
X157134212Y-106337235D01*
X157104586Y-106067982D01*
X157036072Y-105805912D01*
X156930130Y-105556610D01*
X156789018Y-105325390D01*
X156767325Y-105299323D01*
X156615746Y-105117180D01*
X156615740Y-105117175D01*
X156414002Y-104936418D01*
X156188092Y-104786957D01*
X156188090Y-104786956D01*
X155942824Y-104671980D01*
X155942819Y-104671978D01*
X155942814Y-104671976D01*
X155683442Y-104593942D01*
X155683428Y-104593939D01*
X155567791Y-104576921D01*
X155415439Y-104554500D01*
X155212369Y-104554500D01*
X155212364Y-104554500D01*
X155009844Y-104569323D01*
X155009831Y-104569325D01*
X154745453Y-104628217D01*
X154745446Y-104628220D01*
X154492439Y-104724987D01*
X154256226Y-104857557D01*
X154256224Y-104857558D01*
X154256223Y-104857559D01*
X154200612Y-104900500D01*
X154041822Y-105023112D01*
X153853822Y-105218109D01*
X153853816Y-105218116D01*
X153696202Y-105438419D01*
X153696199Y-105438424D01*
X153572350Y-105679309D01*
X153572343Y-105679327D01*
X153484884Y-105935685D01*
X153484881Y-105935699D01*
X153435681Y-106202068D01*
X153435680Y-106202075D01*
X153425787Y-106472763D01*
X150000500Y-106472763D01*
X150000500Y-102800000D01*
X173354836Y-102800000D01*
X173373411Y-102941097D01*
X173373413Y-102941102D01*
X173427871Y-103072577D01*
X173427871Y-103072578D01*
X173427873Y-103072581D01*
X173427874Y-103072582D01*
X173514511Y-103185489D01*
X173627418Y-103272126D01*
X173627421Y-103272127D01*
X173627422Y-103272128D01*
X173693159Y-103299357D01*
X173758901Y-103326588D01*
X173829450Y-103335876D01*
X173899999Y-103345164D01*
X173900000Y-103345164D01*
X173900001Y-103345164D01*
X173947032Y-103338972D01*
X174041099Y-103326588D01*
X174172577Y-103272128D01*
X174172578Y-103272128D01*
X174172578Y-103272127D01*
X174172582Y-103272126D01*
X174285489Y-103185489D01*
X174340334Y-103114013D01*
X174396763Y-103072811D01*
X174438710Y-103065500D01*
X178061636Y-103065500D01*
X178085828Y-103067883D01*
X178099999Y-103070702D01*
X178100000Y-103070702D01*
X178203593Y-103050095D01*
X178269248Y-103006226D01*
X178279735Y-102999219D01*
X178301568Y-102984631D01*
X178301574Y-102984626D01*
X178304943Y-102982374D01*
X178321800Y-102953672D01*
X181561636Y-99713836D01*
X195534500Y-99713836D01*
X195535524Y-99718984D01*
X195542651Y-99754821D01*
X195573705Y-99801295D01*
X195620179Y-99832349D01*
X195661159Y-99840500D01*
X197288840Y-99840499D01*
X197329821Y-99832349D01*
X197376295Y-99801295D01*
X197407349Y-99754821D01*
X197415500Y-99713841D01*
X197415499Y-98900000D01*
X198069319Y-98900000D01*
X198089984Y-99096618D01*
X198089985Y-99096621D01*
X198151074Y-99284637D01*
X198151077Y-99284643D01*
X198249928Y-99455857D01*
X198382216Y-99602778D01*
X198542159Y-99718984D01*
X198722768Y-99799396D01*
X198916149Y-99840500D01*
X198916150Y-99840500D01*
X199113849Y-99840500D01*
X199113851Y-99840500D01*
X199307232Y-99799396D01*
X199487841Y-99718984D01*
X199647784Y-99602778D01*
X199780072Y-99455857D01*
X199878923Y-99284643D01*
X199940016Y-99096618D01*
X199960681Y-98900000D01*
X200609319Y-98900000D01*
X200629984Y-99096618D01*
X200629985Y-99096621D01*
X200691074Y-99284637D01*
X200691077Y-99284643D01*
X200789928Y-99455857D01*
X200922216Y-99602778D01*
X201082159Y-99718984D01*
X201262768Y-99799396D01*
X201456149Y-99840500D01*
X201456150Y-99840500D01*
X201653849Y-99840500D01*
X201653851Y-99840500D01*
X201847232Y-99799396D01*
X202027841Y-99718984D01*
X202187784Y-99602778D01*
X202320072Y-99455857D01*
X202418923Y-99284643D01*
X202480016Y-99096618D01*
X202500681Y-98900000D01*
X202480016Y-98703382D01*
X202418923Y-98515357D01*
X202320072Y-98344143D01*
X202187784Y-98197222D01*
X202027841Y-98081016D01*
X201847232Y-98000604D01*
X201847230Y-98000603D01*
X201692199Y-97967651D01*
X201653851Y-97959500D01*
X201456149Y-97959500D01*
X201422251Y-97966705D01*
X201262768Y-98000603D01*
X201262762Y-98000605D01*
X201082160Y-98081016D01*
X201082155Y-98081018D01*
X200922217Y-98197220D01*
X200922210Y-98197226D01*
X200789927Y-98344144D01*
X200691077Y-98515356D01*
X200691074Y-98515362D01*
X200631083Y-98699999D01*
X200629984Y-98703382D01*
X200609319Y-98900000D01*
X199960681Y-98900000D01*
X199940016Y-98703382D01*
X199878923Y-98515357D01*
X199780072Y-98344143D01*
X199647784Y-98197222D01*
X199487841Y-98081016D01*
X199307232Y-98000604D01*
X199307230Y-98000603D01*
X199152199Y-97967651D01*
X199113851Y-97959500D01*
X198916149Y-97959500D01*
X198882251Y-97966705D01*
X198722768Y-98000603D01*
X198722762Y-98000605D01*
X198542160Y-98081016D01*
X198542155Y-98081018D01*
X198382217Y-98197220D01*
X198382210Y-98197226D01*
X198249927Y-98344144D01*
X198151077Y-98515356D01*
X198151074Y-98515362D01*
X198091083Y-98699999D01*
X198089984Y-98703382D01*
X198069319Y-98900000D01*
X197415499Y-98900000D01*
X197415499Y-98086160D01*
X197407349Y-98045179D01*
X197376295Y-97998705D01*
X197329821Y-97967651D01*
X197288841Y-97959500D01*
X197288839Y-97959500D01*
X195661163Y-97959500D01*
X195620178Y-97967650D01*
X195620179Y-97967651D01*
X195573705Y-97998705D01*
X195565705Y-98010677D01*
X195542651Y-98045178D01*
X195534500Y-98086160D01*
X195534500Y-99713836D01*
X181561636Y-99713836D01*
X186375472Y-94900000D01*
X189554614Y-94900000D01*
X189574115Y-95110463D01*
X189574116Y-95110466D01*
X189631956Y-95313756D01*
X189631959Y-95313762D01*
X189726173Y-95502968D01*
X189853551Y-95671644D01*
X189967250Y-95775293D01*
X190009751Y-95814038D01*
X190189458Y-95925308D01*
X190189459Y-95925308D01*
X190189460Y-95925309D01*
X190231213Y-95941484D01*
X190386550Y-96001662D01*
X190594317Y-96040500D01*
X190594319Y-96040500D01*
X190805681Y-96040500D01*
X190805683Y-96040500D01*
X191013450Y-96001662D01*
X191210542Y-95925308D01*
X191390249Y-95814038D01*
X191546450Y-95671642D01*
X191673827Y-95502968D01*
X191768041Y-95313761D01*
X191768041Y-95313758D01*
X191768043Y-95313756D01*
X191825883Y-95110466D01*
X191825884Y-95110463D01*
X191845386Y-94900000D01*
X191845386Y-94899999D01*
X191825884Y-94689536D01*
X191825883Y-94689533D01*
X191768043Y-94486243D01*
X191768040Y-94486237D01*
X191762180Y-94474468D01*
X191673827Y-94297032D01*
X191612716Y-94216108D01*
X191546448Y-94128355D01*
X191390250Y-93985963D01*
X191390249Y-93985962D01*
X191210542Y-93874692D01*
X191210540Y-93874691D01*
X191210539Y-93874690D01*
X191027626Y-93803830D01*
X191013450Y-93798338D01*
X190805683Y-93759500D01*
X190594317Y-93759500D01*
X190386550Y-93798338D01*
X190386547Y-93798338D01*
X190386547Y-93798339D01*
X190189460Y-93874690D01*
X190189459Y-93874691D01*
X190009749Y-93985963D01*
X189853551Y-94128355D01*
X189726173Y-94297031D01*
X189631959Y-94486237D01*
X189631956Y-94486243D01*
X189574116Y-94689533D01*
X189574115Y-94689536D01*
X189554614Y-94899999D01*
X189554614Y-94900000D01*
X186375472Y-94900000D01*
X189933981Y-91341491D01*
X189995302Y-91308008D01*
X190064994Y-91312992D01*
X190086941Y-91323749D01*
X190089458Y-91325308D01*
X190286550Y-91401662D01*
X190494317Y-91440500D01*
X190494319Y-91440500D01*
X190705681Y-91440500D01*
X190705683Y-91440500D01*
X190913450Y-91401662D01*
X191110542Y-91325308D01*
X191183717Y-91280000D01*
X195529319Y-91280000D01*
X195549984Y-91476618D01*
X195549985Y-91476621D01*
X195611074Y-91664637D01*
X195611077Y-91664643D01*
X195709928Y-91835857D01*
X195842216Y-91982778D01*
X196002159Y-92098984D01*
X196182768Y-92179396D01*
X196376149Y-92220500D01*
X196376150Y-92220500D01*
X196573849Y-92220500D01*
X196573851Y-92220500D01*
X196767232Y-92179396D01*
X196947841Y-92098984D01*
X197107784Y-91982778D01*
X197240072Y-91835857D01*
X197338923Y-91664643D01*
X197400016Y-91476618D01*
X197420681Y-91280000D01*
X198069319Y-91280000D01*
X198089984Y-91476618D01*
X198089985Y-91476621D01*
X198151074Y-91664637D01*
X198151077Y-91664643D01*
X198249928Y-91835857D01*
X198382216Y-91982778D01*
X198542159Y-92098984D01*
X198722768Y-92179396D01*
X198916149Y-92220500D01*
X198916150Y-92220500D01*
X199113849Y-92220500D01*
X199113851Y-92220500D01*
X199307232Y-92179396D01*
X199487841Y-92098984D01*
X199647784Y-91982778D01*
X199780072Y-91835857D01*
X199878923Y-91664643D01*
X199940016Y-91476618D01*
X199960681Y-91280000D01*
X200609319Y-91280000D01*
X200629984Y-91476618D01*
X200629985Y-91476621D01*
X200691074Y-91664637D01*
X200691077Y-91664643D01*
X200789928Y-91835857D01*
X200922216Y-91982778D01*
X201082159Y-92098984D01*
X201262768Y-92179396D01*
X201456149Y-92220500D01*
X201456150Y-92220500D01*
X201653849Y-92220500D01*
X201653851Y-92220500D01*
X201847232Y-92179396D01*
X202027841Y-92098984D01*
X202187784Y-91982778D01*
X202320072Y-91835857D01*
X202418923Y-91664643D01*
X202480016Y-91476618D01*
X202500681Y-91280000D01*
X202480016Y-91083382D01*
X202437750Y-90953300D01*
X202418925Y-90895362D01*
X202418922Y-90895356D01*
X202320072Y-90724143D01*
X202187784Y-90577222D01*
X202027841Y-90461016D01*
X201847232Y-90380604D01*
X201847230Y-90380603D01*
X201706048Y-90350594D01*
X201653851Y-90339500D01*
X201456149Y-90339500D01*
X201422251Y-90346705D01*
X201262768Y-90380603D01*
X201262762Y-90380605D01*
X201082160Y-90461016D01*
X201082155Y-90461018D01*
X200922217Y-90577220D01*
X200922210Y-90577226D01*
X200789927Y-90724144D01*
X200691077Y-90895356D01*
X200691074Y-90895362D01*
X200633494Y-91072578D01*
X200629984Y-91083382D01*
X200609319Y-91280000D01*
X199960681Y-91280000D01*
X199940016Y-91083382D01*
X199897750Y-90953300D01*
X199878925Y-90895362D01*
X199878922Y-90895356D01*
X199780072Y-90724143D01*
X199647784Y-90577222D01*
X199487841Y-90461016D01*
X199307232Y-90380604D01*
X199307230Y-90380603D01*
X199166048Y-90350594D01*
X199113851Y-90339500D01*
X198916149Y-90339500D01*
X198882251Y-90346705D01*
X198722768Y-90380603D01*
X198722762Y-90380605D01*
X198542160Y-90461016D01*
X198542155Y-90461018D01*
X198382217Y-90577220D01*
X198382210Y-90577226D01*
X198249927Y-90724144D01*
X198151077Y-90895356D01*
X198151074Y-90895362D01*
X198093494Y-91072578D01*
X198089984Y-91083382D01*
X198069319Y-91280000D01*
X197420681Y-91280000D01*
X197400016Y-91083382D01*
X197357750Y-90953300D01*
X197338925Y-90895362D01*
X197338922Y-90895356D01*
X197240072Y-90724143D01*
X197107784Y-90577222D01*
X196947841Y-90461016D01*
X196767232Y-90380604D01*
X196767230Y-90380603D01*
X196626048Y-90350594D01*
X196573851Y-90339500D01*
X196376149Y-90339500D01*
X196342251Y-90346705D01*
X196182768Y-90380603D01*
X196182762Y-90380605D01*
X196002160Y-90461016D01*
X196002155Y-90461018D01*
X195842217Y-90577220D01*
X195842210Y-90577226D01*
X195709927Y-90724144D01*
X195611077Y-90895356D01*
X195611074Y-90895362D01*
X195553494Y-91072578D01*
X195549984Y-91083382D01*
X195529319Y-91280000D01*
X191183717Y-91280000D01*
X191290249Y-91214038D01*
X191445423Y-91072578D01*
X191446448Y-91071644D01*
X191446450Y-91071642D01*
X191573827Y-90902968D01*
X191668041Y-90713761D01*
X191668041Y-90713758D01*
X191668043Y-90713756D01*
X191704624Y-90585185D01*
X191725884Y-90510464D01*
X191745386Y-90300000D01*
X191725884Y-90089536D01*
X191704624Y-90014815D01*
X191668043Y-89886243D01*
X191668040Y-89886237D01*
X191625099Y-89800000D01*
X191573827Y-89697032D01*
X191446450Y-89528358D01*
X191446448Y-89528355D01*
X191290250Y-89385963D01*
X191290249Y-89385962D01*
X191110542Y-89274692D01*
X191110540Y-89274691D01*
X191110539Y-89274690D01*
X190955205Y-89214514D01*
X190913450Y-89198338D01*
X190705683Y-89159500D01*
X190494317Y-89159500D01*
X190286550Y-89198338D01*
X190286547Y-89198338D01*
X190286547Y-89198339D01*
X190089460Y-89274690D01*
X190089459Y-89274691D01*
X189909749Y-89385963D01*
X189753551Y-89528355D01*
X189626173Y-89697031D01*
X189531963Y-89886228D01*
X189531958Y-89886241D01*
X189515401Y-89944435D01*
X189478122Y-90003528D01*
X189414812Y-90033085D01*
X189396135Y-90034500D01*
X185511336Y-90034500D01*
X185444297Y-90014815D01*
X185423655Y-89998181D01*
X185144016Y-89718542D01*
X185110531Y-89657219D01*
X185108758Y-89614678D01*
X185120518Y-89525354D01*
X185101942Y-89384255D01*
X185070215Y-89307659D01*
X185047482Y-89252776D01*
X185047482Y-89252775D01*
X185047480Y-89252772D01*
X184960843Y-89139865D01*
X184847936Y-89053228D01*
X184847933Y-89053227D01*
X184847931Y-89053225D01*
X184716456Y-88998767D01*
X184716451Y-88998765D01*
X184575355Y-88980190D01*
X184575353Y-88980190D01*
X184434256Y-88998765D01*
X184434251Y-88998767D01*
X184302776Y-89053225D01*
X184302775Y-89053225D01*
X184189865Y-89139865D01*
X184103225Y-89252775D01*
X184103225Y-89252776D01*
X184048767Y-89384251D01*
X184048765Y-89384256D01*
X184030190Y-89525353D01*
X184030190Y-89525354D01*
X184048765Y-89666451D01*
X184048767Y-89666456D01*
X184103225Y-89797931D01*
X184103225Y-89797932D01*
X184103227Y-89797935D01*
X184103228Y-89797936D01*
X184189865Y-89910843D01*
X184302772Y-89997480D01*
X184302775Y-89997481D01*
X184302776Y-89997482D01*
X184304464Y-89998181D01*
X184434255Y-90051942D01*
X184486028Y-90058758D01*
X184575353Y-90070518D01*
X184575354Y-90070518D01*
X184664677Y-90058758D01*
X184733710Y-90069523D01*
X184768542Y-90094016D01*
X185135135Y-90460609D01*
X185150555Y-90479398D01*
X185158583Y-90491413D01*
X185158584Y-90491413D01*
X185158585Y-90491415D01*
X185246407Y-90550095D01*
X185263212Y-90553437D01*
X185349999Y-90570702D01*
X185350000Y-90570702D01*
X185350001Y-90570702D01*
X185364172Y-90567883D01*
X185388364Y-90565500D01*
X189396135Y-90565500D01*
X189463174Y-90585185D01*
X189508929Y-90637989D01*
X189515399Y-90655559D01*
X189524251Y-90686673D01*
X189531957Y-90713756D01*
X189531960Y-90713764D01*
X189537129Y-90724144D01*
X189584870Y-90820022D01*
X189597131Y-90888806D01*
X189570258Y-90953300D01*
X189561551Y-90962973D01*
X178026345Y-102498181D01*
X177965022Y-102531666D01*
X177938664Y-102534500D01*
X174438710Y-102534500D01*
X174371671Y-102514815D01*
X174340335Y-102485987D01*
X174321683Y-102461679D01*
X174285489Y-102414511D01*
X174172582Y-102327874D01*
X174172579Y-102327873D01*
X174172577Y-102327871D01*
X174041102Y-102273413D01*
X174041097Y-102273411D01*
X173900001Y-102254836D01*
X173899999Y-102254836D01*
X173758902Y-102273411D01*
X173758897Y-102273413D01*
X173627422Y-102327871D01*
X173627421Y-102327871D01*
X173514511Y-102414511D01*
X173427871Y-102527421D01*
X173427871Y-102527422D01*
X173373413Y-102658897D01*
X173373411Y-102658902D01*
X173354836Y-102799999D01*
X173354836Y-102800000D01*
X150000500Y-102800000D01*
X150000500Y-99860000D01*
X151637907Y-99860000D01*
X151657030Y-100054169D01*
X151713671Y-100240888D01*
X151805640Y-100412949D01*
X151805644Y-100412956D01*
X151929421Y-100563778D01*
X152080243Y-100687555D01*
X152080250Y-100687559D01*
X152252311Y-100779528D01*
X152252314Y-100779528D01*
X152252318Y-100779531D01*
X152439028Y-100836169D01*
X152633200Y-100855293D01*
X152827372Y-100836169D01*
X153014082Y-100779531D01*
X153186155Y-100687556D01*
X153336978Y-100563778D01*
X153460756Y-100412955D01*
X153552731Y-100240882D01*
X153609369Y-100054172D01*
X153628493Y-99860000D01*
X153609369Y-99665828D01*
X153552731Y-99479118D01*
X153552728Y-99479114D01*
X153552728Y-99479111D01*
X153460759Y-99307050D01*
X153460755Y-99307043D01*
X153336978Y-99156221D01*
X153186156Y-99032444D01*
X153186149Y-99032440D01*
X153014088Y-98940471D01*
X153014082Y-98940469D01*
X152827372Y-98883831D01*
X152827369Y-98883830D01*
X152633200Y-98864707D01*
X152439030Y-98883830D01*
X152252311Y-98940471D01*
X152080250Y-99032440D01*
X152080243Y-99032444D01*
X151929421Y-99156221D01*
X151805644Y-99307043D01*
X151805640Y-99307050D01*
X151713671Y-99479111D01*
X151657030Y-99665830D01*
X151637907Y-99860000D01*
X150000500Y-99860000D01*
X150000500Y-97320000D01*
X151231507Y-97320000D01*
X151250630Y-97514169D01*
X151307271Y-97700888D01*
X151399240Y-97872949D01*
X151399244Y-97872956D01*
X151523021Y-98023778D01*
X151673843Y-98147555D01*
X151673850Y-98147559D01*
X151845911Y-98239528D01*
X151845914Y-98239528D01*
X151845918Y-98239531D01*
X152032628Y-98296169D01*
X152226800Y-98315293D01*
X152420972Y-98296169D01*
X152607682Y-98239531D01*
X152629497Y-98227871D01*
X152693718Y-98193543D01*
X152779755Y-98147556D01*
X152930578Y-98023778D01*
X153054356Y-97872955D01*
X153146331Y-97700882D01*
X153202969Y-97514172D01*
X153222093Y-97320000D01*
X153202969Y-97125828D01*
X153146331Y-96939118D01*
X153146328Y-96939114D01*
X153146328Y-96939111D01*
X153054359Y-96767050D01*
X153054355Y-96767043D01*
X152930578Y-96616221D01*
X152779756Y-96492444D01*
X152779749Y-96492440D01*
X152607688Y-96400471D01*
X152607682Y-96400469D01*
X152420972Y-96343831D01*
X152420969Y-96343830D01*
X152226800Y-96324707D01*
X152032630Y-96343830D01*
X151845911Y-96400471D01*
X151673850Y-96492440D01*
X151673843Y-96492444D01*
X151523021Y-96616221D01*
X151399244Y-96767043D01*
X151399240Y-96767050D01*
X151307271Y-96939111D01*
X151250630Y-97125830D01*
X151231507Y-97320000D01*
X150000500Y-97320000D01*
X150000500Y-94780000D01*
X151637907Y-94780000D01*
X151657030Y-94974169D01*
X151675910Y-95036408D01*
X151698375Y-95110466D01*
X151713671Y-95160888D01*
X151805640Y-95332949D01*
X151805644Y-95332956D01*
X151929421Y-95483778D01*
X152080243Y-95607555D01*
X152080250Y-95607559D01*
X152252311Y-95699528D01*
X152252314Y-95699528D01*
X152252318Y-95699531D01*
X152439028Y-95756169D01*
X152633200Y-95775293D01*
X152827372Y-95756169D01*
X153014082Y-95699531D01*
X153186155Y-95607556D01*
X153195362Y-95600000D01*
X157654614Y-95600000D01*
X157674115Y-95810463D01*
X157674116Y-95810466D01*
X157731956Y-96013756D01*
X157731959Y-96013762D01*
X157826173Y-96202968D01*
X157953551Y-96371644D01*
X158087925Y-96494141D01*
X158109751Y-96514038D01*
X158289458Y-96625308D01*
X158289459Y-96625308D01*
X158289460Y-96625309D01*
X158331213Y-96641484D01*
X158486550Y-96701662D01*
X158694317Y-96740500D01*
X158694319Y-96740500D01*
X158905681Y-96740500D01*
X158905683Y-96740500D01*
X159113450Y-96701662D01*
X159310542Y-96625308D01*
X159490249Y-96514038D01*
X159646450Y-96371642D01*
X159773827Y-96202968D01*
X159868041Y-96013761D01*
X159868041Y-96013758D01*
X159868043Y-96013756D01*
X159924867Y-95814038D01*
X159925884Y-95810464D01*
X159945386Y-95600000D01*
X161754614Y-95600000D01*
X161774115Y-95810463D01*
X161774116Y-95810466D01*
X161831956Y-96013756D01*
X161831959Y-96013762D01*
X161926173Y-96202968D01*
X162053551Y-96371644D01*
X162187925Y-96494141D01*
X162209751Y-96514038D01*
X162389458Y-96625308D01*
X162389459Y-96625308D01*
X162389460Y-96625309D01*
X162431213Y-96641484D01*
X162586550Y-96701662D01*
X162794317Y-96740500D01*
X162794319Y-96740500D01*
X163005681Y-96740500D01*
X163005683Y-96740500D01*
X163213450Y-96701662D01*
X163410542Y-96625308D01*
X163590249Y-96514038D01*
X163746450Y-96371642D01*
X163873827Y-96202968D01*
X163968041Y-96013761D01*
X163968041Y-96013758D01*
X163968043Y-96013756D01*
X164024867Y-95814038D01*
X164025884Y-95810464D01*
X164045386Y-95600000D01*
X165954614Y-95600000D01*
X165974115Y-95810463D01*
X165974116Y-95810466D01*
X166031956Y-96013756D01*
X166031959Y-96013762D01*
X166126173Y-96202968D01*
X166253551Y-96371644D01*
X166387925Y-96494141D01*
X166409751Y-96514038D01*
X166589458Y-96625308D01*
X166589459Y-96625308D01*
X166589460Y-96625309D01*
X166631213Y-96641484D01*
X166786550Y-96701662D01*
X166994317Y-96740500D01*
X166994319Y-96740500D01*
X167205681Y-96740500D01*
X167205683Y-96740500D01*
X167413450Y-96701662D01*
X167610542Y-96625308D01*
X167790249Y-96514038D01*
X167946450Y-96371642D01*
X168073827Y-96202968D01*
X168168041Y-96013761D01*
X168168041Y-96013758D01*
X168168043Y-96013756D01*
X168224867Y-95814038D01*
X168225884Y-95810464D01*
X168245386Y-95600000D01*
X168225884Y-95389536D01*
X168209784Y-95332949D01*
X168168043Y-95186243D01*
X168168040Y-95186237D01*
X168130309Y-95110463D01*
X168073827Y-94997032D01*
X167946450Y-94828358D01*
X167946448Y-94828355D01*
X167790250Y-94685963D01*
X167790249Y-94685962D01*
X167610542Y-94574692D01*
X167610540Y-94574691D01*
X167610539Y-94574690D01*
X167430992Y-94505134D01*
X167413450Y-94498338D01*
X167205683Y-94459500D01*
X166994317Y-94459500D01*
X166786550Y-94498338D01*
X166786547Y-94498338D01*
X166786547Y-94498339D01*
X166589460Y-94574690D01*
X166589459Y-94574691D01*
X166409749Y-94685963D01*
X166253551Y-94828355D01*
X166126173Y-94997031D01*
X166031959Y-95186237D01*
X166031956Y-95186243D01*
X165974116Y-95389533D01*
X165974115Y-95389536D01*
X165954614Y-95599999D01*
X165954614Y-95600000D01*
X164045386Y-95600000D01*
X164025884Y-95389536D01*
X164009784Y-95332949D01*
X163968043Y-95186243D01*
X163968040Y-95186237D01*
X163930309Y-95110463D01*
X163873827Y-94997032D01*
X163746450Y-94828358D01*
X163746448Y-94828355D01*
X163590250Y-94685963D01*
X163590249Y-94685962D01*
X163410542Y-94574692D01*
X163410540Y-94574691D01*
X163410539Y-94574690D01*
X163230992Y-94505134D01*
X163213450Y-94498338D01*
X163005683Y-94459500D01*
X162794317Y-94459500D01*
X162586550Y-94498338D01*
X162586547Y-94498338D01*
X162586547Y-94498339D01*
X162389460Y-94574690D01*
X162389459Y-94574691D01*
X162209749Y-94685963D01*
X162053551Y-94828355D01*
X161926173Y-94997031D01*
X161831959Y-95186237D01*
X161831956Y-95186243D01*
X161774116Y-95389533D01*
X161774115Y-95389536D01*
X161754614Y-95599999D01*
X161754614Y-95600000D01*
X159945386Y-95600000D01*
X159925884Y-95389536D01*
X159909784Y-95332949D01*
X159868043Y-95186243D01*
X159868040Y-95186237D01*
X159830309Y-95110463D01*
X159773827Y-94997032D01*
X159646450Y-94828358D01*
X159646448Y-94828355D01*
X159490250Y-94685963D01*
X159490249Y-94685962D01*
X159310542Y-94574692D01*
X159310540Y-94574691D01*
X159310539Y-94574690D01*
X159130992Y-94505134D01*
X159113450Y-94498338D01*
X158905683Y-94459500D01*
X158694317Y-94459500D01*
X158486550Y-94498338D01*
X158486547Y-94498338D01*
X158486547Y-94498339D01*
X158289460Y-94574690D01*
X158289459Y-94574691D01*
X158109749Y-94685963D01*
X157953551Y-94828355D01*
X157826173Y-94997031D01*
X157731959Y-95186237D01*
X157731956Y-95186243D01*
X157674116Y-95389533D01*
X157674115Y-95389536D01*
X157654614Y-95599999D01*
X157654614Y-95600000D01*
X153195362Y-95600000D01*
X153336978Y-95483778D01*
X153460756Y-95332955D01*
X153539175Y-95186243D01*
X153552728Y-95160888D01*
X153552728Y-95160887D01*
X153552731Y-95160882D01*
X153609369Y-94974172D01*
X153628493Y-94780000D01*
X153609369Y-94585828D01*
X153552731Y-94399118D01*
X153552728Y-94399114D01*
X153552728Y-94399111D01*
X153460759Y-94227050D01*
X153460755Y-94227043D01*
X153336978Y-94076221D01*
X153186156Y-93952444D01*
X153186149Y-93952440D01*
X153014088Y-93860471D01*
X153014082Y-93860469D01*
X152827372Y-93803831D01*
X152827369Y-93803830D01*
X152633200Y-93784707D01*
X152633196Y-93784707D01*
X152627620Y-93785256D01*
X152558974Y-93772236D01*
X152522662Y-93737816D01*
X152504393Y-93770349D01*
X152444826Y-93801960D01*
X152444858Y-93802063D01*
X152444334Y-93802221D01*
X152442676Y-93803102D01*
X152441964Y-93803246D01*
X152439039Y-93803827D01*
X152252311Y-93860471D01*
X152080250Y-93952440D01*
X152080243Y-93952444D01*
X151929421Y-94076221D01*
X151805644Y-94227043D01*
X151805640Y-94227050D01*
X151713671Y-94399111D01*
X151657030Y-94585830D01*
X151637907Y-94780000D01*
X150000500Y-94780000D01*
X150000500Y-92490000D01*
X150896164Y-92490000D01*
X150953367Y-92703486D01*
X150953370Y-92703492D01*
X151053199Y-92917578D01*
X151188694Y-93111082D01*
X151355717Y-93278105D01*
X151549221Y-93413600D01*
X151763307Y-93513429D01*
X151763316Y-93513433D01*
X151976800Y-93570634D01*
X151976800Y-92675501D01*
X152084485Y-92724680D01*
X152191037Y-92740000D01*
X152262563Y-92740000D01*
X152369115Y-92724680D01*
X152476800Y-92675501D01*
X152476800Y-93570634D01*
X152493247Y-93583255D01*
X152509165Y-93605055D01*
X152514250Y-93590224D01*
X152569044Y-93546872D01*
X152583377Y-93542078D01*
X152690281Y-93513434D01*
X152690292Y-93513429D01*
X152904378Y-93413600D01*
X153097882Y-93278105D01*
X153264905Y-93111082D01*
X153400400Y-92917578D01*
X153500229Y-92703492D01*
X153500232Y-92703486D01*
X153557436Y-92490000D01*
X152660486Y-92490000D01*
X152686293Y-92449844D01*
X152726800Y-92311889D01*
X152726800Y-92168111D01*
X152686293Y-92030156D01*
X152660486Y-91990000D01*
X153557436Y-91990000D01*
X153557435Y-91989999D01*
X153500232Y-91776513D01*
X153500229Y-91776507D01*
X153400400Y-91562422D01*
X153400399Y-91562420D01*
X153264913Y-91368926D01*
X153264908Y-91368920D01*
X153097882Y-91201894D01*
X152904378Y-91066399D01*
X152690292Y-90966570D01*
X152690286Y-90966567D01*
X152569765Y-90934274D01*
X152510105Y-90897909D01*
X152479576Y-90835062D01*
X152487871Y-90765686D01*
X152532356Y-90711808D01*
X152598908Y-90690534D01*
X152601815Y-90690499D01*
X153497040Y-90690499D01*
X153538021Y-90682349D01*
X153584495Y-90651295D01*
X153615549Y-90604821D01*
X153623700Y-90563841D01*
X153623700Y-90300000D01*
X161854614Y-90300000D01*
X161874115Y-90510463D01*
X161874116Y-90510466D01*
X161931956Y-90713756D01*
X161931959Y-90713762D01*
X162026173Y-90902968D01*
X162153551Y-91071644D01*
X162258404Y-91167229D01*
X162309751Y-91214038D01*
X162489458Y-91325308D01*
X162489459Y-91325308D01*
X162489460Y-91325309D01*
X162531213Y-91341484D01*
X162686550Y-91401662D01*
X162894317Y-91440500D01*
X162894319Y-91440500D01*
X163105681Y-91440500D01*
X163105683Y-91440500D01*
X163313450Y-91401662D01*
X163510542Y-91325308D01*
X163690249Y-91214038D01*
X163845423Y-91072578D01*
X163846448Y-91071644D01*
X163846450Y-91071642D01*
X163973827Y-90902968D01*
X164068041Y-90713761D01*
X164068041Y-90713758D01*
X164068043Y-90713756D01*
X164104624Y-90585185D01*
X164125884Y-90510464D01*
X164136120Y-90400000D01*
X166054614Y-90400000D01*
X166074115Y-90610463D01*
X166074116Y-90610466D01*
X166131956Y-90813756D01*
X166131959Y-90813762D01*
X166226173Y-91002968D01*
X166353551Y-91171644D01*
X166463776Y-91272126D01*
X166509751Y-91314038D01*
X166689458Y-91425308D01*
X166689459Y-91425308D01*
X166689460Y-91425309D01*
X166728673Y-91440500D01*
X166886550Y-91501662D01*
X167094317Y-91540500D01*
X167094319Y-91540500D01*
X167305681Y-91540500D01*
X167305683Y-91540500D01*
X167513450Y-91501662D01*
X167710542Y-91425308D01*
X167890249Y-91314038D01*
X168046450Y-91171642D01*
X168173827Y-91002968D01*
X168268041Y-90813761D01*
X168268041Y-90813758D01*
X168268043Y-90813756D01*
X168312102Y-90658901D01*
X168325884Y-90610464D01*
X168345386Y-90400000D01*
X168345235Y-90398375D01*
X168325884Y-90189536D01*
X168325883Y-90189533D01*
X168324732Y-90185489D01*
X168317483Y-90160011D01*
X168268043Y-89986243D01*
X168268040Y-89986237D01*
X168218241Y-89886228D01*
X168173827Y-89797032D01*
X168098310Y-89697031D01*
X168046448Y-89628355D01*
X167890250Y-89485963D01*
X167890249Y-89485962D01*
X167710542Y-89374692D01*
X167710540Y-89374691D01*
X167710539Y-89374690D01*
X167537510Y-89307659D01*
X167513450Y-89298338D01*
X167305683Y-89259500D01*
X167094317Y-89259500D01*
X166886550Y-89298338D01*
X166886547Y-89298338D01*
X166886547Y-89298339D01*
X166689460Y-89374690D01*
X166689459Y-89374691D01*
X166509749Y-89485963D01*
X166353551Y-89628355D01*
X166226173Y-89797031D01*
X166131959Y-89986237D01*
X166131956Y-89986243D01*
X166074116Y-90189533D01*
X166074115Y-90189536D01*
X166054614Y-90399999D01*
X166054614Y-90400000D01*
X164136120Y-90400000D01*
X164145386Y-90300000D01*
X164125884Y-90089536D01*
X164104624Y-90014815D01*
X164068043Y-89886243D01*
X164068040Y-89886237D01*
X164015129Y-89779977D01*
X164002868Y-89711191D01*
X164029741Y-89646697D01*
X164038438Y-89637034D01*
X167575472Y-86100000D01*
X171354836Y-86100000D01*
X171373411Y-86241097D01*
X171373413Y-86241102D01*
X171427871Y-86372577D01*
X171427871Y-86372578D01*
X171427873Y-86372581D01*
X171427874Y-86372582D01*
X171514511Y-86485489D01*
X171585987Y-86540335D01*
X171627189Y-86596761D01*
X171634500Y-86638709D01*
X171634500Y-92161636D01*
X171632117Y-92185829D01*
X171629298Y-92199999D01*
X171629298Y-92200002D01*
X171649903Y-92303590D01*
X171652796Y-92309002D01*
X171656688Y-92313745D01*
X171708585Y-92391415D01*
X171720598Y-92399441D01*
X171739388Y-92414862D01*
X177831337Y-98506810D01*
X177864822Y-98568133D01*
X177866595Y-98610676D01*
X177854836Y-98699998D01*
X177854836Y-98700000D01*
X177873411Y-98841097D01*
X177873413Y-98841102D01*
X177927871Y-98972577D01*
X177927871Y-98972578D01*
X177927873Y-98972581D01*
X177927874Y-98972582D01*
X178014511Y-99085489D01*
X178127418Y-99172126D01*
X178127421Y-99172127D01*
X178127422Y-99172128D01*
X178193159Y-99199357D01*
X178258901Y-99226588D01*
X178329450Y-99235876D01*
X178399999Y-99245164D01*
X178400000Y-99245164D01*
X178400001Y-99245164D01*
X178447032Y-99238972D01*
X178541099Y-99226588D01*
X178672577Y-99172128D01*
X178672578Y-99172128D01*
X178672578Y-99172127D01*
X178672582Y-99172126D01*
X178785489Y-99085489D01*
X178872126Y-98972582D01*
X178926588Y-98841099D01*
X178945164Y-98700000D01*
X178926588Y-98558901D01*
X178872128Y-98427422D01*
X178872128Y-98427421D01*
X178872126Y-98427418D01*
X178785489Y-98314511D01*
X178672582Y-98227874D01*
X178672579Y-98227873D01*
X178672577Y-98227871D01*
X178541102Y-98173413D01*
X178541097Y-98173411D01*
X178400001Y-98154836D01*
X178399999Y-98154836D01*
X178310676Y-98166595D01*
X178241640Y-98155829D01*
X178206810Y-98131337D01*
X172201819Y-92126345D01*
X172168334Y-92065022D01*
X172165500Y-92038664D01*
X172165500Y-86638709D01*
X172185185Y-86571670D01*
X172214011Y-86540336D01*
X172285489Y-86485489D01*
X172372126Y-86372582D01*
X172426588Y-86241099D01*
X172445164Y-86100000D01*
X172426588Y-85958901D01*
X172381687Y-85850500D01*
X172372128Y-85827422D01*
X172372128Y-85827421D01*
X172371153Y-85826150D01*
X172285489Y-85714511D01*
X172172582Y-85627874D01*
X172172579Y-85627873D01*
X172172577Y-85627871D01*
X172041102Y-85573413D01*
X172041097Y-85573411D01*
X171900001Y-85554836D01*
X171899999Y-85554836D01*
X171758902Y-85573411D01*
X171758897Y-85573413D01*
X171627422Y-85627871D01*
X171627421Y-85627871D01*
X171514511Y-85714511D01*
X171427871Y-85827421D01*
X171427871Y-85827422D01*
X171373413Y-85958897D01*
X171373411Y-85958902D01*
X171354836Y-86099999D01*
X171354836Y-86100000D01*
X167575472Y-86100000D01*
X172373654Y-81301818D01*
X172434977Y-81268334D01*
X172461335Y-81265500D01*
X174231647Y-81265500D01*
X174298686Y-81285185D01*
X174344441Y-81337989D01*
X174354299Y-81398799D01*
X174355178Y-81398847D01*
X174355000Y-81402172D01*
X174355000Y-82050000D01*
X175271314Y-82050000D01*
X175245507Y-82090156D01*
X175205000Y-82228111D01*
X175205000Y-82371889D01*
X175245507Y-82509844D01*
X175271314Y-82550000D01*
X174355000Y-82550000D01*
X174355000Y-83197844D01*
X174361401Y-83257372D01*
X174361403Y-83257379D01*
X174411645Y-83392086D01*
X174411649Y-83392093D01*
X174497809Y-83507187D01*
X174497812Y-83507190D01*
X174612906Y-83593350D01*
X174612913Y-83593354D01*
X174747620Y-83643596D01*
X174747627Y-83643598D01*
X174807155Y-83649999D01*
X174807172Y-83650000D01*
X175455000Y-83650000D01*
X175455000Y-82735501D01*
X175562685Y-82784680D01*
X175669237Y-82800000D01*
X175740763Y-82800000D01*
X175847315Y-82784680D01*
X175954999Y-82735501D01*
X175954999Y-83649999D01*
X175955000Y-83650000D01*
X176602828Y-83650000D01*
X176602844Y-83649999D01*
X176662372Y-83643598D01*
X176662379Y-83643596D01*
X176797086Y-83593354D01*
X176797093Y-83593350D01*
X176912187Y-83507190D01*
X176912190Y-83507187D01*
X176998350Y-83392093D01*
X176998354Y-83392086D01*
X177048596Y-83257379D01*
X177048598Y-83257372D01*
X177054999Y-83197844D01*
X177055000Y-83197827D01*
X177055000Y-82625205D01*
X177074685Y-82558166D01*
X177127489Y-82512411D01*
X177196647Y-82502467D01*
X177260203Y-82531492D01*
X177297661Y-82589210D01*
X177325470Y-82680886D01*
X177417440Y-82852949D01*
X177417444Y-82852956D01*
X177541221Y-83003778D01*
X177692043Y-83127555D01*
X177692050Y-83127559D01*
X177864111Y-83219528D01*
X177864114Y-83219528D01*
X177864118Y-83219531D01*
X178050828Y-83276169D01*
X178245000Y-83295293D01*
X178439172Y-83276169D01*
X178625882Y-83219531D01*
X178625889Y-83219527D01*
X178625890Y-83219527D01*
X178651108Y-83206047D01*
X178719510Y-83191801D01*
X178784755Y-83216798D01*
X178797247Y-83227721D01*
X180663181Y-85093654D01*
X180696666Y-85154977D01*
X180699500Y-85181335D01*
X180699500Y-89194865D01*
X180679815Y-89261904D01*
X180627011Y-89307659D01*
X180557853Y-89317603D01*
X180528049Y-89309427D01*
X180469777Y-89285291D01*
X180441099Y-89273412D01*
X180441097Y-89273411D01*
X180300001Y-89254836D01*
X180299999Y-89254836D01*
X180158902Y-89273411D01*
X180158897Y-89273413D01*
X180027422Y-89327871D01*
X180027421Y-89327871D01*
X179914510Y-89414512D01*
X179898375Y-89435540D01*
X179841946Y-89476742D01*
X179772200Y-89480896D01*
X179711280Y-89446682D01*
X179701625Y-89435540D01*
X179685489Y-89414511D01*
X179572582Y-89327874D01*
X179572579Y-89327873D01*
X179572577Y-89327871D01*
X179441102Y-89273413D01*
X179441097Y-89273411D01*
X179300001Y-89254836D01*
X179299999Y-89254836D01*
X179158902Y-89273411D01*
X179158897Y-89273413D01*
X179027422Y-89327871D01*
X179027421Y-89327871D01*
X178914510Y-89414512D01*
X178898375Y-89435540D01*
X178841946Y-89476742D01*
X178772200Y-89480896D01*
X178711280Y-89446682D01*
X178701625Y-89435540D01*
X178685489Y-89414511D01*
X178572582Y-89327874D01*
X178572579Y-89327873D01*
X178572577Y-89327871D01*
X178441102Y-89273413D01*
X178441097Y-89273411D01*
X178300001Y-89254836D01*
X178299999Y-89254836D01*
X178158902Y-89273411D01*
X178158897Y-89273413D01*
X178027422Y-89327871D01*
X178027421Y-89327871D01*
X177914510Y-89414512D01*
X177898375Y-89435540D01*
X177841946Y-89476742D01*
X177772200Y-89480896D01*
X177711280Y-89446682D01*
X177701625Y-89435540D01*
X177685489Y-89414511D01*
X177572582Y-89327874D01*
X177572579Y-89327873D01*
X177572577Y-89327871D01*
X177441102Y-89273413D01*
X177441097Y-89273411D01*
X177300001Y-89254836D01*
X177299999Y-89254836D01*
X177158902Y-89273411D01*
X177158897Y-89273413D01*
X177027422Y-89327871D01*
X177027421Y-89327871D01*
X176914510Y-89414512D01*
X176898375Y-89435540D01*
X176841946Y-89476742D01*
X176772200Y-89480896D01*
X176711280Y-89446682D01*
X176701625Y-89435540D01*
X176685489Y-89414511D01*
X176572582Y-89327874D01*
X176572579Y-89327873D01*
X176572577Y-89327871D01*
X176441102Y-89273413D01*
X176441097Y-89273411D01*
X176300001Y-89254836D01*
X176299999Y-89254836D01*
X176158902Y-89273411D01*
X176158897Y-89273413D01*
X176027422Y-89327871D01*
X176027421Y-89327871D01*
X175914511Y-89414511D01*
X175827871Y-89527421D01*
X175827871Y-89527422D01*
X175773413Y-89658897D01*
X175773411Y-89658902D01*
X175754836Y-89799999D01*
X175754836Y-89800000D01*
X175773411Y-89941097D01*
X175773413Y-89941102D01*
X175827871Y-90072577D01*
X175827871Y-90072578D01*
X175827873Y-90072581D01*
X175827874Y-90072582D01*
X175914511Y-90185489D01*
X175935540Y-90201625D01*
X175976742Y-90258054D01*
X175980896Y-90327800D01*
X175946682Y-90388720D01*
X175935541Y-90398373D01*
X175933422Y-90400000D01*
X175914512Y-90414510D01*
X175827871Y-90527421D01*
X175827871Y-90527422D01*
X175773413Y-90658897D01*
X175773411Y-90658902D01*
X175754836Y-90799999D01*
X175754836Y-90800000D01*
X175773411Y-90941097D01*
X175773413Y-90941102D01*
X175827871Y-91072577D01*
X175827871Y-91072578D01*
X175827873Y-91072581D01*
X175827874Y-91072582D01*
X175914511Y-91185489D01*
X175935540Y-91201625D01*
X175976742Y-91258054D01*
X175980896Y-91327800D01*
X175946682Y-91388720D01*
X175935541Y-91398373D01*
X175914511Y-91414511D01*
X175900500Y-91432770D01*
X175827871Y-91527421D01*
X175827871Y-91527422D01*
X175773413Y-91658897D01*
X175773411Y-91658902D01*
X175754836Y-91799999D01*
X175754836Y-91800000D01*
X175773411Y-91941097D01*
X175773413Y-91941102D01*
X175827871Y-92072577D01*
X175827871Y-92072578D01*
X175827873Y-92072581D01*
X175827874Y-92072582D01*
X175914511Y-92185489D01*
X175933421Y-92199999D01*
X175935540Y-92201625D01*
X175976742Y-92258054D01*
X175980896Y-92327800D01*
X175946682Y-92388720D01*
X175935540Y-92398375D01*
X175914512Y-92414510D01*
X175827871Y-92527421D01*
X175827871Y-92527422D01*
X175773413Y-92658897D01*
X175773411Y-92658902D01*
X175754836Y-92799999D01*
X175754836Y-92800000D01*
X175773411Y-92941097D01*
X175773413Y-92941102D01*
X175827871Y-93072577D01*
X175827871Y-93072578D01*
X175827873Y-93072581D01*
X175827874Y-93072582D01*
X175914511Y-93185489D01*
X175957396Y-93218396D01*
X176000700Y-93251625D01*
X176041902Y-93308053D01*
X176046057Y-93377799D01*
X176011844Y-93438719D01*
X176000700Y-93448375D01*
X175914513Y-93514509D01*
X175914512Y-93514510D01*
X175914511Y-93514511D01*
X175879856Y-93559673D01*
X175827871Y-93627421D01*
X175827871Y-93627422D01*
X175773413Y-93758897D01*
X175773411Y-93758902D01*
X175754836Y-93899999D01*
X175754836Y-93900000D01*
X175773411Y-94041097D01*
X175773413Y-94041102D01*
X175827871Y-94172577D01*
X175827871Y-94172578D01*
X175827873Y-94172581D01*
X175827874Y-94172582D01*
X175914511Y-94285489D01*
X176027418Y-94372126D01*
X176027421Y-94372127D01*
X176027422Y-94372128D01*
X176093159Y-94399357D01*
X176158901Y-94426588D01*
X176229450Y-94435876D01*
X176299999Y-94445164D01*
X176300000Y-94445164D01*
X176300001Y-94445164D01*
X176347032Y-94438972D01*
X176441099Y-94426588D01*
X176572577Y-94372128D01*
X176572578Y-94372128D01*
X176572578Y-94372127D01*
X176572582Y-94372126D01*
X176685489Y-94285489D01*
X176701624Y-94264460D01*
X176758052Y-94223258D01*
X176827798Y-94219103D01*
X176888718Y-94253315D01*
X176898372Y-94264456D01*
X176914511Y-94285489D01*
X177027418Y-94372126D01*
X177027421Y-94372127D01*
X177027422Y-94372128D01*
X177093159Y-94399357D01*
X177158901Y-94426588D01*
X177229450Y-94435876D01*
X177299999Y-94445164D01*
X177300000Y-94445164D01*
X177300001Y-94445164D01*
X177347032Y-94438972D01*
X177441099Y-94426588D01*
X177572577Y-94372128D01*
X177572578Y-94372128D01*
X177572578Y-94372127D01*
X177572582Y-94372126D01*
X177685489Y-94285489D01*
X177701624Y-94264460D01*
X177758052Y-94223258D01*
X177827798Y-94219103D01*
X177888718Y-94253315D01*
X177898372Y-94264456D01*
X177914511Y-94285489D01*
X178027418Y-94372126D01*
X178027421Y-94372127D01*
X178027422Y-94372128D01*
X178093159Y-94399357D01*
X178158901Y-94426588D01*
X178229450Y-94435876D01*
X178299999Y-94445164D01*
X178300000Y-94445164D01*
X178300001Y-94445164D01*
X178347032Y-94438972D01*
X178441099Y-94426588D01*
X178572577Y-94372128D01*
X178572578Y-94372128D01*
X178572578Y-94372127D01*
X178572582Y-94372126D01*
X178685489Y-94285489D01*
X178701624Y-94264460D01*
X178758052Y-94223258D01*
X178827798Y-94219103D01*
X178888718Y-94253315D01*
X178898372Y-94264456D01*
X178914511Y-94285489D01*
X179027418Y-94372126D01*
X179027421Y-94372127D01*
X179027422Y-94372128D01*
X179093159Y-94399357D01*
X179158901Y-94426588D01*
X179229450Y-94435876D01*
X179299999Y-94445164D01*
X179300000Y-94445164D01*
X179300001Y-94445164D01*
X179347032Y-94438972D01*
X179441099Y-94426588D01*
X179572577Y-94372128D01*
X179572578Y-94372128D01*
X179572578Y-94372127D01*
X179572582Y-94372126D01*
X179685489Y-94285489D01*
X179701624Y-94264460D01*
X179758052Y-94223258D01*
X179827798Y-94219103D01*
X179888718Y-94253315D01*
X179898372Y-94264456D01*
X179914511Y-94285489D01*
X180027418Y-94372126D01*
X180027421Y-94372127D01*
X180027422Y-94372128D01*
X180093159Y-94399357D01*
X180158901Y-94426588D01*
X180229450Y-94435876D01*
X180299999Y-94445164D01*
X180300000Y-94445164D01*
X180300001Y-94445164D01*
X180347032Y-94438972D01*
X180441099Y-94426588D01*
X180496683Y-94403564D01*
X180528048Y-94390573D01*
X180597517Y-94383104D01*
X180659996Y-94414379D01*
X180695648Y-94474468D01*
X180699500Y-94505134D01*
X180699500Y-96873663D01*
X180679815Y-96940702D01*
X180663181Y-96961344D01*
X180093187Y-97531337D01*
X180031864Y-97564822D01*
X179989321Y-97566595D01*
X179900001Y-97554836D01*
X179899999Y-97554836D01*
X179758902Y-97573411D01*
X179758897Y-97573413D01*
X179627422Y-97627871D01*
X179627421Y-97627871D01*
X179514511Y-97714511D01*
X179427871Y-97827421D01*
X179427871Y-97827422D01*
X179373413Y-97958897D01*
X179373411Y-97958902D01*
X179354836Y-98099999D01*
X179354836Y-98100000D01*
X179373411Y-98241097D01*
X179373413Y-98241102D01*
X179427871Y-98372577D01*
X179427871Y-98372578D01*
X179427873Y-98372581D01*
X179427874Y-98372582D01*
X179514511Y-98485489D01*
X179627418Y-98572126D01*
X179627421Y-98572127D01*
X179627422Y-98572128D01*
X179693159Y-98599357D01*
X179758901Y-98626588D01*
X179829450Y-98635876D01*
X179899999Y-98645164D01*
X179900000Y-98645164D01*
X179900001Y-98645164D01*
X179947032Y-98638972D01*
X180041099Y-98626588D01*
X180172577Y-98572128D01*
X180172578Y-98572128D01*
X180172578Y-98572127D01*
X180172582Y-98572126D01*
X180285489Y-98485489D01*
X180372126Y-98372582D01*
X180426588Y-98241099D01*
X180445164Y-98100000D01*
X180433404Y-98010675D01*
X180444169Y-97941641D01*
X180468659Y-97906813D01*
X181125609Y-97249862D01*
X181144391Y-97234448D01*
X181156415Y-97226415D01*
X181171283Y-97204162D01*
X181215094Y-97138596D01*
X181217634Y-97125830D01*
X181230500Y-97061147D01*
X181235701Y-97035000D01*
X181232883Y-97020833D01*
X181230500Y-96996641D01*
X181230500Y-85058363D01*
X181232883Y-85034169D01*
X181235702Y-85020000D01*
X181217478Y-84928387D01*
X181216876Y-84922279D01*
X181215095Y-84916409D01*
X181215095Y-84916408D01*
X181215095Y-84916407D01*
X181156415Y-84828585D01*
X181156413Y-84828584D01*
X181156413Y-84828583D01*
X181144398Y-84820555D01*
X181125609Y-84805135D01*
X179172721Y-82852247D01*
X179139236Y-82790924D01*
X179144220Y-82721232D01*
X179151047Y-82706108D01*
X179164527Y-82680890D01*
X179164527Y-82680889D01*
X179164531Y-82680882D01*
X179221169Y-82494172D01*
X179240293Y-82300000D01*
X179221169Y-82105828D01*
X179164531Y-81919118D01*
X179164528Y-81919114D01*
X179164528Y-81919111D01*
X179072559Y-81747050D01*
X179072555Y-81747043D01*
X178948778Y-81596221D01*
X178813685Y-81485353D01*
X178774351Y-81427607D01*
X178772480Y-81357763D01*
X178808668Y-81297994D01*
X178871424Y-81267279D01*
X178892350Y-81265500D01*
X180137650Y-81265500D01*
X180204689Y-81285185D01*
X180250444Y-81337989D01*
X180260388Y-81407147D01*
X180231363Y-81470703D01*
X180216315Y-81485353D01*
X180081221Y-81596221D01*
X179957444Y-81747043D01*
X179957440Y-81747050D01*
X179865471Y-81919111D01*
X179808830Y-82105830D01*
X179789707Y-82300000D01*
X179808830Y-82494169D01*
X179865471Y-82680888D01*
X179957440Y-82852949D01*
X179957444Y-82852956D01*
X180081221Y-83003778D01*
X180232043Y-83127555D01*
X180232050Y-83127559D01*
X180404111Y-83219528D01*
X180404114Y-83219528D01*
X180404118Y-83219531D01*
X180590828Y-83276169D01*
X180785000Y-83295293D01*
X180979172Y-83276169D01*
X181165882Y-83219531D01*
X181165890Y-83219527D01*
X181337949Y-83127559D01*
X181337955Y-83127556D01*
X181488778Y-83003778D01*
X181612556Y-82852955D01*
X181658543Y-82766918D01*
X181704528Y-82680888D01*
X181704529Y-82680886D01*
X181704531Y-82680882D01*
X181761169Y-82494172D01*
X181780293Y-82300000D01*
X181761169Y-82105828D01*
X181704531Y-81919118D01*
X181704528Y-81919114D01*
X181704528Y-81919111D01*
X181612559Y-81747050D01*
X181612555Y-81747043D01*
X181570750Y-81696104D01*
X181543437Y-81631794D01*
X181555228Y-81562927D01*
X181602380Y-81511366D01*
X181669922Y-81493483D01*
X181736411Y-81514956D01*
X181754284Y-81529758D01*
X186098181Y-85873655D01*
X186131666Y-85934978D01*
X186134500Y-85961336D01*
X186134499Y-87461290D01*
X186114814Y-87528330D01*
X186085986Y-87559665D01*
X186014513Y-87614508D01*
X185927871Y-87727421D01*
X185927871Y-87727422D01*
X185873413Y-87858897D01*
X185873411Y-87858902D01*
X185854836Y-87999999D01*
X185854836Y-88000000D01*
X185873411Y-88141097D01*
X185873413Y-88141102D01*
X185927871Y-88272577D01*
X185927871Y-88272578D01*
X185927873Y-88272581D01*
X185927874Y-88272582D01*
X186014511Y-88385489D01*
X186127418Y-88472126D01*
X186127421Y-88472127D01*
X186127422Y-88472128D01*
X186193159Y-88499357D01*
X186258901Y-88526588D01*
X186329450Y-88535876D01*
X186399999Y-88545164D01*
X186400000Y-88545164D01*
X186400001Y-88545164D01*
X186447032Y-88538972D01*
X186541099Y-88526588D01*
X186672577Y-88472128D01*
X186672578Y-88472128D01*
X186672578Y-88472127D01*
X186672582Y-88472126D01*
X186785489Y-88385489D01*
X186872126Y-88272582D01*
X186926588Y-88141099D01*
X186945164Y-88000000D01*
X186926588Y-87858901D01*
X186872128Y-87727422D01*
X186872128Y-87727421D01*
X186872126Y-87727418D01*
X186785489Y-87614511D01*
X186714013Y-87559665D01*
X186672811Y-87503237D01*
X186665500Y-87461290D01*
X186665500Y-85838363D01*
X186667883Y-85814169D01*
X186670702Y-85800000D01*
X186650095Y-85696407D01*
X186606226Y-85630752D01*
X186591415Y-85608585D01*
X186591414Y-85608584D01*
X186579398Y-85600555D01*
X186560609Y-85585135D01*
X185043237Y-84067763D01*
X199145787Y-84067763D01*
X199175413Y-84337013D01*
X199175415Y-84337024D01*
X199243926Y-84599082D01*
X199243928Y-84599088D01*
X199349870Y-84848390D01*
X199463250Y-85034169D01*
X199490979Y-85079605D01*
X199490986Y-85079615D01*
X199664253Y-85287819D01*
X199664259Y-85287824D01*
X199865998Y-85468582D01*
X200091910Y-85618044D01*
X200337176Y-85733020D01*
X200337183Y-85733022D01*
X200337185Y-85733023D01*
X200596557Y-85811057D01*
X200596564Y-85811058D01*
X200596569Y-85811060D01*
X200864561Y-85850500D01*
X200864566Y-85850500D01*
X201067636Y-85850500D01*
X201119133Y-85846730D01*
X201270156Y-85835677D01*
X201382758Y-85810593D01*
X201534546Y-85776782D01*
X201534548Y-85776781D01*
X201534553Y-85776780D01*
X201787558Y-85680014D01*
X202023777Y-85547441D01*
X202238177Y-85381888D01*
X202426186Y-85186881D01*
X202583799Y-84966579D01*
X202666803Y-84805135D01*
X202707649Y-84725690D01*
X202707651Y-84725684D01*
X202707656Y-84725675D01*
X202795118Y-84469305D01*
X202844319Y-84202933D01*
X202854212Y-83932235D01*
X202824586Y-83662982D01*
X202756072Y-83400912D01*
X202650130Y-83151610D01*
X202509018Y-82920390D01*
X202471388Y-82875173D01*
X202335746Y-82712180D01*
X202335740Y-82712175D01*
X202134002Y-82531418D01*
X201908092Y-82381957D01*
X201886615Y-82371889D01*
X201662824Y-82266980D01*
X201662819Y-82266978D01*
X201662814Y-82266976D01*
X201403442Y-82188942D01*
X201403428Y-82188939D01*
X201287791Y-82171921D01*
X201135439Y-82149500D01*
X200932369Y-82149500D01*
X200932364Y-82149500D01*
X200729844Y-82164323D01*
X200729831Y-82164325D01*
X200465453Y-82223217D01*
X200465446Y-82223220D01*
X200212439Y-82319987D01*
X199976226Y-82452557D01*
X199761822Y-82618112D01*
X199573822Y-82813109D01*
X199573816Y-82813116D01*
X199416202Y-83033419D01*
X199416199Y-83033424D01*
X199292350Y-83274309D01*
X199292343Y-83274327D01*
X199204884Y-83530685D01*
X199204881Y-83530699D01*
X199155681Y-83797068D01*
X199155680Y-83797075D01*
X199145787Y-84067763D01*
X185043237Y-84067763D01*
X181814862Y-80839388D01*
X181799441Y-80820598D01*
X181791415Y-80808585D01*
X181703593Y-80749905D01*
X181703592Y-80749905D01*
X181703591Y-80749904D01*
X181703590Y-80749904D01*
X181697720Y-80748123D01*
X181691613Y-80747522D01*
X181600000Y-80729298D01*
X181599999Y-80729298D01*
X181585828Y-80732117D01*
X181561636Y-80734500D01*
X172338364Y-80734500D01*
X172314171Y-80732117D01*
X172300000Y-80729298D01*
X172299998Y-80729298D01*
X172191257Y-80750927D01*
X172181111Y-80760124D01*
X172108584Y-80808584D01*
X172108583Y-80808585D01*
X172100554Y-80820602D01*
X172085135Y-80839390D01*
X163666019Y-89258505D01*
X163604696Y-89291990D01*
X163535004Y-89287006D01*
X163513066Y-89276254D01*
X163510548Y-89274695D01*
X163510539Y-89274690D01*
X163355205Y-89214514D01*
X163313450Y-89198338D01*
X163105683Y-89159500D01*
X162894317Y-89159500D01*
X162686550Y-89198338D01*
X162686547Y-89198338D01*
X162686547Y-89198339D01*
X162489460Y-89274690D01*
X162489459Y-89274691D01*
X162309749Y-89385963D01*
X162153551Y-89528355D01*
X162026173Y-89697031D01*
X161931959Y-89886237D01*
X161931956Y-89886243D01*
X161874116Y-90089533D01*
X161874115Y-90089536D01*
X161854614Y-90299999D01*
X161854614Y-90300000D01*
X153623700Y-90300000D01*
X153623699Y-88836160D01*
X153615549Y-88795179D01*
X153584495Y-88748705D01*
X153538021Y-88717651D01*
X153497041Y-88709500D01*
X153497039Y-88709500D01*
X151769363Y-88709500D01*
X151728378Y-88717650D01*
X151728379Y-88717651D01*
X151681905Y-88748705D01*
X151671602Y-88764123D01*
X151650851Y-88795178D01*
X151642700Y-88836160D01*
X151642700Y-90563836D01*
X151645363Y-90577226D01*
X151650851Y-90604821D01*
X151681905Y-90651295D01*
X151728379Y-90682349D01*
X151769359Y-90690500D01*
X151851740Y-90690499D01*
X151918776Y-90710183D01*
X151964532Y-90762986D01*
X151974476Y-90832145D01*
X151945452Y-90895701D01*
X151886674Y-90933476D01*
X151883832Y-90934274D01*
X151763314Y-90966567D01*
X151763307Y-90966570D01*
X151549222Y-91066399D01*
X151549220Y-91066400D01*
X151355726Y-91201886D01*
X151355720Y-91201891D01*
X151188691Y-91368920D01*
X151188686Y-91368926D01*
X151053200Y-91562420D01*
X151053199Y-91562422D01*
X150953370Y-91776507D01*
X150953367Y-91776513D01*
X150896164Y-91989999D01*
X150896164Y-91990000D01*
X151793114Y-91990000D01*
X151767307Y-92030156D01*
X151726800Y-92168111D01*
X151726800Y-92311889D01*
X151767307Y-92449844D01*
X151793114Y-92490000D01*
X150896164Y-92490000D01*
X150000500Y-92490000D01*
X150000500Y-86602134D01*
X150015709Y-84067763D01*
X152145787Y-84067763D01*
X152175413Y-84337013D01*
X152175415Y-84337024D01*
X152243926Y-84599082D01*
X152243928Y-84599088D01*
X152349870Y-84848390D01*
X152463250Y-85034169D01*
X152490979Y-85079605D01*
X152490986Y-85079615D01*
X152664253Y-85287819D01*
X152664259Y-85287824D01*
X152865998Y-85468582D01*
X153091910Y-85618044D01*
X153337176Y-85733020D01*
X153337183Y-85733022D01*
X153337185Y-85733023D01*
X153596557Y-85811057D01*
X153596564Y-85811058D01*
X153596569Y-85811060D01*
X153864561Y-85850500D01*
X153864566Y-85850500D01*
X154067636Y-85850500D01*
X154119133Y-85846730D01*
X154270156Y-85835677D01*
X154382758Y-85810593D01*
X154534546Y-85776782D01*
X154534548Y-85776781D01*
X154534553Y-85776780D01*
X154787558Y-85680014D01*
X155023777Y-85547441D01*
X155238177Y-85381888D01*
X155426186Y-85186881D01*
X155583799Y-84966579D01*
X155666803Y-84805135D01*
X155707649Y-84725690D01*
X155707651Y-84725684D01*
X155707656Y-84725675D01*
X155795118Y-84469305D01*
X155844319Y-84202933D01*
X155854212Y-83932235D01*
X155824586Y-83662982D01*
X155756072Y-83400912D01*
X155650130Y-83151610D01*
X155509018Y-82920390D01*
X155471388Y-82875173D01*
X155335746Y-82712180D01*
X155335740Y-82712175D01*
X155134002Y-82531418D01*
X154908092Y-82381957D01*
X154886615Y-82371889D01*
X154662824Y-82266980D01*
X154662819Y-82266978D01*
X154662814Y-82266976D01*
X154403442Y-82188942D01*
X154403428Y-82188939D01*
X154287791Y-82171921D01*
X154135439Y-82149500D01*
X153932369Y-82149500D01*
X153932364Y-82149500D01*
X153729844Y-82164323D01*
X153729831Y-82164325D01*
X153465453Y-82223217D01*
X153465446Y-82223220D01*
X153212439Y-82319987D01*
X152976226Y-82452557D01*
X152761822Y-82618112D01*
X152573822Y-82813109D01*
X152573816Y-82813116D01*
X152416202Y-83033419D01*
X152416199Y-83033424D01*
X152292350Y-83274309D01*
X152292343Y-83274327D01*
X152204884Y-83530685D01*
X152204881Y-83530699D01*
X152155681Y-83797068D01*
X152155680Y-83797075D01*
X152145787Y-84067763D01*
X150015709Y-84067763D01*
X150018340Y-83629328D01*
X150018933Y-83621136D01*
X150044670Y-83436633D01*
X150072331Y-83250162D01*
X150073292Y-83245137D01*
X150116689Y-83060626D01*
X150161993Y-82879764D01*
X150163323Y-82875216D01*
X150223915Y-82694431D01*
X150286457Y-82519641D01*
X150288100Y-82515527D01*
X150289476Y-82512411D01*
X150365368Y-82340530D01*
X150444615Y-82172977D01*
X150446444Y-82169423D01*
X150539781Y-82001852D01*
X150634990Y-81843005D01*
X150636979Y-81839904D01*
X150745570Y-81681381D01*
X150855924Y-81532586D01*
X150857928Y-81530033D01*
X150980875Y-81381973D01*
X151105351Y-81244636D01*
X151107361Y-81242526D01*
X151242526Y-81107361D01*
X151244636Y-81105351D01*
X151381973Y-80980875D01*
X151530033Y-80857928D01*
X151532586Y-80855924D01*
X151681381Y-80745570D01*
X151839904Y-80636979D01*
X151843005Y-80634990D01*
X152001858Y-80539778D01*
X152169423Y-80446444D01*
X152172977Y-80444615D01*
X152340530Y-80365368D01*
X152515538Y-80288095D01*
X152519641Y-80286457D01*
X152694431Y-80223915D01*
X152875216Y-80163323D01*
X152879764Y-80161993D01*
X153060626Y-80116689D01*
X153245137Y-80073292D01*
X153250163Y-80072331D01*
X153436633Y-80044670D01*
X153604576Y-80021243D01*
X153613127Y-80020649D01*
X201449240Y-80029348D01*
G37*
%TD.AperFunction*%
%TD*%
M02*
