M48
; DRILL file {KiCad 7.0.6} date Thu Aug 31 11:47:28 2023
; FORMAT={-:-/ absolute / inch / decimal}
; #@! TF.CreationDate,2023-08-31T11:47:28-07:00
; #@! TF.GenerationSoftware,Kicad,Pcbnew,7.0.6
; #@! TF.FileFunction,Plated,1,4,PTH
FMAT,2
INCH
; #@! TA.AperFunction,Plated,PTH,ViaDrill
T1C0.0098
; #@! TA.AperFunction,Plated,PTH,ViaDrill
T2C0.0157
; #@! TA.AperFunction,Plated,PTH,ComponentDrill
T3C0.0315
; #@! TA.AperFunction,Plated,PTH,ComponentDrill
T4C0.0354
; #@! TA.AperFunction,Plated,PTH,ComponentDrill
T5C0.0394
; #@! TA.AperFunction,Plated,PTH,ComponentDrill
T6C0.0512
; #@! TA.AperFunction,Plated,PTH,ComponentDrill
T7C0.0728
%
G90
G05
T1
X2.2559Y-3.9843
X2.2559Y-4.0079
X2.2559Y-4.0315
X2.2559Y-4.0551
X2.2559Y-4.0787
X2.2559Y-4.1024
X2.2559Y-4.126
X2.2795Y-3.9843
X2.2795Y-4.0079
X2.2795Y-4.0315
X2.2795Y-4.0551
X2.2795Y-4.0787
X2.2795Y-4.1024
X2.2795Y-4.126
X2.3031Y-3.9843
X2.3031Y-4.0079
X2.3031Y-4.0315
X2.3031Y-4.0551
X2.3031Y-4.0787
X2.3031Y-4.1024
X2.3031Y-4.126
X2.3268Y-3.9843
X2.3268Y-4.0079
X2.3268Y-4.0315
X2.3268Y-4.0551
X2.3268Y-4.0787
X2.3268Y-4.1024
X2.3268Y-4.126
X2.3504Y-3.9843
X2.3504Y-4.0079
X2.3504Y-4.0315
X2.3504Y-4.0551
X2.3504Y-4.0787
X2.3504Y-4.1024
X2.3504Y-4.126
X2.374Y-3.9843
X2.374Y-4.0079
X2.374Y-4.0315
X2.374Y-4.0551
X2.374Y-4.0787
X2.374Y-4.1024
X2.374Y-4.126
X2.3976Y-3.9843
X2.3976Y-4.0079
X2.3976Y-4.0315
X2.3976Y-4.0551
X2.3976Y-4.0787
X2.3976Y-4.1024
X2.3976Y-4.126
X2.4213Y-3.9843
X2.4213Y-4.0079
X2.4213Y-4.0315
X2.4213Y-4.0551
X2.4213Y-4.0787
X2.4213Y-4.1024
X2.4213Y-4.126
X2.4449Y-3.9843
X2.4449Y-4.0079
X2.4449Y-4.0315
X2.4449Y-4.0551
X2.4449Y-4.0787
X2.4449Y-4.1024
X2.4449Y-4.126
X2.4685Y-3.9843
X2.4685Y-4.0079
X2.4685Y-4.0315
X2.4685Y-4.0551
X2.4685Y-4.0787
X2.4685Y-4.1024
X2.4685Y-4.126
X2.4921Y-3.9843
X2.4921Y-4.0079
X2.4921Y-4.0315
X2.4921Y-4.0551
X2.4921Y-4.0787
X2.4921Y-4.1024
X2.4921Y-4.126
X2.5157Y-3.9843
X2.5157Y-4.0079
X2.5157Y-4.0315
X2.5157Y-4.126
X2.5394Y-3.9843
X2.5394Y-4.0079
X2.5394Y-4.0315
X2.5397Y-4.1254
X2.563Y-3.9843
X2.563Y-4.0079
X2.5866Y-3.9843
X2.5866Y-4.0079
X2.6102Y-3.9843
X2.6102Y-4.0079
X2.6339Y-3.9843
X2.6339Y-4.0079
X2.6575Y-3.9843
X2.6575Y-4.0079
X2.6811Y-3.9843
X2.6811Y-4.0079
X2.7047Y-3.9843
X2.7047Y-4.0079
X2.7283Y-3.9843
X2.7283Y-4.0079
X2.8665Y-3.5492
X2.8665Y-3.572
X2.8665Y-3.5949
X2.8665Y-3.6181
X2.8894Y-3.5488
X2.8894Y-3.5717
X2.8894Y-3.5945
X2.8894Y-3.6177
X2.9122Y-3.5488
X2.9122Y-3.5717
X2.9122Y-3.5945
X2.9122Y-3.6177
X2.9354Y-3.5488
X2.9354Y-3.5717
X2.9354Y-3.5945
X2.9354Y-3.6177
X2.9583Y-3.5492
X2.9583Y-3.572
X2.9583Y-3.5949
X2.9583Y-3.6181
X2.9815Y-3.5492
X2.9815Y-3.572
X2.9815Y-3.5949
X2.9815Y-3.6181
X3.0043Y-3.5496
X3.0043Y-3.5724
X3.0043Y-3.5953
X3.0043Y-3.6185
X3.0272Y-3.5496
X3.0272Y-3.5724
X3.0272Y-3.5953
X3.0272Y-3.6185
X3.0433Y-3.6811
X3.0433Y-3.7047
X3.0433Y-3.7283
X3.2638Y-3.8858
X3.2638Y-3.9094
X3.2638Y-3.9331
X3.2638Y-3.9567
X3.2638Y-3.9803
X3.2638Y-4.0039
X3.2638Y-4.0276
X3.2638Y-4.0512
X3.2638Y-4.0748
X3.2638Y-4.0984
X3.2638Y-4.122
X3.2638Y-4.1457
X3.2638Y-4.1693
X3.2638Y-4.1929
X3.2874Y-3.8858
X3.2874Y-3.9094
X3.2874Y-3.9331
X3.2874Y-3.9567
X3.2874Y-3.9803
X3.2874Y-4.0039
X3.2874Y-4.0276
X3.2874Y-4.0512
X3.2874Y-4.0748
X3.2874Y-4.0984
X3.2874Y-4.122
X3.2874Y-4.1457
X3.2874Y-4.1693
X3.2874Y-4.1929
X3.311Y-3.8858
X3.311Y-3.9094
X3.311Y-3.9331
X3.311Y-3.9567
X3.311Y-3.9803
X3.311Y-4.0039
X3.311Y-4.0276
X3.311Y-4.0512
X3.311Y-4.0748
X3.311Y-4.0984
X3.311Y-4.122
X3.311Y-4.1457
X3.311Y-4.1693
X3.311Y-4.1929
X3.3346Y-3.8858
X3.3346Y-3.9094
X3.3346Y-3.9331
X3.3346Y-3.9567
X3.3346Y-3.9803
X3.3346Y-4.0039
X3.3346Y-4.0276
X3.3346Y-4.0512
X3.3346Y-4.0748
X3.3346Y-4.0984
X3.3346Y-4.122
X3.3346Y-4.1457
X3.3346Y-4.1693
X3.3346Y-4.1929
X3.3465Y-3.5374
X3.3465Y-3.5602
X3.3465Y-3.5831
X3.3465Y-3.6063
X3.3472Y-3.6299
X3.3583Y-3.8858
X3.3583Y-3.9094
X3.3583Y-3.9331
X3.3583Y-3.9567
X3.3583Y-3.9803
X3.3583Y-4.0039
X3.3583Y-4.0276
X3.3583Y-4.0512
X3.3583Y-4.0748
X3.3583Y-4.0984
X3.3583Y-4.122
X3.3583Y-4.1457
X3.3583Y-4.1693
X3.3583Y-4.1929
X3.3693Y-3.5374
X3.3693Y-3.5602
X3.3693Y-3.5831
X3.3693Y-3.6063
X3.3701Y-3.6299
X3.3819Y-3.8858
X3.3819Y-3.9094
X3.3819Y-3.9331
X3.3819Y-3.9567
X3.3819Y-3.9803
X3.3819Y-4.0039
X3.3819Y-4.0276
X3.3819Y-4.0512
X3.3819Y-4.0748
X3.3819Y-4.0984
X3.3819Y-4.122
X3.3819Y-4.1457
X3.3819Y-4.1693
X3.3819Y-4.1929
X3.3937Y-3.5374
X3.3937Y-3.5602
X3.3937Y-3.5831
X3.3937Y-3.6063
X3.3945Y-3.6299
X3.4055Y-3.8858
X3.4055Y-3.9094
X3.4055Y-3.9331
X3.4055Y-3.9567
X3.4055Y-3.9803
X3.4055Y-4.0039
X3.4055Y-4.0276
X3.4055Y-4.0512
X3.4055Y-4.0748
X3.4055Y-4.0984
X3.4055Y-4.122
X3.4055Y-4.1457
X3.4055Y-4.1693
X3.4055Y-4.1929
X3.4165Y-3.5374
X3.4165Y-3.5602
X3.4165Y-3.5831
X3.4165Y-3.6063
X3.4173Y-3.6299
X3.4291Y-3.8858
X3.4291Y-3.9094
X3.4291Y-3.9331
X3.4291Y-3.9567
X3.4291Y-3.9803
X3.4291Y-4.0039
X3.4291Y-4.0276
X3.4291Y-4.0512
X3.4291Y-4.0748
X3.4291Y-4.0984
X3.4291Y-4.122
X3.4291Y-4.1457
X3.4291Y-4.1693
X3.4291Y-4.1929
X3.4409Y-3.5354
X3.4409Y-3.5591
X3.4417Y-3.5827
X3.4417Y-3.6063
X3.4417Y-3.6299
X3.4417Y-3.6535
X3.4417Y-3.6772
X3.4528Y-3.8622
X3.4528Y-3.8858
X3.4528Y-3.9094
X3.4528Y-3.9331
X3.4528Y-3.9567
X3.4528Y-3.9803
X3.4528Y-4.0039
X3.4528Y-4.0276
X3.4528Y-4.0512
X3.4528Y-4.0748
X3.4528Y-4.0984
X3.4528Y-4.122
X3.4528Y-4.1457
X3.4528Y-4.1693
X3.4528Y-4.1929
X3.4638Y-3.5591
X3.4646Y-3.5354
X3.4646Y-3.5827
X3.4646Y-3.6063
X3.4646Y-3.6299
X3.4646Y-3.6535
X3.4646Y-3.6772
X3.4764Y-3.8622
X3.4764Y-3.8858
X3.4764Y-3.9094
X3.4764Y-3.9331
X3.4764Y-3.9567
X3.4764Y-3.9803
X3.4764Y-4.0039
X3.4764Y-4.0276
X3.4764Y-4.0512
X3.4764Y-4.0748
X3.4764Y-4.0984
X3.4764Y-4.122
X3.4764Y-4.1457
X3.4764Y-4.1693
X3.4764Y-4.1929
X3.4882Y-3.5591
X3.489Y-3.5827
X3.489Y-3.6063
X3.489Y-3.6299
X3.489Y-3.6535
X3.489Y-3.6772
X3.5Y-3.8622
X3.5Y-3.8858
X3.5Y-3.9094
X3.5Y-3.9331
X3.5Y-3.9567
X3.5Y-3.9803
X3.5Y-4.0039
X3.5118Y-3.5827
X3.5118Y-3.6063
X3.5118Y-3.6299
X3.5118Y-3.6535
X3.5118Y-3.6772
X3.5236Y-3.8622
X3.5236Y-3.8858
X3.5236Y-3.9094
X3.5236Y-3.9331
X3.5236Y-3.9567
X3.5236Y-3.9803
X3.5236Y-4.0039
X3.5351Y-3.6048
X3.5354Y-3.6299
X3.5362Y-3.6535
X3.5362Y-3.6772
X3.5472Y-3.8622
X3.5472Y-3.8858
X3.5472Y-3.9094
X3.5472Y-3.9331
X3.5472Y-3.9567
X3.5472Y-3.9803
X3.5472Y-4.0039
X3.5583Y-3.6299
X3.5591Y-3.6535
X3.5591Y-3.6772
X3.5709Y-3.8622
X3.5709Y-3.8858
X3.5709Y-3.9094
X3.5709Y-3.9331
X3.5709Y-3.9567
X3.5709Y-3.9803
X3.5709Y-4.0039
X3.5835Y-3.6535
X3.5835Y-3.6772
X3.5945Y-3.8622
X3.5945Y-3.8858
X3.5945Y-3.9094
X3.5945Y-3.9331
X3.5945Y-3.9567
X3.5945Y-3.9803
X3.5945Y-4.0039
X3.6063Y-3.6772
X3.6181Y-3.8622
X3.6181Y-3.8858
X3.6181Y-3.9094
X3.6181Y-3.9331
X3.6181Y-3.9567
X3.6181Y-3.9803
X3.6181Y-4.0039
X3.6417Y-3.8622
X3.6417Y-3.8858
X3.6417Y-3.9094
X3.6417Y-3.9331
X3.6417Y-3.9567
X3.6417Y-3.9803
X3.6417Y-4.0039
X3.9134Y-3.5984
X3.9134Y-3.622
X3.9134Y-3.6457
X3.9134Y-3.6693
X3.9134Y-3.6929
X3.9134Y-3.7165
X3.9134Y-3.7402
X3.9134Y-3.7638
X3.9134Y-3.7874
X3.937Y-3.5984
X3.937Y-3.622
X3.937Y-3.6457
X3.937Y-3.6693
X3.937Y-3.6929
X3.937Y-3.7165
X3.937Y-3.7402
X3.937Y-3.7638
X3.937Y-3.7874
X3.9606Y-3.5984
X3.9606Y-3.622
X3.9606Y-3.6457
X3.9606Y-3.6693
X3.9606Y-3.6929
X3.9606Y-3.7165
X3.9606Y-3.7402
X3.9606Y-3.7638
X3.9606Y-3.7874
X3.9843Y-3.5984
X3.9843Y-3.622
X3.9843Y-3.6457
X3.9843Y-3.6693
X3.9843Y-3.6929
X3.9843Y-3.7165
X3.9843Y-3.7402
X3.9843Y-3.7638
X3.9843Y-3.7874
X4.0079Y-3.5984
X4.0079Y-3.622
X4.0079Y-3.6457
X4.0079Y-3.6693
X4.0079Y-3.6929
X4.0079Y-3.7165
X4.0079Y-3.7402
X4.0079Y-3.7638
X4.0079Y-3.7874
X4.0315Y-3.5984
X4.0315Y-3.622
X4.0315Y-3.6457
X4.0315Y-3.6693
X4.0315Y-3.6929
X4.0315Y-3.7165
X4.0315Y-3.7402
X4.0315Y-3.7638
X4.0315Y-3.7874
X4.0551Y-3.5984
X4.0551Y-3.622
X4.0551Y-3.6457
X4.0551Y-3.6693
X4.0551Y-3.6929
X4.0551Y-3.7165
X4.0551Y-3.7402
X4.0551Y-3.7638
X4.0551Y-3.7874
X4.0787Y-3.5984
X4.0787Y-3.622
X4.0787Y-3.6457
X4.0787Y-3.6693
X4.0787Y-3.6929
X4.0787Y-3.7165
X4.0787Y-3.7402
X4.0787Y-3.7638
X4.0787Y-3.7874
X4.1024Y-3.5984
X4.1024Y-3.622
X4.1024Y-3.6457
X4.1024Y-3.6693
X4.1024Y-3.6929
X4.1024Y-3.7165
X4.1024Y-3.7402
X4.1024Y-3.7638
X4.1024Y-3.7874
T2
X2.5472Y-3.5157
X2.6465Y-3.3315
X2.735Y-3.2122
X2.7787Y-3.5555
X2.811Y-3.9055
X2.8291Y-3.2398
X2.9205Y-3.3638
X2.9228Y-3.2996
X2.9331Y-3.1535
X2.9409Y-3.4228
X3.0327Y-3.3213
X3.0551Y-3.4252
X3.0551Y-3.4803
X3.1339Y-3.6496
X3.1402Y-3.5839
X3.1579Y-3.5035
X3.1634Y-3.1764
X3.185Y-2.622
X3.2913Y-3.4646
X3.3543Y-3.4252
X3.3622Y-3.185
X3.4055Y-3.2756
X3.5354Y-3.378
X3.729Y-3.5984
X3.7402Y-3.8031
X3.748Y-3.752
X3.7795Y-3.2283
X3.7795Y-3.3465
X4.1339Y-3.3858
X4.1457Y-3.2874
X4.2165Y-3.878
X4.2205Y-3.2441
X4.2795Y-3.6181
X4.2874Y-3.563
X4.2913Y-3.6811
X4.3083Y-2.9996
X4.3307Y-3.8425
X4.8031Y-2.9134
X4.8732Y-3.2992
X4.9063Y-3.1102
X5.1181Y-4.0118
X5.252Y-4.0591
T3
X4.4409Y-3.0551
X4.4409Y-3.1551
X4.4409Y-3.2551
X4.4409Y-3.3551
X4.7409Y-3.0551
X4.7409Y-3.1551
X4.7409Y-3.2551
X4.7409Y-3.3551
T4
X3.737Y-2.7441
X3.7772Y-2.8142
X3.8173Y-2.7441
X3.8575Y-2.8142
X3.8976Y-2.7441
X3.9378Y-2.8142
X3.978Y-2.7441
X4.0181Y-2.8142
T5
X1.9717Y-3.8217
X2.6504Y-3.1988
X3.5748Y-4.0945
X3.6185Y-3.3114
X3.6256Y-3.5173
X3.8031Y-4.0945
X4.3441Y-4.1104
X4.4441Y-4.0944
X4.5441Y-4.1104
X4.6441Y-4.0944
X4.7441Y-4.1104
X4.8441Y-4.0944
X4.9441Y-4.1104
T7
X4.4331Y-3.7323
X4.6181Y-3.7323
X4.8031Y-3.7323
T5
G00X2.5138Y-2.7795
M15
G01X2.4626Y-2.7795
M16
G05
G00X2.5276Y-3.0157
M15
G01X2.4488Y-3.0157
M16
G05
T6
G00X5.0344Y-2.9311
M15
G01X5.0619Y-2.9311
M16
G05
G00X5.0344Y-3.1476
M15
G01X5.0619Y-3.1476
M16
G05
G00X5.0344Y-3.2579
M15
G01X5.0619Y-3.2579
M16
G05
G00X5.0344Y-3.4744
M15
G01X5.0619Y-3.4744
M16
G05
G00X5.0344Y-3.5846
M15
G01X5.0619Y-3.5846
M16
G05
G00X5.0344Y-3.8012
M15
G01X5.0619Y-3.8012
M16
G05
G00X5.243Y-2.9803
M15
G01X5.2706Y-2.9803
M16
G05
G00X5.243Y-3.3071
M15
G01X5.2706Y-3.3071
M16
G05
G00X5.243Y-3.6339
M15
G01X5.2706Y-3.6339
M16
G05
T0
M30
