%TF.GenerationSoftware,KiCad,Pcbnew,7.0.6*%
%TF.CreationDate,2023-09-15T11:23:23-07:00*%
%TF.ProjectId,dmxRx,646d7852-782e-46b6-9963-61645f706362,rev?*%
%TF.SameCoordinates,Original*%
%TF.FileFunction,Paste,Top*%
%TF.FilePolarity,Positive*%
%FSLAX46Y46*%
G04 Gerber Fmt 4.6, Leading zero omitted, Abs format (unit mm)*
G04 Created by KiCad (PCBNEW 7.0.6) date 2023-09-15 11:23:23*
%MOMM*%
%LPD*%
G01*
G04 APERTURE LIST*
G04 Aperture macros list*
%AMRoundRect*
0 Rectangle with rounded corners*
0 $1 Rounding radius*
0 $2 $3 $4 $5 $6 $7 $8 $9 X,Y pos of 4 corners*
0 Add a 4 corners polygon primitive as box body*
4,1,4,$2,$3,$4,$5,$6,$7,$8,$9,$2,$3,0*
0 Add four circle primitives for the rounded corners*
1,1,$1+$1,$2,$3*
1,1,$1+$1,$4,$5*
1,1,$1+$1,$6,$7*
1,1,$1+$1,$8,$9*
0 Add four rect primitives between the rounded corners*
20,1,$1+$1,$2,$3,$4,$5,0*
20,1,$1+$1,$4,$5,$6,$7,0*
20,1,$1+$1,$6,$7,$8,$9,0*
20,1,$1+$1,$8,$9,$2,$3,0*%
G04 Aperture macros list end*
%ADD10RoundRect,0.160000X-0.197500X-0.160000X0.197500X-0.160000X0.197500X0.160000X-0.197500X0.160000X0*%
%ADD11RoundRect,0.160000X-0.160000X0.197500X-0.160000X-0.197500X0.160000X-0.197500X0.160000X0.197500X0*%
%ADD12RoundRect,0.250000X0.650000X-0.412500X0.650000X0.412500X-0.650000X0.412500X-0.650000X-0.412500X0*%
%ADD13RoundRect,0.237500X0.237500X-0.300000X0.237500X0.300000X-0.237500X0.300000X-0.237500X-0.300000X0*%
%ADD14RoundRect,0.155000X0.155000X-0.212500X0.155000X0.212500X-0.155000X0.212500X-0.155000X-0.212500X0*%
%ADD15RoundRect,0.090000X-0.139000X-0.090000X0.139000X-0.090000X0.139000X0.090000X-0.139000X0.090000X0*%
%ADD16RoundRect,0.160000X0.160000X-0.197500X0.160000X0.197500X-0.160000X0.197500X-0.160000X-0.197500X0*%
%ADD17RoundRect,0.250000X0.475000X-0.337500X0.475000X0.337500X-0.475000X0.337500X-0.475000X-0.337500X0*%
%ADD18RoundRect,0.160000X0.197500X0.160000X-0.197500X0.160000X-0.197500X-0.160000X0.197500X-0.160000X0*%
%ADD19R,1.400000X1.050000*%
%ADD20RoundRect,0.155000X0.212500X0.155000X-0.212500X0.155000X-0.212500X-0.155000X0.212500X-0.155000X0*%
%ADD21RoundRect,0.237500X-0.237500X0.250000X-0.237500X-0.250000X0.237500X-0.250000X0.237500X0.250000X0*%
%ADD22RoundRect,0.250000X-0.350000X-0.450000X0.350000X-0.450000X0.350000X0.450000X-0.350000X0.450000X0*%
%ADD23RoundRect,0.250000X-1.100000X0.412500X-1.100000X-0.412500X1.100000X-0.412500X1.100000X0.412500X0*%
%ADD24R,1.460500X0.558800*%
%ADD25RoundRect,0.237500X0.300000X0.237500X-0.300000X0.237500X-0.300000X-0.237500X0.300000X-0.237500X0*%
%ADD26R,1.346200X0.279400*%
%ADD27R,0.279400X1.346200*%
%ADD28R,0.711200X0.254000*%
%ADD29R,0.254000X0.711200*%
%ADD30R,4.851400X2.362200*%
%ADD31R,2.133600X2.692400*%
%ADD32R,2.387600X2.692400*%
%ADD33R,0.762000X2.032000*%
%ADD34RoundRect,0.155000X-0.155000X0.212500X-0.155000X-0.212500X0.155000X-0.212500X0.155000X0.212500X0*%
%ADD35R,2.930000X5.500000*%
%ADD36RoundRect,0.237500X-0.250000X-0.237500X0.250000X-0.237500X0.250000X0.237500X-0.250000X0.237500X0*%
G04 APERTURE END LIST*
D10*
%TO.C,R17*%
X159772500Y-99280000D03*
X160967500Y-99280000D03*
%TD*%
D11*
%TO.C,R8*%
X177200000Y-114002500D03*
X177200000Y-115197500D03*
%TD*%
D12*
%TO.C,C11*%
X187021399Y-125741101D03*
X187021399Y-122616101D03*
%TD*%
D13*
%TO.C,C10*%
X184621399Y-111241101D03*
X184621399Y-109516101D03*
%TD*%
D14*
%TO.C,C18*%
X185070000Y-93167500D03*
X185070000Y-92032500D03*
%TD*%
D15*
%TO.C,D1*%
X157557500Y-99200000D03*
X158422500Y-99200000D03*
%TD*%
D16*
%TO.C,R1*%
X187221399Y-111176101D03*
X187221399Y-109981101D03*
%TD*%
D17*
%TO.C,C3*%
X172821399Y-115016101D03*
X172821399Y-112941101D03*
%TD*%
D18*
%TO.C,R20*%
X160827500Y-103700000D03*
X159632500Y-103700000D03*
%TD*%
D10*
%TO.C,R19*%
X159632500Y-102600000D03*
X160827500Y-102600000D03*
%TD*%
%TO.C,R16*%
X170402500Y-84870000D03*
X171597500Y-84870000D03*
%TD*%
D11*
%TO.C,R4*%
X188621399Y-113783601D03*
X188621399Y-114978601D03*
%TD*%
D19*
%TO.C,SW2*%
X159000000Y-80775000D03*
X162600000Y-80775000D03*
X159000000Y-82225000D03*
X162600000Y-82225000D03*
%TD*%
D15*
%TO.C,D2*%
X157367500Y-102600000D03*
X158232500Y-102600000D03*
%TD*%
D20*
%TO.C,C19*%
X184067500Y-102700000D03*
X182932500Y-102700000D03*
%TD*%
D21*
%TO.C,R13*%
X184621399Y-118266101D03*
X184621399Y-120091101D03*
%TD*%
D22*
%TO.C,R14*%
X172021399Y-131978601D03*
X174021399Y-131978601D03*
%TD*%
D23*
%TO.C,C8*%
X167021399Y-124416101D03*
X167021399Y-127541101D03*
%TD*%
D24*
%TO.C,U3*%
X175575850Y-102695000D03*
X175575850Y-103965000D03*
X175575850Y-105235000D03*
X175575850Y-106505000D03*
X181024150Y-106505000D03*
X181024150Y-105235000D03*
X181024150Y-103965000D03*
X181024150Y-102695000D03*
%TD*%
D25*
%TO.C,C16*%
X169883899Y-131978601D03*
X168158899Y-131978601D03*
%TD*%
D12*
%TO.C,C12*%
X184421399Y-125703601D03*
X184421399Y-122578601D03*
%TD*%
D17*
%TO.C,C14*%
X189421399Y-125816101D03*
X189421399Y-123741101D03*
%TD*%
D21*
%TO.C,R7*%
X170621399Y-113266101D03*
X170621399Y-115091101D03*
%TD*%
%TO.C,R15*%
X184621399Y-113266101D03*
X184621399Y-115091101D03*
%TD*%
D25*
%TO.C,C4*%
X168483899Y-119653600D03*
X166758899Y-119653600D03*
%TD*%
D13*
%TO.C,C1*%
X175021399Y-115041101D03*
X175021399Y-113316101D03*
%TD*%
D21*
%TO.C,R9*%
X180621399Y-109266101D03*
X180621399Y-111091101D03*
%TD*%
D26*
%TO.C,U1*%
X174081700Y-89130000D03*
X174081700Y-89629999D03*
X174081700Y-90130001D03*
X174081700Y-90630000D03*
X174081700Y-91129999D03*
X174081700Y-91630000D03*
X174081700Y-92130000D03*
X174081700Y-92630001D03*
X174081700Y-93130000D03*
X174081700Y-93629999D03*
X174081700Y-94130001D03*
X174081700Y-94630000D03*
D27*
X175510000Y-96058300D03*
X176009999Y-96058300D03*
X176510001Y-96058300D03*
X177010000Y-96058300D03*
X177509999Y-96058300D03*
X178010000Y-96058300D03*
X178510000Y-96058300D03*
X179010001Y-96058300D03*
X179510000Y-96058300D03*
X180009999Y-96058300D03*
X180510001Y-96058300D03*
X181010000Y-96058300D03*
D26*
X182438300Y-94630000D03*
X182438300Y-94130001D03*
X182438300Y-93629999D03*
X182438300Y-93130000D03*
X182438300Y-92630001D03*
X182438300Y-92130000D03*
X182438300Y-91630000D03*
X182438300Y-91129999D03*
X182438300Y-90630000D03*
X182438300Y-90130001D03*
X182438300Y-89629999D03*
X182438300Y-89130000D03*
D27*
X181010000Y-87701700D03*
X180510001Y-87701700D03*
X180009999Y-87701700D03*
X179510000Y-87701700D03*
X179010001Y-87701700D03*
X178510000Y-87701700D03*
X178010000Y-87701700D03*
X177509999Y-87701700D03*
X177010000Y-87701700D03*
X176510001Y-87701700D03*
X176009999Y-87701700D03*
X175510000Y-87701700D03*
%TD*%
D28*
%TO.C,U2*%
X173528599Y-118178601D03*
X173528599Y-118828599D03*
X173528599Y-119478601D03*
X173528599Y-120128599D03*
X173528599Y-120778601D03*
X173528599Y-121428599D03*
X173528599Y-122078601D03*
X173528599Y-122728599D03*
D29*
X174200000Y-123400000D03*
X174849998Y-123400000D03*
X175500000Y-123400000D03*
X176149998Y-123400000D03*
X176800000Y-123400000D03*
X177449998Y-123400000D03*
X178100000Y-123400000D03*
X178749998Y-123400000D03*
D28*
X179421399Y-122728599D03*
X179421399Y-122078601D03*
X179421399Y-121428599D03*
X179421399Y-120778601D03*
X179421399Y-120128599D03*
X179421399Y-119478601D03*
X179421399Y-118828599D03*
X179421399Y-118178601D03*
D29*
X178749998Y-117507200D03*
X178100000Y-117507200D03*
X177449998Y-117507200D03*
X176800000Y-117507200D03*
X176149998Y-117507200D03*
X175500000Y-117507200D03*
X174849998Y-117507200D03*
X174200000Y-117507200D03*
D30*
X176474999Y-119208600D03*
D31*
X174694999Y-121948600D03*
D32*
X177169999Y-121948600D03*
D33*
X178949999Y-122273600D03*
%TD*%
D34*
%TO.C,C17*%
X171140000Y-90882500D03*
X171140000Y-92017500D03*
%TD*%
D16*
%TO.C,R5*%
X169021399Y-115176101D03*
X169021399Y-113981101D03*
%TD*%
D11*
%TO.C,R3*%
X188621399Y-109981101D03*
X188621399Y-111176101D03*
%TD*%
D23*
%TO.C,C9*%
X170221399Y-124416101D03*
X170221399Y-127541101D03*
%TD*%
%TO.C,C6*%
X163221399Y-124416101D03*
X163221399Y-127541101D03*
%TD*%
D13*
%TO.C,C2*%
X180621399Y-115041101D03*
X180621399Y-113316101D03*
%TD*%
D17*
%TO.C,C15*%
X191621399Y-125816101D03*
X191621399Y-123741101D03*
%TD*%
D13*
%TO.C,C5*%
X182621399Y-120041101D03*
X182621399Y-118316101D03*
%TD*%
D35*
%TO.C,L1*%
X177130000Y-130500000D03*
X182670000Y-130500000D03*
%TD*%
D10*
%TO.C,R12*%
X170023899Y-119853600D03*
X171218899Y-119853600D03*
%TD*%
D22*
%TO.C,FB1*%
X164167799Y-122053600D03*
X166167799Y-122053600D03*
%TD*%
D36*
%TO.C,R10*%
X169196399Y-117378601D03*
X171021399Y-117378601D03*
%TD*%
D11*
%TO.C,R2*%
X187221399Y-113781101D03*
X187221399Y-114976101D03*
%TD*%
D12*
%TO.C,C13*%
X181821399Y-125703601D03*
X181821399Y-122578601D03*
%TD*%
D21*
%TO.C,R6*%
X182621399Y-113266101D03*
X182621399Y-115091101D03*
%TD*%
D18*
%TO.C,R18*%
X160977500Y-100510000D03*
X159782500Y-100510000D03*
%TD*%
M02*
