%TF.GenerationSoftware,KiCad,Pcbnew,7.0.6*%
%TF.CreationDate,2023-08-31T11:47:23-07:00*%
%TF.ProjectId,dmxTx,646d7854-782e-46b6-9963-61645f706362,rev?*%
%TF.SameCoordinates,Original*%
%TF.FileFunction,Soldermask,Top*%
%TF.FilePolarity,Negative*%
%FSLAX46Y46*%
G04 Gerber Fmt 4.6, Leading zero omitted, Abs format (unit mm)*
G04 Created by KiCad (PCBNEW 7.0.6) date 2023-08-31 11:47:23*
%MOMM*%
%LPD*%
G01*
G04 APERTURE LIST*
G04 Aperture macros list*
%AMRoundRect*
0 Rectangle with rounded corners*
0 $1 Rounding radius*
0 $2 $3 $4 $5 $6 $7 $8 $9 X,Y pos of 4 corners*
0 Add a 4 corners polygon primitive as box body*
4,1,4,$2,$3,$4,$5,$6,$7,$8,$9,$2,$3,0*
0 Add four circle primitives for the rounded corners*
1,1,$1+$1,$2,$3*
1,1,$1+$1,$4,$5*
1,1,$1+$1,$6,$7*
1,1,$1+$1,$8,$9*
0 Add four rect primitives between the rounded corners*
20,1,$1+$1,$2,$3,$4,$5,0*
20,1,$1+$1,$4,$5,$6,$7,0*
20,1,$1+$1,$6,$7,$8,$9,0*
20,1,$1+$1,$8,$9,$2,$3,0*%
G04 Aperture macros list end*
%ADD10RoundRect,0.160000X-0.160000X0.197500X-0.160000X-0.197500X0.160000X-0.197500X0.160000X0.197500X0*%
%ADD11R,1.430000X5.500000*%
%ADD12RoundRect,0.155000X0.155000X-0.212500X0.155000X0.212500X-0.155000X0.212500X-0.155000X-0.212500X0*%
%ADD13R,1.346200X0.279400*%
%ADD14R,0.279400X1.346200*%
%ADD15RoundRect,0.160000X-0.197500X-0.160000X0.197500X-0.160000X0.197500X0.160000X-0.197500X0.160000X0*%
%ADD16RoundRect,0.155000X-0.155000X0.212500X-0.155000X-0.212500X0.155000X-0.212500X0.155000X0.212500X0*%
%ADD17C,1.000000*%
%ADD18C,1.600000*%
%ADD19RoundRect,0.250000X0.475000X-0.337500X0.475000X0.337500X-0.475000X0.337500X-0.475000X-0.337500X0*%
%ADD20RoundRect,0.250000X0.650000X-0.412500X0.650000X0.412500X-0.650000X0.412500X-0.650000X-0.412500X0*%
%ADD21RoundRect,0.237500X0.300000X0.237500X-0.300000X0.237500X-0.300000X-0.237500X0.300000X-0.237500X0*%
%ADD22RoundRect,0.160000X0.197500X0.160000X-0.197500X0.160000X-0.197500X-0.160000X0.197500X-0.160000X0*%
%ADD23O,2.000000X3.500000*%
%ADD24R,4.000000X2.000000*%
%ADD25O,3.300000X2.000000*%
%ADD26O,2.500000X1.800000*%
%ADD27R,3.150000X1.960000*%
%ADD28C,3.200000*%
%ADD29RoundRect,0.237500X0.237500X-0.300000X0.237500X0.300000X-0.237500X0.300000X-0.237500X-0.300000X0*%
%ADD30R,1.600000X1.600000*%
%ADD31O,1.600000X1.600000*%
%ADD32RoundRect,0.237500X-0.287500X-0.237500X0.287500X-0.237500X0.287500X0.237500X-0.287500X0.237500X0*%
%ADD33C,2.000000*%
%ADD34RoundRect,0.237500X-0.237500X0.250000X-0.237500X-0.250000X0.237500X-0.250000X0.237500X0.250000X0*%
%ADD35RoundRect,0.250000X-1.100000X0.412500X-1.100000X-0.412500X1.100000X-0.412500X1.100000X0.412500X0*%
%ADD36RoundRect,0.155000X-0.212500X-0.155000X0.212500X-0.155000X0.212500X0.155000X-0.212500X0.155000X0*%
%ADD37R,1.460500X0.558800*%
%ADD38RoundRect,0.160000X0.160000X-0.197500X0.160000X0.197500X-0.160000X0.197500X-0.160000X-0.197500X0*%
%ADD39RoundRect,0.237500X-0.250000X-0.237500X0.250000X-0.237500X0.250000X0.237500X-0.250000X0.237500X0*%
%ADD40RoundRect,0.250000X-0.350000X-0.450000X0.350000X-0.450000X0.350000X0.450000X-0.350000X0.450000X0*%
%ADD41R,1.400000X1.050000*%
%ADD42R,0.711200X0.254000*%
%ADD43R,0.254000X0.711200*%
%ADD44R,4.851400X2.362200*%
%ADD45R,2.133600X2.692400*%
%ADD46R,2.387600X2.692400*%
%ADD47R,0.762000X2.032000*%
%ADD48R,1.700000X1.700000*%
%ADD49O,1.700000X1.700000*%
%ADD50C,3.700000*%
%ADD51RoundRect,0.155000X0.212500X0.155000X-0.212500X0.155000X-0.212500X-0.155000X0.212500X-0.155000X0*%
G04 APERTURE END LIST*
D10*
%TO.C,R3*%
X88900000Y-80902500D03*
X88900000Y-82097500D03*
%TD*%
D11*
%TO.C,L1*%
X76680000Y-102500000D03*
X80720000Y-102500000D03*
%TD*%
D12*
%TO.C,C21*%
X122680000Y-86367500D03*
X122680000Y-85232500D03*
%TD*%
D13*
%TO.C,U2*%
X97621700Y-91050000D03*
X97621700Y-91549999D03*
X97621700Y-92050001D03*
X97621700Y-92550000D03*
X97621700Y-93049999D03*
X97621700Y-93550000D03*
X97621700Y-94050000D03*
X97621700Y-94550001D03*
X97621700Y-95050000D03*
X97621700Y-95549999D03*
X97621700Y-96050001D03*
X97621700Y-96550000D03*
D14*
X99050000Y-97978300D03*
X99549999Y-97978300D03*
X100050001Y-97978300D03*
X100550000Y-97978300D03*
X101049999Y-97978300D03*
X101550000Y-97978300D03*
X102050000Y-97978300D03*
X102550001Y-97978300D03*
X103050000Y-97978300D03*
X103549999Y-97978300D03*
X104050001Y-97978300D03*
X104550000Y-97978300D03*
D13*
X105978300Y-96550000D03*
X105978300Y-96050001D03*
X105978300Y-95549999D03*
X105978300Y-95050000D03*
X105978300Y-94550001D03*
X105978300Y-94050000D03*
X105978300Y-93550000D03*
X105978300Y-93049999D03*
X105978300Y-92550000D03*
X105978300Y-92050001D03*
X105978300Y-91549999D03*
X105978300Y-91050000D03*
D14*
X104550000Y-89621700D03*
X104050001Y-89621700D03*
X103549999Y-89621700D03*
X103050000Y-89621700D03*
X102550001Y-89621700D03*
X102050000Y-89621700D03*
X101550000Y-89621700D03*
X101049999Y-89621700D03*
X100550000Y-89621700D03*
X100050001Y-89621700D03*
X99549999Y-89621700D03*
X99050000Y-89621700D03*
%TD*%
D15*
%TO.C,R17*%
X77902500Y-67700000D03*
X79097500Y-67700000D03*
%TD*%
D16*
%TO.C,C18*%
X108000000Y-92732500D03*
X108000000Y-93867500D03*
%TD*%
D17*
%TO.C,CON1*%
X92125000Y-74020000D03*
X104825000Y-74020000D03*
D18*
X94920000Y-69700000D03*
X95940000Y-71480000D03*
X96960000Y-69700000D03*
X97980000Y-71480000D03*
X99000000Y-69700000D03*
X100020000Y-71480000D03*
X101040000Y-69700000D03*
X102060000Y-71480000D03*
%TD*%
D19*
%TO.C,C3*%
X70700000Y-85537500D03*
X70700000Y-83462500D03*
%TD*%
D20*
%TO.C,C13*%
X80100000Y-97362500D03*
X80100000Y-94237500D03*
%TD*%
D21*
%TO.C,C4*%
X65825000Y-91000000D03*
X64100000Y-91000000D03*
%TD*%
D22*
%TO.C,R22*%
X125417500Y-88260000D03*
X124222500Y-88260000D03*
%TD*%
D23*
%TO.C,J3*%
X67700000Y-69600000D03*
D18*
X63200000Y-67600000D03*
D23*
X58700000Y-69600000D03*
D24*
X63200000Y-76600000D03*
D25*
X63200000Y-70600000D03*
%TD*%
D17*
%TO.C,J6*%
X137622500Y-77200000D03*
X130122500Y-77200000D03*
D26*
X133522500Y-75700000D03*
X128222500Y-79950000D03*
X128222500Y-74450000D03*
%TD*%
D27*
%TO.C,F2*%
X57750000Y-83840000D03*
X57750000Y-88750000D03*
%TD*%
D28*
%TO.C,H1*%
X52000000Y-68000000D03*
%TD*%
D29*
%TO.C,C5*%
X81100000Y-91762500D03*
X81100000Y-90037500D03*
%TD*%
D30*
%TO.C,U4*%
X112800000Y-77600000D03*
D31*
X112800000Y-80140000D03*
X112800000Y-82680000D03*
X112800000Y-85220000D03*
X120420000Y-85220000D03*
X120420000Y-82680000D03*
X120420000Y-80140000D03*
X120420000Y-77600000D03*
%TD*%
D15*
%TO.C,R12*%
X67662500Y-91300000D03*
X68857500Y-91300000D03*
%TD*%
D32*
%TO.C,D2*%
X74125000Y-71800000D03*
X75875000Y-71800000D03*
%TD*%
D20*
%TO.C,C11*%
X85900000Y-97062500D03*
X85900000Y-93937500D03*
%TD*%
D33*
%TO.C,TP10*%
X96600000Y-104000000D03*
%TD*%
D29*
%TO.C,C1*%
X72900000Y-85562500D03*
X72900000Y-83837500D03*
%TD*%
D34*
%TO.C,R9*%
X79000000Y-80687500D03*
X79000000Y-82512500D03*
%TD*%
D15*
%TO.C,R19*%
X77902500Y-71800000D03*
X79097500Y-71800000D03*
%TD*%
D28*
%TO.C,H3*%
X138000000Y-68000000D03*
%TD*%
D35*
%TO.C,C9*%
X68100000Y-96837500D03*
X68100000Y-99962500D03*
%TD*%
D34*
%TO.C,R15*%
X83600000Y-84887500D03*
X83600000Y-86712500D03*
%TD*%
D10*
%TO.C,R4*%
X88600000Y-85802500D03*
X88600000Y-86997500D03*
%TD*%
D17*
%TO.C,J8*%
X137622500Y-93800000D03*
X130122500Y-93800000D03*
D26*
X133522500Y-92300000D03*
X128222500Y-96550000D03*
X128222500Y-91050000D03*
%TD*%
D36*
%TO.C,C22*%
X122632500Y-82700000D03*
X123767500Y-82700000D03*
%TD*%
D16*
%TO.C,C23*%
X110930000Y-76382500D03*
X110930000Y-77517500D03*
%TD*%
D34*
%TO.C,R6*%
X81300000Y-84887500D03*
X81300000Y-86712500D03*
%TD*%
D37*
%TO.C,U3*%
X97575850Y-82395000D03*
X97575850Y-83665000D03*
X97575850Y-84935000D03*
X97575850Y-86205000D03*
X103024150Y-86205000D03*
X103024150Y-84935000D03*
X103024150Y-83665000D03*
X103024150Y-82395000D03*
%TD*%
D34*
%TO.C,R13*%
X83400000Y-89987500D03*
X83400000Y-91812500D03*
%TD*%
D35*
%TO.C,C8*%
X63800000Y-96837500D03*
X63800000Y-99962500D03*
%TD*%
D16*
%TO.C,C19*%
X95600000Y-92632500D03*
X95600000Y-93767500D03*
%TD*%
D33*
%TO.C,TP9*%
X90800000Y-104000000D03*
%TD*%
D38*
%TO.C,R1*%
X86500000Y-82097500D03*
X86500000Y-80902500D03*
%TD*%
D39*
%TO.C,R10*%
X66987500Y-88100000D03*
X68812500Y-88100000D03*
%TD*%
D38*
%TO.C,R5*%
X66130000Y-85787500D03*
X66130000Y-84592500D03*
%TD*%
D35*
%TO.C,C6*%
X59000000Y-96837500D03*
X59000000Y-99962500D03*
%TD*%
D21*
%TO.C,C16*%
X66162500Y-103750000D03*
X64437500Y-103750000D03*
%TD*%
D10*
%TO.C,R16*%
X128600000Y-101800000D03*
X128600000Y-102995000D03*
%TD*%
D34*
%TO.C,R7*%
X68500000Y-83787500D03*
X68500000Y-85612500D03*
%TD*%
D40*
%TO.C,R14*%
X68900000Y-103750000D03*
X70900000Y-103750000D03*
%TD*%
D17*
%TO.C,J7*%
X137622500Y-85500000D03*
X130122500Y-85500000D03*
D26*
X133522500Y-84000000D03*
X128222500Y-88250000D03*
X128222500Y-82750000D03*
%TD*%
D10*
%TO.C,R2*%
X86700000Y-85802500D03*
X86700000Y-86997500D03*
%TD*%
D33*
%TO.C,TP2*%
X67320000Y-81250000D03*
%TD*%
D21*
%TO.C,C20*%
X124662500Y-77600000D03*
X122937500Y-77600000D03*
%TD*%
D29*
%TO.C,C2*%
X79000000Y-86662500D03*
X79000000Y-84937500D03*
%TD*%
D19*
%TO.C,C14*%
X88800000Y-96937500D03*
X88800000Y-94862500D03*
%TD*%
D41*
%TO.C,SW2*%
X128600000Y-104675000D03*
X132200000Y-104675000D03*
X128600000Y-106125000D03*
X132200000Y-106125000D03*
%TD*%
D10*
%TO.C,R8*%
X75940000Y-84632500D03*
X75940000Y-85827500D03*
%TD*%
D33*
%TO.C,TP3*%
X92090000Y-89340000D03*
%TD*%
%TO.C,TP1*%
X91910000Y-84110000D03*
%TD*%
D28*
%TO.C,H4*%
X138000000Y-103000000D03*
%TD*%
%TO.C,H2*%
X52000000Y-103000000D03*
%TD*%
D38*
%TO.C,R23*%
X120400000Y-74897500D03*
X120400000Y-73702500D03*
%TD*%
D42*
%TO.C,U1*%
X71900000Y-90000000D03*
X71900000Y-90649998D03*
X71900000Y-91300000D03*
X71900000Y-91949998D03*
X71900000Y-92600000D03*
X71900000Y-93249998D03*
X71900000Y-93900000D03*
X71900000Y-94549998D03*
D43*
X72571401Y-95221399D03*
X73221399Y-95221399D03*
X73871401Y-95221399D03*
X74521399Y-95221399D03*
X75171401Y-95221399D03*
X75821399Y-95221399D03*
X76471401Y-95221399D03*
X77121399Y-95221399D03*
D42*
X77792800Y-94549998D03*
X77792800Y-93900000D03*
X77792800Y-93249998D03*
X77792800Y-92600000D03*
X77792800Y-91949998D03*
X77792800Y-91300000D03*
X77792800Y-90649998D03*
X77792800Y-90000000D03*
D43*
X77121399Y-89328599D03*
X76471401Y-89328599D03*
X75821399Y-89328599D03*
X75171401Y-89328599D03*
X74521399Y-89328599D03*
X73871401Y-89328599D03*
X73221399Y-89328599D03*
X72571401Y-89328599D03*
D44*
X74846400Y-91029999D03*
D45*
X73066400Y-93769999D03*
D46*
X75541400Y-93769999D03*
D47*
X77321400Y-94094999D03*
%TD*%
D29*
%TO.C,C10*%
X83600000Y-82462500D03*
X83600000Y-80737500D03*
%TD*%
D20*
%TO.C,C12*%
X83000000Y-97062500D03*
X83000000Y-93937500D03*
%TD*%
D48*
%TO.C,J1*%
X110340000Y-104403200D03*
D49*
X112880000Y-103996800D03*
X115420000Y-104403200D03*
X117960000Y-103996800D03*
X120500000Y-104403200D03*
X123040000Y-103996800D03*
X125580000Y-104403200D03*
%TD*%
D38*
%TO.C,R11*%
X124820000Y-86367500D03*
X124820000Y-85172500D03*
%TD*%
D50*
%TO.C,SW1*%
X112600000Y-94800000D03*
X117300000Y-94800000D03*
X122000000Y-94800000D03*
%TD*%
D33*
%TO.C,TP5*%
X50080000Y-97070000D03*
%TD*%
D32*
%TO.C,D1*%
X74125000Y-67700000D03*
X75875000Y-67700000D03*
%TD*%
D51*
%TO.C,C17*%
X106067500Y-82400000D03*
X104932500Y-82400000D03*
%TD*%
D40*
%TO.C,FB1*%
X60100000Y-93800000D03*
X62100000Y-93800000D03*
%TD*%
D38*
%TO.C,R20*%
X77900000Y-74297500D03*
X77900000Y-73102500D03*
%TD*%
D22*
%TO.C,R18*%
X79097500Y-69200000D03*
X77902500Y-69200000D03*
%TD*%
D19*
%TO.C,C15*%
X91300000Y-96937500D03*
X91300000Y-94862500D03*
%TD*%
M02*
