%TF.GenerationSoftware,KiCad,Pcbnew,7.0.6*%
%TF.CreationDate,2023-08-31T11:47:23-07:00*%
%TF.ProjectId,dmxTx,646d7854-782e-46b6-9963-61645f706362,rev?*%
%TF.SameCoordinates,Original*%
%TF.FileFunction,Soldermask,Bot*%
%TF.FilePolarity,Negative*%
%FSLAX46Y46*%
G04 Gerber Fmt 4.6, Leading zero omitted, Abs format (unit mm)*
G04 Created by KiCad (PCBNEW 7.0.6) date 2023-08-31 11:47:23*
%MOMM*%
%LPD*%
G01*
G04 APERTURE LIST*
%ADD10C,1.000000*%
%ADD11C,1.600000*%
%ADD12O,2.000000X3.500000*%
%ADD13R,4.000000X2.000000*%
%ADD14O,3.300000X2.000000*%
%ADD15O,2.500000X1.800000*%
%ADD16C,3.200000*%
%ADD17R,1.600000X1.600000*%
%ADD18O,1.600000X1.600000*%
%ADD19C,2.000000*%
%ADD20R,1.700000X1.700000*%
%ADD21O,1.700000X1.700000*%
%ADD22C,3.700000*%
%ADD23R,1.960000X3.150000*%
G04 APERTURE END LIST*
D10*
%TO.C,CON1*%
X92125000Y-74020000D03*
X104825000Y-74020000D03*
D11*
X94920000Y-69700000D03*
X95940000Y-71480000D03*
X96960000Y-69700000D03*
X97980000Y-71480000D03*
X99000000Y-69700000D03*
X100020000Y-71480000D03*
X101040000Y-69700000D03*
X102060000Y-71480000D03*
%TD*%
D12*
%TO.C,J3*%
X67700000Y-69600000D03*
D11*
X63200000Y-67600000D03*
D12*
X58700000Y-69600000D03*
D13*
X63200000Y-76600000D03*
D14*
X63200000Y-70600000D03*
%TD*%
D10*
%TO.C,J6*%
X137622500Y-77200000D03*
X130122500Y-77200000D03*
D15*
X133522500Y-75700000D03*
X128222500Y-79950000D03*
X128222500Y-74450000D03*
%TD*%
D16*
%TO.C,H1*%
X52000000Y-68000000D03*
%TD*%
D17*
%TO.C,U4*%
X112800000Y-77600000D03*
D18*
X112800000Y-80140000D03*
X112800000Y-82680000D03*
X112800000Y-85220000D03*
X120420000Y-85220000D03*
X120420000Y-82680000D03*
X120420000Y-80140000D03*
X120420000Y-77600000D03*
%TD*%
D19*
%TO.C,TP10*%
X96600000Y-104000000D03*
%TD*%
D16*
%TO.C,H3*%
X138000000Y-68000000D03*
%TD*%
D10*
%TO.C,J8*%
X137622500Y-93800000D03*
X130122500Y-93800000D03*
D15*
X133522500Y-92300000D03*
X128222500Y-96550000D03*
X128222500Y-91050000D03*
%TD*%
D19*
%TO.C,TP9*%
X90800000Y-104000000D03*
%TD*%
D10*
%TO.C,J7*%
X137622500Y-85500000D03*
X130122500Y-85500000D03*
D15*
X133522500Y-84000000D03*
X128222500Y-88250000D03*
X128222500Y-82750000D03*
%TD*%
D19*
%TO.C,TP2*%
X67320000Y-81250000D03*
%TD*%
%TO.C,TP3*%
X92090000Y-89340000D03*
%TD*%
%TO.C,TP1*%
X91910000Y-84110000D03*
%TD*%
D16*
%TO.C,H4*%
X138000000Y-103000000D03*
%TD*%
%TO.C,H2*%
X52000000Y-103000000D03*
%TD*%
D20*
%TO.C,J1*%
X110340000Y-104403200D03*
D21*
X112880000Y-103996800D03*
X115420000Y-104403200D03*
X117960000Y-103996800D03*
X120500000Y-104403200D03*
X123040000Y-103996800D03*
X125580000Y-104403200D03*
%TD*%
D22*
%TO.C,SW1*%
X112600000Y-94800000D03*
X117300000Y-94800000D03*
X122000000Y-94800000D03*
%TD*%
D19*
%TO.C,TP5*%
X50080000Y-97070000D03*
%TD*%
D23*
%TO.C,F1*%
X76545000Y-71250000D03*
X81455000Y-71250000D03*
%TD*%
M02*
